<svg width="1420" height="491" viewBox="0 0 1420 491" fill="none" xmlns="http://www.w3.org/2000/svg">
<mask id="mask0_31682_38815" style="mask-type:alpha" maskUnits="userSpaceOnUse" x="0" y="3" width="1420" height="488">
<rect y="3" width="1420" height="488" fill="#D9D9D9"/>
</mask>
<g mask="url(#mask0_31682_38815)">
<rect x="-1.5" y="61.5" width="1423" height="1415" rx="707.5" fill="url(#paint0_linear_31682_38815)" stroke="#F5F5F7"/>
<rect x="243.5" y="220.5" width="933" height="933" rx="466.5" fill="url(#paint1_linear_31682_38815)" stroke="#F5F5F7"/>
<rect x="440.5" y="370.5" width="539" height="539" rx="269.5" fill="url(#paint2_linear_31682_38815)" stroke="#F5F5F7"/>
<path d="M396 338C396 335.239 398.239 333 401 333C403.761 333 406 335.239 406 338C406 340.761 403.761 343 401 343C398.239 343 396 340.761 396 338Z" fill="url(#paint3_linear_31682_38815)"/>
<path d="M755 223C755 220.239 757.239 218 760 218C762.761 218 765 220.239 765 223C765 225.761 762.761 228 760 228C757.239 228 755 225.761 755 223Z" fill="url(#paint4_linear_31682_38815)"/>
<path d="M966 300C966 297.239 968.239 295 971 295C973.761 295 976 297.239 976 300C976 302.761 973.761 305 971 305C968.239 305 966 302.761 966 300Z" fill="url(#paint5_linear_31682_38815)"/>
<path d="M1104 447C1104 444.239 1106.24 442 1109 442C1111.76 442 1114 444.239 1114 447C1114 449.761 1111.76 452 1109 452C1106.24 452 1104 449.761 1104 447Z" fill="url(#paint6_linear_31682_38815)"/>
<path d="M657 374C657 371.239 659.239 369 662 369C664.761 369 667 371.239 667 374C667 376.761 664.761 379 662 379C659.239 379 657 376.761 657 374Z" fill="url(#paint7_linear_31682_38815)"/>
<path d="M838 406C838 403.239 840.239 401 843 401C845.761 401 848 403.239 848 406C848 408.761 845.761 411 843 411C840.239 411 838 408.761 838 406Z" fill="url(#paint8_linear_31682_38815)"/>
<path d="M508 456C508 453.239 510.239 451 513 451C515.761 451 518 453.239 518 456C518 458.761 515.761 461 513 461C510.239 461 508 458.761 508 456Z" fill="url(#paint9_linear_31682_38815)"/>
<rect x="304" y="179" width="10" height="10" rx="5" fill="url(#paint10_linear_31682_38815)"/>
<path d="M940 101C940 98.2386 942.239 96 945 96C947.761 96 950 98.2386 950 101C950 103.761 947.761 106 945 106C942.239 106 940 103.761 940 101Z" fill="url(#paint11_linear_31682_38815)"/>
<path d="M678 62C678 59.2386 680.239 57 683 57C685.761 57 688 59.2386 688 62C688 64.7614 685.761 67 683 67C680.239 67 678 64.7614 678 62Z" fill="url(#paint12_linear_31682_38815)"/>
<path d="M1272 343C1272 340.239 1274.24 338 1277 338C1279.76 338 1282 340.239 1282 343C1282 345.761 1279.76 348 1277 348C1274.24 348 1272 345.761 1272 343Z" fill="url(#paint13_linear_31682_38815)"/>
<path d="M79 433C79 430.239 81.2386 428 84 428C86.7614 428 89 430.239 89 433C89 435.761 86.7614 438 84 438C81.2386 438 79 435.761 79 433Z" fill="url(#paint14_linear_31682_38815)"/>
</g>
<rect x="626" y="155" width="162" height="44" rx="22" fill="#F5F5F7"/>
<path d="M656.484 183H652.227V171.727H656.5C658.43 171.727 659.734 172.852 659.734 174.539C659.734 175.711 658.875 176.805 657.789 177V177.062C659.32 177.258 660.305 178.336 660.305 179.836C660.305 181.82 658.883 183 656.484 183ZM653.633 172.969V176.586H655.742C657.406 176.586 658.312 175.922 658.312 174.703C658.312 173.586 657.547 172.969 656.18 172.969H653.633ZM653.633 181.758H656.273C657.969 181.758 658.859 181.07 658.859 179.766C658.859 178.461 657.938 177.797 656.141 177.797H653.633V181.758ZM663.18 183H661.836V174.875H663.18V180.922H663.242L667.305 174.875H668.648V183H667.305V176.953H667.242L663.18 183ZM675.945 181.883V175.992H672.898L672.648 179.414C672.578 180.422 672.367 181.305 671.984 181.82V181.883H675.945ZM671.016 185.148H669.75V181.883H670.43C671.023 181.492 671.312 180.477 671.391 179.383L671.703 174.875H677.297V181.883H678.586V185.148H677.32V183H671.016V185.148ZM683.07 175.914C681.797 175.914 680.906 176.891 680.82 178.242H685.234C685.203 176.883 684.352 175.914 683.07 175.914ZM685.203 180.672H686.539C686.305 182.094 684.93 183.141 683.156 183.141C680.828 183.141 679.414 181.523 679.414 178.969C679.414 176.445 680.852 174.734 683.094 174.734C685.289 174.734 686.641 176.328 686.641 178.789V179.305H680.812V179.383C680.812 180.938 681.727 181.961 683.188 181.961C684.219 181.961 684.977 181.438 685.203 180.672ZM691.523 183.141C689.273 183.141 687.758 181.523 687.758 178.938C687.758 176.344 689.273 174.734 691.523 174.734C693.766 174.734 695.281 176.344 695.281 178.938C695.281 181.523 693.766 183.141 691.523 183.141ZM691.523 181.945C692.961 181.945 693.898 180.852 693.898 178.938C693.898 177.023 692.961 175.93 691.523 175.93C690.086 175.93 689.141 177.023 689.141 178.938C689.141 180.852 690.086 181.945 691.523 181.945ZM700.164 183.141C697.914 183.141 696.398 181.523 696.398 178.938C696.398 176.344 697.914 174.734 700.164 174.734C702.406 174.734 703.922 176.344 703.922 178.938C703.922 181.523 702.406 183.141 700.164 183.141ZM700.164 181.945C701.602 181.945 702.539 180.852 702.539 178.938C702.539 177.023 701.602 175.93 700.164 175.93C698.727 175.93 697.781 177.023 697.781 178.938C697.781 180.852 698.727 181.945 700.164 181.945ZM710.703 183V175.992H706.773V183H705.43V174.875H712.055V183H710.703ZM717.227 175.914C715.953 175.914 715.062 176.891 714.977 178.242H719.391C719.359 176.883 718.508 175.914 717.227 175.914ZM719.359 180.672H720.695C720.461 182.094 719.086 183.141 717.312 183.141C714.984 183.141 713.57 181.523 713.57 178.969C713.57 176.445 715.008 174.734 717.25 174.734C719.445 174.734 720.797 176.328 720.797 178.789V179.305H714.969V179.383C714.969 180.938 715.883 181.961 717.344 181.961C718.375 181.961 719.133 181.438 719.359 180.672ZM726.258 174.734C728.328 174.734 729.734 176.391 729.734 178.938C729.734 181.484 728.336 183.141 726.289 183.141C725.125 183.141 724.188 182.57 723.703 181.68H723.672V185.711H722.312V174.875H723.602V176.25H723.633C724.133 175.336 725.078 174.734 726.258 174.734ZM725.992 181.945C727.438 181.945 728.344 180.781 728.344 178.938C728.344 177.102 727.438 175.93 725.992 175.93C724.602 175.93 723.664 177.133 723.664 178.938C723.664 180.75 724.602 181.945 725.992 181.945ZM733.93 181.984C735.211 181.984 736.195 181.086 736.195 179.914V179.25L734.023 179.383C732.93 179.453 732.305 179.938 732.305 180.703C732.305 181.477 732.953 181.984 733.93 181.984ZM733.625 183.141C732.008 183.141 730.922 182.164 730.922 180.703C730.922 179.312 731.992 178.438 733.867 178.328L736.195 178.195V177.516C736.195 176.523 735.539 175.93 734.414 175.93C733.367 175.93 732.711 176.422 732.539 177.219H731.227C731.32 175.812 732.523 174.734 734.445 174.734C736.352 174.734 737.555 175.766 737.555 177.383V183H736.266V181.602H736.234C735.75 182.531 734.719 183.141 733.625 183.141ZM745.219 174.875V175.992H742.594V183H741.25V175.992H738.625V174.875H745.219ZM749.695 183.141C747.445 183.141 745.93 181.523 745.93 178.938C745.93 176.344 747.445 174.734 749.695 174.734C751.938 174.734 753.453 176.344 753.453 178.938C753.453 181.523 751.938 183.141 749.695 183.141ZM749.695 181.945C751.133 181.945 752.07 180.852 752.07 178.938C752.07 177.023 751.133 175.93 749.695 175.93C748.258 175.93 747.312 177.023 747.312 178.938C747.312 180.852 748.258 181.945 749.695 181.945ZM758.914 174.734C760.984 174.734 762.391 176.391 762.391 178.938C762.391 181.484 760.992 183.141 758.945 183.141C757.781 183.141 756.844 182.57 756.359 181.68H756.328V185.711H754.969V174.875H756.258V176.25H756.289C756.789 175.336 757.734 174.734 758.914 174.734ZM758.648 181.945C760.094 181.945 761 180.781 761 178.938C761 177.102 760.094 175.93 758.648 175.93C757.258 175.93 756.32 177.133 756.32 178.938C756.32 180.75 757.258 181.945 758.648 181.945Z" fill="#2D252F"/>
<rect x="925" y="33" width="200" height="44" rx="22" fill="#F5F5F7"/>
<path d="M962.766 61H961.453V52.3125H961.398L957.805 60.9219H956.617L953.023 52.3125H952.969V61H951.656V49.7266H953.289L957.18 59.1328H957.242L961.133 49.7266H962.766V61ZM967.578 59.9844C968.859 59.9844 969.844 59.0859 969.844 57.9141V57.25L967.672 57.3828C966.578 57.4531 965.953 57.9375 965.953 58.7031C965.953 59.4766 966.602 59.9844 967.578 59.9844ZM967.273 61.1406C965.656 61.1406 964.57 60.1641 964.57 58.7031C964.57 57.3125 965.641 56.4375 967.516 56.3281L969.844 56.1953V55.5156C969.844 54.5234 969.188 53.9297 968.062 53.9297C967.016 53.9297 966.359 54.4219 966.188 55.2188H964.875C964.969 53.8125 966.172 52.7344 968.094 52.7344C970 52.7344 971.203 53.7656 971.203 55.3828V61H969.914V59.6016H969.883C969.398 60.5312 968.367 61.1406 967.273 61.1406ZM979.805 55.375H978.461C978.227 54.5938 977.562 53.9297 976.414 53.9297C975 53.9297 974.07 55.125 974.07 56.9375C974.07 58.7969 975.016 59.9453 976.43 59.9453C977.508 59.9453 978.219 59.4141 978.477 58.5156H979.82C979.555 60.0547 978.25 61.1406 976.422 61.1406C974.164 61.1406 972.688 59.5234 972.688 56.9375C972.688 54.4062 974.156 52.7344 976.406 52.7344C978.367 52.7344 979.562 53.9922 979.805 55.375ZM987.023 52.875V53.9922H984.398V61H983.055V53.9922H980.43V52.875H987.023ZM991.391 53.9141C990.117 53.9141 989.227 54.8906 989.141 56.2422H993.555C993.523 54.8828 992.672 53.9141 991.391 53.9141ZM993.523 58.6719H994.859C994.625 60.0938 993.25 61.1406 991.477 61.1406C989.148 61.1406 987.734 59.5234 987.734 56.9688C987.734 54.4453 989.172 52.7344 991.414 52.7344C993.609 52.7344 994.961 54.3281 994.961 56.7891V57.3047H989.133V57.3828C989.133 58.9375 990.047 59.9609 991.508 59.9609C992.539 59.9609 993.297 59.4375 993.523 58.6719ZM1000.42 52.7344C1002.49 52.7344 1003.9 54.3906 1003.9 56.9375C1003.9 59.4844 1002.5 61.1406 1000.45 61.1406C999.289 61.1406 998.352 60.5703 997.867 59.6797H997.836V63.7109H996.477V52.875H997.766V54.25H997.797C998.297 53.3359 999.242 52.7344 1000.42 52.7344ZM1000.16 59.9453C1001.6 59.9453 1002.51 58.7812 1002.51 56.9375C1002.51 55.1016 1001.6 53.9297 1000.16 53.9297C998.766 53.9297 997.828 55.1328 997.828 56.9375C997.828 58.75 998.766 59.9453 1000.16 59.9453ZM1013.96 61V53.9922H1010.03V61H1008.69V52.875H1015.31V61H1013.96ZM1021.17 52.7344C1023.24 52.7344 1024.65 54.3906 1024.65 56.9375C1024.65 59.4844 1023.25 61.1406 1021.2 61.1406C1020.04 61.1406 1019.1 60.5703 1018.62 59.6797H1018.59V63.7109H1017.23V52.875H1018.52V54.25H1018.55C1019.05 53.3359 1019.99 52.7344 1021.17 52.7344ZM1020.91 59.9453C1022.35 59.9453 1023.26 58.7812 1023.26 56.9375C1023.26 55.1016 1022.35 53.9297 1020.91 53.9297C1019.52 53.9297 1018.58 55.1328 1018.58 56.9375C1018.58 58.75 1019.52 59.9453 1020.91 59.9453ZM1029.42 53.9141C1028.15 53.9141 1027.26 54.8906 1027.17 56.2422H1031.59C1031.55 54.8828 1030.7 53.9141 1029.42 53.9141ZM1031.55 58.6719H1032.89C1032.66 60.0938 1031.28 61.1406 1029.51 61.1406C1027.18 61.1406 1025.77 59.5234 1025.77 56.9688C1025.77 54.4453 1027.2 52.7344 1029.45 52.7344C1031.64 52.7344 1032.99 54.3281 1032.99 56.7891V57.3047H1027.16V57.3828C1027.16 58.9375 1028.08 59.9609 1029.54 59.9609C1030.57 59.9609 1031.33 59.4375 1031.55 58.6719ZM1037.21 61.1406C1035.43 61.1406 1034.14 60.2656 1034 58.8906H1035.38C1035.53 59.6016 1036.2 60.0156 1037.21 60.0156C1038.39 60.0156 1039.05 59.4531 1039.05 58.6641C1039.05 57.75 1038.44 57.3359 1037.21 57.3359H1035.99V56.2266H1037.21C1038.24 56.2266 1038.77 55.8359 1038.77 55.0391C1038.77 54.3594 1038.29 53.8672 1037.24 53.8672C1036.28 53.8672 1035.61 54.2812 1035.5 54.9297H1034.18C1034.35 53.5859 1035.52 52.7344 1037.24 52.7344C1039.09 52.7344 1040.1 53.625 1040.1 54.9297C1040.1 55.7578 1039.57 56.4922 1038.76 56.6797V56.7422C1039.83 56.9766 1040.38 57.6641 1040.38 58.6016C1040.38 60.1172 1039.12 61.1406 1037.21 61.1406ZM1045.2 53.9141C1043.93 53.9141 1043.04 54.8906 1042.95 56.2422H1047.37C1047.34 54.8828 1046.48 53.9141 1045.2 53.9141ZM1047.34 58.6719H1048.67C1048.44 60.0938 1047.06 61.1406 1045.29 61.1406C1042.96 61.1406 1041.55 59.5234 1041.55 56.9688C1041.55 54.4453 1042.98 52.7344 1045.23 52.7344C1047.42 52.7344 1048.77 54.3281 1048.77 56.7891V57.3047H1042.95V57.3828C1042.95 58.9375 1043.86 59.9609 1045.32 59.9609C1046.35 59.9609 1047.11 59.4375 1047.34 58.6719ZM1055.63 61V57.3438H1051.62V61H1050.28V52.875H1051.62V56.2266H1055.63V52.875H1056.98V61H1055.63ZM1064.84 52.875V53.9922H1062.21V61H1060.87V53.9922H1058.24V52.875H1064.84ZM1068.47 59.9844C1069.75 59.9844 1070.73 59.0859 1070.73 57.9141V57.25L1068.56 57.3828C1067.47 57.4531 1066.84 57.9375 1066.84 58.7031C1066.84 59.4766 1067.49 59.9844 1068.47 59.9844ZM1068.16 61.1406C1066.55 61.1406 1065.46 60.1641 1065.46 58.7031C1065.46 57.3125 1066.53 56.4375 1068.41 56.3281L1070.73 56.1953V55.5156C1070.73 54.5234 1070.08 53.9297 1068.95 53.9297C1067.91 53.9297 1067.25 54.4219 1067.08 55.2188H1065.77C1065.86 53.8125 1067.06 52.7344 1068.98 52.7344C1070.89 52.7344 1072.09 53.7656 1072.09 55.3828V61H1070.8V59.6016H1070.77C1070.29 60.5312 1069.26 61.1406 1068.16 61.1406ZM1081.81 63.1484H1080.55V61H1073.97V52.875H1075.31V59.8828H1079.17V52.875H1080.52V59.8828H1081.81V63.1484ZM1084.38 61H1083.03V52.875H1084.38V58.9219H1084.44L1088.5 52.875H1089.84V61H1088.5V54.9531H1088.44L1084.38 61ZM1093.09 61H1091.75V52.875H1093.09V58.9219H1093.16L1097.22 52.875H1098.56V61H1097.22V54.9531H1097.16L1093.09 61ZM1092.79 49.3594H1093.79C1093.79 50.2656 1094.38 50.9766 1095.3 50.9766C1096.23 50.9766 1096.82 50.2656 1096.82 49.3594H1097.82C1097.82 50.7969 1096.8 51.7812 1095.3 51.7812C1093.81 51.7812 1092.79 50.7969 1092.79 49.3594Z" fill="#2D252F"/>
<rect x="200" y="119" width="122" height="44" rx="22" fill="#F5F5F7"/>
<path d="M230.961 144.719V137.93C228.758 138.016 227.398 139.312 227.398 141.32C227.398 143.352 228.758 144.648 230.961 144.719ZM235.906 141.328C235.906 139.305 234.547 138 232.352 137.93V144.719C234.547 144.633 235.906 143.336 235.906 141.328ZM230.961 145.977C227.906 145.906 225.977 144.102 225.977 141.32C225.977 138.555 227.898 136.758 230.961 136.672V135.57H232.352V136.672C235.406 136.742 237.328 138.547 237.328 141.328C237.328 144.094 235.406 145.891 232.352 145.977V147.156H230.961V145.977ZM242.328 147.141C240.078 147.141 238.562 145.523 238.562 142.938C238.562 140.344 240.078 138.734 242.328 138.734C244.57 138.734 246.086 140.344 246.086 142.938C246.086 145.523 244.57 147.141 242.328 147.141ZM242.328 145.945C243.766 145.945 244.703 144.852 244.703 142.938C244.703 141.023 243.766 139.93 242.328 139.93C240.891 139.93 239.945 141.023 239.945 142.938C239.945 144.852 240.891 145.945 242.328 145.945ZM253.227 138.875V139.992H250.602V147H249.258V139.992H246.633V138.875H253.227ZM257.703 147.141C255.453 147.141 253.938 145.523 253.938 142.938C253.938 140.344 255.453 138.734 257.703 138.734C259.945 138.734 261.461 140.344 261.461 142.938C261.461 145.523 259.945 147.141 257.703 147.141ZM257.703 145.945C259.141 145.945 260.078 144.852 260.078 142.938C260.078 141.023 259.141 139.93 257.703 139.93C256.266 139.93 255.32 141.023 255.32 142.938C255.32 144.852 256.266 145.945 257.703 145.945ZM268.195 139.992H264.312V147H262.969V138.875H268.195V139.992ZM273.625 138.734C275.695 138.734 277.102 140.391 277.102 142.938C277.102 145.484 275.703 147.141 273.656 147.141C272.492 147.141 271.555 146.57 271.07 145.68H271.039V149.711H269.68V138.875H270.969V140.25H271C271.5 139.336 272.445 138.734 273.625 138.734ZM273.359 145.945C274.805 145.945 275.711 144.781 275.711 142.938C275.711 141.102 274.805 139.93 273.359 139.93C271.969 139.93 271.031 141.133 271.031 142.938C271.031 144.75 271.969 145.945 273.359 145.945ZM281.297 145.984C282.578 145.984 283.562 145.086 283.562 143.914V143.25L281.391 143.383C280.297 143.453 279.672 143.938 279.672 144.703C279.672 145.477 280.32 145.984 281.297 145.984ZM280.992 147.141C279.375 147.141 278.289 146.164 278.289 144.703C278.289 143.312 279.359 142.438 281.234 142.328L283.562 142.195V141.516C283.562 140.523 282.906 139.93 281.781 139.93C280.734 139.93 280.078 140.422 279.906 141.219H278.594C278.688 139.812 279.891 138.734 281.812 138.734C283.719 138.734 284.922 139.766 284.922 141.383V147H283.633V145.602H283.602C283.117 146.531 282.086 147.141 280.992 147.141ZM290.609 145.945V139.93C288.875 139.969 287.773 141.102 287.773 142.938C287.773 144.766 288.875 145.898 290.609 145.945ZM294.75 142.938C294.75 141.109 293.648 139.977 291.922 139.93V145.945C293.648 145.906 294.75 144.773 294.75 142.938ZM290.609 147.102C288.078 147.055 286.406 145.445 286.406 142.938C286.406 140.43 288.078 138.812 290.609 138.773V136.203H291.922V138.773C294.438 138.82 296.117 140.43 296.117 142.938C296.117 145.445 294.438 147.062 291.922 147.102V149.711H290.609V147.102Z" fill="#2D252F"/>
<rect x="1076" y="390" width="125" height="44" rx="22" fill="#F5F5F7"/>
<path d="M1105.17 412.117L1110.82 418H1108.89L1103.69 412.523H1103.62V418H1102.22V406.727H1103.62V411.922H1103.69L1108.53 406.727H1110.3L1105.17 412.117ZM1114.75 410.914C1113.48 410.914 1112.59 411.891 1112.5 413.242H1116.91C1116.88 411.883 1116.03 410.914 1114.75 410.914ZM1116.88 415.672H1118.22C1117.98 417.094 1116.61 418.141 1114.84 418.141C1112.51 418.141 1111.09 416.523 1111.09 413.969C1111.09 411.445 1112.53 409.734 1114.77 409.734C1116.97 409.734 1118.32 411.328 1118.32 413.789V414.305H1112.49V414.383C1112.49 415.938 1113.41 416.961 1114.87 416.961C1115.9 416.961 1116.66 416.438 1116.88 415.672ZM1121.17 418H1119.83V409.875H1121.17V415.922H1121.23L1125.3 409.875H1126.64V418H1125.3V411.953H1125.23L1121.17 418ZM1120.87 406.359H1121.87C1121.87 407.266 1122.45 407.977 1123.38 407.977C1124.31 407.977 1124.9 407.266 1124.9 406.359H1125.9C1125.9 407.797 1124.88 408.781 1123.38 408.781C1121.89 408.781 1120.87 407.797 1120.87 406.359ZM1134.49 409.875V410.992H1131.87V418H1130.52V410.992H1127.9V409.875H1134.49ZM1138.86 410.914C1137.59 410.914 1136.7 411.891 1136.61 413.242H1141.02C1140.99 411.883 1140.14 410.914 1138.86 410.914ZM1140.99 415.672H1142.33C1142.09 417.094 1140.72 418.141 1138.95 418.141C1136.62 418.141 1135.2 416.523 1135.2 413.969C1135.2 411.445 1136.64 409.734 1138.88 409.734C1141.08 409.734 1142.43 411.328 1142.43 413.789V414.305H1136.6V414.383C1136.6 415.938 1137.52 416.961 1138.98 416.961C1140.01 416.961 1140.77 416.438 1140.99 415.672ZM1147.89 409.734C1149.96 409.734 1151.37 411.391 1151.37 413.938C1151.37 416.484 1149.97 418.141 1147.92 418.141C1146.76 418.141 1145.82 417.57 1145.34 416.68H1145.3V420.711H1143.95V409.875H1145.23V411.25H1145.27C1145.77 410.336 1146.71 409.734 1147.89 409.734ZM1147.62 416.945C1149.07 416.945 1149.98 415.781 1149.98 413.938C1149.98 412.102 1149.07 410.93 1147.62 410.93C1146.23 410.93 1145.3 412.133 1145.3 413.938C1145.3 415.75 1146.23 416.945 1147.62 416.945ZM1154.22 418H1152.88V409.875H1154.22V415.922H1154.28L1158.34 409.875H1159.69V418H1158.34V411.953H1158.28L1154.22 418ZM1166.95 418V414.344H1162.94V418H1161.59V409.875H1162.94V413.227H1166.95V409.875H1168.29V418H1166.95ZM1175.43 410.992H1171.55V418H1170.2V409.875H1175.43V410.992Z" fill="#2D252F"/>
<rect x="23" y="364" width="112" height="44" rx="22" fill="#F5F5F7"/>
<path d="M51.8516 387.852C51.7734 389.141 51.6172 390 51.0625 390.672V390.734H56.5312V381.992H52.2188L51.8516 387.852ZM49.7891 392V394.227H48.4844V390.734H49.3203C50.1406 390.297 50.4453 389.297 50.5312 387.82L50.9609 380.727H57.9375V390.734H59.3438V394.227H58.0391V392H49.7891ZM62.1094 392H60.7656V383.875H62.1094V389.922H62.1719L66.2344 383.875H67.5781V392H66.2344V385.953H66.1719L62.1094 392ZM74.875 390.883V384.992H71.8281L71.5781 388.414C71.5078 389.422 71.2969 390.305 70.9141 390.82V390.883H74.875ZM69.9453 394.148H68.6797V390.883H69.3594C69.9531 390.492 70.2422 389.477 70.3203 388.383L70.6328 383.875H76.2266V390.883H77.5156V394.148H76.25V392H69.9453V394.148ZM85.7734 387.719L89.4453 392H87.7031L84.4219 388.094H84.3594V392H83.0156V388.094H82.9609L79.6797 392H77.9609L81.6094 387.742L78.0469 383.875H79.7188L82.9609 387.469H83.0156V383.875H84.3594V387.469H84.4219L87.6641 383.875H89.3203L85.7734 387.719ZM93.625 384.914C92.3516 384.914 91.4609 385.891 91.375 387.242H95.7891C95.7578 385.883 94.9062 384.914 93.625 384.914ZM95.7578 389.672H97.0938C96.8594 391.094 95.4844 392.141 93.7109 392.141C91.3828 392.141 89.9688 390.523 89.9688 387.969C89.9688 385.445 91.4062 383.734 93.6484 383.734C95.8438 383.734 97.1953 385.328 97.1953 387.789V388.305H91.3672V388.383C91.3672 389.938 92.2812 390.961 93.7422 390.961C94.7734 390.961 95.5312 390.438 95.7578 389.672ZM100.047 392H98.7031V383.875H100.047V389.922H100.109L104.172 383.875H105.516V392H104.172V385.953H104.109L100.047 392ZM99.7422 380.359H100.742C100.742 381.266 101.328 381.977 102.258 381.977C103.188 381.977 103.773 381.266 103.773 380.359H104.773C104.773 381.797 103.75 382.781 102.258 382.781C100.766 382.781 99.7422 381.797 99.7422 380.359Z" fill="#2D252F"/>
<rect x="947" y="235" width="141" height="44" rx="22" fill="#F5F5F7"/>
<path d="M978.125 263.188C975.016 263.188 973.047 260.93 973.047 257.359C973.047 253.82 975.039 251.539 978.125 251.539C980.523 251.539 982.359 252.961 982.773 255.125H981.336C980.93 253.734 979.672 252.836 978.125 252.836C975.922 252.836 974.492 254.617 974.492 257.359C974.492 260.125 975.906 261.891 978.133 261.891C979.734 261.891 980.891 261.148 981.336 259.859H982.773C982.219 262 980.562 263.188 978.125 263.188ZM987.664 255.977H985.719V258.25H987.461C988.484 258.25 988.977 257.875 988.977 257.094C988.977 256.375 988.516 255.977 987.664 255.977ZM987.57 259.344H985.719V261.898H987.812C988.797 261.898 989.328 261.453 989.328 260.633C989.328 259.766 988.758 259.344 987.57 259.344ZM984.375 263V254.875H987.852C989.375 254.875 990.305 255.664 990.305 256.953C990.305 257.781 989.719 258.547 988.969 258.703V258.766C989.992 258.906 990.664 259.648 990.664 260.664C990.664 262.102 989.602 263 987.875 263H984.375ZM995.484 255.914C994.211 255.914 993.32 256.891 993.234 258.242H997.648C997.617 256.883 996.766 255.914 995.484 255.914ZM997.617 260.672H998.953C998.719 262.094 997.344 263.141 995.57 263.141C993.242 263.141 991.828 261.523 991.828 258.969C991.828 256.445 993.266 254.734 995.508 254.734C997.703 254.734 999.055 256.328 999.055 258.789V259.305H993.227V259.383C993.227 260.938 994.141 261.961 995.602 261.961C996.633 261.961 997.391 261.438 997.617 260.672ZM1006.2 254.875V255.992H1003.57V263H1002.23V255.992H999.602V254.875H1006.2ZM1010.67 263.141C1008.42 263.141 1006.91 261.523 1006.91 258.938C1006.91 256.344 1008.42 254.734 1010.67 254.734C1012.91 254.734 1014.43 256.344 1014.43 258.938C1014.43 261.523 1012.91 263.141 1010.67 263.141ZM1010.67 261.945C1012.11 261.945 1013.05 260.852 1013.05 258.938C1013.05 257.023 1012.11 255.93 1010.67 255.93C1009.23 255.93 1008.29 257.023 1008.29 258.938C1008.29 260.852 1009.23 261.945 1010.67 261.945ZM1021.57 254.875V255.992H1018.95V263H1017.6V255.992H1014.98V254.875H1021.57ZM1025.94 255.914C1024.66 255.914 1023.77 256.891 1023.69 258.242H1028.1C1028.07 256.883 1027.22 255.914 1025.94 255.914ZM1028.07 260.672H1029.41C1029.17 262.094 1027.8 263.141 1026.02 263.141C1023.7 263.141 1022.28 261.523 1022.28 258.969C1022.28 256.445 1023.72 254.734 1025.96 254.734C1028.16 254.734 1029.51 256.328 1029.51 258.789V259.305H1023.68V259.383C1023.68 260.938 1024.59 261.961 1026.05 261.961C1027.09 261.961 1027.84 261.438 1028.07 260.672ZM1033.74 259.906H1033.71L1031.75 263H1030.24L1033.01 258.938L1030.29 254.875H1031.8L1033.76 257.922H1033.79L1035.72 254.875H1037.23L1034.49 258.883L1037.2 263H1035.69L1033.74 259.906ZM1043.87 263V259.344H1039.86V263H1038.52V254.875H1039.86V258.227H1043.87V254.875H1045.21V263H1043.87ZM1048.47 263H1047.12V254.875H1048.47V260.922H1048.53L1052.59 254.875H1053.94V263H1052.59V256.953H1052.53L1048.47 263ZM1058.6 258.719L1062.51 263H1060.76L1057.25 259.094H1057.19V263H1055.84V254.875H1057.19V258.469H1057.25L1060.72 254.875H1062.4L1058.6 258.719Z" fill="#2D252F"/>
<rect x="1242" y="277" width="112" height="44" rx="22" fill="#F5F5F7"/>
<path d="M1272.66 305H1271.26V294.992H1267.7V293.727H1276.22V294.992H1272.66V305ZM1278.77 303.984C1280.05 303.984 1281.03 303.086 1281.03 301.914V301.25L1278.86 301.383C1277.77 301.453 1277.14 301.938 1277.14 302.703C1277.14 303.477 1277.79 303.984 1278.77 303.984ZM1278.46 305.141C1276.84 305.141 1275.76 304.164 1275.76 302.703C1275.76 301.312 1276.83 300.438 1278.7 300.328L1281.03 300.195V299.516C1281.03 298.523 1280.38 297.93 1279.25 297.93C1278.2 297.93 1277.55 298.422 1277.38 299.219H1276.06C1276.16 297.812 1277.36 296.734 1279.28 296.734C1281.19 296.734 1282.39 297.766 1282.39 299.383V305H1281.1V303.602H1281.07C1280.59 304.531 1279.55 305.141 1278.46 305.141ZM1289.62 305V301.344H1285.61V305H1284.27V296.875H1285.61V300.227H1289.62V296.875H1290.96V305H1289.62ZM1300.72 307.148H1299.45V305H1292.88V296.875H1294.22V303.883H1298.08V296.875H1299.42V303.883H1300.72V307.148ZM1305.31 305.141C1303.06 305.141 1301.55 303.523 1301.55 300.938C1301.55 298.344 1303.06 296.734 1305.31 296.734C1307.55 296.734 1309.07 298.344 1309.07 300.938C1309.07 303.523 1307.55 305.141 1305.31 305.141ZM1305.31 303.945C1306.75 303.945 1307.69 302.852 1307.69 300.938C1307.69 299.023 1306.75 297.93 1305.31 297.93C1303.88 297.93 1302.93 299.023 1302.93 300.938C1302.93 302.852 1303.88 303.945 1305.31 303.945ZM1314.53 296.734C1316.6 296.734 1318.01 298.391 1318.01 300.938C1318.01 303.484 1316.61 305.141 1314.56 305.141C1313.4 305.141 1312.46 304.57 1311.98 303.68H1311.95V307.711H1310.59V296.875H1311.88V298.25H1311.91C1312.41 297.336 1313.35 296.734 1314.53 296.734ZM1314.27 303.945C1315.71 303.945 1316.62 302.781 1316.62 300.938C1316.62 299.102 1315.71 297.93 1314.27 297.93C1312.88 297.93 1311.94 299.133 1311.94 300.938C1311.94 302.75 1312.88 303.945 1314.27 303.945ZM1326.47 305V296.875H1327.81V305H1326.47ZM1322.38 300.586H1320.86V303.883H1322.38C1323.43 303.883 1324.11 303.227 1324.11 302.234C1324.11 301.234 1323.42 300.586 1322.38 300.586ZM1319.52 305V296.875H1320.86V299.469H1322.4C1324.26 299.469 1325.45 300.539 1325.45 302.234C1325.45 303.93 1324.26 305 1322.4 305H1319.52Z" fill="#2D252F"/>
<rect x="415" y="386" width="115" height="44" rx="22" fill="#F5F5F7"/>
<path d="M445.43 414H441.172V402.727H445.445C447.375 402.727 448.68 403.852 448.68 405.539C448.68 406.711 447.82 407.805 446.734 408V408.062C448.266 408.258 449.25 409.336 449.25 410.836C449.25 412.82 447.828 414 445.43 414ZM442.578 403.969V407.586H444.688C446.352 407.586 447.258 406.922 447.258 405.703C447.258 404.586 446.492 403.969 445.125 403.969H442.578ZM442.578 412.758H445.219C446.914 412.758 447.805 412.07 447.805 410.766C447.805 409.461 446.883 408.797 445.086 408.797H442.578V412.758ZM454.047 406.914C452.773 406.914 451.883 407.891 451.797 409.242H456.211C456.18 407.883 455.328 406.914 454.047 406.914ZM456.18 411.672H457.516C457.281 413.094 455.906 414.141 454.133 414.141C451.805 414.141 450.391 412.523 450.391 409.969C450.391 407.445 451.828 405.734 454.07 405.734C456.266 405.734 457.617 407.328 457.617 409.789V410.305H451.789V410.383C451.789 411.938 452.703 412.961 454.164 412.961C455.195 412.961 455.953 412.438 456.18 411.672ZM464.359 412.883V406.992H461.312L461.062 410.414C460.992 411.422 460.781 412.305 460.398 412.82V412.883H464.359ZM459.43 416.148H458.164V412.883H458.844C459.438 412.492 459.727 411.477 459.805 410.383L460.117 405.875H465.711V412.883H467V416.148H465.734V414H459.43V416.148ZM468.742 417.039C468.578 417.039 468.305 417.023 468.156 416.992V415.852C468.305 415.883 468.516 415.891 468.688 415.891C469.445 415.891 469.867 415.523 470.18 414.578L470.367 414.008L467.367 405.875H468.82L471.07 412.641H471.094L473.344 405.875H474.773L471.578 414.57C470.883 416.469 470.211 417.039 468.742 417.039ZM487.305 416.148H486.039V414H475.984V405.875H477.328V412.883H480.328V405.875H481.672V412.883H484.672V405.875H486.016V412.883H487.305V416.148ZM489.859 414H488.516V405.875H489.859V411.922H489.922L493.984 405.875H495.328V414H493.984V407.953H493.922L489.859 414ZM498.578 414H497.234V405.875H498.578V411.922H498.641L502.703 405.875H504.047V414H502.703V407.953H502.641L498.578 414ZM498.273 402.359H499.273C499.273 403.266 499.859 403.977 500.789 403.977C501.719 403.977 502.305 403.266 502.305 402.359H503.305C503.305 403.797 502.281 404.781 500.789 404.781C499.297 404.781 498.273 403.797 498.273 402.359Z" fill="#2D252F"/>
<rect x="584" y="309" width="113" height="44" rx="22" fill="#F5F5F7"/>
<path d="M614.906 334.719V327.93C612.703 328.016 611.344 329.312 611.344 331.32C611.344 333.352 612.703 334.648 614.906 334.719ZM619.852 331.328C619.852 329.305 618.492 328 616.297 327.93V334.719C618.492 334.633 619.852 333.336 619.852 331.328ZM614.906 335.977C611.852 335.906 609.922 334.102 609.922 331.32C609.922 328.555 611.844 326.758 614.906 326.672V325.57H616.297V326.672C619.352 326.742 621.273 328.547 621.273 331.328C621.273 334.094 619.352 335.891 616.297 335.977V337.156H614.906V335.977ZM624.914 333.414C624.75 335.656 624.211 337.07 622.5 337.07C622.266 337.07 622.109 337.023 622.016 336.984V335.758C622.086 335.781 622.234 335.82 622.43 335.82C623.234 335.82 623.539 334.875 623.641 333.383L623.953 328.875H629.273V337H627.93V329.992H625.164L624.914 333.414ZM634.57 337.141C632.32 337.141 630.805 335.523 630.805 332.938C630.805 330.344 632.32 328.734 634.57 328.734C636.812 328.734 638.328 330.344 638.328 332.938C638.328 335.523 636.812 337.141 634.57 337.141ZM634.57 335.945C636.008 335.945 636.945 334.852 636.945 332.938C636.945 331.023 636.008 329.93 634.57 329.93C633.133 329.93 632.188 331.023 632.188 332.938C632.188 334.852 633.133 335.945 634.57 335.945ZM643.789 328.734C645.859 328.734 647.266 330.391 647.266 332.938C647.266 335.484 645.867 337.141 643.82 337.141C642.656 337.141 641.719 336.57 641.234 335.68H641.203V339.711H639.844V328.875H641.133V330.25H641.164C641.664 329.336 642.609 328.734 643.789 328.734ZM643.523 335.945C644.969 335.945 645.875 334.781 645.875 332.938C645.875 331.102 644.969 329.93 643.523 329.93C642.133 329.93 641.195 331.133 641.195 332.938C641.195 334.75 642.133 335.945 643.523 335.945ZM650.117 337H648.773V328.875H650.117V334.922H650.18L654.242 328.875H655.586V337H654.242V330.953H654.18L650.117 337ZM664.219 331.375H662.875C662.641 330.594 661.977 329.93 660.828 329.93C659.414 329.93 658.484 331.125 658.484 332.938C658.484 334.797 659.43 335.945 660.844 335.945C661.922 335.945 662.633 335.414 662.891 334.516H664.234C663.969 336.055 662.664 337.141 660.836 337.141C658.578 337.141 657.102 335.523 657.102 332.938C657.102 330.406 658.57 328.734 660.82 328.734C662.781 328.734 663.977 329.992 664.219 331.375ZM671.438 328.875V329.992H668.812V337H667.469V329.992H664.844V328.875H671.438Z" fill="#2D252F"/>
<rect x="311" y="275" width="109" height="44" rx="22" fill="#F5F5F7"/>
<path d="M345.086 299.617C345.086 301.609 343.594 303 341.477 303H337.375V291.727H343.961V292.992H338.781V296.219H341.461C343.578 296.219 345.086 297.617 345.086 299.617ZM338.781 301.734H341.109C342.727 301.734 343.641 300.977 343.641 299.617C343.641 298.25 342.719 297.484 341.109 297.484H338.781V301.734ZM349.516 301.984C350.797 301.984 351.781 301.086 351.781 299.914V299.25L349.609 299.383C348.516 299.453 347.891 299.938 347.891 300.703C347.891 301.477 348.539 301.984 349.516 301.984ZM349.211 303.141C347.594 303.141 346.508 302.164 346.508 300.703C346.508 299.312 347.578 298.438 349.453 298.328L351.781 298.195V297.516C351.781 296.523 351.125 295.93 350 295.93C348.953 295.93 348.297 296.422 348.125 297.219H346.812C346.906 295.812 348.109 294.734 350.031 294.734C351.938 294.734 353.141 295.766 353.141 297.383V303H351.852V301.602H351.82C351.336 302.531 350.305 303.141 349.211 303.141ZM358.969 294.734C361.039 294.734 362.445 296.391 362.445 298.938C362.445 301.484 361.047 303.141 359 303.141C357.836 303.141 356.898 302.57 356.414 301.68H356.383V305.711H355.023V294.875H356.312V296.25H356.344C356.844 295.336 357.789 294.734 358.969 294.734ZM358.703 301.945C360.148 301.945 361.055 300.781 361.055 298.938C361.055 297.102 360.148 295.93 358.703 295.93C357.312 295.93 356.375 297.133 356.375 298.938C356.375 300.75 357.312 301.945 358.703 301.945ZM365.297 303H363.953V294.875H365.297V300.922H365.359L369.422 294.875H370.766V303H369.422V296.953H369.359L365.297 303ZM379.398 297.375H378.055C377.82 296.594 377.156 295.93 376.008 295.93C374.594 295.93 373.664 297.125 373.664 298.938C373.664 300.797 374.609 301.945 376.023 301.945C377.102 301.945 377.812 301.414 378.07 300.516H379.414C379.148 302.055 377.844 303.141 376.016 303.141C373.758 303.141 372.281 301.523 372.281 298.938C372.281 296.406 373.75 294.734 376 294.734C377.961 294.734 379.156 295.992 379.398 297.375ZM386.617 294.875V295.992H383.992V303H382.648V295.992H380.023V294.875H386.617ZM390.25 301.984C391.531 301.984 392.516 301.086 392.516 299.914V299.25L390.344 299.383C389.25 299.453 388.625 299.938 388.625 300.703C388.625 301.477 389.273 301.984 390.25 301.984ZM389.945 303.141C388.328 303.141 387.242 302.164 387.242 300.703C387.242 299.312 388.312 298.438 390.188 298.328L392.516 298.195V297.516C392.516 296.523 391.859 295.93 390.734 295.93C389.688 295.93 389.031 296.422 388.859 297.219H387.547C387.641 295.812 388.844 294.734 390.766 294.734C392.672 294.734 393.875 295.766 393.875 297.383V303H392.586V301.602H392.555C392.07 302.531 391.039 303.141 389.945 303.141Z" fill="#2D252F"/>
<rect x="568" width="134" height="44" rx="22" fill="#F5F5F7"/>
<path d="M599.227 16.5391C602.422 16.5391 604.422 18.7891 604.422 22.3672C604.422 25.9453 602.422 28.1875 599.227 28.1875C596.031 28.1875 594.031 25.9453 594.031 22.3672C594.031 18.7891 596.031 16.5391 599.227 16.5391ZM599.227 17.8359C596.922 17.8359 595.477 19.5859 595.477 22.3672C595.477 25.1406 596.922 26.8906 599.227 26.8906C601.531 26.8906 602.977 25.1406 602.977 22.3672C602.977 19.5859 601.531 17.8359 599.227 17.8359ZM609.922 26.9453V20.9297C608.188 20.9688 607.086 22.1016 607.086 23.9375C607.086 25.7656 608.188 26.8984 609.922 26.9453ZM614.062 23.9375C614.062 22.1094 612.961 20.9766 611.234 20.9297V26.9453C612.961 26.9062 614.062 25.7734 614.062 23.9375ZM609.922 28.1016C607.391 28.0547 605.719 26.4453 605.719 23.9375C605.719 21.4297 607.391 19.8125 609.922 19.7734V17.2031H611.234V19.7734C613.75 19.8203 615.43 21.4297 615.43 23.9375C615.43 26.4453 613.75 28.0625 611.234 28.1016V30.7109H609.922V28.1016ZM618.297 28H616.953V19.875H618.297V25.9219H618.359L622.422 19.875H623.766V28H622.422V21.9531H622.359L618.297 28ZM633.516 30.1484H632.25V28H625.672V19.875H627.016V26.8828H630.875V19.875H632.219V26.8828H633.516V30.1484ZM636.078 28H634.734V19.875H636.078V25.9219H636.141L640.203 19.875H641.547V28H640.203V21.9531H640.141L636.078 28ZM646.141 26.9844C647.422 26.9844 648.406 26.0859 648.406 24.9141V24.25L646.234 24.3828C645.141 24.4531 644.516 24.9375 644.516 25.7031C644.516 26.4766 645.164 26.9844 646.141 26.9844ZM645.836 28.1406C644.219 28.1406 643.133 27.1641 643.133 25.7031C643.133 24.3125 644.203 23.4375 646.078 23.3281L648.406 23.1953V22.5156C648.406 21.5234 647.75 20.9297 646.625 20.9297C645.578 20.9297 644.922 21.4219 644.75 22.2188H643.438C643.531 20.8125 644.734 19.7344 646.656 19.7344C648.562 19.7344 649.766 20.7656 649.766 22.3828V28H648.477V26.6016H648.445C647.961 27.5312 646.93 28.1406 645.836 28.1406ZM656.992 28V24.3438H652.984V28H651.641V19.875H652.984V23.2266H656.992V19.875H658.336V28H656.992ZM666.195 19.875V20.9922H663.57V28H662.227V20.9922H659.602V19.875H666.195ZM674.406 28V19.875H675.75V28H674.406ZM670.312 23.5859H668.797V26.8828H670.312C671.367 26.8828 672.047 26.2266 672.047 25.2344C672.047 24.2344 671.359 23.5859 670.312 23.5859ZM667.453 28V19.875H668.797V22.4688H670.336C672.195 22.4688 673.391 23.5391 673.391 25.2344C673.391 26.9297 672.195 28 670.336 28H667.453Z" fill="#2D252F"/>
<rect x="833" y="342" width="105" height="44" rx="22" fill="#F5F5F7"/>
<path d="M867.008 366.617C867.008 368.609 865.516 370 863.398 370H859.297V358.727H865.883V359.992H860.703V363.219H863.383C865.5 363.219 867.008 364.617 867.008 366.617ZM860.703 368.734H863.031C864.648 368.734 865.562 367.977 865.562 366.617C865.562 365.25 864.641 364.484 863.031 364.484H860.703V368.734ZM871.438 368.984C872.719 368.984 873.703 368.086 873.703 366.914V366.25L871.531 366.383C870.438 366.453 869.812 366.938 869.812 367.703C869.812 368.477 870.461 368.984 871.438 368.984ZM871.133 370.141C869.516 370.141 868.43 369.164 868.43 367.703C868.43 366.312 869.5 365.438 871.375 365.328L873.703 365.195V364.516C873.703 363.523 873.047 362.93 871.922 362.93C870.875 362.93 870.219 363.422 870.047 364.219H868.734C868.828 362.812 870.031 361.734 871.953 361.734C873.859 361.734 875.062 362.766 875.062 364.383V370H873.773V368.602H873.742C873.258 369.531 872.227 370.141 871.133 370.141ZM880.891 361.734C882.961 361.734 884.367 363.391 884.367 365.938C884.367 368.484 882.969 370.141 880.922 370.141C879.758 370.141 878.82 369.57 878.336 368.68H878.305V372.711H876.945V361.875H878.234V363.25H878.266C878.766 362.336 879.711 361.734 880.891 361.734ZM880.625 368.945C882.07 368.945 882.977 367.781 882.977 365.938C882.977 364.102 882.07 362.93 880.625 362.93C879.234 362.93 878.297 364.133 878.297 365.938C878.297 367.75 879.234 368.945 880.625 368.945ZM887.219 370H885.875V361.875H887.523L890.414 368.203H890.477L893.383 361.875H894.969V370H893.617V364.234H893.562L890.938 369.766H889.898L887.273 364.234H887.219V370ZM900.141 362.914C898.867 362.914 897.977 363.891 897.891 365.242H902.305C902.273 363.883 901.422 362.914 900.141 362.914ZM902.273 367.672H903.609C903.375 369.094 902 370.141 900.227 370.141C897.898 370.141 896.484 368.523 896.484 365.969C896.484 363.445 897.922 361.734 900.164 361.734C902.359 361.734 903.711 363.328 903.711 365.789V366.305H897.883V366.383C897.883 367.938 898.797 368.961 900.258 368.961C901.289 368.961 902.047 368.438 902.273 367.672ZM910.57 370V366.344H906.562V370H905.219V361.875H906.562V365.227H910.57V361.875H911.914V370H910.57Z" fill="#2D252F"/>
<defs>
<linearGradient id="paint0_linear_31682_38815" x1="710" y1="61" x2="710" y2="305.086" gradientUnits="userSpaceOnUse">
<stop stop-color="#F5F5F7"/>
<stop offset="1" stop-color="white"/>
</linearGradient>
<linearGradient id="paint1_linear_31682_38815" x1="710" y1="220" x2="710" y2="381" gradientUnits="userSpaceOnUse">
<stop stop-color="#F5F5F7"/>
<stop offset="1" stop-color="white"/>
</linearGradient>
<linearGradient id="paint2_linear_31682_38815" x1="710" y1="370" x2="710" y2="463.084" gradientUnits="userSpaceOnUse">
<stop stop-color="#F5F5F7"/>
<stop offset="1" stop-color="white"/>
</linearGradient>
<linearGradient id="paint3_linear_31682_38815" x1="397" y1="333.5" x2="405" y2="342" gradientUnits="userSpaceOnUse">
<stop stop-color="#7F178D"/>
<stop offset="0.759615" stop-color="#EF8218"/>
<stop offset="0.985577" stop-color="#DCDE38"/>
</linearGradient>
<linearGradient id="paint4_linear_31682_38815" x1="756" y1="218.5" x2="764" y2="227" gradientUnits="userSpaceOnUse">
<stop stop-color="#7F178D"/>
<stop offset="0.759615" stop-color="#EF8218"/>
<stop offset="0.985577" stop-color="#DCDE38"/>
</linearGradient>
<linearGradient id="paint5_linear_31682_38815" x1="967" y1="295.5" x2="975" y2="304" gradientUnits="userSpaceOnUse">
<stop stop-color="#7F178D"/>
<stop offset="0.759615" stop-color="#EF8218"/>
<stop offset="0.985577" stop-color="#DCDE38"/>
</linearGradient>
<linearGradient id="paint6_linear_31682_38815" x1="1105" y1="442.5" x2="1113" y2="451" gradientUnits="userSpaceOnUse">
<stop stop-color="#7F178D"/>
<stop offset="0.759615" stop-color="#EF8218"/>
<stop offset="0.985577" stop-color="#DCDE38"/>
</linearGradient>
<linearGradient id="paint7_linear_31682_38815" x1="658" y1="369.5" x2="666" y2="378" gradientUnits="userSpaceOnUse">
<stop stop-color="#7F178D"/>
<stop offset="0.759615" stop-color="#EF8218"/>
<stop offset="0.985577" stop-color="#DCDE38"/>
</linearGradient>
<linearGradient id="paint8_linear_31682_38815" x1="839" y1="401.5" x2="847" y2="410" gradientUnits="userSpaceOnUse">
<stop stop-color="#7F178D"/>
<stop offset="0.759615" stop-color="#EF8218"/>
<stop offset="0.985577" stop-color="#DCDE38"/>
</linearGradient>
<linearGradient id="paint9_linear_31682_38815" x1="509" y1="451.5" x2="517" y2="460" gradientUnits="userSpaceOnUse">
<stop stop-color="#7F178D"/>
<stop offset="0.759615" stop-color="#EF8218"/>
<stop offset="0.985577" stop-color="#DCDE38"/>
</linearGradient>
<linearGradient id="paint10_linear_31682_38815" x1="305" y1="179.5" x2="313" y2="188" gradientUnits="userSpaceOnUse">
<stop stop-color="#7F178D"/>
<stop offset="0.759615" stop-color="#EF8218"/>
<stop offset="0.985577" stop-color="#DCDE38"/>
</linearGradient>
<linearGradient id="paint11_linear_31682_38815" x1="941" y1="96.5" x2="949" y2="105" gradientUnits="userSpaceOnUse">
<stop stop-color="#7F178D"/>
<stop offset="0.759615" stop-color="#EF8218"/>
<stop offset="0.985577" stop-color="#DCDE38"/>
</linearGradient>
<linearGradient id="paint12_linear_31682_38815" x1="679" y1="57.5" x2="687" y2="66" gradientUnits="userSpaceOnUse">
<stop stop-color="#7F178D"/>
<stop offset="0.759615" stop-color="#EF8218"/>
<stop offset="0.985577" stop-color="#DCDE38"/>
</linearGradient>
<linearGradient id="paint13_linear_31682_38815" x1="1273" y1="338.5" x2="1281" y2="347" gradientUnits="userSpaceOnUse">
<stop stop-color="#7F178D"/>
<stop offset="0.759615" stop-color="#EF8218"/>
<stop offset="0.985577" stop-color="#DCDE38"/>
</linearGradient>
<linearGradient id="paint14_linear_31682_38815" x1="80" y1="428.5" x2="88" y2="437" gradientUnits="userSpaceOnUse">
<stop stop-color="#7F178D"/>
<stop offset="0.759615" stop-color="#EF8218"/>
<stop offset="0.985577" stop-color="#DCDE38"/>
</linearGradient>
</defs>
</svg>
