<svg width="375" height="272" viewBox="0 0 375 272" fill="none" xmlns="http://www.w3.org/2000/svg">
<mask id="mask0_31711_13309" style="mask-type:alpha" maskUnits="userSpaceOnUse" x="0" y="31" width="375" height="241">
<rect y="31" width="375" height="241" fill="#D9D9D9"/>
</mask>
<g mask="url(#mask0_31711_13309)">
<rect x="-175.5" y="34.5" width="727" height="723" rx="361.5" fill="url(#paint0_linear_31711_13309)" stroke="#F5F5F7"/>
<rect x="-50.5" y="121.5" width="477" height="477" rx="238.5" fill="url(#paint1_linear_31711_13309)" stroke="#F5F5F7"/>
<rect x="50.5" y="196.5" width="275" height="275" rx="137.5" fill="url(#paint2_linear_31711_13309)" stroke="#F5F5F7"/>
<path d="M24 183.5C24 182.119 25.1193 181 26.5 181C27.8807 181 29 182.119 29 183.5C29 184.881 27.8807 186 26.5 186C25.1193 186 24 184.881 24 183.5Z" fill="url(#paint3_linear_31711_13309)"/>
<path d="M131 127.5C131 126.119 132.119 125 133.5 125C134.881 125 136 126.119 136 127.5C136 128.881 134.881 130 133.5 130C132.119 130 131 128.881 131 127.5Z" fill="url(#paint4_linear_31711_13309)"/>
<path d="M201 122.5C201 121.119 202.119 120 203.5 120C204.881 120 206 121.119 206 122.5C206 123.881 204.881 125 203.5 125C202.119 125 201 123.881 201 122.5Z" fill="url(#paint5_linear_31711_13309)"/>
<path d="M166 197.5C166 196.119 167.119 195 168.5 195C169.881 195 171 196.119 171 197.5C171 198.881 169.881 200 168.5 200C167.119 200 166 198.881 166 197.5Z" fill="url(#paint6_linear_31711_13309)"/>
<path d="M255 214.5C255 213.119 256.119 212 257.5 212C258.881 212 260 213.119 260 214.5C260 215.881 258.881 217 257.5 217C256.119 217 255 215.881 255 214.5Z" fill="url(#paint7_linear_31711_13309)"/>
<path d="M96 229.5C96 228.119 97.1193 227 98.5 227C99.8807 227 101 228.119 101 229.5C101 230.881 99.8807 232 98.5 232C97.1193 232 96 230.881 96 229.5Z" fill="url(#paint8_linear_31711_13309)"/>
<path d="M261 42.5C261 41.1193 262.119 40 263.5 40C264.881 40 266 41.1193 266 42.5C266 43.8807 264.881 45 263.5 45C262.119 45 261 43.8807 261 42.5Z" fill="url(#paint9_linear_31711_13309)"/>
<path d="M191 33.5C191 32.1193 192.119 31 193.5 31C194.881 31 196 32.1193 196 33.5C196 34.8807 194.881 36 193.5 36C192.119 36 191 34.8807 191 33.5Z" fill="url(#paint10_linear_31711_13309)"/>
<path d="M352 74.5C352 73.1193 353.119 72 354.5 72C355.881 72 357 73.1193 357 74.5C357 75.8807 355.881 77 354.5 77C353.119 77 352 75.8807 352 74.5Z" fill="url(#paint11_linear_31711_13309)"/>
<rect x="118" y="37" width="5" height="5" rx="2.5" fill="url(#paint12_linear_31711_13309)"/>
<path d="M31 69.5C31 68.1193 32.1193 67 33.5 67C34.8807 67 36 68.1193 36 69.5C36 70.8807 34.8807 72 33.5 72C32.1193 72 31 70.8807 31 69.5Z" fill="url(#paint13_linear_31711_13309)"/>
<path d="M310 156.5C310 155.119 311.119 154 312.5 154C313.881 154 315 155.119 315 156.5C315 157.881 313.881 159 312.5 159C311.119 159 310 157.881 310 156.5Z" fill="url(#paint14_linear_31711_13309)"/>
</g>
<rect x="48" y="94" width="111" height="26" rx="13" fill="#F5F5F7"/>
<path d="M62.4561 112H58.9966V102.84H62.4688C64.0366 102.84 65.0967 103.754 65.0967 105.125C65.0967 106.078 64.3984 106.966 63.5161 107.125V107.176C64.7603 107.334 65.5601 108.21 65.5601 109.429C65.5601 111.042 64.4048 112 62.4561 112ZM60.1392 103.85V106.789H61.853C63.2051 106.789 63.9414 106.249 63.9414 105.259C63.9414 104.351 63.3193 103.85 62.2085 103.85H60.1392ZM60.1392 110.991H62.2847C63.6621 110.991 64.3857 110.432 64.3857 109.372C64.3857 108.312 63.6367 107.772 62.1768 107.772H60.1392V110.991ZM67.896 112H66.8042V105.398H67.896V110.312H67.9468L71.2476 105.398H72.3394V112H71.2476V107.087H71.1968L67.896 112ZM78.2681 111.092V106.306H75.7925L75.5894 109.086C75.5322 109.905 75.3608 110.623 75.0498 111.042V111.092H78.2681ZM74.2627 113.746H73.2344V111.092H73.7866C74.269 110.775 74.5039 109.95 74.5674 109.061L74.8213 105.398H79.3662V111.092H80.4136V113.746H79.3853V112H74.2627V113.746ZM84.0571 106.243C83.0225 106.243 82.2988 107.036 82.229 108.134H85.8154C85.79 107.03 85.0981 106.243 84.0571 106.243ZM85.79 110.108H86.8755C86.6851 111.264 85.5679 112.114 84.127 112.114C82.2354 112.114 81.0864 110.8 81.0864 108.725C81.0864 106.674 82.2544 105.284 84.0762 105.284C85.8599 105.284 86.958 106.579 86.958 108.579V108.998H82.2227V109.061C82.2227 110.324 82.9653 111.156 84.1523 111.156C84.9902 111.156 85.606 110.73 85.79 110.108ZM90.9253 112.114C89.0972 112.114 87.8657 110.8 87.8657 108.699C87.8657 106.592 89.0972 105.284 90.9253 105.284C92.7471 105.284 93.9785 106.592 93.9785 108.699C93.9785 110.8 92.7471 112.114 90.9253 112.114ZM90.9253 111.143C92.0933 111.143 92.855 110.254 92.855 108.699C92.855 107.144 92.0933 106.255 90.9253 106.255C89.7573 106.255 88.9893 107.144 88.9893 108.699C88.9893 110.254 89.7573 111.143 90.9253 111.143ZM97.9458 112.114C96.1177 112.114 94.8862 110.8 94.8862 108.699C94.8862 106.592 96.1177 105.284 97.9458 105.284C99.7676 105.284 100.999 106.592 100.999 108.699C100.999 110.8 99.7676 112.114 97.9458 112.114ZM97.9458 111.143C99.1138 111.143 99.8755 110.254 99.8755 108.699C99.8755 107.144 99.1138 106.255 97.9458 106.255C96.7778 106.255 96.0098 107.144 96.0098 108.699C96.0098 110.254 96.7778 111.143 97.9458 111.143ZM106.509 112V106.306H103.316V112H102.224V105.398H107.607V112H106.509ZM111.809 106.243C110.774 106.243 110.051 107.036 109.981 108.134H113.567C113.542 107.03 112.85 106.243 111.809 106.243ZM113.542 110.108H114.627C114.437 111.264 113.32 112.114 111.879 112.114C109.987 112.114 108.838 110.8 108.838 108.725C108.838 106.674 110.006 105.284 111.828 105.284C113.612 105.284 114.71 106.579 114.71 108.579V108.998H109.975V109.061C109.975 110.324 110.717 111.156 111.904 111.156C112.742 111.156 113.358 110.73 113.542 110.108ZM119.147 105.284C120.829 105.284 121.972 106.63 121.972 108.699C121.972 110.769 120.835 112.114 119.172 112.114C118.227 112.114 117.465 111.651 117.071 110.927H117.046V114.203H115.941V105.398H116.989V106.516H117.014C117.42 105.773 118.188 105.284 119.147 105.284ZM118.931 111.143C120.105 111.143 120.842 110.197 120.842 108.699C120.842 107.208 120.105 106.255 118.931 106.255C117.801 106.255 117.04 107.233 117.04 108.699C117.04 110.172 117.801 111.143 118.931 111.143ZM125.38 111.175C126.421 111.175 127.221 110.445 127.221 109.493V108.953L125.457 109.061C124.568 109.118 124.06 109.512 124.06 110.134C124.06 110.762 124.587 111.175 125.38 111.175ZM125.133 112.114C123.819 112.114 122.937 111.321 122.937 110.134C122.937 109.004 123.806 108.293 125.33 108.204L127.221 108.096V107.544C127.221 106.738 126.688 106.255 125.774 106.255C124.923 106.255 124.39 106.655 124.25 107.303H123.184C123.26 106.16 124.238 105.284 125.799 105.284C127.348 105.284 128.326 106.122 128.326 107.436V112H127.278V110.864H127.253C126.859 111.619 126.021 112.114 125.133 112.114ZM134.553 105.398V106.306H132.42V112H131.328V106.306H129.195V105.398H134.553ZM138.19 112.114C136.362 112.114 135.13 110.8 135.13 108.699C135.13 106.592 136.362 105.284 138.19 105.284C140.012 105.284 141.243 106.592 141.243 108.699C141.243 110.8 140.012 112.114 138.19 112.114ZM138.19 111.143C139.358 111.143 140.12 110.254 140.12 108.699C140.12 107.144 139.358 106.255 138.19 106.255C137.022 106.255 136.254 107.144 136.254 108.699C136.254 110.254 137.022 111.143 138.19 111.143ZM145.68 105.284C147.362 105.284 148.505 106.63 148.505 108.699C148.505 110.769 147.369 112.114 145.706 112.114C144.76 112.114 143.998 111.651 143.604 110.927H143.579V114.203H142.475V105.398H143.522V106.516H143.547C143.954 105.773 144.722 105.284 145.68 105.284ZM145.464 111.143C146.639 111.143 147.375 110.197 147.375 108.699C147.375 107.208 146.639 106.255 145.464 106.255C144.334 106.255 143.573 107.233 143.573 108.699C143.573 110.172 144.334 111.143 145.464 111.143Z" fill="#2D252F"/>
<rect x="218" y="9" width="142" height="26" rx="13" fill="#F5F5F7"/>
<path d="M238.435 27H237.368V19.9414H237.324L234.404 26.9365H233.439L230.519 19.9414H230.475V27H229.408V17.8403H230.735L233.896 25.4829H233.947L237.108 17.8403H238.435V27ZM242.345 26.1748C243.386 26.1748 244.186 25.4448 244.186 24.4927V23.9531L242.421 24.061C241.532 24.1182 241.024 24.5117 241.024 25.1338C241.024 25.7622 241.551 26.1748 242.345 26.1748ZM242.097 27.1143C240.783 27.1143 239.901 26.3208 239.901 25.1338C239.901 24.0039 240.771 23.293 242.294 23.2041L244.186 23.0962V22.5439C244.186 21.7378 243.652 21.2554 242.738 21.2554C241.888 21.2554 241.354 21.6553 241.215 22.3027H240.148C240.225 21.1602 241.202 20.2842 242.764 20.2842C244.312 20.2842 245.29 21.1221 245.29 22.436V27H244.243V25.8638H244.217C243.824 26.6191 242.986 27.1143 242.097 27.1143ZM252.279 22.4297H251.187C250.997 21.7949 250.457 21.2554 249.524 21.2554C248.375 21.2554 247.62 22.2266 247.62 23.6992C247.62 25.21 248.388 26.1431 249.537 26.1431C250.413 26.1431 250.99 25.7114 251.2 24.9814H252.292C252.076 26.2319 251.016 27.1143 249.53 27.1143C247.696 27.1143 246.496 25.8003 246.496 23.6992C246.496 21.6426 247.689 20.2842 249.518 20.2842C251.111 20.2842 252.082 21.3062 252.279 22.4297ZM258.144 20.3984V21.3062H256.011V27H254.919V21.3062H252.787V20.3984H258.144ZM261.692 21.2427C260.658 21.2427 259.934 22.0361 259.864 23.1343H263.451C263.425 22.0298 262.733 21.2427 261.692 21.2427ZM263.425 25.1084H264.511C264.32 26.2637 263.203 27.1143 261.762 27.1143C259.871 27.1143 258.722 25.8003 258.722 23.7246C258.722 21.6743 259.89 20.2842 261.711 20.2842C263.495 20.2842 264.593 21.5791 264.593 23.5786V23.9976H259.858V24.061C259.858 25.3242 260.601 26.1558 261.788 26.1558C262.625 26.1558 263.241 25.7305 263.425 25.1084ZM269.03 20.2842C270.712 20.2842 271.855 21.6299 271.855 23.6992C271.855 25.7686 270.719 27.1143 269.056 27.1143C268.11 27.1143 267.348 26.6509 266.955 25.9272H266.929V29.2026H265.825V20.3984H266.872V21.5156H266.897C267.304 20.7729 268.072 20.2842 269.03 20.2842ZM268.814 26.1431C269.989 26.1431 270.725 25.1973 270.725 23.6992C270.725 22.2075 269.989 21.2554 268.814 21.2554C267.685 21.2554 266.923 22.2329 266.923 23.6992C266.923 25.1719 267.685 26.1431 268.814 26.1431ZM280.031 27V21.3062H276.838V27H275.746V20.3984H281.129V27H280.031ZM285.89 20.2842C287.572 20.2842 288.714 21.6299 288.714 23.6992C288.714 25.7686 287.578 27.1143 285.915 27.1143C284.969 27.1143 284.208 26.6509 283.814 25.9272H283.789V29.2026H282.684V20.3984H283.731V21.5156H283.757C284.163 20.7729 284.931 20.2842 285.89 20.2842ZM285.674 26.1431C286.848 26.1431 287.584 25.1973 287.584 23.6992C287.584 22.2075 286.848 21.2554 285.674 21.2554C284.544 21.2554 283.782 22.2329 283.782 23.6992C283.782 25.1719 284.544 26.1431 285.674 26.1431ZM292.593 21.2427C291.558 21.2427 290.834 22.0361 290.765 23.1343H294.351C294.326 22.0298 293.634 21.2427 292.593 21.2427ZM294.326 25.1084H295.411C295.221 26.2637 294.104 27.1143 292.663 27.1143C290.771 27.1143 289.622 25.8003 289.622 23.7246C289.622 21.6743 290.79 20.2842 292.612 20.2842C294.396 20.2842 295.494 21.5791 295.494 23.5786V23.9976H290.758V24.061C290.758 25.3242 291.501 26.1558 292.688 26.1558C293.526 26.1558 294.142 25.7305 294.326 25.1084ZM298.921 27.1143C297.474 27.1143 296.427 26.4033 296.312 25.2861H297.43C297.557 25.8638 298.103 26.2002 298.921 26.2002C299.88 26.2002 300.413 25.7432 300.413 25.1021C300.413 24.3594 299.918 24.0229 298.921 24.0229H297.931V23.1216H298.921C299.759 23.1216 300.191 22.8042 300.191 22.1567C300.191 21.6045 299.797 21.2046 298.947 21.2046C298.166 21.2046 297.62 21.541 297.531 22.0679H296.458C296.598 20.9761 297.55 20.2842 298.947 20.2842C300.451 20.2842 301.27 21.0078 301.27 22.0679C301.27 22.7407 300.838 23.3374 300.178 23.4897V23.5405C301.048 23.731 301.499 24.2896 301.499 25.0513C301.499 26.2827 300.47 27.1143 298.921 27.1143ZM305.415 21.2427C304.38 21.2427 303.657 22.0361 303.587 23.1343H307.173C307.148 22.0298 306.456 21.2427 305.415 21.2427ZM307.148 25.1084H308.233C308.043 26.2637 306.926 27.1143 305.485 27.1143C303.593 27.1143 302.444 25.8003 302.444 23.7246C302.444 21.6743 303.612 20.2842 305.434 20.2842C307.218 20.2842 308.316 21.5791 308.316 23.5786V23.9976H303.581V24.061C303.581 25.3242 304.323 26.1558 305.51 26.1558C306.348 26.1558 306.964 25.7305 307.148 25.1084ZM313.889 27V24.0293H310.633V27H309.541V20.3984H310.633V23.1216H313.889V20.3984H314.981V27H313.889ZM321.367 20.3984V21.3062H319.234V27H318.142V21.3062H316.009V20.3984H321.367ZM324.318 26.1748C325.359 26.1748 326.159 25.4448 326.159 24.4927V23.9531L324.395 24.061C323.506 24.1182 322.998 24.5117 322.998 25.1338C322.998 25.7622 323.525 26.1748 324.318 26.1748ZM324.071 27.1143C322.757 27.1143 321.875 26.3208 321.875 25.1338C321.875 24.0039 322.744 23.293 324.268 23.2041L326.159 23.0962V22.5439C326.159 21.7378 325.626 21.2554 324.712 21.2554C323.861 21.2554 323.328 21.6553 323.188 22.3027H322.122C322.198 21.1602 323.176 20.2842 324.737 20.2842C326.286 20.2842 327.264 21.1221 327.264 22.436V27H326.216V25.8638H326.191C325.797 26.6191 324.959 27.1143 324.071 27.1143ZM335.16 28.7456H334.132V27H328.787V20.3984H329.879V26.0923H333.015V20.3984H334.106V26.0923H335.16V28.7456ZM337.242 27H336.15V20.3984H337.242V25.3115H337.293L340.594 20.3984H341.686V27H340.594V22.0869H340.543L337.242 27ZM344.326 27H343.234V20.3984H344.326V25.3115H344.377L347.678 20.3984H348.77V27H347.678V22.0869H347.627L344.326 27ZM344.079 17.542H344.891C344.891 18.2783 345.367 18.856 346.123 18.856C346.878 18.856 347.354 18.2783 347.354 17.542H348.167C348.167 18.71 347.335 19.5098 346.123 19.5098C344.91 19.5098 344.079 18.71 344.079 17.542Z" fill="#2D252F"/>
<rect x="184" y="89" width="94" height="26" rx="13" fill="#F5F5F7"/>
<path d="M199.008 107.152C196.481 107.152 194.882 105.318 194.882 102.417C194.882 99.5415 196.5 97.688 199.008 97.688C200.957 97.688 202.448 98.8433 202.785 100.602H201.617C201.287 99.4717 200.265 98.7417 199.008 98.7417C197.218 98.7417 196.056 100.189 196.056 102.417C196.056 104.664 197.205 106.099 199.014 106.099C200.315 106.099 201.255 105.496 201.617 104.448H202.785C202.334 106.188 200.988 107.152 199.008 107.152ZM206.758 101.293H205.178V103.141H206.593C207.425 103.141 207.825 102.836 207.825 102.201C207.825 101.617 207.45 101.293 206.758 101.293ZM206.682 104.029H205.178V106.105H206.879C207.679 106.105 208.11 105.743 208.11 105.077C208.11 104.372 207.647 104.029 206.682 104.029ZM204.086 107V100.398H206.911C208.148 100.398 208.904 101.04 208.904 102.087C208.904 102.76 208.428 103.382 207.818 103.509V103.56C208.65 103.674 209.196 104.277 209.196 105.102C209.196 106.27 208.333 107 206.93 107H204.086ZM213.112 101.243C212.078 101.243 211.354 102.036 211.284 103.134H214.871C214.845 102.03 214.153 101.243 213.112 101.243ZM214.845 105.108H215.931C215.74 106.264 214.623 107.114 213.182 107.114C211.291 107.114 210.142 105.8 210.142 103.725C210.142 101.674 211.31 100.284 213.131 100.284C214.915 100.284 216.013 101.579 216.013 103.579V103.998H211.278V104.061C211.278 105.324 212.021 106.156 213.208 106.156C214.045 106.156 214.661 105.73 214.845 105.108ZM221.815 100.398V101.306H219.682V107H218.59V101.306H216.458V100.398H221.815ZM225.452 107.114C223.624 107.114 222.393 105.8 222.393 103.699C222.393 101.592 223.624 100.284 225.452 100.284C227.274 100.284 228.505 101.592 228.505 103.699C228.505 105.8 227.274 107.114 225.452 107.114ZM225.452 106.143C226.62 106.143 227.382 105.254 227.382 103.699C227.382 102.144 226.62 101.255 225.452 101.255C224.284 101.255 223.516 102.144 223.516 103.699C223.516 105.254 224.284 106.143 225.452 106.143ZM234.307 100.398V101.306H232.174V107H231.083V101.306H228.95V100.398H234.307ZM237.855 101.243C236.821 101.243 236.097 102.036 236.027 103.134H239.614C239.588 102.03 238.896 101.243 237.855 101.243ZM239.588 105.108H240.674C240.483 106.264 239.366 107.114 237.925 107.114C236.034 107.114 234.885 105.8 234.885 103.725C234.885 101.674 236.053 100.284 237.875 100.284C239.658 100.284 240.756 101.579 240.756 103.579V103.998H236.021V104.061C236.021 105.324 236.764 106.156 237.951 106.156C238.789 106.156 239.404 105.73 239.588 105.108ZM244.197 104.486H244.171L242.578 107H241.353L243.6 103.699L241.391 100.398H242.623L244.209 102.874H244.235L245.803 100.398H247.034L244.806 103.655L247.002 107H245.777L244.197 104.486ZM252.423 107V104.029H249.167V107H248.075V100.398H249.167V103.122H252.423V100.398H253.515V107H252.423ZM256.162 107H255.07V100.398H256.162V105.312H256.213L259.514 100.398H260.605V107H259.514V102.087H259.463L256.162 107ZM264.395 103.521L267.569 107H266.147L263.297 103.826H263.246V107H262.154V100.398H263.246V103.318H263.297L266.115 100.398H267.48L264.395 103.521Z" fill="#2D252F"/>
<rect x="38" y="196" width="73" height="26" rx="13" fill="#F5F5F7"/>
<path d="M52.5054 214H49.0459V204.84H52.5181C54.0859 204.84 55.146 205.754 55.146 207.125C55.146 208.078 54.4478 208.966 53.5654 209.125V209.176C54.8096 209.334 55.6094 210.21 55.6094 211.429C55.6094 213.042 54.4541 214 52.5054 214ZM50.1885 205.85V208.789H51.9023C53.2544 208.789 53.9907 208.249 53.9907 207.259C53.9907 206.351 53.3687 205.85 52.2578 205.85H50.1885ZM50.1885 212.991H52.334C53.7114 212.991 54.4351 212.432 54.4351 211.372C54.4351 210.312 53.686 209.772 52.2261 209.772H50.1885V212.991ZM59.5068 208.243C58.4722 208.243 57.7485 209.036 57.6787 210.134H61.2651C61.2397 209.03 60.5479 208.243 59.5068 208.243ZM61.2397 212.108H62.3252C62.1348 213.264 61.0176 214.114 59.5767 214.114C57.6851 214.114 56.5361 212.8 56.5361 210.725C56.5361 208.674 57.7041 207.284 59.5259 207.284C61.3096 207.284 62.4077 208.579 62.4077 210.579V210.998H57.6724V211.061C57.6724 212.324 58.415 213.156 59.6021 213.156C60.4399 213.156 61.0557 212.73 61.2397 212.108ZM67.8857 213.092V208.306H65.4102L65.207 211.086C65.1499 211.905 64.9785 212.623 64.6675 213.042V213.092H67.8857ZM63.8804 215.746H62.8521V213.092H63.4043C63.8867 212.775 64.1216 211.95 64.1851 211.061L64.439 207.398H68.9839V213.092H70.0312V215.746H69.0029V214H63.8804V215.746ZM71.4468 216.469C71.3135 216.469 71.0913 216.457 70.9707 216.431V215.504C71.0913 215.53 71.2627 215.536 71.4023 215.536C72.0181 215.536 72.3608 215.238 72.6147 214.47L72.7671 214.006L70.3296 207.398H71.5103L73.3384 212.896H73.3574L75.1855 207.398H76.3472L73.751 214.463C73.186 216.006 72.6401 216.469 71.4468 216.469ZM86.5288 215.746H85.5005V214H77.3311V207.398H78.4229V213.092H80.8604V207.398H81.9521V213.092H84.3896V207.398H85.4814V213.092H86.5288V215.746ZM88.6045 214H87.5127V207.398H88.6045V212.312H88.6553L91.9561 207.398H93.0479V214H91.9561V209.087H91.9053L88.6045 214ZM95.6885 214H94.5967V207.398H95.6885V212.312H95.7393L99.04 207.398H100.132V214H99.04V209.087H98.9893L95.6885 214ZM95.4409 204.542H96.2534C96.2534 205.278 96.7295 205.856 97.4849 205.856C98.2402 205.856 98.7163 205.278 98.7163 204.542H99.5288C99.5288 205.71 98.6973 206.51 97.4849 206.51C96.2725 206.51 95.4409 205.71 95.4409 204.542Z" fill="#2D252F"/>
<rect x="125" y="164" width="71" height="26" rx="13" fill="#F5F5F7"/>
<path d="M139.705 180.146V174.63C137.915 174.7 136.811 175.754 136.811 177.385C136.811 179.036 137.915 180.089 139.705 180.146ZM143.723 177.392C143.723 175.748 142.619 174.688 140.835 174.63V180.146C142.619 180.077 143.723 179.023 143.723 177.392ZM139.705 181.168C137.223 181.111 135.655 179.645 135.655 177.385C135.655 175.138 137.217 173.678 139.705 173.608V172.713H140.835V173.608C143.317 173.666 144.878 175.132 144.878 177.392C144.878 179.639 143.317 181.099 140.835 181.168V182.127H139.705V181.168ZM147.836 179.086C147.703 180.908 147.265 182.057 145.875 182.057C145.685 182.057 145.558 182.019 145.481 181.987V180.991C145.539 181.01 145.659 181.042 145.818 181.042C146.472 181.042 146.719 180.273 146.802 179.061L147.056 175.398H151.378V182H150.287V176.306H148.04L147.836 179.086ZM155.682 182.114C153.854 182.114 152.623 180.8 152.623 178.699C152.623 176.592 153.854 175.284 155.682 175.284C157.504 175.284 158.735 176.592 158.735 178.699C158.735 180.8 157.504 182.114 155.682 182.114ZM155.682 181.143C156.85 181.143 157.612 180.254 157.612 178.699C157.612 177.144 156.85 176.255 155.682 176.255C154.514 176.255 153.746 177.144 153.746 178.699C153.746 180.254 154.514 181.143 155.682 181.143ZM163.172 175.284C164.854 175.284 165.997 176.63 165.997 178.699C165.997 180.769 164.861 182.114 163.198 182.114C162.252 182.114 161.49 181.651 161.097 180.927H161.071V184.203H159.967V175.398H161.014V176.516H161.04C161.446 175.773 162.214 175.284 163.172 175.284ZM162.957 181.143C164.131 181.143 164.867 180.197 164.867 178.699C164.867 177.208 164.131 176.255 162.957 176.255C161.827 176.255 161.065 177.233 161.065 178.699C161.065 180.172 161.827 181.143 162.957 181.143ZM168.314 182H167.222V175.398H168.314V180.312H168.365L171.666 175.398H172.757V182H171.666V177.087H171.615L168.314 182ZM179.771 177.43H178.68C178.489 176.795 177.95 176.255 177.017 176.255C175.868 176.255 175.112 177.227 175.112 178.699C175.112 180.21 175.88 181.143 177.029 181.143C177.905 181.143 178.483 180.711 178.692 179.981H179.784C179.568 181.232 178.508 182.114 177.023 182.114C175.188 182.114 173.989 180.8 173.989 178.699C173.989 176.643 175.182 175.284 177.01 175.284C178.604 175.284 179.575 176.306 179.771 177.43ZM185.637 175.398V176.306H183.504V182H182.412V176.306H180.279V175.398H185.637Z" fill="#2D252F"/>
<rect x="15" y="150" width="68" height="26" rx="13" fill="#F5F5F7"/>
<path d="M32.4136 165.251C32.4136 166.87 31.2012 168 29.481 168H26.1484V158.84H31.4995V159.869H27.291V162.49H29.4683C31.1885 162.49 32.4136 163.626 32.4136 165.251ZM27.291 166.972H29.1826C30.4966 166.972 31.2393 166.356 31.2393 165.251C31.2393 164.141 30.4902 163.519 29.1826 163.519H27.291V166.972ZM36.0127 167.175C37.0537 167.175 37.8535 166.445 37.8535 165.493V164.953L36.0889 165.061C35.2002 165.118 34.6924 165.512 34.6924 166.134C34.6924 166.762 35.2192 167.175 36.0127 167.175ZM35.7651 168.114C34.4512 168.114 33.5688 167.321 33.5688 166.134C33.5688 165.004 34.4385 164.293 35.9619 164.204L37.8535 164.096V163.544C37.8535 162.738 37.3203 162.255 36.4062 162.255C35.5557 162.255 35.0225 162.655 34.8828 163.303H33.8164C33.8926 162.16 34.8701 161.284 36.4316 161.284C37.9805 161.284 38.958 162.122 38.958 163.436V168H37.9106V166.864H37.8853C37.4917 167.619 36.6538 168.114 35.7651 168.114ZM43.6934 161.284C45.3755 161.284 46.5181 162.63 46.5181 164.699C46.5181 166.769 45.3818 168.114 43.7188 168.114C42.7729 168.114 42.0112 167.651 41.6177 166.927H41.5923V170.203H40.4878V161.398H41.5352V162.516H41.5605C41.9668 161.773 42.7349 161.284 43.6934 161.284ZM43.4775 167.143C44.6519 167.143 45.3882 166.197 45.3882 164.699C45.3882 163.208 44.6519 162.255 43.4775 162.255C42.3477 162.255 41.5859 163.233 41.5859 164.699C41.5859 166.172 42.3477 167.143 43.4775 167.143ZM48.835 168H47.7432V161.398H48.835V166.312H48.8857L52.1865 161.398H53.2783V168H52.1865V163.087H52.1357L48.835 168ZM60.2925 163.43H59.2007C59.0103 162.795 58.4707 162.255 57.5376 162.255C56.3887 162.255 55.6333 163.227 55.6333 164.699C55.6333 166.21 56.4014 167.143 57.5503 167.143C58.4263 167.143 59.0039 166.711 59.2134 165.981H60.3052C60.0894 167.232 59.0293 168.114 57.5439 168.114C55.7095 168.114 54.5098 166.8 54.5098 164.699C54.5098 162.643 55.7031 161.284 57.5312 161.284C59.1245 161.284 60.0957 162.306 60.2925 163.43ZM66.1577 161.398V162.306H64.0249V168H62.9331V162.306H60.8003V161.398H66.1577ZM69.1094 167.175C70.1504 167.175 70.9502 166.445 70.9502 165.493V164.953L69.1855 165.061C68.2969 165.118 67.7891 165.512 67.7891 166.134C67.7891 166.762 68.3159 167.175 69.1094 167.175ZM68.8618 168.114C67.5479 168.114 66.6655 167.321 66.6655 166.134C66.6655 165.004 67.5352 164.293 69.0586 164.204L70.9502 164.096V163.544C70.9502 162.738 70.417 162.255 69.5029 162.255C68.6523 162.255 68.1191 162.655 67.9795 163.303H66.9131C66.9893 162.16 67.9668 161.284 69.5283 161.284C71.0771 161.284 72.0547 162.122 72.0547 163.436V168H71.0073V166.864H70.9819C70.5884 167.619 69.7505 168.114 68.8618 168.114Z" fill="#2D252F"/>
<rect x="129" width="88" height="26" rx="13" fill="#F5F5F7"/>
<path d="M143.934 8.68799C146.53 8.68799 148.155 10.5161 148.155 13.4233C148.155 16.3306 146.53 18.1523 143.934 18.1523C141.338 18.1523 139.713 16.3306 139.713 13.4233C139.713 10.5161 141.338 8.68799 143.934 8.68799ZM143.934 9.7417C142.062 9.7417 140.887 11.1636 140.887 13.4233C140.887 15.6768 142.062 17.0986 143.934 17.0986C145.807 17.0986 146.981 15.6768 146.981 13.4233C146.981 11.1636 145.807 9.7417 143.934 9.7417ZM152.624 17.1431V12.2554C151.215 12.2871 150.32 13.2075 150.32 14.6992C150.32 16.1846 151.215 17.105 152.624 17.1431ZM155.988 14.6992C155.988 13.2139 155.093 12.2935 153.69 12.2554V17.1431C155.093 17.1113 155.988 16.1909 155.988 14.6992ZM152.624 18.0825C150.567 18.0444 149.209 16.7368 149.209 14.6992C149.209 12.6616 150.567 11.3477 152.624 11.3159V9.22754H153.69V11.3159C155.734 11.354 157.099 12.6616 157.099 14.6992C157.099 16.7368 155.734 18.0508 153.69 18.0825V20.2026H152.624V18.0825ZM159.429 18H158.337V11.3984H159.429V16.3115H159.479L162.78 11.3984H163.872V18H162.78V13.0869H162.729L159.429 18ZM171.794 19.7456H170.766V18H165.421V11.3984H166.513V17.0923H169.648V11.3984H170.74V17.0923H171.794V19.7456ZM173.876 18H172.784V11.3984H173.876V16.3115H173.927L177.228 11.3984H178.319V18H177.228V13.0869H177.177L173.876 18ZM182.052 17.1748C183.093 17.1748 183.893 16.4448 183.893 15.4927V14.9531L182.128 15.061C181.239 15.1182 180.731 15.5117 180.731 16.1338C180.731 16.7622 181.258 17.1748 182.052 17.1748ZM181.804 18.1143C180.49 18.1143 179.608 17.3208 179.608 16.1338C179.608 15.0039 180.478 14.293 182.001 14.2041L183.893 14.0962V13.5439C183.893 12.7378 183.359 12.2554 182.445 12.2554C181.595 12.2554 181.062 12.6553 180.922 13.3027H179.855C179.932 12.1602 180.909 11.2842 182.471 11.2842C184.02 11.2842 184.997 12.1221 184.997 13.436V18H183.95V16.8638H183.924C183.531 17.6191 182.693 18.1143 181.804 18.1143ZM190.869 18V15.0293H187.612V18H186.521V11.3984H187.612V14.1216H190.869V11.3984H191.96V18H190.869ZM198.346 11.3984V12.3062H196.213V18H195.122V12.3062H192.989V11.3984H198.346ZM205.018 18V11.3984H206.109V18H205.018ZM201.691 14.4136H200.46V17.0923H201.691C202.548 17.0923 203.101 16.5591 203.101 15.7529C203.101 14.9404 202.542 14.4136 201.691 14.4136ZM199.368 18V11.3984H200.46V13.5059H201.71C203.221 13.5059 204.192 14.3755 204.192 15.7529C204.192 17.1304 203.221 18 201.71 18H199.368Z" fill="#2D252F"/>
<rect x="245" y="181" width="65" height="26" rx="13" fill="#F5F5F7"/>
<path d="M262.475 196.251C262.475 197.87 261.263 199 259.542 199H256.21V189.84H261.561V190.869H257.353V193.49H259.53C261.25 193.49 262.475 194.626 262.475 196.251ZM257.353 197.972H259.244C260.558 197.972 261.301 197.356 261.301 196.251C261.301 195.141 260.552 194.519 259.244 194.519H257.353V197.972ZM266.074 198.175C267.115 198.175 267.915 197.445 267.915 196.493V195.953L266.15 196.061C265.262 196.118 264.754 196.512 264.754 197.134C264.754 197.762 265.281 198.175 266.074 198.175ZM265.827 199.114C264.513 199.114 263.63 198.321 263.63 197.134C263.63 196.004 264.5 195.293 266.023 195.204L267.915 195.096V194.544C267.915 193.738 267.382 193.255 266.468 193.255C265.617 193.255 265.084 193.655 264.944 194.303H263.878C263.954 193.16 264.932 192.284 266.493 192.284C268.042 192.284 269.02 193.122 269.02 194.436V199H267.972V197.864H267.947C267.553 198.619 266.715 199.114 265.827 199.114ZM273.755 192.284C275.437 192.284 276.58 193.63 276.58 195.699C276.58 197.769 275.443 199.114 273.78 199.114C272.834 199.114 272.073 198.651 271.679 197.927H271.654V201.203H270.549V192.398H271.597V193.516H271.622C272.028 192.773 272.796 192.284 273.755 192.284ZM273.539 198.143C274.713 198.143 275.45 197.197 275.45 195.699C275.45 194.208 274.713 193.255 273.539 193.255C272.409 193.255 271.647 194.233 271.647 195.699C271.647 197.172 272.409 198.143 273.539 198.143ZM278.896 199H277.805V192.398H279.144L281.493 197.54H281.543L283.905 192.398H285.193V199H284.095V194.315H284.051L281.918 198.81H281.074L278.941 194.315H278.896V199ZM289.396 193.243C288.361 193.243 287.637 194.036 287.567 195.134H291.154C291.128 194.03 290.437 193.243 289.396 193.243ZM291.128 197.108H292.214C292.023 198.264 290.906 199.114 289.465 199.114C287.574 199.114 286.425 197.8 286.425 195.725C286.425 193.674 287.593 192.284 289.415 192.284C291.198 192.284 292.296 193.579 292.296 195.579V195.998H287.561V196.061C287.561 197.324 288.304 198.156 289.491 198.156C290.329 198.156 290.944 197.73 291.128 197.108ZM297.87 199V196.029H294.613V199H293.521V192.398H294.613V195.122H297.87V192.398H298.961V199H297.87Z" fill="#2D252F"/>
<rect x="290" y="41" width="70" height="26" rx="13" fill="#F5F5F7"/>
<path d="M304.415 59H303.272V50.8687H300.384V49.8403H307.303V50.8687H304.415V59ZM309.372 58.1748C310.413 58.1748 311.213 57.4448 311.213 56.4927V55.9531L309.448 56.061C308.56 56.1182 308.052 56.5117 308.052 57.1338C308.052 57.7622 308.579 58.1748 309.372 58.1748ZM309.125 59.1143C307.811 59.1143 306.928 58.3208 306.928 57.1338C306.928 56.0039 307.798 55.293 309.321 55.2041L311.213 55.0962V54.5439C311.213 53.7378 310.68 53.2554 309.766 53.2554C308.915 53.2554 308.382 53.6553 308.242 54.3027H307.176C307.252 53.1602 308.229 52.2842 309.791 52.2842C311.34 52.2842 312.317 53.1221 312.317 54.436V59H311.27V57.8638H311.245C310.851 58.6191 310.013 59.1143 309.125 59.1143ZM318.189 59V56.0293H314.933V59H313.841V52.3984H314.933V55.1216H318.189V52.3984H319.281V59H318.189ZM327.209 60.7456H326.181V59H320.836V52.3984H321.928V58.0923H325.063V52.3984H326.155V58.0923H327.209V60.7456ZM330.941 59.1143C329.113 59.1143 327.882 57.8003 327.882 55.6992C327.882 53.5918 329.113 52.2842 330.941 52.2842C332.763 52.2842 333.995 53.5918 333.995 55.6992C333.995 57.8003 332.763 59.1143 330.941 59.1143ZM330.941 58.1431C332.109 58.1431 332.871 57.2544 332.871 55.6992C332.871 54.144 332.109 53.2554 330.941 53.2554C329.773 53.2554 329.005 54.144 329.005 55.6992C329.005 57.2544 329.773 58.1431 330.941 58.1431ZM338.432 52.2842C340.114 52.2842 341.256 53.6299 341.256 55.6992C341.256 57.7686 340.12 59.1143 338.457 59.1143C337.511 59.1143 336.75 58.6509 336.356 57.9272H336.331V61.2026H335.226V52.3984H336.273V53.5156H336.299C336.705 52.7729 337.473 52.2842 338.432 52.2842ZM338.216 58.1431C339.39 58.1431 340.126 57.1973 340.126 55.6992C340.126 54.2075 339.39 53.2554 338.216 53.2554C337.086 53.2554 336.324 54.2329 336.324 55.6992C336.324 57.1719 337.086 58.1431 338.216 58.1431ZM348.131 59V52.3984H349.223V59H348.131ZM344.805 55.4136H343.573V58.0923H344.805C345.662 58.0923 346.214 57.5591 346.214 56.7529C346.214 55.9404 345.655 55.4136 344.805 55.4136ZM342.481 59V52.3984H343.573V54.5059H344.824C346.334 54.5059 347.306 55.3755 347.306 56.7529C347.306 58.1304 346.334 59 344.824 59H342.481Z" fill="#2D252F"/>
<rect x="47" y="6" width="78" height="26" rx="13" fill="#F5F5F7"/>
<path d="M61.5933 22.1465V16.6304C59.8032 16.7002 58.6987 17.7539 58.6987 19.3853C58.6987 21.0356 59.8032 22.0894 61.5933 22.1465ZM65.6113 19.3916C65.6113 17.7476 64.5068 16.6875 62.7231 16.6304V22.1465C64.5068 22.0767 65.6113 21.0229 65.6113 19.3916ZM61.5933 23.1685C59.1113 23.1113 57.5435 21.645 57.5435 19.3853C57.5435 17.1382 59.105 15.6782 61.5933 15.6084V14.7134H62.7231V15.6084C65.2051 15.6655 66.7666 17.1318 66.7666 19.3916C66.7666 21.6387 65.2051 23.0986 62.7231 23.1685V24.127H61.5933V23.1685ZM70.8291 24.1143C69.001 24.1143 67.7695 22.8003 67.7695 20.6992C67.7695 18.5918 69.001 17.2842 70.8291 17.2842C72.6509 17.2842 73.8823 18.5918 73.8823 20.6992C73.8823 22.8003 72.6509 24.1143 70.8291 24.1143ZM70.8291 23.1431C71.9971 23.1431 72.7588 22.2544 72.7588 20.6992C72.7588 19.144 71.9971 18.2554 70.8291 18.2554C69.6611 18.2554 68.8931 19.144 68.8931 20.6992C68.8931 22.2544 69.6611 23.1431 70.8291 23.1431ZM79.6841 17.3984V18.3062H77.5513V24H76.4595V18.3062H74.3267V17.3984H79.6841ZM83.3213 24.1143C81.4932 24.1143 80.2617 22.8003 80.2617 20.6992C80.2617 18.5918 81.4932 17.2842 83.3213 17.2842C85.1431 17.2842 86.3745 18.5918 86.3745 20.6992C86.3745 22.8003 85.1431 24.1143 83.3213 24.1143ZM83.3213 23.1431C84.4893 23.1431 85.251 22.2544 85.251 20.6992C85.251 19.144 84.4893 18.2554 83.3213 18.2554C82.1533 18.2554 81.3853 19.144 81.3853 20.6992C81.3853 22.2544 82.1533 23.1431 83.3213 23.1431ZM91.8462 18.3062H88.6914V24H87.5996V17.3984H91.8462V18.3062ZM96.2578 17.2842C97.9399 17.2842 99.0825 18.6299 99.0825 20.6992C99.0825 22.7686 97.9463 24.1143 96.2832 24.1143C95.3374 24.1143 94.5757 23.6509 94.1821 22.9272H94.1567V26.2026H93.0522V17.3984H94.0996V18.5156H94.125C94.5312 17.7729 95.2993 17.2842 96.2578 17.2842ZM96.042 23.1431C97.2163 23.1431 97.9526 22.1973 97.9526 20.6992C97.9526 19.2075 97.2163 18.2554 96.042 18.2554C94.9121 18.2554 94.1504 19.2329 94.1504 20.6992C94.1504 22.1719 94.9121 23.1431 96.042 23.1431ZM102.491 23.1748C103.532 23.1748 104.332 22.4448 104.332 21.4927V20.9531L102.567 21.061C101.679 21.1182 101.171 21.5117 101.171 22.1338C101.171 22.7622 101.698 23.1748 102.491 23.1748ZM102.244 24.1143C100.93 24.1143 100.047 23.3208 100.047 22.1338C100.047 21.0039 100.917 20.293 102.44 20.2041L104.332 20.0962V19.5439C104.332 18.7378 103.799 18.2554 102.885 18.2554C102.034 18.2554 101.501 18.6553 101.361 19.3027H100.295C100.371 18.1602 101.349 17.2842 102.91 17.2842C104.459 17.2842 105.437 18.1221 105.437 19.436V24H104.389V22.8638H104.364C103.97 23.6191 103.132 24.1143 102.244 24.1143ZM110.058 23.1431V18.2554C108.648 18.2871 107.753 19.2075 107.753 20.6992C107.753 22.1846 108.648 23.105 110.058 23.1431ZM113.422 20.6992C113.422 19.2139 112.527 18.2935 111.124 18.2554V23.1431C112.527 23.1113 113.422 22.1909 113.422 20.6992ZM110.058 24.0825C108.001 24.0444 106.643 22.7368 106.643 20.6992C106.643 18.6616 108.001 17.3477 110.058 17.3159V15.2275H111.124V17.3159C113.168 17.354 114.533 18.6616 114.533 20.6992C114.533 22.7368 113.168 24.0508 111.124 24.0825V26.2026H110.058V24.0825Z" fill="#2D252F"/>
<rect x="15" y="36" width="70" height="26" rx="13" fill="#F5F5F7"/>
<path d="M27.9419 50.6294C27.8784 51.6768 27.7515 52.375 27.3008 52.9209V52.9717H31.7441V45.8687H28.2402L27.9419 50.6294ZM26.2661 54V55.8091H25.2061V52.9717H25.8853C26.5518 52.6162 26.7993 51.8037 26.8691 50.604L27.2183 44.8403H32.8867V52.9717H34.0293V55.8091H32.9692V54H26.2661ZM36.2764 54H35.1846V47.3984H36.2764V52.3115H36.3271L39.6279 47.3984H40.7197V54H39.6279V49.0869H39.5771L36.2764 54ZM46.6484 53.0923V48.3062H44.1729L43.9697 51.0864C43.9126 51.9053 43.7412 52.6226 43.4302 53.0415V53.0923H46.6484ZM42.6431 55.7456H41.6147V53.0923H42.167C42.6494 52.7749 42.8843 51.9497 42.9478 51.061L43.2017 47.3984H47.7466V53.0923H48.7939V55.7456H47.7656V54H42.6431V55.7456ZM55.5034 50.5215L58.4868 54H57.0713L54.4053 50.8262H54.3545V54H53.2627V50.8262H53.2183L50.5522 54H49.1558L52.1201 50.5405L49.2256 47.3984H50.584L53.2183 50.3184H53.2627V47.3984H54.3545V50.3184H54.4053L57.0396 47.3984H58.3853L55.5034 50.5215ZM61.8828 48.2427C60.8481 48.2427 60.1245 49.0361 60.0547 50.1343H63.6411C63.6157 49.0298 62.9238 48.2427 61.8828 48.2427ZM63.6157 52.1084H64.7012C64.5107 53.2637 63.3936 54.1143 61.9526 54.1143C60.061 54.1143 58.9121 52.8003 58.9121 50.7246C58.9121 48.6743 60.0801 47.2842 61.9019 47.2842C63.6855 47.2842 64.7837 48.5791 64.7837 50.5786V50.9976H60.0483V51.061C60.0483 52.3242 60.791 53.1558 61.978 53.1558C62.8159 53.1558 63.4316 52.7305 63.6157 52.1084ZM67.1006 54H66.0088V47.3984H67.1006V52.3115H67.1514L70.4521 47.3984H71.5439V54H70.4521V49.0869H70.4014L67.1006 54ZM66.853 44.542H67.6655C67.6655 45.2783 68.1416 45.856 68.897 45.856C69.6523 45.856 70.1284 45.2783 70.1284 44.542H70.9409C70.9409 45.71 70.1094 46.5098 68.897 46.5098C67.6846 46.5098 66.853 45.71 66.853 44.542Z" fill="#2D252F"/>
<rect x="274" y="123" width="81" height="26" rx="13" fill="#F5F5F7"/>
<path d="M287.421 136.22L292.01 141H290.442L286.215 136.55H286.164V141H285.021V131.84H286.164V136.062H286.215L290.15 131.84H291.585L287.421 136.22ZM295.203 135.243C294.168 135.243 293.445 136.036 293.375 137.134H296.961C296.936 136.03 296.244 135.243 295.203 135.243ZM296.936 139.108H298.021C297.831 140.264 296.714 141.114 295.273 141.114C293.381 141.114 292.232 139.8 292.232 137.725C292.232 135.674 293.4 134.284 295.222 134.284C297.006 134.284 298.104 135.579 298.104 137.579V137.998H293.369V138.061C293.369 139.324 294.111 140.156 295.298 140.156C296.136 140.156 296.752 139.73 296.936 139.108ZM300.421 141H299.329V134.398H300.421V139.312H300.472L303.772 134.398H304.864V141H303.772V136.087H303.722L300.421 141ZM300.173 131.542H300.986C300.986 132.278 301.462 132.856 302.217 132.856C302.973 132.856 303.449 132.278 303.449 131.542H304.261C304.261 132.71 303.43 133.51 302.217 133.51C301.005 133.51 300.173 132.71 300.173 131.542ZM311.244 134.398V135.306H309.111V141H308.019V135.306H305.886V134.398H311.244ZM314.792 135.243C313.757 135.243 313.034 136.036 312.964 137.134H316.55C316.525 136.03 315.833 135.243 314.792 135.243ZM316.525 139.108H317.61C317.42 140.264 316.303 141.114 314.862 141.114C312.97 141.114 311.821 139.8 311.821 137.725C311.821 135.674 312.989 134.284 314.811 134.284C316.595 134.284 317.693 135.579 317.693 137.579V137.998H312.958V138.061C312.958 139.324 313.7 140.156 314.887 140.156C315.725 140.156 316.341 139.73 316.525 139.108ZM322.13 134.284C323.812 134.284 324.955 135.63 324.955 137.699C324.955 139.769 323.818 141.114 322.155 141.114C321.209 141.114 320.448 140.651 320.054 139.927H320.029V143.203H318.924V134.398H319.972V135.516H319.997C320.403 134.773 321.171 134.284 322.13 134.284ZM321.914 140.143C323.088 140.143 323.825 139.197 323.825 137.699C323.825 136.208 323.088 135.255 321.914 135.255C320.784 135.255 320.022 136.233 320.022 137.699C320.022 139.172 320.784 140.143 321.914 140.143ZM327.271 141H326.18V134.398H327.271V139.312H327.322L330.623 134.398H331.715V141H330.623V136.087H330.572L327.271 141ZM337.612 141V138.029H334.355V141H333.264V134.398H334.355V137.122H337.612V134.398H338.704V141H337.612ZM344.505 135.306H341.351V141H340.259V134.398H344.505V135.306Z" fill="#2D252F"/>
<defs>
<linearGradient id="paint0_linear_31711_13309" x1="188" y1="34" x2="188" y2="101.5" gradientUnits="userSpaceOnUse">
<stop stop-color="#F5F5F7"/>
<stop offset="1" stop-color="white"/>
</linearGradient>
<linearGradient id="paint1_linear_31711_13309" x1="188" y1="121" x2="188" y2="177.5" gradientUnits="userSpaceOnUse">
<stop stop-color="#F5F5F7"/>
<stop offset="1" stop-color="white"/>
</linearGradient>
<linearGradient id="paint2_linear_31711_13309" x1="188" y1="196" x2="188" y2="231" gradientUnits="userSpaceOnUse">
<stop stop-color="#F5F5F7"/>
<stop offset="1" stop-color="white"/>
</linearGradient>
<linearGradient id="paint3_linear_31711_13309" x1="24.5" y1="181.25" x2="28.5" y2="185.5" gradientUnits="userSpaceOnUse">
<stop stop-color="#7F178D"/>
<stop offset="0.759615" stop-color="#EF8218"/>
<stop offset="0.985577" stop-color="#DCDE38"/>
</linearGradient>
<linearGradient id="paint4_linear_31711_13309" x1="131.5" y1="125.25" x2="135.5" y2="129.5" gradientUnits="userSpaceOnUse">
<stop stop-color="#7F178D"/>
<stop offset="0.759615" stop-color="#EF8218"/>
<stop offset="0.985577" stop-color="#DCDE38"/>
</linearGradient>
<linearGradient id="paint5_linear_31711_13309" x1="201.5" y1="120.25" x2="205.5" y2="124.5" gradientUnits="userSpaceOnUse">
<stop stop-color="#7F178D"/>
<stop offset="0.759615" stop-color="#EF8218"/>
<stop offset="0.985577" stop-color="#DCDE38"/>
</linearGradient>
<linearGradient id="paint6_linear_31711_13309" x1="166.5" y1="195.25" x2="170.5" y2="199.5" gradientUnits="userSpaceOnUse">
<stop stop-color="#7F178D"/>
<stop offset="0.759615" stop-color="#EF8218"/>
<stop offset="0.985577" stop-color="#DCDE38"/>
</linearGradient>
<linearGradient id="paint7_linear_31711_13309" x1="255.5" y1="212.25" x2="259.5" y2="216.5" gradientUnits="userSpaceOnUse">
<stop stop-color="#7F178D"/>
<stop offset="0.759615" stop-color="#EF8218"/>
<stop offset="0.985577" stop-color="#DCDE38"/>
</linearGradient>
<linearGradient id="paint8_linear_31711_13309" x1="96.5" y1="227.25" x2="100.5" y2="231.5" gradientUnits="userSpaceOnUse">
<stop stop-color="#7F178D"/>
<stop offset="0.759615" stop-color="#EF8218"/>
<stop offset="0.985577" stop-color="#DCDE38"/>
</linearGradient>
<linearGradient id="paint9_linear_31711_13309" x1="261.5" y1="40.25" x2="265.5" y2="44.5" gradientUnits="userSpaceOnUse">
<stop stop-color="#7F178D"/>
<stop offset="0.759615" stop-color="#EF8218"/>
<stop offset="0.985577" stop-color="#DCDE38"/>
</linearGradient>
<linearGradient id="paint10_linear_31711_13309" x1="191.5" y1="31.25" x2="195.5" y2="35.5" gradientUnits="userSpaceOnUse">
<stop stop-color="#7F178D"/>
<stop offset="0.759615" stop-color="#EF8218"/>
<stop offset="0.985577" stop-color="#DCDE38"/>
</linearGradient>
<linearGradient id="paint11_linear_31711_13309" x1="352.5" y1="72.25" x2="356.5" y2="76.5" gradientUnits="userSpaceOnUse">
<stop stop-color="#7F178D"/>
<stop offset="0.759615" stop-color="#EF8218"/>
<stop offset="0.985577" stop-color="#DCDE38"/>
</linearGradient>
<linearGradient id="paint12_linear_31711_13309" x1="118.5" y1="37.25" x2="122.5" y2="41.5" gradientUnits="userSpaceOnUse">
<stop stop-color="#7F178D"/>
<stop offset="0.759615" stop-color="#EF8218"/>
<stop offset="0.985577" stop-color="#DCDE38"/>
</linearGradient>
<linearGradient id="paint13_linear_31711_13309" x1="31.5" y1="67.25" x2="35.5" y2="71.5" gradientUnits="userSpaceOnUse">
<stop stop-color="#7F178D"/>
<stop offset="0.759615" stop-color="#EF8218"/>
<stop offset="0.985577" stop-color="#DCDE38"/>
</linearGradient>
<linearGradient id="paint14_linear_31711_13309" x1="310.5" y1="154.25" x2="314.5" y2="158.5" gradientUnits="userSpaceOnUse">
<stop stop-color="#7F178D"/>
<stop offset="0.759615" stop-color="#EF8218"/>
<stop offset="0.985577" stop-color="#DCDE38"/>
</linearGradient>
</defs>
</svg>
