<svg width="728" height="266" viewBox="0 0 728 266" fill="none" xmlns="http://www.w3.org/2000/svg">
<mask id="mask0_31706_16799" style="mask-type:alpha" maskUnits="userSpaceOnUse" x="0" y="34" width="728" height="232">
<rect y="34" width="728" height="232" fill="#D9D9D9"/>
</mask>
<g mask="url(#mask0_31706_16799)">
<rect x="0.5" y="36.5" width="727" height="723" rx="361.5" fill="url(#paint0_linear_31706_16799)" stroke="#F5F5F7"/>
<rect x="125.5" y="104.5" width="477" height="477" rx="238.5" fill="url(#paint1_linear_31706_16799)" stroke="#F5F5F7"/>
<rect x="226.5" y="168.5" width="275" height="275" rx="137.5" fill="url(#paint2_linear_31706_16799)" stroke="#F5F5F7"/>
<path d="M200 166.5C200 165.119 201.119 164 202.5 164C203.881 164 205 165.119 205 166.5C205 167.881 203.881 169 202.5 169C201.119 169 200 167.881 200 166.5Z" fill="url(#paint3_linear_31706_16799)"/>
<path d="M383 104.5C383 103.119 384.119 102 385.5 102C386.881 102 388 103.119 388 104.5C388 105.881 386.881 107 385.5 107C384.119 107 383 105.881 383 104.5Z" fill="url(#paint4_linear_31706_16799)"/>
<path d="M501 148.5C501 147.119 502.119 146 503.5 146C504.881 146 506 147.119 506 148.5C506 149.881 504.881 151 503.5 151C502.119 151 501 149.881 501 148.5Z" fill="url(#paint5_linear_31706_16799)"/>
<path d="M573 232.5C573 231.119 574.119 230 575.5 230C576.881 230 578 231.119 578 232.5C578 233.881 576.881 235 575.5 235C574.119 235 573 233.881 573 232.5Z" fill="url(#paint6_linear_31706_16799)"/>
<path d="M342 169.5C342 168.119 343.119 167 344.5 167C345.881 167 347 168.119 347 169.5C347 170.881 345.881 172 344.5 172C343.119 172 342 170.881 342 169.5Z" fill="url(#paint7_linear_31706_16799)"/>
<path d="M444 196.5C444 195.119 445.119 194 446.5 194C447.881 194 449 195.119 449 196.5C449 197.881 447.881 199 446.5 199C445.119 199 444 197.881 444 196.5Z" fill="url(#paint8_linear_31706_16799)"/>
<path d="M249 227.5C249 226.119 250.119 225 251.5 225C252.881 225 254 226.119 254 227.5C254 228.881 252.881 230 251.5 230C250.119 230 249 228.881 249 227.5Z" fill="url(#paint9_linear_31706_16799)"/>
<rect x="160" y="95" width="5" height="5" rx="2.5" fill="url(#paint10_linear_31706_16799)"/>
<path d="M486 58.5C486 57.1193 487.119 56 488.5 56C489.881 56 491 57.1193 491 58.5C491 59.8807 489.881 61 488.5 61C487.119 61 486 59.8807 486 58.5Z" fill="url(#paint11_linear_31706_16799)"/>
<path d="M338 37.5C338 36.1193 339.119 35 340.5 35C341.881 35 343 36.1193 343 37.5C343 38.8807 341.881 40 340.5 40C339.119 40 338 38.8807 338 37.5Z" fill="url(#paint12_linear_31706_16799)"/>
<path d="M661 193.5C661 192.119 662.119 191 663.5 191C664.881 191 666 192.119 666 193.5C666 194.881 664.881 196 663.5 196C662.119 196 661 194.881 661 193.5Z" fill="url(#paint13_linear_31706_16799)"/>
<path d="M63 192.5C63 191.119 64.1193 190 65.5 190C66.8807 190 68 191.119 68 192.5C68 193.881 66.8807 195 65.5 195C64.1193 195 63 193.881 63 192.5Z" fill="url(#paint14_linear_31706_16799)"/>
</g>
<rect x="300" y="67" width="128" height="30" rx="15" fill="#F5F5F7"/>
<path d="M319.799 87H316.073V77.1357H319.812C321.501 77.1357 322.643 78.1201 322.643 79.5967C322.643 80.6221 321.891 81.5791 320.94 81.75V81.8047C322.28 81.9756 323.142 82.9189 323.142 84.2314C323.142 85.9678 321.897 87 319.799 87ZM317.304 78.2227V81.3877H319.149C320.605 81.3877 321.398 80.8066 321.398 79.7402C321.398 78.7627 320.729 78.2227 319.532 78.2227H317.304ZM317.304 85.9131H319.614C321.098 85.9131 321.877 85.3115 321.877 84.1699C321.877 83.0283 321.07 82.4473 319.498 82.4473H317.304V85.9131ZM325.657 87H324.481V79.8906H325.657V85.1816H325.712L329.267 79.8906H330.442V87H329.267V81.709H329.212L325.657 87ZM336.827 86.0225V80.8682H334.161L333.942 83.8623C333.881 84.7441 333.696 85.5166 333.361 85.9678V86.0225H336.827ZM332.514 88.8799H331.406V86.0225H332.001C332.521 85.6807 332.773 84.792 332.842 83.835L333.115 79.8906H338.01V86.0225H339.138V88.8799H338.03V87H332.514V88.8799ZM343.062 80.7998C341.947 80.7998 341.168 81.6543 341.093 82.8369H344.955C344.928 81.6475 344.183 80.7998 343.062 80.7998ZM344.928 84.9629H346.097C345.892 86.207 344.688 87.123 343.137 87.123C341.1 87.123 339.862 85.708 339.862 83.4727C339.862 81.2646 341.12 79.7676 343.082 79.7676C345.003 79.7676 346.186 81.1621 346.186 83.3154V83.7666H341.086V83.835C341.086 85.1953 341.886 86.0908 343.164 86.0908C344.066 86.0908 344.729 85.6328 344.928 84.9629ZM350.458 87.123C348.489 87.123 347.163 85.708 347.163 83.4453C347.163 81.1758 348.489 79.7676 350.458 79.7676C352.42 79.7676 353.746 81.1758 353.746 83.4453C353.746 85.708 352.42 87.123 350.458 87.123ZM350.458 86.0771C351.716 86.0771 352.536 85.1201 352.536 83.4453C352.536 81.7705 351.716 80.8135 350.458 80.8135C349.2 80.8135 348.373 81.7705 348.373 83.4453C348.373 85.1201 349.2 86.0771 350.458 86.0771ZM358.019 87.123C356.05 87.123 354.724 85.708 354.724 83.4453C354.724 81.1758 356.05 79.7676 358.019 79.7676C359.98 79.7676 361.307 81.1758 361.307 83.4453C361.307 85.708 359.98 87.123 358.019 87.123ZM358.019 86.0771C359.276 86.0771 360.097 85.1201 360.097 83.4453C360.097 81.7705 359.276 80.8135 358.019 80.8135C356.761 80.8135 355.934 81.7705 355.934 83.4453C355.934 85.1201 356.761 86.0771 358.019 86.0771ZM367.24 87V80.8682H363.802V87H362.626V79.8906H368.423V87H367.24ZM372.948 80.7998C371.834 80.7998 371.055 81.6543 370.979 82.8369H374.842C374.814 81.6475 374.069 80.7998 372.948 80.7998ZM374.814 84.9629H375.983C375.778 86.207 374.575 87.123 373.023 87.123C370.986 87.123 369.749 85.708 369.749 83.4727C369.749 81.2646 371.007 79.7676 372.969 79.7676C374.89 79.7676 376.072 81.1621 376.072 83.3154V83.7666H370.973V83.835C370.973 85.1953 371.772 86.0908 373.051 86.0908C373.953 86.0908 374.616 85.6328 374.814 84.9629ZM380.851 79.7676C382.662 79.7676 383.893 81.2168 383.893 83.4453C383.893 85.6738 382.669 87.123 380.878 87.123C379.859 87.123 379.039 86.624 378.615 85.8447H378.588V89.3721H377.398V79.8906H378.526V81.0938H378.554C378.991 80.2939 379.818 79.7676 380.851 79.7676ZM380.618 86.0771C381.883 86.0771 382.676 85.0586 382.676 83.4453C382.676 81.8389 381.883 80.8135 380.618 80.8135C379.401 80.8135 378.581 81.8662 378.581 83.4453C378.581 85.0312 379.401 86.0771 380.618 86.0771ZM387.563 86.1113C388.685 86.1113 389.546 85.3252 389.546 84.2998V83.7188L387.646 83.835C386.688 83.8965 386.142 84.3203 386.142 84.9902C386.142 85.667 386.709 86.1113 387.563 86.1113ZM387.297 87.123C385.882 87.123 384.932 86.2686 384.932 84.9902C384.932 83.7734 385.868 83.0078 387.509 82.9121L389.546 82.7959V82.2012C389.546 81.333 388.972 80.8135 387.987 80.8135C387.071 80.8135 386.497 81.2441 386.347 81.9414H385.198C385.28 80.7109 386.333 79.7676 388.015 79.7676C389.683 79.7676 390.735 80.6699 390.735 82.085V87H389.607V85.7764H389.58C389.156 86.5898 388.254 87.123 387.297 87.123ZM397.441 79.8906V80.8682H395.145V87H393.969V80.8682H391.672V79.8906H397.441ZM401.358 87.123C399.39 87.123 398.063 85.708 398.063 83.4453C398.063 81.1758 399.39 79.7676 401.358 79.7676C403.32 79.7676 404.646 81.1758 404.646 83.4453C404.646 85.708 403.32 87.123 401.358 87.123ZM401.358 86.0771C402.616 86.0771 403.437 85.1201 403.437 83.4453C403.437 81.7705 402.616 80.8135 401.358 80.8135C400.101 80.8135 399.273 81.7705 399.273 83.4453C399.273 85.1201 400.101 86.0771 401.358 86.0771ZM409.425 79.7676C411.236 79.7676 412.467 81.2168 412.467 83.4453C412.467 85.6738 411.243 87.123 409.452 87.123C408.434 87.123 407.613 86.624 407.189 85.8447H407.162V89.3721H405.973V79.8906H407.101V81.0938H407.128C407.565 80.2939 408.393 79.7676 409.425 79.7676ZM409.192 86.0771C410.457 86.0771 411.25 85.0586 411.25 83.4453C411.25 81.8389 410.457 80.8135 409.192 80.8135C407.976 80.8135 407.155 81.8662 407.155 83.4453C407.155 85.0312 407.976 86.0771 409.192 86.0771Z" fill="#2D252F"/>
<rect x="466" y="21" width="161" height="30" rx="15" fill="#F5F5F7"/>
<path d="M492.045 41H490.896V33.3984H490.849L487.704 40.9316H486.665L483.521 33.3984H483.473V41H482.324V31.1357H483.753L487.157 39.3662H487.212L490.616 31.1357H492.045V41ZM496.256 40.1113C497.377 40.1113 498.238 39.3252 498.238 38.2998V37.7188L496.338 37.835C495.381 37.8965 494.834 38.3203 494.834 38.9902C494.834 39.667 495.401 40.1113 496.256 40.1113ZM495.989 41.123C494.574 41.123 493.624 40.2686 493.624 38.9902C493.624 37.7734 494.561 37.0078 496.201 36.9121L498.238 36.7959V36.2012C498.238 35.333 497.664 34.8135 496.68 34.8135C495.764 34.8135 495.189 35.2441 495.039 35.9414H493.891C493.973 34.7109 495.025 33.7676 496.707 33.7676C498.375 33.7676 499.428 34.6699 499.428 36.085V41H498.3V39.7764H498.272C497.849 40.5898 496.946 41.123 495.989 41.123ZM506.954 36.0781H505.778C505.573 35.3945 504.992 34.8135 503.987 34.8135C502.75 34.8135 501.937 35.8594 501.937 37.4453C501.937 39.0723 502.764 40.0771 504.001 40.0771C504.944 40.0771 505.566 39.6123 505.792 38.8262H506.968C506.735 40.1729 505.594 41.123 503.994 41.123C502.019 41.123 500.727 39.708 500.727 37.4453C500.727 35.2305 502.012 33.7676 503.98 33.7676C505.696 33.7676 506.742 34.8682 506.954 36.0781ZM513.271 33.8906V34.8682H510.974V41H509.798V34.8682H507.501V33.8906H513.271ZM517.092 34.7998C515.978 34.7998 515.198 35.6543 515.123 36.8369H518.985C518.958 35.6475 518.213 34.7998 517.092 34.7998ZM518.958 38.9629H520.127C519.922 40.207 518.719 41.123 517.167 41.123C515.13 41.123 513.893 39.708 513.893 37.4727C513.893 35.2646 515.15 33.7676 517.112 33.7676C519.033 33.7676 520.216 35.1621 520.216 37.3154V37.7666H515.116V37.835C515.116 39.1953 515.916 40.0908 517.194 40.0908C518.097 40.0908 518.76 39.6328 518.958 38.9629ZM524.994 33.7676C526.806 33.7676 528.036 35.2168 528.036 37.4453C528.036 39.6738 526.812 41.123 525.021 41.123C524.003 41.123 523.183 40.624 522.759 39.8447H522.731V43.3721H521.542V33.8906H522.67V35.0938H522.697C523.135 34.2939 523.962 33.7676 524.994 33.7676ZM524.762 40.0771C526.026 40.0771 526.819 39.0586 526.819 37.4453C526.819 35.8389 526.026 34.8135 524.762 34.8135C523.545 34.8135 522.725 35.8662 522.725 37.4453C522.725 39.0312 523.545 40.0771 524.762 40.0771ZM536.841 41V34.8682H533.402V41H532.227V33.8906H538.023V41H536.841ZM543.15 33.7676C544.962 33.7676 546.192 35.2168 546.192 37.4453C546.192 39.6738 544.969 41.123 543.178 41.123C542.159 41.123 541.339 40.624 540.915 39.8447H540.888V43.3721H539.698V33.8906H540.826V35.0938H540.854C541.291 34.2939 542.118 33.7676 543.15 33.7676ZM542.918 40.0771C544.183 40.0771 544.976 39.0586 544.976 37.4453C544.976 35.8389 544.183 34.8135 542.918 34.8135C541.701 34.8135 540.881 35.8662 540.881 37.4453C540.881 39.0312 541.701 40.0771 542.918 40.0771ZM550.369 34.7998C549.255 34.7998 548.476 35.6543 548.4 36.8369H552.263C552.235 35.6475 551.49 34.7998 550.369 34.7998ZM552.235 38.9629H553.404C553.199 40.207 551.996 41.123 550.444 41.123C548.407 41.123 547.17 39.708 547.17 37.4727C547.17 35.2646 548.428 33.7676 550.39 33.7676C552.311 33.7676 553.493 35.1621 553.493 37.3154V37.7666H548.394V37.835C548.394 39.1953 549.193 40.0908 550.472 40.0908C551.374 40.0908 552.037 39.6328 552.235 38.9629ZM557.185 41.123C555.626 41.123 554.498 40.3574 554.375 39.1543H555.578C555.715 39.7764 556.303 40.1387 557.185 40.1387C558.217 40.1387 558.791 39.6465 558.791 38.9561C558.791 38.1562 558.258 37.7939 557.185 37.7939H556.118V36.8232H557.185C558.087 36.8232 558.552 36.4814 558.552 35.7842C558.552 35.1895 558.128 34.7588 557.212 34.7588C556.371 34.7588 555.783 35.1211 555.688 35.6885H554.532C554.683 34.5127 555.708 33.7676 557.212 33.7676C558.832 33.7676 559.714 34.5469 559.714 35.6885C559.714 36.4131 559.249 37.0557 558.538 37.2197V37.2744C559.475 37.4795 559.96 38.0811 559.96 38.9014C559.96 40.2275 558.853 41.123 557.185 41.123ZM564.178 34.7998C563.063 34.7998 562.284 35.6543 562.209 36.8369H566.071C566.044 35.6475 565.299 34.7998 564.178 34.7998ZM566.044 38.9629H567.213C567.008 40.207 565.805 41.123 564.253 41.123C562.216 41.123 560.979 39.708 560.979 37.4727C560.979 35.2646 562.236 33.7676 564.198 33.7676C566.119 33.7676 567.302 35.1621 567.302 37.3154V37.7666H562.202V37.835C562.202 39.1953 563.002 40.0908 564.28 40.0908C565.183 40.0908 565.846 39.6328 566.044 38.9629ZM573.304 41V37.8008H569.797V41H568.621V33.8906H569.797V36.8232H573.304V33.8906H574.479V41H573.304ZM581.356 33.8906V34.8682H579.06V41H577.884V34.8682H575.587V33.8906H581.356ZM584.535 40.1113C585.656 40.1113 586.518 39.3252 586.518 38.2998V37.7188L584.617 37.835C583.66 37.8965 583.113 38.3203 583.113 38.9902C583.113 39.667 583.681 40.1113 584.535 40.1113ZM584.269 41.123C582.854 41.123 581.903 40.2686 581.903 38.9902C581.903 37.7734 582.84 37.0078 584.48 36.9121L586.518 36.7959V36.2012C586.518 35.333 585.943 34.8135 584.959 34.8135C584.043 34.8135 583.469 35.2441 583.318 35.9414H582.17C582.252 34.7109 583.305 33.7676 584.986 33.7676C586.654 33.7676 587.707 34.6699 587.707 36.085V41H586.579V39.7764H586.552C586.128 40.5898 585.226 41.123 584.269 41.123ZM596.211 42.8799H595.104V41H589.348V33.8906H590.523V40.0225H593.9V33.8906H595.076V40.0225H596.211V42.8799ZM598.453 41H597.277V33.8906H598.453V39.1816H598.508L602.062 33.8906H603.238V41H602.062V35.709H602.008L598.453 41ZM606.082 41H604.906V33.8906H606.082V39.1816H606.137L609.691 33.8906H610.867V41H609.691V35.709H609.637L606.082 41ZM605.815 30.8145H606.69C606.69 31.6074 607.203 32.2295 608.017 32.2295C608.83 32.2295 609.343 31.6074 609.343 30.8145H610.218C610.218 32.0723 609.322 32.9336 608.017 32.9336C606.711 32.9336 605.815 32.0723 605.815 30.8145Z" fill="#2D252F"/>
<rect x="527" y="195" width="96" height="30" rx="15" fill="#F5F5F7"/>
<path d="M545.838 209.853L550.78 215H549.092L544.539 210.208H544.484V215H543.254V205.136H544.484V209.682H544.539L548.777 205.136H550.322L545.838 209.853ZM554.219 208.8C553.104 208.8 552.325 209.654 552.25 210.837H556.112C556.085 209.647 555.34 208.8 554.219 208.8ZM556.085 212.963H557.254C557.049 214.207 555.846 215.123 554.294 215.123C552.257 215.123 551.02 213.708 551.02 211.473C551.02 209.265 552.277 207.768 554.239 207.768C556.16 207.768 557.343 209.162 557.343 211.315V211.767H552.243V211.835C552.243 213.195 553.043 214.091 554.321 214.091C555.224 214.091 555.887 213.633 556.085 212.963ZM559.838 215H558.662V207.891H559.838V213.182H559.893L563.447 207.891H564.623V215H563.447V209.709H563.393L559.838 215ZM559.571 204.814H560.446C560.446 205.607 560.959 206.229 561.772 206.229C562.586 206.229 563.099 205.607 563.099 204.814H563.974C563.974 206.072 563.078 206.934 561.772 206.934C560.467 206.934 559.571 206.072 559.571 204.814ZM571.493 207.891V208.868H569.196V215H568.021V208.868H565.724V207.891H571.493ZM575.314 208.8C574.2 208.8 573.421 209.654 573.346 210.837H577.208C577.181 209.647 576.436 208.8 575.314 208.8ZM577.181 212.963H578.35C578.145 214.207 576.941 215.123 575.39 215.123C573.353 215.123 572.115 213.708 572.115 211.473C572.115 209.265 573.373 207.768 575.335 207.768C577.256 207.768 578.438 209.162 578.438 211.315V211.767H573.339V211.835C573.339 213.195 574.139 214.091 575.417 214.091C576.319 214.091 576.982 213.633 577.181 212.963ZM583.217 207.768C585.028 207.768 586.259 209.217 586.259 211.445C586.259 213.674 585.035 215.123 583.244 215.123C582.226 215.123 581.405 214.624 580.981 213.845H580.954V217.372H579.765V207.891H580.893V209.094H580.92C581.357 208.294 582.185 207.768 583.217 207.768ZM582.984 214.077C584.249 214.077 585.042 213.059 585.042 211.445C585.042 209.839 584.249 208.813 582.984 208.813C581.768 208.813 580.947 209.866 580.947 211.445C580.947 213.031 581.768 214.077 582.984 214.077ZM588.754 215H587.578V207.891H588.754V213.182H588.809L592.363 207.891H593.539V215H592.363V209.709H592.309L588.754 215ZM599.89 215V211.801H596.383V215H595.207V207.891H596.383V210.823H599.89V207.891H601.065V215H599.89ZM607.313 208.868H603.916V215H602.74V207.891H607.313V208.868Z" fill="#2D252F"/>
<rect x="45" y="155" width="84" height="30" rx="15" fill="#F5F5F7"/>
<path d="M63.2451 171.37C63.1768 172.498 63.04 173.25 62.5547 173.838V173.893H67.3398V166.243H63.5664L63.2451 171.37ZM61.4404 175V176.948H60.2988V173.893H61.0303C61.748 173.51 62.0146 172.635 62.0898 171.343L62.4658 165.136H68.5703V173.893H69.8008V176.948H68.6592V175H61.4404ZM72.2207 175H71.0449V167.891H72.2207V173.182H72.2754L75.8301 167.891H77.0059V175H75.8301V169.709H75.7754L72.2207 175ZM83.3906 174.022V168.868H80.7246L80.5059 171.862C80.4443 172.744 80.2598 173.517 79.9248 173.968V174.022H83.3906ZM79.0771 176.88H77.9697V174.022H78.5645C79.084 173.681 79.3369 172.792 79.4053 171.835L79.6787 167.891H84.5732V174.022H85.7012V176.88H84.5938V175H79.0771V176.88ZM92.9268 171.254L96.1396 175H94.6152L91.7441 171.582H91.6895V175H90.5137V171.582H90.4658L87.5947 175H86.0908L89.2832 171.274L86.166 167.891H87.6289L90.4658 171.035H90.5137V167.891H91.6895V171.035H91.7441L94.5811 167.891H96.0303L92.9268 171.254ZM99.7969 168.8C98.6826 168.8 97.9033 169.654 97.8281 170.837H101.69C101.663 169.647 100.918 168.8 99.7969 168.8ZM101.663 172.963H102.832C102.627 174.207 101.424 175.123 99.8721 175.123C97.835 175.123 96.5977 173.708 96.5977 171.473C96.5977 169.265 97.8555 167.768 99.8174 167.768C101.738 167.768 102.921 169.162 102.921 171.315V171.767H97.8213V171.835C97.8213 173.195 98.6211 174.091 99.8994 174.091C100.802 174.091 101.465 173.633 101.663 172.963ZM105.416 175H104.24V167.891H105.416V173.182H105.471L109.025 167.891H110.201V175H109.025V169.709H108.971L105.416 175ZM105.149 164.814H106.024C106.024 165.607 106.537 166.229 107.351 166.229C108.164 166.229 108.677 165.607 108.677 164.814H109.552C109.552 166.072 108.656 166.934 107.351 166.934C106.045 166.934 105.149 166.072 105.149 164.814Z" fill="#2D252F"/>
<rect x="484" y="111" width="110" height="30" rx="15" fill="#F5F5F7"/>
<path d="M504.547 131.164C501.826 131.164 500.104 129.188 500.104 126.064C500.104 122.968 501.847 120.972 504.547 120.972C506.646 120.972 508.252 122.216 508.614 124.109H507.356C507.001 122.893 505.9 122.106 504.547 122.106C502.619 122.106 501.368 123.665 501.368 126.064C501.368 128.484 502.605 130.029 504.554 130.029C505.955 130.029 506.967 129.38 507.356 128.252H508.614C508.129 130.125 506.68 131.164 504.547 131.164ZM512.894 124.854H511.191V126.844H512.716C513.611 126.844 514.042 126.516 514.042 125.832C514.042 125.203 513.639 124.854 512.894 124.854ZM512.812 127.801H511.191V130.036H513.023C513.885 130.036 514.35 129.646 514.35 128.929C514.35 128.17 513.851 127.801 512.812 127.801ZM510.016 131V123.891H513.058C514.391 123.891 515.204 124.581 515.204 125.709C515.204 126.434 514.691 127.104 514.035 127.24V127.295C514.931 127.418 515.519 128.067 515.519 128.956C515.519 130.214 514.589 131 513.078 131H510.016ZM519.736 124.8C518.622 124.8 517.843 125.654 517.768 126.837H521.63C521.603 125.647 520.857 124.8 519.736 124.8ZM521.603 128.963H522.771C522.566 130.207 521.363 131.123 519.812 131.123C517.774 131.123 516.537 129.708 516.537 127.473C516.537 125.265 517.795 123.768 519.757 123.768C521.678 123.768 522.86 125.162 522.86 127.315V127.767H517.761V127.835C517.761 129.195 518.561 130.091 519.839 130.091C520.741 130.091 521.404 129.633 521.603 128.963ZM529.108 123.891V124.868H526.812V131H525.636V124.868H523.339V123.891H529.108ZM533.025 131.123C531.057 131.123 529.73 129.708 529.73 127.445C529.73 125.176 531.057 123.768 533.025 123.768C534.987 123.768 536.313 125.176 536.313 127.445C536.313 129.708 534.987 131.123 533.025 131.123ZM533.025 130.077C534.283 130.077 535.104 129.12 535.104 127.445C535.104 125.771 534.283 124.813 533.025 124.813C531.768 124.813 530.94 125.771 530.94 127.445C530.94 129.12 531.768 130.077 533.025 130.077ZM542.562 123.891V124.868H540.265V131H539.089V124.868H536.792V123.891H542.562ZM546.383 124.8C545.269 124.8 544.489 125.654 544.414 126.837H548.276C548.249 125.647 547.504 124.8 546.383 124.8ZM548.249 128.963H549.418C549.213 130.207 548.01 131.123 546.458 131.123C544.421 131.123 543.184 129.708 543.184 127.473C543.184 125.265 544.441 123.768 546.403 123.768C548.324 123.768 549.507 125.162 549.507 127.315V127.767H544.407V127.835C544.407 129.195 545.207 130.091 546.485 130.091C547.388 130.091 548.051 129.633 548.249 128.963ZM553.212 128.293H553.185L551.469 131H550.149L552.569 127.445L550.19 123.891H551.517L553.226 126.557H553.253L554.941 123.891H556.268L553.868 127.397L556.233 131H554.914L553.212 128.293ZM562.071 131V127.801H558.564V131H557.389V123.891H558.564V126.823H562.071V123.891H563.247V131H562.071ZM566.098 131H564.922V123.891H566.098V129.182H566.152L569.707 123.891H570.883V131H569.707V125.709H569.652L566.098 131ZM574.964 127.254L578.382 131H576.851L573.781 127.582H573.727V131H572.551V123.891H573.727V127.035H573.781L576.816 123.891H578.286L574.964 127.254Z" fill="#2D252F"/>
<rect x="627" y="156" width="84" height="30" rx="15" fill="#F5F5F7"/>
<path d="M646.831 176H645.601V167.243H642.49V166.136H649.941V167.243H646.831V176ZM652.17 175.111C653.291 175.111 654.152 174.325 654.152 173.3V172.719L652.252 172.835C651.295 172.896 650.748 173.32 650.748 173.99C650.748 174.667 651.315 175.111 652.17 175.111ZM651.903 176.123C650.488 176.123 649.538 175.269 649.538 173.99C649.538 172.773 650.475 172.008 652.115 171.912L654.152 171.796V171.201C654.152 170.333 653.578 169.813 652.594 169.813C651.678 169.813 651.104 170.244 650.953 170.941H649.805C649.887 169.711 650.939 168.768 652.621 168.768C654.289 168.768 655.342 169.67 655.342 171.085V176H654.214V174.776H654.187C653.763 175.59 652.86 176.123 651.903 176.123ZM661.665 176V172.801H658.158V176H656.982V168.891H658.158V171.823H661.665V168.891H662.841V176H661.665ZM671.379 177.88H670.271V176H664.516V168.891H665.691V175.022H669.068V168.891H670.244V175.022H671.379V177.88ZM675.398 176.123C673.43 176.123 672.104 174.708 672.104 172.445C672.104 170.176 673.43 168.768 675.398 168.768C677.36 168.768 678.687 170.176 678.687 172.445C678.687 174.708 677.36 176.123 675.398 176.123ZM675.398 175.077C676.656 175.077 677.477 174.12 677.477 172.445C677.477 170.771 676.656 169.813 675.398 169.813C674.141 169.813 673.313 170.771 673.313 172.445C673.313 174.12 674.141 175.077 675.398 175.077ZM683.465 168.768C685.276 168.768 686.507 170.217 686.507 172.445C686.507 174.674 685.283 176.123 683.492 176.123C682.474 176.123 681.653 175.624 681.229 174.845H681.202V178.372H680.013V168.891H681.141V170.094H681.168C681.605 169.294 682.433 168.768 683.465 168.768ZM683.232 175.077C684.497 175.077 685.29 174.059 685.29 172.445C685.29 170.839 684.497 169.813 683.232 169.813C682.016 169.813 681.195 170.866 681.195 172.445C681.195 174.031 682.016 175.077 683.232 175.077ZM693.91 176V168.891H695.086V176H693.91ZM690.328 172.138H689.002V175.022H690.328C691.251 175.022 691.846 174.448 691.846 173.58C691.846 172.705 691.244 172.138 690.328 172.138ZM687.826 176V168.891H689.002V171.16H690.349C691.976 171.16 693.021 172.097 693.021 173.58C693.021 175.063 691.976 176 690.349 176H687.826Z" fill="#2D252F"/>
<rect x="177" y="190" width="87" height="30" rx="15" fill="#F5F5F7"/>
<path d="M196.813 210H193.088V200.136H196.827C198.516 200.136 199.657 201.12 199.657 202.597C199.657 203.622 198.905 204.579 197.955 204.75V204.805C199.295 204.976 200.156 205.919 200.156 207.231C200.156 208.968 198.912 210 196.813 210ZM194.318 201.223V204.388H196.164C197.62 204.388 198.413 203.807 198.413 202.74C198.413 201.763 197.743 201.223 196.547 201.223H194.318ZM194.318 208.913H196.629C198.112 208.913 198.892 208.312 198.892 207.17C198.892 206.028 198.085 205.447 196.513 205.447H194.318V208.913ZM204.354 203.8C203.239 203.8 202.46 204.654 202.385 205.837H206.247C206.22 204.647 205.475 203.8 204.354 203.8ZM206.22 207.963H207.389C207.184 209.207 205.98 210.123 204.429 210.123C202.392 210.123 201.154 208.708 201.154 206.473C201.154 204.265 202.412 202.768 204.374 202.768C206.295 202.768 207.478 204.162 207.478 206.315V206.767H202.378V206.835C202.378 208.195 203.178 209.091 204.456 209.091C205.358 209.091 206.021 208.633 206.22 207.963ZM213.377 209.022V203.868H210.711L210.492 206.862C210.431 207.744 210.246 208.517 209.911 208.968V209.022H213.377ZM209.063 211.88H207.956V209.022H208.551C209.07 208.681 209.323 207.792 209.392 206.835L209.665 202.891H214.56V209.022H215.688V211.88H214.58V210H209.063V211.88ZM217.212 212.659C217.068 212.659 216.829 212.646 216.699 212.618V211.62C216.829 211.647 217.014 211.654 217.164 211.654C217.827 211.654 218.196 211.333 218.47 210.506L218.634 210.007L216.009 202.891H217.28L219.249 208.811H219.27L221.238 202.891H222.489L219.693 210.499C219.085 212.16 218.497 212.659 217.212 212.659ZM233.454 211.88H232.347V210H223.549V202.891H224.725V209.022H227.35V202.891H228.525V209.022H231.15V202.891H232.326V209.022H233.454V211.88ZM235.689 210H234.514V202.891H235.689V208.182H235.744L239.299 202.891H240.475V210H239.299V204.709H239.244L235.689 210ZM243.318 210H242.143V202.891H243.318V208.182H243.373L246.928 202.891H248.104V210H246.928V204.709H246.873L243.318 210ZM243.052 199.814H243.927C243.927 200.607 244.439 201.229 245.253 201.229C246.066 201.229 246.579 200.607 246.579 199.814H247.454C247.454 201.072 246.559 201.934 245.253 201.934C243.947 201.934 243.052 201.072 243.052 199.814Z" fill="#2D252F"/>
<rect x="301" y="131" width="85" height="30" rx="15" fill="#F5F5F7"/>
<path d="M321.105 149.004V143.063C319.178 143.139 317.988 144.273 317.988 146.03C317.988 147.808 319.178 148.942 321.105 149.004ZM325.433 146.037C325.433 144.267 324.243 143.125 322.322 143.063V149.004C324.243 148.929 325.433 147.794 325.433 146.037ZM321.105 150.104C318.433 150.043 316.744 148.464 316.744 146.03C316.744 143.61 318.426 142.038 321.105 141.963V140.999H322.322V141.963C324.995 142.024 326.677 143.604 326.677 146.037C326.677 148.457 324.995 150.029 322.322 150.104V151.137H321.105V150.104ZM329.862 147.862C329.719 149.824 329.247 151.062 327.75 151.062C327.545 151.062 327.408 151.021 327.326 150.986V149.913C327.388 149.934 327.518 149.968 327.688 149.968C328.393 149.968 328.659 149.141 328.748 147.835L329.021 143.891H333.677V151H332.501V144.868H330.081L329.862 147.862ZM338.312 151.123C336.343 151.123 335.017 149.708 335.017 147.445C335.017 145.176 336.343 143.768 338.312 143.768C340.273 143.768 341.6 145.176 341.6 147.445C341.6 149.708 340.273 151.123 338.312 151.123ZM338.312 150.077C339.569 150.077 340.39 149.12 340.39 147.445C340.39 145.771 339.569 144.813 338.312 144.813C337.054 144.813 336.227 145.771 336.227 147.445C336.227 149.12 337.054 150.077 338.312 150.077ZM346.378 143.768C348.189 143.768 349.42 145.217 349.42 147.445C349.42 149.674 348.196 151.123 346.405 151.123C345.387 151.123 344.566 150.624 344.143 149.845H344.115V153.372H342.926V143.891H344.054V145.094H344.081C344.519 144.294 345.346 143.768 346.378 143.768ZM346.146 150.077C347.41 150.077 348.203 149.059 348.203 147.445C348.203 145.839 347.41 144.813 346.146 144.813C344.929 144.813 344.108 145.866 344.108 147.445C344.108 149.031 344.929 150.077 346.146 150.077ZM351.915 151H350.739V143.891H351.915V149.182H351.97L355.524 143.891H356.7V151H355.524V145.709H355.47L351.915 151ZM364.254 146.078H363.078C362.873 145.395 362.292 144.813 361.287 144.813C360.05 144.813 359.236 145.859 359.236 147.445C359.236 149.072 360.063 150.077 361.301 150.077C362.244 150.077 362.866 149.612 363.092 148.826H364.268C364.035 150.173 362.894 151.123 361.294 151.123C359.318 151.123 358.026 149.708 358.026 147.445C358.026 145.23 359.312 143.768 361.28 143.768C362.996 143.768 364.042 144.868 364.254 146.078ZM370.57 143.891V144.868H368.273V151H367.098V144.868H364.801V143.891H370.57Z" fill="#2D252F"/>
<rect x="189" y="129" width="82" height="30" rx="15" fill="#F5F5F7"/>
<path d="M212.138 146.04C212.138 147.783 210.832 149 208.979 149H205.391V139.136H211.153V140.243H206.621V143.066H208.966C210.818 143.066 212.138 144.29 212.138 146.04ZM206.621 147.893H208.658C210.073 147.893 210.873 147.229 210.873 146.04C210.873 144.844 210.066 144.174 208.658 144.174H206.621V147.893ZM216.014 148.111C217.135 148.111 217.996 147.325 217.996 146.3V145.719L216.096 145.835C215.139 145.896 214.592 146.32 214.592 146.99C214.592 147.667 215.159 148.111 216.014 148.111ZM215.747 149.123C214.332 149.123 213.382 148.269 213.382 146.99C213.382 145.773 214.318 145.008 215.959 144.912L217.996 144.796V144.201C217.996 143.333 217.422 142.813 216.438 142.813C215.521 142.813 214.947 143.244 214.797 143.941H213.648C213.73 142.711 214.783 141.768 216.465 141.768C218.133 141.768 219.186 142.67 219.186 144.085V149H218.058V147.776H218.03C217.606 148.59 216.704 149.123 215.747 149.123ZM224.285 141.768C226.097 141.768 227.327 143.217 227.327 145.445C227.327 147.674 226.104 149.123 224.312 149.123C223.294 149.123 222.474 148.624 222.05 147.845H222.022V151.372H220.833V141.891H221.961V143.094H221.988C222.426 142.294 223.253 141.768 224.285 141.768ZM224.053 148.077C225.317 148.077 226.11 147.059 226.11 145.445C226.11 143.839 225.317 142.813 224.053 142.813C222.836 142.813 222.016 143.866 222.016 145.445C222.016 147.031 222.836 148.077 224.053 148.077ZM229.822 149H228.646V141.891H229.822V147.182H229.877L233.432 141.891H234.607V149H233.432V143.709H233.377L229.822 149ZM242.161 144.078H240.985C240.78 143.395 240.199 142.813 239.194 142.813C237.957 142.813 237.144 143.859 237.144 145.445C237.144 147.072 237.971 148.077 239.208 148.077C240.151 148.077 240.773 147.612 240.999 146.826H242.175C241.942 148.173 240.801 149.123 239.201 149.123C237.226 149.123 235.934 147.708 235.934 145.445C235.934 143.23 237.219 141.768 239.188 141.768C240.903 141.768 241.949 142.868 242.161 144.078ZM248.478 141.891V142.868H246.181V149H245.005V142.868H242.708V141.891H248.478ZM251.656 148.111C252.777 148.111 253.639 147.325 253.639 146.3V145.719L251.738 145.835C250.781 145.896 250.234 146.32 250.234 146.99C250.234 147.667 250.802 148.111 251.656 148.111ZM251.39 149.123C249.975 149.123 249.024 148.269 249.024 146.99C249.024 145.773 249.961 145.008 251.602 144.912L253.639 144.796V144.201C253.639 143.333 253.064 142.813 252.08 142.813C251.164 142.813 250.59 143.244 250.439 143.941H249.291C249.373 142.711 250.426 141.768 252.107 141.768C253.775 141.768 254.828 142.67 254.828 144.085V149H253.7V147.776H253.673C253.249 148.59 252.347 149.123 251.39 149.123Z" fill="#2D252F"/>
<rect x="249" width="103" height="30" rx="15" fill="#F5F5F7"/>
<path d="M269.198 9.97168C271.994 9.97168 273.744 11.9404 273.744 15.0713C273.744 18.2021 271.994 20.1641 269.198 20.1641C266.402 20.1641 264.652 18.2021 264.652 15.0713C264.652 11.9404 266.402 9.97168 269.198 9.97168ZM269.198 11.1064C267.182 11.1064 265.917 12.6377 265.917 15.0713C265.917 17.498 267.182 19.0293 269.198 19.0293C271.215 19.0293 272.479 17.498 272.479 15.0713C272.479 12.6377 271.215 11.1064 269.198 11.1064ZM278.557 19.0771V13.8135C277.039 13.8477 276.075 14.8389 276.075 16.4453C276.075 18.0449 277.039 19.0361 278.557 19.0771ZM282.18 16.4453C282.18 14.8457 281.216 13.8545 279.705 13.8135V19.0771C281.216 19.043 282.18 18.0518 282.18 16.4453ZM278.557 20.0889C276.342 20.0479 274.879 18.6396 274.879 16.4453C274.879 14.251 276.342 12.8359 278.557 12.8018V10.5527H279.705V12.8018C281.906 12.8428 283.376 14.251 283.376 16.4453C283.376 18.6396 281.906 20.0547 279.705 20.0889V22.3721H278.557V20.0889ZM285.885 20H284.709V12.8906H285.885V18.1816H285.939L289.494 12.8906H290.67V20H289.494V14.709H289.439L285.885 20ZM299.201 21.8799H298.094V20H292.338V12.8906H293.514V19.0225H296.891V12.8906H298.066V19.0225H299.201V21.8799ZM301.443 20H300.268V12.8906H301.443V18.1816H301.498L305.053 12.8906H306.229V20H305.053V14.709H304.998L301.443 20ZM310.248 19.1113C311.369 19.1113 312.23 18.3252 312.23 17.2998V16.7188L310.33 16.835C309.373 16.8965 308.826 17.3203 308.826 17.9902C308.826 18.667 309.394 19.1113 310.248 19.1113ZM309.981 20.123C308.566 20.123 307.616 19.2686 307.616 17.9902C307.616 16.7734 308.553 16.0078 310.193 15.9121L312.23 15.7959V15.2012C312.23 14.333 311.656 13.8135 310.672 13.8135C309.756 13.8135 309.182 14.2441 309.031 14.9414H307.883C307.965 13.7109 309.018 12.7676 310.699 12.7676C312.367 12.7676 313.42 13.6699 313.42 15.085V20H312.292V18.7764H312.265C311.841 19.5898 310.938 20.123 309.981 20.123ZM319.743 20V16.8008H316.236V20H315.061V12.8906H316.236V15.8232H319.743V12.8906H320.919V20H319.743ZM327.796 12.8906V13.8682H325.499V20H324.323V13.8682H322.026V12.8906H327.796ZM334.98 20V12.8906H336.156V20H334.98ZM331.398 16.1377H330.072V19.0225H331.398C332.321 19.0225 332.916 18.4482 332.916 17.5801C332.916 16.7051 332.314 16.1377 331.398 16.1377ZM328.896 20V12.8906H330.072V15.1602H331.419C333.046 15.1602 334.092 16.0967 334.092 17.5801C334.092 19.0635 333.046 20 331.419 20H328.896Z" fill="#2D252F"/>
<rect x="434" y="159" width="78" height="30" rx="15" fill="#F5F5F7"/>
<path d="M456.819 176.04C456.819 177.783 455.514 179 453.661 179H450.072V169.136H455.835V170.243H451.303V173.066H453.647C455.5 173.066 456.819 174.29 456.819 176.04ZM451.303 177.893H453.34C454.755 177.893 455.555 177.229 455.555 176.04C455.555 174.844 454.748 174.174 453.34 174.174H451.303V177.893ZM460.695 178.111C461.816 178.111 462.678 177.325 462.678 176.3V175.719L460.777 175.835C459.82 175.896 459.273 176.32 459.273 176.99C459.273 177.667 459.841 178.111 460.695 178.111ZM460.429 179.123C459.014 179.123 458.063 178.269 458.063 176.99C458.063 175.773 459 175.008 460.641 174.912L462.678 174.796V174.201C462.678 173.333 462.104 172.813 461.119 172.813C460.203 172.813 459.629 173.244 459.479 173.941H458.33C458.412 172.711 459.465 171.768 461.146 171.768C462.814 171.768 463.867 172.67 463.867 174.085V179H462.739V177.776H462.712C462.288 178.59 461.386 179.123 460.429 179.123ZM468.967 171.768C470.778 171.768 472.009 173.217 472.009 175.445C472.009 177.674 470.785 179.123 468.994 179.123C467.976 179.123 467.155 178.624 466.731 177.845H466.704V181.372H465.515V171.891H466.643V173.094H466.67C467.107 172.294 467.935 171.768 468.967 171.768ZM468.734 178.077C469.999 178.077 470.792 177.059 470.792 175.445C470.792 173.839 469.999 172.813 468.734 172.813C467.518 172.813 466.697 173.866 466.697 175.445C466.697 177.031 467.518 178.077 468.734 178.077ZM474.504 179H473.328V171.891H474.771L477.3 177.428H477.354L479.897 171.891H481.285V179H480.103V173.955H480.055L477.758 178.795H476.849L474.552 173.955H474.504V179ZM485.811 172.8C484.696 172.8 483.917 173.654 483.842 174.837H487.704C487.677 173.647 486.932 172.8 485.811 172.8ZM487.677 176.963H488.846C488.641 178.207 487.438 179.123 485.886 179.123C483.849 179.123 482.611 177.708 482.611 175.473C482.611 173.265 483.869 171.768 485.831 171.768C487.752 171.768 488.935 173.162 488.935 175.315V175.767H483.835V175.835C483.835 177.195 484.635 178.091 485.913 178.091C486.815 178.091 487.479 177.633 487.677 176.963ZM494.937 179V175.801H491.43V179H490.254V171.891H491.43V174.823H494.937V171.891H496.112V179H494.937Z" fill="#2D252F"/>
<rect x="97" y="60" width="93" height="30" rx="15" fill="#F5F5F7"/>
<path d="M117.216 78.0039V72.0635C115.288 72.1387 114.099 73.2734 114.099 75.0303C114.099 76.8076 115.288 77.9424 117.216 78.0039ZM121.543 75.0371C121.543 73.2666 120.354 72.125 118.433 72.0635V78.0039C120.354 77.9287 121.543 76.7939 121.543 75.0371ZM117.216 79.1045C114.543 79.043 112.854 77.4639 112.854 75.0303C112.854 72.6104 114.536 71.0381 117.216 70.9629V69.999H118.433V70.9629C121.105 71.0244 122.787 72.6035 122.787 75.0371C122.787 77.457 121.105 79.0293 118.433 79.1045V80.1367H117.216V79.1045ZM127.162 80.123C125.193 80.123 123.867 78.708 123.867 76.4453C123.867 74.1758 125.193 72.7676 127.162 72.7676C129.124 72.7676 130.45 74.1758 130.45 76.4453C130.45 78.708 129.124 80.123 127.162 80.123ZM127.162 79.0771C128.42 79.0771 129.24 78.1201 129.24 76.4453C129.24 74.7705 128.42 73.8135 127.162 73.8135C125.904 73.8135 125.077 74.7705 125.077 76.4453C125.077 78.1201 125.904 79.0771 127.162 79.0771ZM136.698 72.8906V73.8682H134.401V80H133.226V73.8682H130.929V72.8906H136.698ZM140.615 80.123C138.646 80.123 137.32 78.708 137.32 76.4453C137.32 74.1758 138.646 72.7676 140.615 72.7676C142.577 72.7676 143.903 74.1758 143.903 76.4453C143.903 78.708 142.577 80.123 140.615 80.123ZM140.615 79.0771C141.873 79.0771 142.693 78.1201 142.693 76.4453C142.693 74.7705 141.873 73.8135 140.615 73.8135C139.357 73.8135 138.53 74.7705 138.53 76.4453C138.53 78.1201 139.357 79.0771 140.615 79.0771ZM149.796 73.8682H146.398V80H145.223V72.8906H149.796V73.8682ZM154.547 72.7676C156.358 72.7676 157.589 74.2168 157.589 76.4453C157.589 78.6738 156.365 80.123 154.574 80.123C153.556 80.123 152.735 79.624 152.312 78.8447H152.284V82.3721H151.095V72.8906H152.223V74.0938H152.25C152.688 73.2939 153.515 72.7676 154.547 72.7676ZM154.314 79.0771C155.579 79.0771 156.372 78.0586 156.372 76.4453C156.372 74.8389 155.579 73.8135 154.314 73.8135C153.098 73.8135 152.277 74.8662 152.277 76.4453C152.277 78.0312 153.098 79.0771 154.314 79.0771ZM161.26 79.1113C162.381 79.1113 163.242 78.3252 163.242 77.2998V76.7188L161.342 76.835C160.385 76.8965 159.838 77.3203 159.838 77.9902C159.838 78.667 160.405 79.1113 161.26 79.1113ZM160.993 80.123C159.578 80.123 158.628 79.2686 158.628 77.9902C158.628 76.7734 159.564 76.0078 161.205 75.9121L163.242 75.7959V75.2012C163.242 74.333 162.668 73.8135 161.684 73.8135C160.768 73.8135 160.193 74.2441 160.043 74.9414H158.895C158.977 73.7109 160.029 72.7676 161.711 72.7676C163.379 72.7676 164.432 73.6699 164.432 75.085V80H163.304V78.7764H163.276C162.853 79.5898 161.95 80.123 160.993 80.123ZM169.408 79.0771V73.8135C167.891 73.8477 166.927 74.8389 166.927 76.4453C166.927 78.0449 167.891 79.0361 169.408 79.0771ZM173.031 76.4453C173.031 74.8457 172.067 73.8545 170.557 73.8135V79.0771C172.067 79.043 173.031 78.0518 173.031 76.4453ZM169.408 80.0889C167.193 80.0479 165.73 78.6396 165.73 76.4453C165.73 74.251 167.193 72.8359 169.408 72.8018V70.5527H170.557V72.8018C172.758 72.8428 174.228 74.251 174.228 76.4453C174.228 78.6396 172.758 80.0547 170.557 80.0889V82.3721H169.408V80.0889Z" fill="#2D252F"/>
<defs>
<linearGradient id="paint0_linear_31706_16799" x1="364" y1="36" x2="364" y2="103.5" gradientUnits="userSpaceOnUse">
<stop stop-color="#F5F5F7"/>
<stop offset="1" stop-color="white"/>
</linearGradient>
<linearGradient id="paint1_linear_31706_16799" x1="364" y1="104" x2="364" y2="160.5" gradientUnits="userSpaceOnUse">
<stop stop-color="#F5F5F7"/>
<stop offset="1" stop-color="white"/>
</linearGradient>
<linearGradient id="paint2_linear_31706_16799" x1="364" y1="168" x2="364" y2="203" gradientUnits="userSpaceOnUse">
<stop stop-color="#F5F5F7"/>
<stop offset="1" stop-color="white"/>
</linearGradient>
<linearGradient id="paint3_linear_31706_16799" x1="200.5" y1="164.25" x2="204.5" y2="168.5" gradientUnits="userSpaceOnUse">
<stop stop-color="#7F178D"/>
<stop offset="0.759615" stop-color="#EF8218"/>
<stop offset="0.985577" stop-color="#DCDE38"/>
</linearGradient>
<linearGradient id="paint4_linear_31706_16799" x1="383.5" y1="102.25" x2="387.5" y2="106.5" gradientUnits="userSpaceOnUse">
<stop stop-color="#7F178D"/>
<stop offset="0.759615" stop-color="#EF8218"/>
<stop offset="0.985577" stop-color="#DCDE38"/>
</linearGradient>
<linearGradient id="paint5_linear_31706_16799" x1="501.5" y1="146.25" x2="505.5" y2="150.5" gradientUnits="userSpaceOnUse">
<stop stop-color="#7F178D"/>
<stop offset="0.759615" stop-color="#EF8218"/>
<stop offset="0.985577" stop-color="#DCDE38"/>
</linearGradient>
<linearGradient id="paint6_linear_31706_16799" x1="573.5" y1="230.25" x2="577.5" y2="234.5" gradientUnits="userSpaceOnUse">
<stop stop-color="#7F178D"/>
<stop offset="0.759615" stop-color="#EF8218"/>
<stop offset="0.985577" stop-color="#DCDE38"/>
</linearGradient>
<linearGradient id="paint7_linear_31706_16799" x1="342.5" y1="167.25" x2="346.5" y2="171.5" gradientUnits="userSpaceOnUse">
<stop stop-color="#7F178D"/>
<stop offset="0.759615" stop-color="#EF8218"/>
<stop offset="0.985577" stop-color="#DCDE38"/>
</linearGradient>
<linearGradient id="paint8_linear_31706_16799" x1="444.5" y1="194.25" x2="448.5" y2="198.5" gradientUnits="userSpaceOnUse">
<stop stop-color="#7F178D"/>
<stop offset="0.759615" stop-color="#EF8218"/>
<stop offset="0.985577" stop-color="#DCDE38"/>
</linearGradient>
<linearGradient id="paint9_linear_31706_16799" x1="249.5" y1="225.25" x2="253.5" y2="229.5" gradientUnits="userSpaceOnUse">
<stop stop-color="#7F178D"/>
<stop offset="0.759615" stop-color="#EF8218"/>
<stop offset="0.985577" stop-color="#DCDE38"/>
</linearGradient>
<linearGradient id="paint10_linear_31706_16799" x1="160.5" y1="95.25" x2="164.5" y2="99.5" gradientUnits="userSpaceOnUse">
<stop stop-color="#7F178D"/>
<stop offset="0.759615" stop-color="#EF8218"/>
<stop offset="0.985577" stop-color="#DCDE38"/>
</linearGradient>
<linearGradient id="paint11_linear_31706_16799" x1="486.5" y1="56.25" x2="490.5" y2="60.5" gradientUnits="userSpaceOnUse">
<stop stop-color="#7F178D"/>
<stop offset="0.759615" stop-color="#EF8218"/>
<stop offset="0.985577" stop-color="#DCDE38"/>
</linearGradient>
<linearGradient id="paint12_linear_31706_16799" x1="338.5" y1="35.25" x2="342.5" y2="39.5" gradientUnits="userSpaceOnUse">
<stop stop-color="#7F178D"/>
<stop offset="0.759615" stop-color="#EF8218"/>
<stop offset="0.985577" stop-color="#DCDE38"/>
</linearGradient>
<linearGradient id="paint13_linear_31706_16799" x1="661.5" y1="191.25" x2="665.5" y2="195.5" gradientUnits="userSpaceOnUse">
<stop stop-color="#7F178D"/>
<stop offset="0.759615" stop-color="#EF8218"/>
<stop offset="0.985577" stop-color="#DCDE38"/>
</linearGradient>
<linearGradient id="paint14_linear_31706_16799" x1="63.5" y1="190.25" x2="67.5" y2="194.5" gradientUnits="userSpaceOnUse">
<stop stop-color="#7F178D"/>
<stop offset="0.759615" stop-color="#EF8218"/>
<stop offset="0.985577" stop-color="#DCDE38"/>
</linearGradient>
</defs>
</svg>
