<svg width="1206" height="393" viewBox="0 0 1206 393" fill="none" xmlns="http://www.w3.org/2000/svg">
<mask id="mask0_31685_43442" style="mask-type:alpha" maskUnits="userSpaceOnUse" x="0" y="4" width="1206" height="389">
<rect y="4" width="1206" height="389" fill="#D9D9D9"/>
</mask>
<g mask="url(#mask0_31685_43442)">
<rect x="-1.19922" y="53.5312" width="1208.4" height="1201.6" rx="600.801" fill="url(#paint0_linear_31685_43442)" stroke="#F5F5F7"/>
<rect x="206.879" y="166.568" width="792.242" height="792.242" rx="396.121" fill="url(#paint1_linear_31685_43442)" stroke="#F5F5F7"/>
<rect x="374.191" y="271.964" width="457.62" height="457.62" rx="228.81" fill="url(#paint2_linear_31685_43442)" stroke="#F5F5F7"/>
<path d="M337 266C337 263.791 338.791 262 341 262C343.209 262 345 263.791 345 266C345 268.209 343.209 270 341 270C338.791 270 337 268.209 337 266Z" fill="url(#paint3_linear_31685_43442)"/>
<path d="M642 169C642 166.791 643.791 165 646 165C648.209 165 650 166.791 650 169C650 171.209 648.209 173 646 173C643.791 173 642 171.209 642 169Z" fill="url(#paint4_linear_31685_43442)"/>
<path d="M821 234C821 231.791 822.791 230 825 230C827.209 230 829 231.791 829 234C829 236.209 827.209 238 825 238C822.791 238 821 236.209 821 234Z" fill="url(#paint5_linear_31685_43442)"/>
<path d="M939 359C939 356.791 940.791 355 943 355C945.209 355 947 356.791 947 359C947 361.209 945.209 363 943 363C940.791 363 939 361.209 939 359Z" fill="url(#paint6_linear_31685_43442)"/>
<path d="M559 275C559 272.791 560.791 271 563 271C565.209 271 567 272.791 567 275C567 277.209 565.209 279 563 279C560.791 279 559 277.209 559 275Z" fill="url(#paint7_linear_31685_43442)"/>
<path d="M713 302C713 299.791 714.791 298 717 298C719.209 298 721 299.791 721 302C721 304.209 719.209 306 717 306C714.791 306 713 304.209 713 302Z" fill="url(#paint8_linear_31685_43442)"/>
<path d="M432 344C432 341.791 433.791 340 436 340C438.209 340 440 341.791 440 344C440 346.209 438.209 348 436 348C433.791 348 432 346.209 432 344Z" fill="url(#paint9_linear_31685_43442)"/>
<rect x="259" y="153" width="8" height="8" rx="4" fill="url(#paint10_linear_31685_43442)"/>
<path d="M799 87C799 84.7909 800.791 83 803 83C805.209 83 807 84.7909 807 87C807 89.2091 805.209 91 803 91C800.791 91 799 89.2091 799 87Z" fill="url(#paint11_linear_31685_43442)"/>
<path d="M577 54C577 51.7909 578.791 50 581 50C583.209 50 585 51.7909 585 54C585 56.2091 583.209 58 581 58C578.791 58 577 56.2091 577 54Z" fill="url(#paint12_linear_31685_43442)"/>
<path d="M1081 292C1081 289.791 1082.79 288 1085 288C1087.21 288 1089 289.791 1089 292C1089 294.209 1087.21 296 1085 296C1082.79 296 1081 294.209 1081 292Z" fill="url(#paint13_linear_31685_43442)"/>
<path d="M103 312C103 309.791 104.791 308 107 308C109.209 308 111 309.791 111 312C111 314.209 109.209 316 107 316C104.791 316 103 314.209 103 312Z" fill="url(#paint14_linear_31685_43442)"/>
</g>
<rect x="566" y="114" width="138" height="40" rx="20" fill="#F5F5F7"/>
<path d="M590.799 139H587.073V129.136H590.812C592.501 129.136 593.643 130.12 593.643 131.597C593.643 132.622 592.891 133.579 591.94 133.75V133.805C593.28 133.976 594.142 134.919 594.142 136.231C594.142 137.968 592.897 139 590.799 139ZM588.304 130.223V133.388H590.149C591.605 133.388 592.398 132.807 592.398 131.74C592.398 130.763 591.729 130.223 590.532 130.223H588.304ZM588.304 137.913H590.614C592.098 137.913 592.877 137.312 592.877 136.17C592.877 135.028 592.07 134.447 590.498 134.447H588.304V137.913ZM596.657 139H595.481V131.891H596.657V137.182H596.712L600.267 131.891H601.442V139H600.267V133.709H600.212L596.657 139ZM607.827 138.022V132.868H605.161L604.942 135.862C604.881 136.744 604.696 137.517 604.361 137.968V138.022H607.827ZM603.514 140.88H602.406V138.022H603.001C603.521 137.681 603.773 136.792 603.842 135.835L604.115 131.891H609.01V138.022H610.138V140.88H609.03V139H603.514V140.88ZM614.062 132.8C612.947 132.8 612.168 133.654 612.093 134.837H615.955C615.928 133.647 615.183 132.8 614.062 132.8ZM615.928 136.963H617.097C616.892 138.207 615.688 139.123 614.137 139.123C612.1 139.123 610.862 137.708 610.862 135.473C610.862 133.265 612.12 131.768 614.082 131.768C616.003 131.768 617.186 133.162 617.186 135.315V135.767H612.086V135.835C612.086 137.195 612.886 138.091 614.164 138.091C615.066 138.091 615.729 137.633 615.928 136.963ZM621.458 139.123C619.489 139.123 618.163 137.708 618.163 135.445C618.163 133.176 619.489 131.768 621.458 131.768C623.42 131.768 624.746 133.176 624.746 135.445C624.746 137.708 623.42 139.123 621.458 139.123ZM621.458 138.077C622.716 138.077 623.536 137.12 623.536 135.445C623.536 133.771 622.716 132.813 621.458 132.813C620.2 132.813 619.373 133.771 619.373 135.445C619.373 137.12 620.2 138.077 621.458 138.077ZM629.019 139.123C627.05 139.123 625.724 137.708 625.724 135.445C625.724 133.176 627.05 131.768 629.019 131.768C630.98 131.768 632.307 133.176 632.307 135.445C632.307 137.708 630.98 139.123 629.019 139.123ZM629.019 138.077C630.276 138.077 631.097 137.12 631.097 135.445C631.097 133.771 630.276 132.813 629.019 132.813C627.761 132.813 626.934 133.771 626.934 135.445C626.934 137.12 627.761 138.077 629.019 138.077ZM638.24 139V132.868H634.802V139H633.626V131.891H639.423V139H638.24ZM643.948 132.8C642.834 132.8 642.055 133.654 641.979 134.837H645.842C645.814 133.647 645.069 132.8 643.948 132.8ZM645.814 136.963H646.983C646.778 138.207 645.575 139.123 644.023 139.123C641.986 139.123 640.749 137.708 640.749 135.473C640.749 133.265 642.007 131.768 643.969 131.768C645.89 131.768 647.072 133.162 647.072 135.315V135.767H641.973V135.835C641.973 137.195 642.772 138.091 644.051 138.091C644.953 138.091 645.616 137.633 645.814 136.963ZM651.851 131.768C653.662 131.768 654.893 133.217 654.893 135.445C654.893 137.674 653.669 139.123 651.878 139.123C650.859 139.123 650.039 138.624 649.615 137.845H649.588V141.372H648.398V131.891H649.526V133.094H649.554C649.991 132.294 650.818 131.768 651.851 131.768ZM651.618 138.077C652.883 138.077 653.676 137.059 653.676 135.445C653.676 133.839 652.883 132.813 651.618 132.813C650.401 132.813 649.581 133.866 649.581 135.445C649.581 137.031 650.401 138.077 651.618 138.077ZM658.563 138.111C659.685 138.111 660.546 137.325 660.546 136.3V135.719L658.646 135.835C657.688 135.896 657.142 136.32 657.142 136.99C657.142 137.667 657.709 138.111 658.563 138.111ZM658.297 139.123C656.882 139.123 655.932 138.269 655.932 136.99C655.932 135.773 656.868 135.008 658.509 134.912L660.546 134.796V134.201C660.546 133.333 659.972 132.813 658.987 132.813C658.071 132.813 657.497 133.244 657.347 133.941H656.198C656.28 132.711 657.333 131.768 659.015 131.768C660.683 131.768 661.735 132.67 661.735 134.085V139H660.607V137.776H660.58C660.156 138.59 659.254 139.123 658.297 139.123ZM668.441 131.891V132.868H666.145V139H664.969V132.868H662.672V131.891H668.441ZM672.358 139.123C670.39 139.123 669.063 137.708 669.063 135.445C669.063 133.176 670.39 131.768 672.358 131.768C674.32 131.768 675.646 133.176 675.646 135.445C675.646 137.708 674.32 139.123 672.358 139.123ZM672.358 138.077C673.616 138.077 674.437 137.12 674.437 135.445C674.437 133.771 673.616 132.813 672.358 132.813C671.101 132.813 670.273 133.771 670.273 135.445C670.273 137.12 671.101 138.077 672.358 138.077ZM680.425 131.768C682.236 131.768 683.467 133.217 683.467 135.445C683.467 137.674 682.243 139.123 680.452 139.123C679.434 139.123 678.613 138.624 678.189 137.845H678.162V141.372H676.973V131.891H678.101V133.094H678.128C678.565 132.294 679.393 131.768 680.425 131.768ZM680.192 138.077C681.457 138.077 682.25 137.059 682.25 135.445C682.25 133.839 681.457 132.813 680.192 132.813C678.976 132.813 678.155 133.866 678.155 135.445C678.155 137.031 678.976 138.077 680.192 138.077Z" fill="#2D252F"/>
<rect x="785" y="33" width="171" height="40" rx="20" fill="#F5F5F7"/>
<path d="M816.045 58H814.896V50.3984H814.849L811.704 57.9316H810.665L807.521 50.3984H807.473V58H806.324V48.1357H807.753L811.157 56.3662H811.212L814.616 48.1357H816.045V58ZM820.256 57.1113C821.377 57.1113 822.238 56.3252 822.238 55.2998V54.7188L820.338 54.835C819.381 54.8965 818.834 55.3203 818.834 55.9902C818.834 56.667 819.401 57.1113 820.256 57.1113ZM819.989 58.123C818.574 58.123 817.624 57.2686 817.624 55.9902C817.624 54.7734 818.561 54.0078 820.201 53.9121L822.238 53.7959V53.2012C822.238 52.333 821.664 51.8135 820.68 51.8135C819.764 51.8135 819.189 52.2441 819.039 52.9414H817.891C817.973 51.7109 819.025 50.7676 820.707 50.7676C822.375 50.7676 823.428 51.6699 823.428 53.085V58H822.3V56.7764H822.272C821.849 57.5898 820.946 58.123 819.989 58.123ZM830.954 53.0781H829.778C829.573 52.3945 828.992 51.8135 827.987 51.8135C826.75 51.8135 825.937 52.8594 825.937 54.4453C825.937 56.0723 826.764 57.0771 828.001 57.0771C828.944 57.0771 829.566 56.6123 829.792 55.8262H830.968C830.735 57.1729 829.594 58.123 827.994 58.123C826.019 58.123 824.727 56.708 824.727 54.4453C824.727 52.2305 826.012 50.7676 827.98 50.7676C829.696 50.7676 830.742 51.8682 830.954 53.0781ZM837.271 50.8906V51.8682H834.974V58H833.798V51.8682H831.501V50.8906H837.271ZM841.092 51.7998C839.978 51.7998 839.198 52.6543 839.123 53.8369H842.985C842.958 52.6475 842.213 51.7998 841.092 51.7998ZM842.958 55.9629H844.127C843.922 57.207 842.719 58.123 841.167 58.123C839.13 58.123 837.893 56.708 837.893 54.4727C837.893 52.2646 839.15 50.7676 841.112 50.7676C843.033 50.7676 844.216 52.1621 844.216 54.3154V54.7666H839.116V54.835C839.116 56.1953 839.916 57.0908 841.194 57.0908C842.097 57.0908 842.76 56.6328 842.958 55.9629ZM848.994 50.7676C850.806 50.7676 852.036 52.2168 852.036 54.4453C852.036 56.6738 850.812 58.123 849.021 58.123C848.003 58.123 847.183 57.624 846.759 56.8447H846.731V60.3721H845.542V50.8906H846.67V52.0938H846.697C847.135 51.2939 847.962 50.7676 848.994 50.7676ZM848.762 57.0771C850.026 57.0771 850.819 56.0586 850.819 54.4453C850.819 52.8389 850.026 51.8135 848.762 51.8135C847.545 51.8135 846.725 52.8662 846.725 54.4453C846.725 56.0312 847.545 57.0771 848.762 57.0771ZM860.841 58V51.8682H857.402V58H856.227V50.8906H862.023V58H860.841ZM867.15 50.7676C868.962 50.7676 870.192 52.2168 870.192 54.4453C870.192 56.6738 868.969 58.123 867.178 58.123C866.159 58.123 865.339 57.624 864.915 56.8447H864.888V60.3721H863.698V50.8906H864.826V52.0938H864.854C865.291 51.2939 866.118 50.7676 867.15 50.7676ZM866.918 57.0771C868.183 57.0771 868.976 56.0586 868.976 54.4453C868.976 52.8389 868.183 51.8135 866.918 51.8135C865.701 51.8135 864.881 52.8662 864.881 54.4453C864.881 56.0312 865.701 57.0771 866.918 57.0771ZM874.369 51.7998C873.255 51.7998 872.476 52.6543 872.4 53.8369H876.263C876.235 52.6475 875.49 51.7998 874.369 51.7998ZM876.235 55.9629H877.404C877.199 57.207 875.996 58.123 874.444 58.123C872.407 58.123 871.17 56.708 871.17 54.4727C871.17 52.2646 872.428 50.7676 874.39 50.7676C876.311 50.7676 877.493 52.1621 877.493 54.3154V54.7666H872.394V54.835C872.394 56.1953 873.193 57.0908 874.472 57.0908C875.374 57.0908 876.037 56.6328 876.235 55.9629ZM881.185 58.123C879.626 58.123 878.498 57.3574 878.375 56.1543H879.578C879.715 56.7764 880.303 57.1387 881.185 57.1387C882.217 57.1387 882.791 56.6465 882.791 55.9561C882.791 55.1562 882.258 54.7939 881.185 54.7939H880.118V53.8232H881.185C882.087 53.8232 882.552 53.4814 882.552 52.7842C882.552 52.1895 882.128 51.7588 881.212 51.7588C880.371 51.7588 879.783 52.1211 879.688 52.6885H878.532C878.683 51.5127 879.708 50.7676 881.212 50.7676C882.832 50.7676 883.714 51.5469 883.714 52.6885C883.714 53.4131 883.249 54.0557 882.538 54.2197V54.2744C883.475 54.4795 883.96 55.0811 883.96 55.9014C883.96 57.2275 882.853 58.123 881.185 58.123ZM888.178 51.7998C887.063 51.7998 886.284 52.6543 886.209 53.8369H890.071C890.044 52.6475 889.299 51.7998 888.178 51.7998ZM890.044 55.9629H891.213C891.008 57.207 889.805 58.123 888.253 58.123C886.216 58.123 884.979 56.708 884.979 54.4727C884.979 52.2646 886.236 50.7676 888.198 50.7676C890.119 50.7676 891.302 52.1621 891.302 54.3154V54.7666H886.202V54.835C886.202 56.1953 887.002 57.0908 888.28 57.0908C889.183 57.0908 889.846 56.6328 890.044 55.9629ZM897.304 58V54.8008H893.797V58H892.621V50.8906H893.797V53.8232H897.304V50.8906H898.479V58H897.304ZM905.356 50.8906V51.8682H903.06V58H901.884V51.8682H899.587V50.8906H905.356ZM908.535 57.1113C909.656 57.1113 910.518 56.3252 910.518 55.2998V54.7188L908.617 54.835C907.66 54.8965 907.113 55.3203 907.113 55.9902C907.113 56.667 907.681 57.1113 908.535 57.1113ZM908.269 58.123C906.854 58.123 905.903 57.2686 905.903 55.9902C905.903 54.7734 906.84 54.0078 908.48 53.9121L910.518 53.7959V53.2012C910.518 52.333 909.943 51.8135 908.959 51.8135C908.043 51.8135 907.469 52.2441 907.318 52.9414H906.17C906.252 51.7109 907.305 50.7676 908.986 50.7676C910.654 50.7676 911.707 51.6699 911.707 53.085V58H910.579V56.7764H910.552C910.128 57.5898 909.226 58.123 908.269 58.123ZM920.211 59.8799H919.104V58H913.348V50.8906H914.523V57.0225H917.9V50.8906H919.076V57.0225H920.211V59.8799ZM922.453 58H921.277V50.8906H922.453V56.1816H922.508L926.062 50.8906H927.238V58H926.062V52.709H926.008L922.453 58ZM930.082 58H928.906V50.8906H930.082V56.1816H930.137L933.691 50.8906H934.867V58H933.691V52.709H933.637L930.082 58ZM929.815 47.8145H930.69C930.69 48.6074 931.203 49.2295 932.017 49.2295C932.83 49.2295 933.343 48.6074 933.343 47.8145H934.218C934.218 49.0723 933.322 49.9336 932.017 49.9336C930.711 49.9336 929.815 49.0723 929.815 47.8145Z" fill="#2D252F"/>
<rect x="180" y="103" width="103" height="40" rx="20" fill="#F5F5F7"/>
<path d="M205.216 126.004V120.063C203.288 120.139 202.099 121.273 202.099 123.03C202.099 124.808 203.288 125.942 205.216 126.004ZM209.543 123.037C209.543 121.267 208.354 120.125 206.433 120.063V126.004C208.354 125.929 209.543 124.794 209.543 123.037ZM205.216 127.104C202.543 127.043 200.854 125.464 200.854 123.03C200.854 120.61 202.536 119.038 205.216 118.963V117.999H206.433V118.963C209.105 119.024 210.787 120.604 210.787 123.037C210.787 125.457 209.105 127.029 206.433 127.104V128.137H205.216V127.104ZM215.162 128.123C213.193 128.123 211.867 126.708 211.867 124.445C211.867 122.176 213.193 120.768 215.162 120.768C217.124 120.768 218.45 122.176 218.45 124.445C218.45 126.708 217.124 128.123 215.162 128.123ZM215.162 127.077C216.42 127.077 217.24 126.12 217.24 124.445C217.24 122.771 216.42 121.813 215.162 121.813C213.904 121.813 213.077 122.771 213.077 124.445C213.077 126.12 213.904 127.077 215.162 127.077ZM224.698 120.891V121.868H222.401V128H221.226V121.868H218.929V120.891H224.698ZM228.615 128.123C226.646 128.123 225.32 126.708 225.32 124.445C225.32 122.176 226.646 120.768 228.615 120.768C230.577 120.768 231.903 122.176 231.903 124.445C231.903 126.708 230.577 128.123 228.615 128.123ZM228.615 127.077C229.873 127.077 230.693 126.12 230.693 124.445C230.693 122.771 229.873 121.813 228.615 121.813C227.357 121.813 226.53 122.771 226.53 124.445C226.53 126.12 227.357 127.077 228.615 127.077ZM237.796 121.868H234.398V128H233.223V120.891H237.796V121.868ZM242.547 120.768C244.358 120.768 245.589 122.217 245.589 124.445C245.589 126.674 244.365 128.123 242.574 128.123C241.556 128.123 240.735 127.624 240.312 126.845H240.284V130.372H239.095V120.891H240.223V122.094H240.25C240.688 121.294 241.515 120.768 242.547 120.768ZM242.314 127.077C243.579 127.077 244.372 126.059 244.372 124.445C244.372 122.839 243.579 121.813 242.314 121.813C241.098 121.813 240.277 122.866 240.277 124.445C240.277 126.031 241.098 127.077 242.314 127.077ZM249.26 127.111C250.381 127.111 251.242 126.325 251.242 125.3V124.719L249.342 124.835C248.385 124.896 247.838 125.32 247.838 125.99C247.838 126.667 248.405 127.111 249.26 127.111ZM248.993 128.123C247.578 128.123 246.628 127.269 246.628 125.99C246.628 124.773 247.564 124.008 249.205 123.912L251.242 123.796V123.201C251.242 122.333 250.668 121.813 249.684 121.813C248.768 121.813 248.193 122.244 248.043 122.941H246.895C246.977 121.711 248.029 120.768 249.711 120.768C251.379 120.768 252.432 121.67 252.432 123.085V128H251.304V126.776H251.276C250.853 127.59 249.95 128.123 248.993 128.123ZM257.408 127.077V121.813C255.891 121.848 254.927 122.839 254.927 124.445C254.927 126.045 255.891 127.036 257.408 127.077ZM261.031 124.445C261.031 122.846 260.067 121.854 258.557 121.813V127.077C260.067 127.043 261.031 126.052 261.031 124.445ZM257.408 128.089C255.193 128.048 253.73 126.64 253.73 124.445C253.73 122.251 255.193 120.836 257.408 120.802V118.553H258.557V120.802C260.758 120.843 262.228 122.251 262.228 124.445C262.228 126.64 260.758 128.055 258.557 128.089V130.372H257.408V128.089Z" fill="#2D252F"/>
<rect x="916" y="305" width="106" height="40" rx="20" fill="#F5F5F7"/>
<path d="M939.838 324.853L944.78 330H943.092L938.539 325.208H938.484V330H937.254V320.136H938.484V324.682H938.539L942.777 320.136H944.322L939.838 324.853ZM948.219 323.8C947.104 323.8 946.325 324.654 946.25 325.837H950.112C950.085 324.647 949.34 323.8 948.219 323.8ZM950.085 327.963H951.254C951.049 329.207 949.846 330.123 948.294 330.123C946.257 330.123 945.02 328.708 945.02 326.473C945.02 324.265 946.277 322.768 948.239 322.768C950.16 322.768 951.343 324.162 951.343 326.315V326.767H946.243V326.835C946.243 328.195 947.043 329.091 948.321 329.091C949.224 329.091 949.887 328.633 950.085 327.963ZM953.838 330H952.662V322.891H953.838V328.182H953.893L957.447 322.891H958.623V330H957.447V324.709H957.393L953.838 330ZM953.571 319.814H954.446C954.446 320.607 954.959 321.229 955.772 321.229C956.586 321.229 957.099 320.607 957.099 319.814H957.974C957.974 321.072 957.078 321.934 955.772 321.934C954.467 321.934 953.571 321.072 953.571 319.814ZM965.493 322.891V323.868H963.196V330H962.021V323.868H959.724V322.891H965.493ZM969.314 323.8C968.2 323.8 967.421 324.654 967.346 325.837H971.208C971.181 324.647 970.436 323.8 969.314 323.8ZM971.181 327.963H972.35C972.145 329.207 970.941 330.123 969.39 330.123C967.353 330.123 966.115 328.708 966.115 326.473C966.115 324.265 967.373 322.768 969.335 322.768C971.256 322.768 972.438 324.162 972.438 326.315V326.767H967.339V326.835C967.339 328.195 968.139 329.091 969.417 329.091C970.319 329.091 970.982 328.633 971.181 327.963ZM977.217 322.768C979.028 322.768 980.259 324.217 980.259 326.445C980.259 328.674 979.035 330.123 977.244 330.123C976.226 330.123 975.405 329.624 974.981 328.845H974.954V332.372H973.765V322.891H974.893V324.094H974.92C975.357 323.294 976.185 322.768 977.217 322.768ZM976.984 329.077C978.249 329.077 979.042 328.059 979.042 326.445C979.042 324.839 978.249 323.813 976.984 323.813C975.768 323.813 974.947 324.866 974.947 326.445C974.947 328.031 975.768 329.077 976.984 329.077ZM982.754 330H981.578V322.891H982.754V328.182H982.809L986.363 322.891H987.539V330H986.363V324.709H986.309L982.754 330ZM993.89 330V326.801H990.383V330H989.207V322.891H990.383V325.823H993.89V322.891H995.065V330H993.89ZM1001.31 323.868H997.916V330H996.74V322.891H1001.31V323.868Z" fill="#2D252F"/>
<rect x="68" y="258" width="94" height="40" rx="20" fill="#F5F5F7"/>
<path d="M91.2451 279.37C91.1768 280.498 91.04 281.25 90.5547 281.838V281.893H95.3398V274.243H91.5664L91.2451 279.37ZM89.4404 283V284.948H88.2988V281.893H89.0303C89.748 281.51 90.0146 280.635 90.0898 279.343L90.4658 273.136H96.5703V281.893H97.8008V284.948H96.6592V283H89.4404ZM100.221 283H99.0449V275.891H100.221V281.182H100.275L103.83 275.891H105.006V283H103.83V277.709H103.775L100.221 283ZM111.391 282.022V276.868H108.725L108.506 279.862C108.444 280.744 108.26 281.517 107.925 281.968V282.022H111.391ZM107.077 284.88H105.97V282.022H106.564C107.084 281.681 107.337 280.792 107.405 279.835L107.679 275.891H112.573V282.022H113.701V284.88H112.594V283H107.077V284.88ZM120.927 279.254L124.14 283H122.615L119.744 279.582H119.689V283H118.514V279.582H118.466L115.595 283H114.091L117.283 279.274L114.166 275.891H115.629L118.466 279.035H118.514V275.891H119.689V279.035H119.744L122.581 275.891H124.03L120.927 279.254ZM127.797 276.8C126.683 276.8 125.903 277.654 125.828 278.837H129.69C129.663 277.647 128.918 276.8 127.797 276.8ZM129.663 280.963H130.832C130.627 282.207 129.424 283.123 127.872 283.123C125.835 283.123 124.598 281.708 124.598 279.473C124.598 277.265 125.855 275.768 127.817 275.768C129.738 275.768 130.921 277.162 130.921 279.315V279.767H125.821V279.835C125.821 281.195 126.621 282.091 127.899 282.091C128.802 282.091 129.465 281.633 129.663 280.963ZM133.416 283H132.24V275.891H133.416V281.182H133.471L137.025 275.891H138.201V283H137.025V277.709H136.971L133.416 283ZM133.149 272.814H134.024C134.024 273.607 134.537 274.229 135.351 274.229C136.164 274.229 136.677 273.607 136.677 272.814H137.552C137.552 274.072 136.656 274.934 135.351 274.934C134.045 274.934 133.149 274.072 133.149 272.814Z" fill="#2D252F"/>
<rect x="807" y="180" width="120" height="40" rx="20" fill="#F5F5F7"/>
<path d="M832.547 205.164C829.826 205.164 828.104 203.188 828.104 200.064C828.104 196.968 829.847 194.972 832.547 194.972C834.646 194.972 836.252 196.216 836.614 198.109H835.356C835.001 196.893 833.9 196.106 832.547 196.106C830.619 196.106 829.368 197.665 829.368 200.064C829.368 202.484 830.605 204.029 832.554 204.029C833.955 204.029 834.967 203.38 835.356 202.252H836.614C836.129 204.125 834.68 205.164 832.547 205.164ZM840.894 198.854H839.191V200.844H840.716C841.611 200.844 842.042 200.516 842.042 199.832C842.042 199.203 841.639 198.854 840.894 198.854ZM840.812 201.801H839.191V204.036H841.023C841.885 204.036 842.35 203.646 842.35 202.929C842.35 202.17 841.851 201.801 840.812 201.801ZM838.016 205V197.891H841.058C842.391 197.891 843.204 198.581 843.204 199.709C843.204 200.434 842.691 201.104 842.035 201.24V201.295C842.931 201.418 843.519 202.067 843.519 202.956C843.519 204.214 842.589 205 841.078 205H838.016ZM847.736 198.8C846.622 198.8 845.843 199.654 845.768 200.837H849.63C849.603 199.647 848.857 198.8 847.736 198.8ZM849.603 202.963H850.771C850.566 204.207 849.363 205.123 847.812 205.123C845.774 205.123 844.537 203.708 844.537 201.473C844.537 199.265 845.795 197.768 847.757 197.768C849.678 197.768 850.86 199.162 850.86 201.315V201.767H845.761V201.835C845.761 203.195 846.561 204.091 847.839 204.091C848.741 204.091 849.404 203.633 849.603 202.963ZM857.108 197.891V198.868H854.812V205H853.636V198.868H851.339V197.891H857.108ZM861.025 205.123C859.057 205.123 857.73 203.708 857.73 201.445C857.73 199.176 859.057 197.768 861.025 197.768C862.987 197.768 864.313 199.176 864.313 201.445C864.313 203.708 862.987 205.123 861.025 205.123ZM861.025 204.077C862.283 204.077 863.104 203.12 863.104 201.445C863.104 199.771 862.283 198.813 861.025 198.813C859.768 198.813 858.94 199.771 858.94 201.445C858.94 203.12 859.768 204.077 861.025 204.077ZM870.562 197.891V198.868H868.265V205H867.089V198.868H864.792V197.891H870.562ZM874.383 198.8C873.269 198.8 872.489 199.654 872.414 200.837H876.276C876.249 199.647 875.504 198.8 874.383 198.8ZM876.249 202.963H877.418C877.213 204.207 876.01 205.123 874.458 205.123C872.421 205.123 871.184 203.708 871.184 201.473C871.184 199.265 872.441 197.768 874.403 197.768C876.324 197.768 877.507 199.162 877.507 201.315V201.767H872.407V201.835C872.407 203.195 873.207 204.091 874.485 204.091C875.388 204.091 876.051 203.633 876.249 202.963ZM881.212 202.293H881.185L879.469 205H878.149L880.569 201.445L878.19 197.891H879.517L881.226 200.557H881.253L882.941 197.891H884.268L881.868 201.397L884.233 205H882.914L881.212 202.293ZM890.071 205V201.801H886.564V205H885.389V197.891H886.564V200.823H890.071V197.891H891.247V205H890.071ZM894.098 205H892.922V197.891H894.098V203.182H894.152L897.707 197.891H898.883V205H897.707V199.709H897.652L894.098 205ZM902.964 201.254L906.382 205H904.851L901.781 201.582H901.727V205H900.551V197.891H901.727V201.035H901.781L904.816 197.891H906.286L902.964 201.254Z" fill="#2D252F"/>
<rect x="1072" y="238" width="94" height="40" rx="20" fill="#F5F5F7"/>
<path d="M1096.83 263H1095.6V254.243H1092.49V253.136H1099.94V254.243H1096.83V263ZM1102.17 262.111C1103.29 262.111 1104.15 261.325 1104.15 260.3V259.719L1102.25 259.835C1101.29 259.896 1100.75 260.32 1100.75 260.99C1100.75 261.667 1101.32 262.111 1102.17 262.111ZM1101.9 263.123C1100.49 263.123 1099.54 262.269 1099.54 260.99C1099.54 259.773 1100.47 259.008 1102.12 258.912L1104.15 258.796V258.201C1104.15 257.333 1103.58 256.813 1102.59 256.813C1101.68 256.813 1101.1 257.244 1100.95 257.941H1099.8C1099.89 256.711 1100.94 255.768 1102.62 255.768C1104.29 255.768 1105.34 256.67 1105.34 258.085V263H1104.21V261.776H1104.19C1103.76 262.59 1102.86 263.123 1101.9 263.123ZM1111.67 263V259.801H1108.16V263H1106.98V255.891H1108.16V258.823H1111.67V255.891H1112.84V263H1111.67ZM1121.38 264.88H1120.27V263H1114.52V255.891H1115.69V262.022H1119.07V255.891H1120.24V262.022H1121.38V264.88ZM1125.4 263.123C1123.43 263.123 1122.1 261.708 1122.1 259.445C1122.1 257.176 1123.43 255.768 1125.4 255.768C1127.36 255.768 1128.69 257.176 1128.69 259.445C1128.69 261.708 1127.36 263.123 1125.4 263.123ZM1125.4 262.077C1126.66 262.077 1127.48 261.12 1127.48 259.445C1127.48 257.771 1126.66 256.813 1125.4 256.813C1124.14 256.813 1123.31 257.771 1123.31 259.445C1123.31 261.12 1124.14 262.077 1125.4 262.077ZM1133.46 255.768C1135.28 255.768 1136.51 257.217 1136.51 259.445C1136.51 261.674 1135.28 263.123 1133.49 263.123C1132.47 263.123 1131.65 262.624 1131.23 261.845H1131.2V265.372H1130.01V255.891H1131.14V257.094H1131.17C1131.61 256.294 1132.43 255.768 1133.46 255.768ZM1133.23 262.077C1134.5 262.077 1135.29 261.059 1135.29 259.445C1135.29 257.839 1134.5 256.813 1133.23 256.813C1132.02 256.813 1131.2 257.866 1131.2 259.445C1131.2 261.031 1132.02 262.077 1133.23 262.077ZM1143.91 263V255.891H1145.09V263H1143.91ZM1140.33 259.138H1139V262.022H1140.33C1141.25 262.022 1141.85 261.448 1141.85 260.58C1141.85 259.705 1141.24 259.138 1140.33 259.138ZM1137.83 263V255.891H1139V258.16H1140.35C1141.98 258.16 1143.02 259.097 1143.02 260.58C1143.02 262.063 1141.98 263 1140.35 263H1137.83Z" fill="#2D252F"/>
<rect x="346" y="290" width="97" height="40" rx="20" fill="#F5F5F7"/>
<path d="M370.813 315H367.088V305.136H370.827C372.516 305.136 373.657 306.12 373.657 307.597C373.657 308.622 372.905 309.579 371.955 309.75V309.805C373.295 309.976 374.156 310.919 374.156 312.231C374.156 313.968 372.912 315 370.813 315ZM368.318 306.223V309.388H370.164C371.62 309.388 372.413 308.807 372.413 307.74C372.413 306.763 371.743 306.223 370.547 306.223H368.318ZM368.318 313.913H370.629C372.112 313.913 372.892 313.312 372.892 312.17C372.892 311.028 372.085 310.447 370.513 310.447H368.318V313.913ZM378.354 308.8C377.239 308.8 376.46 309.654 376.385 310.837H380.247C380.22 309.647 379.475 308.8 378.354 308.8ZM380.22 312.963H381.389C381.184 314.207 379.98 315.123 378.429 315.123C376.392 315.123 375.154 313.708 375.154 311.473C375.154 309.265 376.412 307.768 378.374 307.768C380.295 307.768 381.478 309.162 381.478 311.315V311.767H376.378V311.835C376.378 313.195 377.178 314.091 378.456 314.091C379.358 314.091 380.021 313.633 380.22 312.963ZM387.377 314.022V308.868H384.711L384.492 311.862C384.431 312.744 384.246 313.517 383.911 313.968V314.022H387.377ZM383.063 316.88H381.956V314.022H382.551C383.07 313.681 383.323 312.792 383.392 311.835L383.665 307.891H388.56V314.022H389.688V316.88H388.58V315H383.063V316.88ZM391.212 317.659C391.068 317.659 390.829 317.646 390.699 317.618V316.62C390.829 316.647 391.014 316.654 391.164 316.654C391.827 316.654 392.196 316.333 392.47 315.506L392.634 315.007L390.009 307.891H391.28L393.249 313.811H393.27L395.238 307.891H396.489L393.693 315.499C393.085 317.16 392.497 317.659 391.212 317.659ZM407.454 316.88H406.347V315H397.549V307.891H398.725V314.022H401.35V307.891H402.525V314.022H405.15V307.891H406.326V314.022H407.454V316.88ZM409.689 315H408.514V307.891H409.689V313.182H409.744L413.299 307.891H414.475V315H413.299V309.709H413.244L409.689 315ZM417.318 315H416.143V307.891H417.318V313.182H417.373L420.928 307.891H422.104V315H420.928V309.709H420.873L417.318 315ZM417.052 304.814H417.927C417.927 305.607 418.439 306.229 419.253 306.229C420.066 306.229 420.579 305.607 420.579 304.814H421.454C421.454 306.072 420.559 306.934 419.253 306.934C417.947 306.934 417.052 306.072 417.052 304.814Z" fill="#2D252F"/>
<rect x="497" y="221" width="95" height="40" rx="20" fill="#F5F5F7"/>
<path d="M522.105 244.004V238.063C520.178 238.139 518.988 239.273 518.988 241.03C518.988 242.808 520.178 243.942 522.105 244.004ZM526.433 241.037C526.433 239.267 525.243 238.125 523.322 238.063V244.004C525.243 243.929 526.433 242.794 526.433 241.037ZM522.105 245.104C519.433 245.043 517.744 243.464 517.744 241.03C517.744 238.61 519.426 237.038 522.105 236.963V235.999H523.322V236.963C525.995 237.024 527.677 238.604 527.677 241.037C527.677 243.457 525.995 245.029 523.322 245.104V246.137H522.105V245.104ZM530.862 242.862C530.719 244.824 530.247 246.062 528.75 246.062C528.545 246.062 528.408 246.021 528.326 245.986V244.913C528.388 244.934 528.518 244.968 528.688 244.968C529.393 244.968 529.659 244.141 529.748 242.835L530.021 238.891H534.677V246H533.501V239.868H531.081L530.862 242.862ZM539.312 246.123C537.343 246.123 536.017 244.708 536.017 242.445C536.017 240.176 537.343 238.768 539.312 238.768C541.273 238.768 542.6 240.176 542.6 242.445C542.6 244.708 541.273 246.123 539.312 246.123ZM539.312 245.077C540.569 245.077 541.39 244.12 541.39 242.445C541.39 240.771 540.569 239.813 539.312 239.813C538.054 239.813 537.227 240.771 537.227 242.445C537.227 244.12 538.054 245.077 539.312 245.077ZM547.378 238.768C549.189 238.768 550.42 240.217 550.42 242.445C550.42 244.674 549.196 246.123 547.405 246.123C546.387 246.123 545.566 245.624 545.143 244.845H545.115V248.372H543.926V238.891H545.054V240.094H545.081C545.519 239.294 546.346 238.768 547.378 238.768ZM547.146 245.077C548.41 245.077 549.203 244.059 549.203 242.445C549.203 240.839 548.41 239.813 547.146 239.813C545.929 239.813 545.108 240.866 545.108 242.445C545.108 244.031 545.929 245.077 547.146 245.077ZM552.915 246H551.739V238.891H552.915V244.182H552.97L556.524 238.891H557.7V246H556.524V240.709H556.47L552.915 246ZM565.254 241.078H564.078C563.873 240.395 563.292 239.813 562.287 239.813C561.05 239.813 560.236 240.859 560.236 242.445C560.236 244.072 561.063 245.077 562.301 245.077C563.244 245.077 563.866 244.612 564.092 243.826H565.268C565.035 245.173 563.894 246.123 562.294 246.123C560.318 246.123 559.026 244.708 559.026 242.445C559.026 240.23 560.312 238.768 562.28 238.768C563.996 238.768 565.042 239.868 565.254 241.078ZM571.57 238.891V239.868H569.273V246H568.098V239.868H565.801V238.891H571.57Z" fill="#2D252F"/>
<rect x="321" y="212" width="92" height="40" rx="20" fill="#F5F5F7"/>
<path d="M349.138 234.04C349.138 235.783 347.832 237 345.979 237H342.391V227.136H348.153V228.243H343.621V231.066H345.966C347.818 231.066 349.138 232.29 349.138 234.04ZM343.621 235.893H345.658C347.073 235.893 347.873 235.229 347.873 234.04C347.873 232.844 347.066 232.174 345.658 232.174H343.621V235.893ZM353.014 236.111C354.135 236.111 354.996 235.325 354.996 234.3V233.719L353.096 233.835C352.139 233.896 351.592 234.32 351.592 234.99C351.592 235.667 352.159 236.111 353.014 236.111ZM352.747 237.123C351.332 237.123 350.382 236.269 350.382 234.99C350.382 233.773 351.318 233.008 352.959 232.912L354.996 232.796V232.201C354.996 231.333 354.422 230.813 353.438 230.813C352.521 230.813 351.947 231.244 351.797 231.941H350.648C350.73 230.711 351.783 229.768 353.465 229.768C355.133 229.768 356.186 230.67 356.186 232.085V237H355.058V235.776H355.03C354.606 236.59 353.704 237.123 352.747 237.123ZM361.285 229.768C363.097 229.768 364.327 231.217 364.327 233.445C364.327 235.674 363.104 237.123 361.312 237.123C360.294 237.123 359.474 236.624 359.05 235.845H359.022V239.372H357.833V229.891H358.961V231.094H358.988C359.426 230.294 360.253 229.768 361.285 229.768ZM361.053 236.077C362.317 236.077 363.11 235.059 363.11 233.445C363.11 231.839 362.317 230.813 361.053 230.813C359.836 230.813 359.016 231.866 359.016 233.445C359.016 235.031 359.836 236.077 361.053 236.077ZM366.822 237H365.646V229.891H366.822V235.182H366.877L370.432 229.891H371.607V237H370.432V231.709H370.377L366.822 237ZM379.161 232.078H377.985C377.78 231.395 377.199 230.813 376.194 230.813C374.957 230.813 374.144 231.859 374.144 233.445C374.144 235.072 374.971 236.077 376.208 236.077C377.151 236.077 377.773 235.612 377.999 234.826H379.175C378.942 236.173 377.801 237.123 376.201 237.123C374.226 237.123 372.934 235.708 372.934 233.445C372.934 231.23 374.219 229.768 376.188 229.768C377.903 229.768 378.949 230.868 379.161 232.078ZM385.478 229.891V230.868H383.181V237H382.005V230.868H379.708V229.891H385.478ZM388.656 236.111C389.777 236.111 390.639 235.325 390.639 234.3V233.719L388.738 233.835C387.781 233.896 387.234 234.32 387.234 234.99C387.234 235.667 387.802 236.111 388.656 236.111ZM388.39 237.123C386.975 237.123 386.024 236.269 386.024 234.99C386.024 233.773 386.961 233.008 388.602 232.912L390.639 232.796V232.201C390.639 231.333 390.064 230.813 389.08 230.813C388.164 230.813 387.59 231.244 387.439 231.941H386.291C386.373 230.711 387.426 229.768 389.107 229.768C390.775 229.768 391.828 230.67 391.828 232.085V237H390.7V235.776H390.673C390.249 236.59 389.347 237.123 388.39 237.123Z" fill="#2D252F"/>
<rect x="488" width="113" height="40" rx="20" fill="#F5F5F7"/>
<path d="M513.198 14.9717C515.994 14.9717 517.744 16.9404 517.744 20.0713C517.744 23.2021 515.994 25.1641 513.198 25.1641C510.402 25.1641 508.652 23.2021 508.652 20.0713C508.652 16.9404 510.402 14.9717 513.198 14.9717ZM513.198 16.1064C511.182 16.1064 509.917 17.6377 509.917 20.0713C509.917 22.498 511.182 24.0293 513.198 24.0293C515.215 24.0293 516.479 22.498 516.479 20.0713C516.479 17.6377 515.215 16.1064 513.198 16.1064ZM522.557 24.0771V18.8135C521.039 18.8477 520.075 19.8389 520.075 21.4453C520.075 23.0449 521.039 24.0361 522.557 24.0771ZM526.18 21.4453C526.18 19.8457 525.216 18.8545 523.705 18.8135V24.0771C525.216 24.043 526.18 23.0518 526.18 21.4453ZM522.557 25.0889C520.342 25.0479 518.879 23.6396 518.879 21.4453C518.879 19.251 520.342 17.8359 522.557 17.8018V15.5527H523.705V17.8018C525.906 17.8428 527.376 19.251 527.376 21.4453C527.376 23.6396 525.906 25.0547 523.705 25.0889V27.3721H522.557V25.0889ZM529.885 25H528.709V17.8906H529.885V23.1816H529.939L533.494 17.8906H534.67V25H533.494V19.709H533.439L529.885 25ZM543.201 26.8799H542.094V25H536.338V17.8906H537.514V24.0225H540.891V17.8906H542.066V24.0225H543.201V26.8799ZM545.443 25H544.268V17.8906H545.443V23.1816H545.498L549.053 17.8906H550.229V25H549.053V19.709H548.998L545.443 25ZM554.248 24.1113C555.369 24.1113 556.23 23.3252 556.23 22.2998V21.7188L554.33 21.835C553.373 21.8965 552.826 22.3203 552.826 22.9902C552.826 23.667 553.394 24.1113 554.248 24.1113ZM553.981 25.123C552.566 25.123 551.616 24.2686 551.616 22.9902C551.616 21.7734 552.553 21.0078 554.193 20.9121L556.23 20.7959V20.2012C556.23 19.333 555.656 18.8135 554.672 18.8135C553.756 18.8135 553.182 19.2441 553.031 19.9414H551.883C551.965 18.7109 553.018 17.7676 554.699 17.7676C556.367 17.7676 557.42 18.6699 557.42 20.085V25H556.292V23.7764H556.265C555.841 24.5898 554.938 25.123 553.981 25.123ZM563.743 25V21.8008H560.236V25H559.061V17.8906H560.236V20.8232H563.743V17.8906H564.919V25H563.743ZM571.796 17.8906V18.8682H569.499V25H568.323V18.8682H566.026V17.8906H571.796ZM578.98 25V17.8906H580.156V25H578.98ZM575.398 21.1377H574.072V24.0225H575.398C576.321 24.0225 576.916 23.4482 576.916 22.5801C576.916 21.7051 576.314 21.1377 575.398 21.1377ZM572.896 25V17.8906H574.072V20.1602H575.419C577.046 20.1602 578.092 21.0967 578.092 22.5801C578.092 24.0635 577.046 25 575.419 25H572.896Z" fill="#2D252F"/>
<rect x="703" y="248" width="88" height="40" rx="20" fill="#F5F5F7"/>
<path d="M730.819 270.04C730.819 271.783 729.514 273 727.661 273H724.072V263.136H729.835V264.243H725.303V267.066H727.647C729.5 267.066 730.819 268.29 730.819 270.04ZM725.303 271.893H727.34C728.755 271.893 729.555 271.229 729.555 270.04C729.555 268.844 728.748 268.174 727.34 268.174H725.303V271.893ZM734.695 272.111C735.816 272.111 736.678 271.325 736.678 270.3V269.719L734.777 269.835C733.82 269.896 733.273 270.32 733.273 270.99C733.273 271.667 733.841 272.111 734.695 272.111ZM734.429 273.123C733.014 273.123 732.063 272.269 732.063 270.99C732.063 269.773 733 269.008 734.641 268.912L736.678 268.796V268.201C736.678 267.333 736.104 266.813 735.119 266.813C734.203 266.813 733.629 267.244 733.479 267.941H732.33C732.412 266.711 733.465 265.768 735.146 265.768C736.814 265.768 737.867 266.67 737.867 268.085V273H736.739V271.776H736.712C736.288 272.59 735.386 273.123 734.429 273.123ZM742.967 265.768C744.778 265.768 746.009 267.217 746.009 269.445C746.009 271.674 744.785 273.123 742.994 273.123C741.976 273.123 741.155 272.624 740.731 271.845H740.704V275.372H739.515V265.891H740.643V267.094H740.67C741.107 266.294 741.935 265.768 742.967 265.768ZM742.734 272.077C743.999 272.077 744.792 271.059 744.792 269.445C744.792 267.839 743.999 266.813 742.734 266.813C741.518 266.813 740.697 267.866 740.697 269.445C740.697 271.031 741.518 272.077 742.734 272.077ZM748.504 273H747.328V265.891H748.771L751.3 271.428H751.354L753.897 265.891H755.285V273H754.103V267.955H754.055L751.758 272.795H750.849L748.552 267.955H748.504V273ZM759.811 266.8C758.696 266.8 757.917 267.654 757.842 268.837H761.704C761.677 267.647 760.932 266.8 759.811 266.8ZM761.677 270.963H762.846C762.641 272.207 761.438 273.123 759.886 273.123C757.849 273.123 756.611 271.708 756.611 269.473C756.611 267.265 757.869 265.768 759.831 265.768C761.752 265.768 762.935 267.162 762.935 269.315V269.767H757.835V269.835C757.835 271.195 758.635 272.091 759.913 272.091C760.815 272.091 761.479 271.633 761.677 270.963ZM768.937 273V269.801H765.43V273H764.254V265.891H765.43V268.823H768.937V265.891H770.112V273H768.937Z" fill="#2D252F"/>
<defs>
<linearGradient id="paint0_linear_31685_43442" x1="602.999" y1="53.0312" x2="602.999" y2="260.332" gradientUnits="userSpaceOnUse">
<stop stop-color="#F5F5F7"/>
<stop offset="1" stop-color="white"/>
</linearGradient>
<linearGradient id="paint1_linear_31685_43442" x1="603" y1="166.068" x2="603" y2="302.805" gradientUnits="userSpaceOnUse">
<stop stop-color="#F5F5F7"/>
<stop offset="1" stop-color="white"/>
</linearGradient>
<linearGradient id="paint2_linear_31685_43442" x1="603.001" y1="271.464" x2="603.001" y2="350.519" gradientUnits="userSpaceOnUse">
<stop stop-color="#F5F5F7"/>
<stop offset="1" stop-color="white"/>
</linearGradient>
<linearGradient id="paint3_linear_31685_43442" x1="337.8" y1="262.4" x2="344.2" y2="269.2" gradientUnits="userSpaceOnUse">
<stop stop-color="#7F178D"/>
<stop offset="0.759615" stop-color="#EF8218"/>
<stop offset="0.985577" stop-color="#DCDE38"/>
</linearGradient>
<linearGradient id="paint4_linear_31685_43442" x1="642.8" y1="165.4" x2="649.2" y2="172.2" gradientUnits="userSpaceOnUse">
<stop stop-color="#7F178D"/>
<stop offset="0.759615" stop-color="#EF8218"/>
<stop offset="0.985577" stop-color="#DCDE38"/>
</linearGradient>
<linearGradient id="paint5_linear_31685_43442" x1="821.8" y1="230.4" x2="828.2" y2="237.2" gradientUnits="userSpaceOnUse">
<stop stop-color="#7F178D"/>
<stop offset="0.759615" stop-color="#EF8218"/>
<stop offset="0.985577" stop-color="#DCDE38"/>
</linearGradient>
<linearGradient id="paint6_linear_31685_43442" x1="939.8" y1="355.4" x2="946.2" y2="362.2" gradientUnits="userSpaceOnUse">
<stop stop-color="#7F178D"/>
<stop offset="0.759615" stop-color="#EF8218"/>
<stop offset="0.985577" stop-color="#DCDE38"/>
</linearGradient>
<linearGradient id="paint7_linear_31685_43442" x1="559.8" y1="271.4" x2="566.2" y2="278.2" gradientUnits="userSpaceOnUse">
<stop stop-color="#7F178D"/>
<stop offset="0.759615" stop-color="#EF8218"/>
<stop offset="0.985577" stop-color="#DCDE38"/>
</linearGradient>
<linearGradient id="paint8_linear_31685_43442" x1="713.8" y1="298.4" x2="720.2" y2="305.2" gradientUnits="userSpaceOnUse">
<stop stop-color="#7F178D"/>
<stop offset="0.759615" stop-color="#EF8218"/>
<stop offset="0.985577" stop-color="#DCDE38"/>
</linearGradient>
<linearGradient id="paint9_linear_31685_43442" x1="432.8" y1="340.4" x2="439.2" y2="347.2" gradientUnits="userSpaceOnUse">
<stop stop-color="#7F178D"/>
<stop offset="0.759615" stop-color="#EF8218"/>
<stop offset="0.985577" stop-color="#DCDE38"/>
</linearGradient>
<linearGradient id="paint10_linear_31685_43442" x1="259.8" y1="153.4" x2="266.2" y2="160.2" gradientUnits="userSpaceOnUse">
<stop stop-color="#7F178D"/>
<stop offset="0.759615" stop-color="#EF8218"/>
<stop offset="0.985577" stop-color="#DCDE38"/>
</linearGradient>
<linearGradient id="paint11_linear_31685_43442" x1="799.8" y1="83.4" x2="806.2" y2="90.2" gradientUnits="userSpaceOnUse">
<stop stop-color="#7F178D"/>
<stop offset="0.759615" stop-color="#EF8218"/>
<stop offset="0.985577" stop-color="#DCDE38"/>
</linearGradient>
<linearGradient id="paint12_linear_31685_43442" x1="577.8" y1="50.4" x2="584.2" y2="57.2" gradientUnits="userSpaceOnUse">
<stop stop-color="#7F178D"/>
<stop offset="0.759615" stop-color="#EF8218"/>
<stop offset="0.985577" stop-color="#DCDE38"/>
</linearGradient>
<linearGradient id="paint13_linear_31685_43442" x1="1081.8" y1="288.4" x2="1088.2" y2="295.2" gradientUnits="userSpaceOnUse">
<stop stop-color="#7F178D"/>
<stop offset="0.759615" stop-color="#EF8218"/>
<stop offset="0.985577" stop-color="#DCDE38"/>
</linearGradient>
<linearGradient id="paint14_linear_31685_43442" x1="103.8" y1="308.4" x2="110.2" y2="315.2" gradientUnits="userSpaceOnUse">
<stop stop-color="#7F178D"/>
<stop offset="0.759615" stop-color="#EF8218"/>
<stop offset="0.985577" stop-color="#DCDE38"/>
</linearGradient>
</defs>
</svg>
