<svg width="1920" height="491" viewBox="0 0 1920 491" fill="none" xmlns="http://www.w3.org/2000/svg">
<mask id="mask0_31674_24592" style="mask-type:alpha" maskUnits="userSpaceOnUse" x="0" y="3" width="1920" height="488">
<rect y="3" width="1920" height="488" fill="#D9D9D9"/>
</mask>
<g mask="url(#mask0_31674_24592)">
<rect x="248.5" y="61.5" width="1423" height="1415" rx="707.5" fill="url(#paint0_linear_31674_24592)" stroke="#F5F5F7"/>
<rect x="493.5" y="220.5" width="933" height="933" rx="466.5" fill="url(#paint1_linear_31674_24592)" stroke="#F5F5F7"/>
<rect x="690.5" y="370.5" width="539" height="539" rx="269.5" fill="url(#paint2_linear_31674_24592)" stroke="#F5F5F7"/>
<path d="M646 338C646 335.239 648.239 333 651 333C653.761 333 656 335.239 656 338C656 340.761 653.761 343 651 343C648.239 343 646 340.761 646 338Z" fill="url(#paint3_linear_31674_24592)"/>
<path d="M1005 223C1005 220.239 1007.24 218 1010 218C1012.76 218 1015 220.239 1015 223C1015 225.761 1012.76 228 1010 228C1007.24 228 1005 225.761 1005 223Z" fill="url(#paint4_linear_31674_24592)"/>
<path d="M1216 300C1216 297.239 1218.24 295 1221 295C1223.76 295 1226 297.239 1226 300C1226 302.761 1223.76 305 1221 305C1218.24 305 1216 302.761 1216 300Z" fill="url(#paint5_linear_31674_24592)"/>
<path d="M1354 447C1354 444.239 1356.24 442 1359 442C1361.76 442 1364 444.239 1364 447C1364 449.761 1361.76 452 1359 452C1356.24 452 1354 449.761 1354 447Z" fill="url(#paint6_linear_31674_24592)"/>
<path d="M907 374C907 371.239 909.239 369 912 369C914.761 369 917 371.239 917 374C917 376.761 914.761 379 912 379C909.239 379 907 376.761 907 374Z" fill="url(#paint7_linear_31674_24592)"/>
<path d="M1088 406C1088 403.239 1090.24 401 1093 401C1095.76 401 1098 403.239 1098 406C1098 408.761 1095.76 411 1093 411C1090.24 411 1088 408.761 1088 406Z" fill="url(#paint8_linear_31674_24592)"/>
<path d="M758 456C758 453.239 760.239 451 763 451C765.761 451 768 453.239 768 456C768 458.761 765.761 461 763 461C760.239 461 758 458.761 758 456Z" fill="url(#paint9_linear_31674_24592)"/>
<rect x="554" y="179" width="10" height="10" rx="5" fill="url(#paint10_linear_31674_24592)"/>
<path d="M1190 101C1190 98.2386 1192.24 96 1195 96C1197.76 96 1200 98.2386 1200 101C1200 103.761 1197.76 106 1195 106C1192.24 106 1190 103.761 1190 101Z" fill="url(#paint11_linear_31674_24592)"/>
<path d="M928 62C928 59.2386 930.239 57 933 57C935.761 57 938 59.2386 938 62C938 64.7614 935.761 67 933 67C930.239 67 928 64.7614 928 62Z" fill="url(#paint12_linear_31674_24592)"/>
<path d="M1522 343C1522 340.239 1524.24 338 1527 338C1529.76 338 1532 340.239 1532 343C1532 345.761 1529.76 348 1527 348C1524.24 348 1522 345.761 1522 343Z" fill="url(#paint13_linear_31674_24592)"/>
<path d="M329 433C329 430.239 331.239 428 334 428C336.761 428 339 430.239 339 433C339 435.761 336.761 438 334 438C331.239 438 329 435.761 329 433Z" fill="url(#paint14_linear_31674_24592)"/>
</g>
<rect x="876" y="155" width="162" height="44" rx="22" fill="#F5F5F7"/>
<path d="M906.484 183H902.227V171.727H906.5C908.43 171.727 909.734 172.852 909.734 174.539C909.734 175.711 908.875 176.805 907.789 177V177.062C909.32 177.258 910.305 178.336 910.305 179.836C910.305 181.82 908.883 183 906.484 183ZM903.633 172.969V176.586H905.742C907.406 176.586 908.312 175.922 908.312 174.703C908.312 173.586 907.547 172.969 906.18 172.969H903.633ZM903.633 181.758H906.273C907.969 181.758 908.859 181.07 908.859 179.766C908.859 178.461 907.938 177.797 906.141 177.797H903.633V181.758ZM913.18 183H911.836V174.875H913.18V180.922H913.242L917.305 174.875H918.648V183H917.305V176.953H917.242L913.18 183ZM925.945 181.883V175.992H922.898L922.648 179.414C922.578 180.422 922.367 181.305 921.984 181.82V181.883H925.945ZM921.016 185.148H919.75V181.883H920.43C921.023 181.492 921.312 180.477 921.391 179.383L921.703 174.875H927.297V181.883H928.586V185.148H927.32V183H921.016V185.148ZM933.07 175.914C931.797 175.914 930.906 176.891 930.82 178.242H935.234C935.203 176.883 934.352 175.914 933.07 175.914ZM935.203 180.672H936.539C936.305 182.094 934.93 183.141 933.156 183.141C930.828 183.141 929.414 181.523 929.414 178.969C929.414 176.445 930.852 174.734 933.094 174.734C935.289 174.734 936.641 176.328 936.641 178.789V179.305H930.812V179.383C930.812 180.938 931.727 181.961 933.188 181.961C934.219 181.961 934.977 181.438 935.203 180.672ZM941.523 183.141C939.273 183.141 937.758 181.523 937.758 178.938C937.758 176.344 939.273 174.734 941.523 174.734C943.766 174.734 945.281 176.344 945.281 178.938C945.281 181.523 943.766 183.141 941.523 183.141ZM941.523 181.945C942.961 181.945 943.898 180.852 943.898 178.938C943.898 177.023 942.961 175.93 941.523 175.93C940.086 175.93 939.141 177.023 939.141 178.938C939.141 180.852 940.086 181.945 941.523 181.945ZM950.164 183.141C947.914 183.141 946.398 181.523 946.398 178.938C946.398 176.344 947.914 174.734 950.164 174.734C952.406 174.734 953.922 176.344 953.922 178.938C953.922 181.523 952.406 183.141 950.164 183.141ZM950.164 181.945C951.602 181.945 952.539 180.852 952.539 178.938C952.539 177.023 951.602 175.93 950.164 175.93C948.727 175.93 947.781 177.023 947.781 178.938C947.781 180.852 948.727 181.945 950.164 181.945ZM960.703 183V175.992H956.773V183H955.43V174.875H962.055V183H960.703ZM967.227 175.914C965.953 175.914 965.062 176.891 964.977 178.242H969.391C969.359 176.883 968.508 175.914 967.227 175.914ZM969.359 180.672H970.695C970.461 182.094 969.086 183.141 967.312 183.141C964.984 183.141 963.57 181.523 963.57 178.969C963.57 176.445 965.008 174.734 967.25 174.734C969.445 174.734 970.797 176.328 970.797 178.789V179.305H964.969V179.383C964.969 180.938 965.883 181.961 967.344 181.961C968.375 181.961 969.133 181.438 969.359 180.672ZM976.258 174.734C978.328 174.734 979.734 176.391 979.734 178.938C979.734 181.484 978.336 183.141 976.289 183.141C975.125 183.141 974.188 182.57 973.703 181.68H973.672V185.711H972.312V174.875H973.602V176.25H973.633C974.133 175.336 975.078 174.734 976.258 174.734ZM975.992 181.945C977.438 181.945 978.344 180.781 978.344 178.938C978.344 177.102 977.438 175.93 975.992 175.93C974.602 175.93 973.664 177.133 973.664 178.938C973.664 180.75 974.602 181.945 975.992 181.945ZM983.93 181.984C985.211 181.984 986.195 181.086 986.195 179.914V179.25L984.023 179.383C982.93 179.453 982.305 179.938 982.305 180.703C982.305 181.477 982.953 181.984 983.93 181.984ZM983.625 183.141C982.008 183.141 980.922 182.164 980.922 180.703C980.922 179.312 981.992 178.438 983.867 178.328L986.195 178.195V177.516C986.195 176.523 985.539 175.93 984.414 175.93C983.367 175.93 982.711 176.422 982.539 177.219H981.227C981.32 175.812 982.523 174.734 984.445 174.734C986.352 174.734 987.555 175.766 987.555 177.383V183H986.266V181.602H986.234C985.75 182.531 984.719 183.141 983.625 183.141ZM995.219 174.875V175.992H992.594V183H991.25V175.992H988.625V174.875H995.219ZM999.695 183.141C997.445 183.141 995.93 181.523 995.93 178.938C995.93 176.344 997.445 174.734 999.695 174.734C1001.94 174.734 1003.45 176.344 1003.45 178.938C1003.45 181.523 1001.94 183.141 999.695 183.141ZM999.695 181.945C1001.13 181.945 1002.07 180.852 1002.07 178.938C1002.07 177.023 1001.13 175.93 999.695 175.93C998.258 175.93 997.312 177.023 997.312 178.938C997.312 180.852 998.258 181.945 999.695 181.945ZM1008.91 174.734C1010.98 174.734 1012.39 176.391 1012.39 178.938C1012.39 181.484 1010.99 183.141 1008.95 183.141C1007.78 183.141 1006.84 182.57 1006.36 181.68H1006.33V185.711H1004.97V174.875H1006.26V176.25H1006.29C1006.79 175.336 1007.73 174.734 1008.91 174.734ZM1008.65 181.945C1010.09 181.945 1011 180.781 1011 178.938C1011 177.102 1010.09 175.93 1008.65 175.93C1007.26 175.93 1006.32 177.133 1006.32 178.938C1006.32 180.75 1007.26 181.945 1008.65 181.945Z" fill="#2D252F"/>
<rect x="1175" y="33" width="200" height="44" rx="22" fill="#F5F5F7"/>
<path d="M1212.77 61H1211.45V52.3125H1211.4L1207.8 60.9219H1206.62L1203.02 52.3125H1202.97V61H1201.66V49.7266H1203.29L1207.18 59.1328H1207.24L1211.13 49.7266H1212.77V61ZM1217.58 59.9844C1218.86 59.9844 1219.84 59.0859 1219.84 57.9141V57.25L1217.67 57.3828C1216.58 57.4531 1215.95 57.9375 1215.95 58.7031C1215.95 59.4766 1216.6 59.9844 1217.58 59.9844ZM1217.27 61.1406C1215.66 61.1406 1214.57 60.1641 1214.57 58.7031C1214.57 57.3125 1215.64 56.4375 1217.52 56.3281L1219.84 56.1953V55.5156C1219.84 54.5234 1219.19 53.9297 1218.06 53.9297C1217.02 53.9297 1216.36 54.4219 1216.19 55.2188H1214.88C1214.97 53.8125 1216.17 52.7344 1218.09 52.7344C1220 52.7344 1221.2 53.7656 1221.2 55.3828V61H1219.91V59.6016H1219.88C1219.4 60.5312 1218.37 61.1406 1217.27 61.1406ZM1229.8 55.375H1228.46C1228.23 54.5938 1227.56 53.9297 1226.41 53.9297C1225 53.9297 1224.07 55.125 1224.07 56.9375C1224.07 58.7969 1225.02 59.9453 1226.43 59.9453C1227.51 59.9453 1228.22 59.4141 1228.48 58.5156H1229.82C1229.55 60.0547 1228.25 61.1406 1226.42 61.1406C1224.16 61.1406 1222.69 59.5234 1222.69 56.9375C1222.69 54.4062 1224.16 52.7344 1226.41 52.7344C1228.37 52.7344 1229.56 53.9922 1229.8 55.375ZM1237.02 52.875V53.9922H1234.4V61H1233.05V53.9922H1230.43V52.875H1237.02ZM1241.39 53.9141C1240.12 53.9141 1239.23 54.8906 1239.14 56.2422H1243.55C1243.52 54.8828 1242.67 53.9141 1241.39 53.9141ZM1243.52 58.6719H1244.86C1244.62 60.0938 1243.25 61.1406 1241.48 61.1406C1239.15 61.1406 1237.73 59.5234 1237.73 56.9688C1237.73 54.4453 1239.17 52.7344 1241.41 52.7344C1243.61 52.7344 1244.96 54.3281 1244.96 56.7891V57.3047H1239.13V57.3828C1239.13 58.9375 1240.05 59.9609 1241.51 59.9609C1242.54 59.9609 1243.3 59.4375 1243.52 58.6719ZM1250.42 52.7344C1252.49 52.7344 1253.9 54.3906 1253.9 56.9375C1253.9 59.4844 1252.5 61.1406 1250.45 61.1406C1249.29 61.1406 1248.35 60.5703 1247.87 59.6797H1247.84V63.7109H1246.48V52.875H1247.77V54.25H1247.8C1248.3 53.3359 1249.24 52.7344 1250.42 52.7344ZM1250.16 59.9453C1251.6 59.9453 1252.51 58.7812 1252.51 56.9375C1252.51 55.1016 1251.6 53.9297 1250.16 53.9297C1248.77 53.9297 1247.83 55.1328 1247.83 56.9375C1247.83 58.75 1248.77 59.9453 1250.16 59.9453ZM1263.96 61V53.9922H1260.03V61H1258.69V52.875H1265.31V61H1263.96ZM1271.17 52.7344C1273.24 52.7344 1274.65 54.3906 1274.65 56.9375C1274.65 59.4844 1273.25 61.1406 1271.2 61.1406C1270.04 61.1406 1269.1 60.5703 1268.62 59.6797H1268.59V63.7109H1267.23V52.875H1268.52V54.25H1268.55C1269.05 53.3359 1269.99 52.7344 1271.17 52.7344ZM1270.91 59.9453C1272.35 59.9453 1273.26 58.7812 1273.26 56.9375C1273.26 55.1016 1272.35 53.9297 1270.91 53.9297C1269.52 53.9297 1268.58 55.1328 1268.58 56.9375C1268.58 58.75 1269.52 59.9453 1270.91 59.9453ZM1279.42 53.9141C1278.15 53.9141 1277.26 54.8906 1277.17 56.2422H1281.59C1281.55 54.8828 1280.7 53.9141 1279.42 53.9141ZM1281.55 58.6719H1282.89C1282.66 60.0938 1281.28 61.1406 1279.51 61.1406C1277.18 61.1406 1275.77 59.5234 1275.77 56.9688C1275.77 54.4453 1277.2 52.7344 1279.45 52.7344C1281.64 52.7344 1282.99 54.3281 1282.99 56.7891V57.3047H1277.16V57.3828C1277.16 58.9375 1278.08 59.9609 1279.54 59.9609C1280.57 59.9609 1281.33 59.4375 1281.55 58.6719ZM1287.21 61.1406C1285.43 61.1406 1284.14 60.2656 1284 58.8906H1285.38C1285.53 59.6016 1286.2 60.0156 1287.21 60.0156C1288.39 60.0156 1289.05 59.4531 1289.05 58.6641C1289.05 57.75 1288.44 57.3359 1287.21 57.3359H1285.99V56.2266H1287.21C1288.24 56.2266 1288.77 55.8359 1288.77 55.0391C1288.77 54.3594 1288.29 53.8672 1287.24 53.8672C1286.28 53.8672 1285.61 54.2812 1285.5 54.9297H1284.18C1284.35 53.5859 1285.52 52.7344 1287.24 52.7344C1289.09 52.7344 1290.1 53.625 1290.1 54.9297C1290.1 55.7578 1289.57 56.4922 1288.76 56.6797V56.7422C1289.83 56.9766 1290.38 57.6641 1290.38 58.6016C1290.38 60.1172 1289.12 61.1406 1287.21 61.1406ZM1295.2 53.9141C1293.93 53.9141 1293.04 54.8906 1292.95 56.2422H1297.37C1297.34 54.8828 1296.48 53.9141 1295.2 53.9141ZM1297.34 58.6719H1298.67C1298.44 60.0938 1297.06 61.1406 1295.29 61.1406C1292.96 61.1406 1291.55 59.5234 1291.55 56.9688C1291.55 54.4453 1292.98 52.7344 1295.23 52.7344C1297.42 52.7344 1298.77 54.3281 1298.77 56.7891V57.3047H1292.95V57.3828C1292.95 58.9375 1293.86 59.9609 1295.32 59.9609C1296.35 59.9609 1297.11 59.4375 1297.34 58.6719ZM1305.63 61V57.3438H1301.62V61H1300.28V52.875H1301.62V56.2266H1305.63V52.875H1306.98V61H1305.63ZM1314.84 52.875V53.9922H1312.21V61H1310.87V53.9922H1308.24V52.875H1314.84ZM1318.47 59.9844C1319.75 59.9844 1320.73 59.0859 1320.73 57.9141V57.25L1318.56 57.3828C1317.47 57.4531 1316.84 57.9375 1316.84 58.7031C1316.84 59.4766 1317.49 59.9844 1318.47 59.9844ZM1318.16 61.1406C1316.55 61.1406 1315.46 60.1641 1315.46 58.7031C1315.46 57.3125 1316.53 56.4375 1318.41 56.3281L1320.73 56.1953V55.5156C1320.73 54.5234 1320.08 53.9297 1318.95 53.9297C1317.91 53.9297 1317.25 54.4219 1317.08 55.2188H1315.77C1315.86 53.8125 1317.06 52.7344 1318.98 52.7344C1320.89 52.7344 1322.09 53.7656 1322.09 55.3828V61H1320.8V59.6016H1320.77C1320.29 60.5312 1319.26 61.1406 1318.16 61.1406ZM1331.81 63.1484H1330.55V61H1323.97V52.875H1325.31V59.8828H1329.17V52.875H1330.52V59.8828H1331.81V63.1484ZM1334.38 61H1333.03V52.875H1334.38V58.9219H1334.44L1338.5 52.875H1339.84V61H1338.5V54.9531H1338.44L1334.38 61ZM1343.09 61H1341.75V52.875H1343.09V58.9219H1343.16L1347.22 52.875H1348.56V61H1347.22V54.9531H1347.16L1343.09 61ZM1342.79 49.3594H1343.79C1343.79 50.2656 1344.38 50.9766 1345.3 50.9766C1346.23 50.9766 1346.82 50.2656 1346.82 49.3594H1347.82C1347.82 50.7969 1346.8 51.7812 1345.3 51.7812C1343.81 51.7812 1342.79 50.7969 1342.79 49.3594Z" fill="#2D252F"/>
<rect x="450" y="119" width="122" height="44" rx="22" fill="#F5F5F7"/>
<path d="M480.961 144.719V137.93C478.758 138.016 477.398 139.312 477.398 141.32C477.398 143.352 478.758 144.648 480.961 144.719ZM485.906 141.328C485.906 139.305 484.547 138 482.352 137.93V144.719C484.547 144.633 485.906 143.336 485.906 141.328ZM480.961 145.977C477.906 145.906 475.977 144.102 475.977 141.32C475.977 138.555 477.898 136.758 480.961 136.672V135.57H482.352V136.672C485.406 136.742 487.328 138.547 487.328 141.328C487.328 144.094 485.406 145.891 482.352 145.977V147.156H480.961V145.977ZM492.328 147.141C490.078 147.141 488.562 145.523 488.562 142.938C488.562 140.344 490.078 138.734 492.328 138.734C494.57 138.734 496.086 140.344 496.086 142.938C496.086 145.523 494.57 147.141 492.328 147.141ZM492.328 145.945C493.766 145.945 494.703 144.852 494.703 142.938C494.703 141.023 493.766 139.93 492.328 139.93C490.891 139.93 489.945 141.023 489.945 142.938C489.945 144.852 490.891 145.945 492.328 145.945ZM503.227 138.875V139.992H500.602V147H499.258V139.992H496.633V138.875H503.227ZM507.703 147.141C505.453 147.141 503.938 145.523 503.938 142.938C503.938 140.344 505.453 138.734 507.703 138.734C509.945 138.734 511.461 140.344 511.461 142.938C511.461 145.523 509.945 147.141 507.703 147.141ZM507.703 145.945C509.141 145.945 510.078 144.852 510.078 142.938C510.078 141.023 509.141 139.93 507.703 139.93C506.266 139.93 505.32 141.023 505.32 142.938C505.32 144.852 506.266 145.945 507.703 145.945ZM518.195 139.992H514.312V147H512.969V138.875H518.195V139.992ZM523.625 138.734C525.695 138.734 527.102 140.391 527.102 142.938C527.102 145.484 525.703 147.141 523.656 147.141C522.492 147.141 521.555 146.57 521.07 145.68H521.039V149.711H519.68V138.875H520.969V140.25H521C521.5 139.336 522.445 138.734 523.625 138.734ZM523.359 145.945C524.805 145.945 525.711 144.781 525.711 142.938C525.711 141.102 524.805 139.93 523.359 139.93C521.969 139.93 521.031 141.133 521.031 142.938C521.031 144.75 521.969 145.945 523.359 145.945ZM531.297 145.984C532.578 145.984 533.562 145.086 533.562 143.914V143.25L531.391 143.383C530.297 143.453 529.672 143.938 529.672 144.703C529.672 145.477 530.32 145.984 531.297 145.984ZM530.992 147.141C529.375 147.141 528.289 146.164 528.289 144.703C528.289 143.312 529.359 142.438 531.234 142.328L533.562 142.195V141.516C533.562 140.523 532.906 139.93 531.781 139.93C530.734 139.93 530.078 140.422 529.906 141.219H528.594C528.688 139.812 529.891 138.734 531.812 138.734C533.719 138.734 534.922 139.766 534.922 141.383V147H533.633V145.602H533.602C533.117 146.531 532.086 147.141 530.992 147.141ZM540.609 145.945V139.93C538.875 139.969 537.773 141.102 537.773 142.938C537.773 144.766 538.875 145.898 540.609 145.945ZM544.75 142.938C544.75 141.109 543.648 139.977 541.922 139.93V145.945C543.648 145.906 544.75 144.773 544.75 142.938ZM540.609 147.102C538.078 147.055 536.406 145.445 536.406 142.938C536.406 140.43 538.078 138.812 540.609 138.773V136.203H541.922V138.773C544.438 138.82 546.117 140.43 546.117 142.938C546.117 145.445 544.438 147.062 541.922 147.102V149.711H540.609V147.102Z" fill="#2D252F"/>
<rect x="1326" y="390" width="125" height="44" rx="22" fill="#F5F5F7"/>
<path d="M1355.17 412.117L1360.82 418H1358.89L1353.69 412.523H1353.62V418H1352.22V406.727H1353.62V411.922H1353.69L1358.53 406.727H1360.3L1355.17 412.117ZM1364.75 410.914C1363.48 410.914 1362.59 411.891 1362.5 413.242H1366.91C1366.88 411.883 1366.03 410.914 1364.75 410.914ZM1366.88 415.672H1368.22C1367.98 417.094 1366.61 418.141 1364.84 418.141C1362.51 418.141 1361.09 416.523 1361.09 413.969C1361.09 411.445 1362.53 409.734 1364.77 409.734C1366.97 409.734 1368.32 411.328 1368.32 413.789V414.305H1362.49V414.383C1362.49 415.938 1363.41 416.961 1364.87 416.961C1365.9 416.961 1366.66 416.438 1366.88 415.672ZM1371.17 418H1369.83V409.875H1371.17V415.922H1371.23L1375.3 409.875H1376.64V418H1375.3V411.953H1375.23L1371.17 418ZM1370.87 406.359H1371.87C1371.87 407.266 1372.45 407.977 1373.38 407.977C1374.31 407.977 1374.9 407.266 1374.9 406.359H1375.9C1375.9 407.797 1374.88 408.781 1373.38 408.781C1371.89 408.781 1370.87 407.797 1370.87 406.359ZM1384.49 409.875V410.992H1381.87V418H1380.52V410.992H1377.9V409.875H1384.49ZM1388.86 410.914C1387.59 410.914 1386.7 411.891 1386.61 413.242H1391.02C1390.99 411.883 1390.14 410.914 1388.86 410.914ZM1390.99 415.672H1392.33C1392.09 417.094 1390.72 418.141 1388.95 418.141C1386.62 418.141 1385.2 416.523 1385.2 413.969C1385.2 411.445 1386.64 409.734 1388.88 409.734C1391.08 409.734 1392.43 411.328 1392.43 413.789V414.305H1386.6V414.383C1386.6 415.938 1387.52 416.961 1388.98 416.961C1390.01 416.961 1390.77 416.438 1390.99 415.672ZM1397.89 409.734C1399.96 409.734 1401.37 411.391 1401.37 413.938C1401.37 416.484 1399.97 418.141 1397.92 418.141C1396.76 418.141 1395.82 417.57 1395.34 416.68H1395.3V420.711H1393.95V409.875H1395.23V411.25H1395.27C1395.77 410.336 1396.71 409.734 1397.89 409.734ZM1397.62 416.945C1399.07 416.945 1399.98 415.781 1399.98 413.938C1399.98 412.102 1399.07 410.93 1397.62 410.93C1396.23 410.93 1395.3 412.133 1395.3 413.938C1395.3 415.75 1396.23 416.945 1397.62 416.945ZM1404.22 418H1402.88V409.875H1404.22V415.922H1404.28L1408.34 409.875H1409.69V418H1408.34V411.953H1408.28L1404.22 418ZM1416.95 418V414.344H1412.94V418H1411.59V409.875H1412.94V413.227H1416.95V409.875H1418.29V418H1416.95ZM1425.43 410.992H1421.55V418H1420.2V409.875H1425.43V410.992Z" fill="#2D252F"/>
<rect x="273" y="364" width="112" height="44" rx="22" fill="#F5F5F7"/>
<path d="M301.852 387.852C301.773 389.141 301.617 390 301.062 390.672V390.734H306.531V381.992H302.219L301.852 387.852ZM299.789 392V394.227H298.484V390.734H299.32C300.141 390.297 300.445 389.297 300.531 387.82L300.961 380.727H307.938V390.734H309.344V394.227H308.039V392H299.789ZM312.109 392H310.766V383.875H312.109V389.922H312.172L316.234 383.875H317.578V392H316.234V385.953H316.172L312.109 392ZM324.875 390.883V384.992H321.828L321.578 388.414C321.508 389.422 321.297 390.305 320.914 390.82V390.883H324.875ZM319.945 394.148H318.68V390.883H319.359C319.953 390.492 320.242 389.477 320.32 388.383L320.633 383.875H326.227V390.883H327.516V394.148H326.25V392H319.945V394.148ZM335.773 387.719L339.445 392H337.703L334.422 388.094H334.359V392H333.016V388.094H332.961L329.68 392H327.961L331.609 387.742L328.047 383.875H329.719L332.961 387.469H333.016V383.875H334.359V387.469H334.422L337.664 383.875H339.32L335.773 387.719ZM343.625 384.914C342.352 384.914 341.461 385.891 341.375 387.242H345.789C345.758 385.883 344.906 384.914 343.625 384.914ZM345.758 389.672H347.094C346.859 391.094 345.484 392.141 343.711 392.141C341.383 392.141 339.969 390.523 339.969 387.969C339.969 385.445 341.406 383.734 343.648 383.734C345.844 383.734 347.195 385.328 347.195 387.789V388.305H341.367V388.383C341.367 389.938 342.281 390.961 343.742 390.961C344.773 390.961 345.531 390.438 345.758 389.672ZM350.047 392H348.703V383.875H350.047V389.922H350.109L354.172 383.875H355.516V392H354.172V385.953H354.109L350.047 392ZM349.742 380.359H350.742C350.742 381.266 351.328 381.977 352.258 381.977C353.188 381.977 353.773 381.266 353.773 380.359H354.773C354.773 381.797 353.75 382.781 352.258 382.781C350.766 382.781 349.742 381.797 349.742 380.359Z" fill="#2D252F"/>
<rect x="1197" y="235" width="141" height="44" rx="22" fill="#F5F5F7"/>
<path d="M1228.12 263.188C1225.02 263.188 1223.05 260.93 1223.05 257.359C1223.05 253.82 1225.04 251.539 1228.12 251.539C1230.52 251.539 1232.36 252.961 1232.77 255.125H1231.34C1230.93 253.734 1229.67 252.836 1228.12 252.836C1225.92 252.836 1224.49 254.617 1224.49 257.359C1224.49 260.125 1225.91 261.891 1228.13 261.891C1229.73 261.891 1230.89 261.148 1231.34 259.859H1232.77C1232.22 262 1230.56 263.188 1228.12 263.188ZM1237.66 255.977H1235.72V258.25H1237.46C1238.48 258.25 1238.98 257.875 1238.98 257.094C1238.98 256.375 1238.52 255.977 1237.66 255.977ZM1237.57 259.344H1235.72V261.898H1237.81C1238.8 261.898 1239.33 261.453 1239.33 260.633C1239.33 259.766 1238.76 259.344 1237.57 259.344ZM1234.38 263V254.875H1237.85C1239.38 254.875 1240.3 255.664 1240.3 256.953C1240.3 257.781 1239.72 258.547 1238.97 258.703V258.766C1239.99 258.906 1240.66 259.648 1240.66 260.664C1240.66 262.102 1239.6 263 1237.88 263H1234.38ZM1245.48 255.914C1244.21 255.914 1243.32 256.891 1243.23 258.242H1247.65C1247.62 256.883 1246.77 255.914 1245.48 255.914ZM1247.62 260.672H1248.95C1248.72 262.094 1247.34 263.141 1245.57 263.141C1243.24 263.141 1241.83 261.523 1241.83 258.969C1241.83 256.445 1243.27 254.734 1245.51 254.734C1247.7 254.734 1249.05 256.328 1249.05 258.789V259.305H1243.23V259.383C1243.23 260.938 1244.14 261.961 1245.6 261.961C1246.63 261.961 1247.39 261.438 1247.62 260.672ZM1256.2 254.875V255.992H1253.57V263H1252.23V255.992H1249.6V254.875H1256.2ZM1260.67 263.141C1258.42 263.141 1256.91 261.523 1256.91 258.938C1256.91 256.344 1258.42 254.734 1260.67 254.734C1262.91 254.734 1264.43 256.344 1264.43 258.938C1264.43 261.523 1262.91 263.141 1260.67 263.141ZM1260.67 261.945C1262.11 261.945 1263.05 260.852 1263.05 258.938C1263.05 257.023 1262.11 255.93 1260.67 255.93C1259.23 255.93 1258.29 257.023 1258.29 258.938C1258.29 260.852 1259.23 261.945 1260.67 261.945ZM1271.57 254.875V255.992H1268.95V263H1267.6V255.992H1264.98V254.875H1271.57ZM1275.94 255.914C1274.66 255.914 1273.77 256.891 1273.69 258.242H1278.1C1278.07 256.883 1277.22 255.914 1275.94 255.914ZM1278.07 260.672H1279.41C1279.17 262.094 1277.8 263.141 1276.02 263.141C1273.7 263.141 1272.28 261.523 1272.28 258.969C1272.28 256.445 1273.72 254.734 1275.96 254.734C1278.16 254.734 1279.51 256.328 1279.51 258.789V259.305H1273.68V259.383C1273.68 260.938 1274.59 261.961 1276.05 261.961C1277.09 261.961 1277.84 261.438 1278.07 260.672ZM1283.74 259.906H1283.71L1281.75 263H1280.24L1283.01 258.938L1280.29 254.875H1281.8L1283.76 257.922H1283.79L1285.72 254.875H1287.23L1284.49 258.883L1287.2 263H1285.69L1283.74 259.906ZM1293.87 263V259.344H1289.86V263H1288.52V254.875H1289.86V258.227H1293.87V254.875H1295.21V263H1293.87ZM1298.47 263H1297.12V254.875H1298.47V260.922H1298.53L1302.59 254.875H1303.94V263H1302.59V256.953H1302.53L1298.47 263ZM1308.6 258.719L1312.51 263H1310.76L1307.25 259.094H1307.19V263H1305.84V254.875H1307.19V258.469H1307.25L1310.72 254.875H1312.4L1308.6 258.719Z" fill="#2D252F"/>
<rect x="1492" y="277" width="112" height="44" rx="22" fill="#F5F5F7"/>
<path d="M1522.66 305H1521.26V294.992H1517.7V293.727H1526.22V294.992H1522.66V305ZM1528.77 303.984C1530.05 303.984 1531.03 303.086 1531.03 301.914V301.25L1528.86 301.383C1527.77 301.453 1527.14 301.938 1527.14 302.703C1527.14 303.477 1527.79 303.984 1528.77 303.984ZM1528.46 305.141C1526.84 305.141 1525.76 304.164 1525.76 302.703C1525.76 301.312 1526.83 300.438 1528.7 300.328L1531.03 300.195V299.516C1531.03 298.523 1530.38 297.93 1529.25 297.93C1528.2 297.93 1527.55 298.422 1527.38 299.219H1526.06C1526.16 297.812 1527.36 296.734 1529.28 296.734C1531.19 296.734 1532.39 297.766 1532.39 299.383V305H1531.1V303.602H1531.07C1530.59 304.531 1529.55 305.141 1528.46 305.141ZM1539.62 305V301.344H1535.61V305H1534.27V296.875H1535.61V300.227H1539.62V296.875H1540.96V305H1539.62ZM1550.72 307.148H1549.45V305H1542.88V296.875H1544.22V303.883H1548.08V296.875H1549.42V303.883H1550.72V307.148ZM1555.31 305.141C1553.06 305.141 1551.55 303.523 1551.55 300.938C1551.55 298.344 1553.06 296.734 1555.31 296.734C1557.55 296.734 1559.07 298.344 1559.07 300.938C1559.07 303.523 1557.55 305.141 1555.31 305.141ZM1555.31 303.945C1556.75 303.945 1557.69 302.852 1557.69 300.938C1557.69 299.023 1556.75 297.93 1555.31 297.93C1553.88 297.93 1552.93 299.023 1552.93 300.938C1552.93 302.852 1553.88 303.945 1555.31 303.945ZM1564.53 296.734C1566.6 296.734 1568.01 298.391 1568.01 300.938C1568.01 303.484 1566.61 305.141 1564.56 305.141C1563.4 305.141 1562.46 304.57 1561.98 303.68H1561.95V307.711H1560.59V296.875H1561.88V298.25H1561.91C1562.41 297.336 1563.35 296.734 1564.53 296.734ZM1564.27 303.945C1565.71 303.945 1566.62 302.781 1566.62 300.938C1566.62 299.102 1565.71 297.93 1564.27 297.93C1562.88 297.93 1561.94 299.133 1561.94 300.938C1561.94 302.75 1562.88 303.945 1564.27 303.945ZM1576.47 305V296.875H1577.81V305H1576.47ZM1572.38 300.586H1570.86V303.883H1572.38C1573.43 303.883 1574.11 303.227 1574.11 302.234C1574.11 301.234 1573.42 300.586 1572.38 300.586ZM1569.52 305V296.875H1570.86V299.469H1572.4C1574.26 299.469 1575.45 300.539 1575.45 302.234C1575.45 303.93 1574.26 305 1572.4 305H1569.52Z" fill="#2D252F"/>
<rect x="665" y="386" width="115" height="44" rx="22" fill="#F5F5F7"/>
<path d="M695.43 414H691.172V402.727H695.445C697.375 402.727 698.68 403.852 698.68 405.539C698.68 406.711 697.82 407.805 696.734 408V408.062C698.266 408.258 699.25 409.336 699.25 410.836C699.25 412.82 697.828 414 695.43 414ZM692.578 403.969V407.586H694.688C696.352 407.586 697.258 406.922 697.258 405.703C697.258 404.586 696.492 403.969 695.125 403.969H692.578ZM692.578 412.758H695.219C696.914 412.758 697.805 412.07 697.805 410.766C697.805 409.461 696.883 408.797 695.086 408.797H692.578V412.758ZM704.047 406.914C702.773 406.914 701.883 407.891 701.797 409.242H706.211C706.18 407.883 705.328 406.914 704.047 406.914ZM706.18 411.672H707.516C707.281 413.094 705.906 414.141 704.133 414.141C701.805 414.141 700.391 412.523 700.391 409.969C700.391 407.445 701.828 405.734 704.07 405.734C706.266 405.734 707.617 407.328 707.617 409.789V410.305H701.789V410.383C701.789 411.938 702.703 412.961 704.164 412.961C705.195 412.961 705.953 412.438 706.18 411.672ZM714.359 412.883V406.992H711.312L711.062 410.414C710.992 411.422 710.781 412.305 710.398 412.82V412.883H714.359ZM709.43 416.148H708.164V412.883H708.844C709.438 412.492 709.727 411.477 709.805 410.383L710.117 405.875H715.711V412.883H717V416.148H715.734V414H709.43V416.148ZM718.742 417.039C718.578 417.039 718.305 417.023 718.156 416.992V415.852C718.305 415.883 718.516 415.891 718.688 415.891C719.445 415.891 719.867 415.523 720.18 414.578L720.367 414.008L717.367 405.875H718.82L721.07 412.641H721.094L723.344 405.875H724.773L721.578 414.57C720.883 416.469 720.211 417.039 718.742 417.039ZM737.305 416.148H736.039V414H725.984V405.875H727.328V412.883H730.328V405.875H731.672V412.883H734.672V405.875H736.016V412.883H737.305V416.148ZM739.859 414H738.516V405.875H739.859V411.922H739.922L743.984 405.875H745.328V414H743.984V407.953H743.922L739.859 414ZM748.578 414H747.234V405.875H748.578V411.922H748.641L752.703 405.875H754.047V414H752.703V407.953H752.641L748.578 414ZM748.273 402.359H749.273C749.273 403.266 749.859 403.977 750.789 403.977C751.719 403.977 752.305 403.266 752.305 402.359H753.305C753.305 403.797 752.281 404.781 750.789 404.781C749.297 404.781 748.273 403.797 748.273 402.359Z" fill="#2D252F"/>
<rect x="834" y="309" width="113" height="44" rx="22" fill="#F5F5F7"/>
<path d="M864.906 334.719V327.93C862.703 328.016 861.344 329.312 861.344 331.32C861.344 333.352 862.703 334.648 864.906 334.719ZM869.852 331.328C869.852 329.305 868.492 328 866.297 327.93V334.719C868.492 334.633 869.852 333.336 869.852 331.328ZM864.906 335.977C861.852 335.906 859.922 334.102 859.922 331.32C859.922 328.555 861.844 326.758 864.906 326.672V325.57H866.297V326.672C869.352 326.742 871.273 328.547 871.273 331.328C871.273 334.094 869.352 335.891 866.297 335.977V337.156H864.906V335.977ZM874.914 333.414C874.75 335.656 874.211 337.07 872.5 337.07C872.266 337.07 872.109 337.023 872.016 336.984V335.758C872.086 335.781 872.234 335.82 872.43 335.82C873.234 335.82 873.539 334.875 873.641 333.383L873.953 328.875H879.273V337H877.93V329.992H875.164L874.914 333.414ZM884.57 337.141C882.32 337.141 880.805 335.523 880.805 332.938C880.805 330.344 882.32 328.734 884.57 328.734C886.812 328.734 888.328 330.344 888.328 332.938C888.328 335.523 886.812 337.141 884.57 337.141ZM884.57 335.945C886.008 335.945 886.945 334.852 886.945 332.938C886.945 331.023 886.008 329.93 884.57 329.93C883.133 329.93 882.188 331.023 882.188 332.938C882.188 334.852 883.133 335.945 884.57 335.945ZM893.789 328.734C895.859 328.734 897.266 330.391 897.266 332.938C897.266 335.484 895.867 337.141 893.82 337.141C892.656 337.141 891.719 336.57 891.234 335.68H891.203V339.711H889.844V328.875H891.133V330.25H891.164C891.664 329.336 892.609 328.734 893.789 328.734ZM893.523 335.945C894.969 335.945 895.875 334.781 895.875 332.938C895.875 331.102 894.969 329.93 893.523 329.93C892.133 329.93 891.195 331.133 891.195 332.938C891.195 334.75 892.133 335.945 893.523 335.945ZM900.117 337H898.773V328.875H900.117V334.922H900.18L904.242 328.875H905.586V337H904.242V330.953H904.18L900.117 337ZM914.219 331.375H912.875C912.641 330.594 911.977 329.93 910.828 329.93C909.414 329.93 908.484 331.125 908.484 332.938C908.484 334.797 909.43 335.945 910.844 335.945C911.922 335.945 912.633 335.414 912.891 334.516H914.234C913.969 336.055 912.664 337.141 910.836 337.141C908.578 337.141 907.102 335.523 907.102 332.938C907.102 330.406 908.57 328.734 910.82 328.734C912.781 328.734 913.977 329.992 914.219 331.375ZM921.438 328.875V329.992H918.812V337H917.469V329.992H914.844V328.875H921.438Z" fill="#2D252F"/>
<rect x="561" y="275" width="109" height="44" rx="22" fill="#F5F5F7"/>
<path d="M595.086 299.617C595.086 301.609 593.594 303 591.477 303H587.375V291.727H593.961V292.992H588.781V296.219H591.461C593.578 296.219 595.086 297.617 595.086 299.617ZM588.781 301.734H591.109C592.727 301.734 593.641 300.977 593.641 299.617C593.641 298.25 592.719 297.484 591.109 297.484H588.781V301.734ZM599.516 301.984C600.797 301.984 601.781 301.086 601.781 299.914V299.25L599.609 299.383C598.516 299.453 597.891 299.938 597.891 300.703C597.891 301.477 598.539 301.984 599.516 301.984ZM599.211 303.141C597.594 303.141 596.508 302.164 596.508 300.703C596.508 299.312 597.578 298.438 599.453 298.328L601.781 298.195V297.516C601.781 296.523 601.125 295.93 600 295.93C598.953 295.93 598.297 296.422 598.125 297.219H596.812C596.906 295.812 598.109 294.734 600.031 294.734C601.938 294.734 603.141 295.766 603.141 297.383V303H601.852V301.602H601.82C601.336 302.531 600.305 303.141 599.211 303.141ZM608.969 294.734C611.039 294.734 612.445 296.391 612.445 298.938C612.445 301.484 611.047 303.141 609 303.141C607.836 303.141 606.898 302.57 606.414 301.68H606.383V305.711H605.023V294.875H606.312V296.25H606.344C606.844 295.336 607.789 294.734 608.969 294.734ZM608.703 301.945C610.148 301.945 611.055 300.781 611.055 298.938C611.055 297.102 610.148 295.93 608.703 295.93C607.312 295.93 606.375 297.133 606.375 298.938C606.375 300.75 607.312 301.945 608.703 301.945ZM615.297 303H613.953V294.875H615.297V300.922H615.359L619.422 294.875H620.766V303H619.422V296.953H619.359L615.297 303ZM629.398 297.375H628.055C627.82 296.594 627.156 295.93 626.008 295.93C624.594 295.93 623.664 297.125 623.664 298.938C623.664 300.797 624.609 301.945 626.023 301.945C627.102 301.945 627.812 301.414 628.07 300.516H629.414C629.148 302.055 627.844 303.141 626.016 303.141C623.758 303.141 622.281 301.523 622.281 298.938C622.281 296.406 623.75 294.734 626 294.734C627.961 294.734 629.156 295.992 629.398 297.375ZM636.617 294.875V295.992H633.992V303H632.648V295.992H630.023V294.875H636.617ZM640.25 301.984C641.531 301.984 642.516 301.086 642.516 299.914V299.25L640.344 299.383C639.25 299.453 638.625 299.938 638.625 300.703C638.625 301.477 639.273 301.984 640.25 301.984ZM639.945 303.141C638.328 303.141 637.242 302.164 637.242 300.703C637.242 299.312 638.312 298.438 640.188 298.328L642.516 298.195V297.516C642.516 296.523 641.859 295.93 640.734 295.93C639.688 295.93 639.031 296.422 638.859 297.219H637.547C637.641 295.812 638.844 294.734 640.766 294.734C642.672 294.734 643.875 295.766 643.875 297.383V303H642.586V301.602H642.555C642.07 302.531 641.039 303.141 639.945 303.141Z" fill="#2D252F"/>
<rect x="818" width="134" height="44" rx="22" fill="#F5F5F7"/>
<path d="M849.227 16.5391C852.422 16.5391 854.422 18.7891 854.422 22.3672C854.422 25.9453 852.422 28.1875 849.227 28.1875C846.031 28.1875 844.031 25.9453 844.031 22.3672C844.031 18.7891 846.031 16.5391 849.227 16.5391ZM849.227 17.8359C846.922 17.8359 845.477 19.5859 845.477 22.3672C845.477 25.1406 846.922 26.8906 849.227 26.8906C851.531 26.8906 852.977 25.1406 852.977 22.3672C852.977 19.5859 851.531 17.8359 849.227 17.8359ZM859.922 26.9453V20.9297C858.188 20.9688 857.086 22.1016 857.086 23.9375C857.086 25.7656 858.188 26.8984 859.922 26.9453ZM864.062 23.9375C864.062 22.1094 862.961 20.9766 861.234 20.9297V26.9453C862.961 26.9062 864.062 25.7734 864.062 23.9375ZM859.922 28.1016C857.391 28.0547 855.719 26.4453 855.719 23.9375C855.719 21.4297 857.391 19.8125 859.922 19.7734V17.2031H861.234V19.7734C863.75 19.8203 865.43 21.4297 865.43 23.9375C865.43 26.4453 863.75 28.0625 861.234 28.1016V30.7109H859.922V28.1016ZM868.297 28H866.953V19.875H868.297V25.9219H868.359L872.422 19.875H873.766V28H872.422V21.9531H872.359L868.297 28ZM883.516 30.1484H882.25V28H875.672V19.875H877.016V26.8828H880.875V19.875H882.219V26.8828H883.516V30.1484ZM886.078 28H884.734V19.875H886.078V25.9219H886.141L890.203 19.875H891.547V28H890.203V21.9531H890.141L886.078 28ZM896.141 26.9844C897.422 26.9844 898.406 26.0859 898.406 24.9141V24.25L896.234 24.3828C895.141 24.4531 894.516 24.9375 894.516 25.7031C894.516 26.4766 895.164 26.9844 896.141 26.9844ZM895.836 28.1406C894.219 28.1406 893.133 27.1641 893.133 25.7031C893.133 24.3125 894.203 23.4375 896.078 23.3281L898.406 23.1953V22.5156C898.406 21.5234 897.75 20.9297 896.625 20.9297C895.578 20.9297 894.922 21.4219 894.75 22.2188H893.438C893.531 20.8125 894.734 19.7344 896.656 19.7344C898.562 19.7344 899.766 20.7656 899.766 22.3828V28H898.477V26.6016H898.445C897.961 27.5312 896.93 28.1406 895.836 28.1406ZM906.992 28V24.3438H902.984V28H901.641V19.875H902.984V23.2266H906.992V19.875H908.336V28H906.992ZM916.195 19.875V20.9922H913.57V28H912.227V20.9922H909.602V19.875H916.195ZM924.406 28V19.875H925.75V28H924.406ZM920.312 23.5859H918.797V26.8828H920.312C921.367 26.8828 922.047 26.2266 922.047 25.2344C922.047 24.2344 921.359 23.5859 920.312 23.5859ZM917.453 28V19.875H918.797V22.4688H920.336C922.195 22.4688 923.391 23.5391 923.391 25.2344C923.391 26.9297 922.195 28 920.336 28H917.453Z" fill="#2D252F"/>
<rect x="1083" y="342" width="105" height="44" rx="22" fill="#F5F5F7"/>
<path d="M1117.01 366.617C1117.01 368.609 1115.52 370 1113.4 370H1109.3V358.727H1115.88V359.992H1110.7V363.219H1113.38C1115.5 363.219 1117.01 364.617 1117.01 366.617ZM1110.7 368.734H1113.03C1114.65 368.734 1115.56 367.977 1115.56 366.617C1115.56 365.25 1114.64 364.484 1113.03 364.484H1110.7V368.734ZM1121.44 368.984C1122.72 368.984 1123.7 368.086 1123.7 366.914V366.25L1121.53 366.383C1120.44 366.453 1119.81 366.938 1119.81 367.703C1119.81 368.477 1120.46 368.984 1121.44 368.984ZM1121.13 370.141C1119.52 370.141 1118.43 369.164 1118.43 367.703C1118.43 366.312 1119.5 365.438 1121.38 365.328L1123.7 365.195V364.516C1123.7 363.523 1123.05 362.93 1121.92 362.93C1120.88 362.93 1120.22 363.422 1120.05 364.219H1118.73C1118.83 362.812 1120.03 361.734 1121.95 361.734C1123.86 361.734 1125.06 362.766 1125.06 364.383V370H1123.77V368.602H1123.74C1123.26 369.531 1122.23 370.141 1121.13 370.141ZM1130.89 361.734C1132.96 361.734 1134.37 363.391 1134.37 365.938C1134.37 368.484 1132.97 370.141 1130.92 370.141C1129.76 370.141 1128.82 369.57 1128.34 368.68H1128.3V372.711H1126.95V361.875H1128.23V363.25H1128.27C1128.77 362.336 1129.71 361.734 1130.89 361.734ZM1130.62 368.945C1132.07 368.945 1132.98 367.781 1132.98 365.938C1132.98 364.102 1132.07 362.93 1130.62 362.93C1129.23 362.93 1128.3 364.133 1128.3 365.938C1128.3 367.75 1129.23 368.945 1130.62 368.945ZM1137.22 370H1135.88V361.875H1137.52L1140.41 368.203H1140.48L1143.38 361.875H1144.97V370H1143.62V364.234H1143.56L1140.94 369.766H1139.9L1137.27 364.234H1137.22V370ZM1150.14 362.914C1148.87 362.914 1147.98 363.891 1147.89 365.242H1152.3C1152.27 363.883 1151.42 362.914 1150.14 362.914ZM1152.27 367.672H1153.61C1153.38 369.094 1152 370.141 1150.23 370.141C1147.9 370.141 1146.48 368.523 1146.48 365.969C1146.48 363.445 1147.92 361.734 1150.16 361.734C1152.36 361.734 1153.71 363.328 1153.71 365.789V366.305H1147.88V366.383C1147.88 367.938 1148.8 368.961 1150.26 368.961C1151.29 368.961 1152.05 368.438 1152.27 367.672ZM1160.57 370V366.344H1156.56V370H1155.22V361.875H1156.56V365.227H1160.57V361.875H1161.91V370H1160.57Z" fill="#2D252F"/>
<defs>
<linearGradient id="paint0_linear_31674_24592" x1="960" y1="61" x2="960" y2="305.086" gradientUnits="userSpaceOnUse">
<stop stop-color="#F5F5F7"/>
<stop offset="1" stop-color="white"/>
</linearGradient>
<linearGradient id="paint1_linear_31674_24592" x1="960" y1="220" x2="960" y2="381" gradientUnits="userSpaceOnUse">
<stop stop-color="#F5F5F7"/>
<stop offset="1" stop-color="white"/>
</linearGradient>
<linearGradient id="paint2_linear_31674_24592" x1="960" y1="370" x2="960" y2="463.084" gradientUnits="userSpaceOnUse">
<stop stop-color="#F5F5F7"/>
<stop offset="1" stop-color="white"/>
</linearGradient>
<linearGradient id="paint3_linear_31674_24592" x1="647" y1="333.5" x2="655" y2="342" gradientUnits="userSpaceOnUse">
<stop stop-color="#7F178D"/>
<stop offset="0.759615" stop-color="#EF8218"/>
<stop offset="0.985577" stop-color="#DCDE38"/>
</linearGradient>
<linearGradient id="paint4_linear_31674_24592" x1="1006" y1="218.5" x2="1014" y2="227" gradientUnits="userSpaceOnUse">
<stop stop-color="#7F178D"/>
<stop offset="0.759615" stop-color="#EF8218"/>
<stop offset="0.985577" stop-color="#DCDE38"/>
</linearGradient>
<linearGradient id="paint5_linear_31674_24592" x1="1217" y1="295.5" x2="1225" y2="304" gradientUnits="userSpaceOnUse">
<stop stop-color="#7F178D"/>
<stop offset="0.759615" stop-color="#EF8218"/>
<stop offset="0.985577" stop-color="#DCDE38"/>
</linearGradient>
<linearGradient id="paint6_linear_31674_24592" x1="1355" y1="442.5" x2="1363" y2="451" gradientUnits="userSpaceOnUse">
<stop stop-color="#7F178D"/>
<stop offset="0.759615" stop-color="#EF8218"/>
<stop offset="0.985577" stop-color="#DCDE38"/>
</linearGradient>
<linearGradient id="paint7_linear_31674_24592" x1="908" y1="369.5" x2="916" y2="378" gradientUnits="userSpaceOnUse">
<stop stop-color="#7F178D"/>
<stop offset="0.759615" stop-color="#EF8218"/>
<stop offset="0.985577" stop-color="#DCDE38"/>
</linearGradient>
<linearGradient id="paint8_linear_31674_24592" x1="1089" y1="401.5" x2="1097" y2="410" gradientUnits="userSpaceOnUse">
<stop stop-color="#7F178D"/>
<stop offset="0.759615" stop-color="#EF8218"/>
<stop offset="0.985577" stop-color="#DCDE38"/>
</linearGradient>
<linearGradient id="paint9_linear_31674_24592" x1="759" y1="451.5" x2="767" y2="460" gradientUnits="userSpaceOnUse">
<stop stop-color="#7F178D"/>
<stop offset="0.759615" stop-color="#EF8218"/>
<stop offset="0.985577" stop-color="#DCDE38"/>
</linearGradient>
<linearGradient id="paint10_linear_31674_24592" x1="555" y1="179.5" x2="563" y2="188" gradientUnits="userSpaceOnUse">
<stop stop-color="#7F178D"/>
<stop offset="0.759615" stop-color="#EF8218"/>
<stop offset="0.985577" stop-color="#DCDE38"/>
</linearGradient>
<linearGradient id="paint11_linear_31674_24592" x1="1191" y1="96.5" x2="1199" y2="105" gradientUnits="userSpaceOnUse">
<stop stop-color="#7F178D"/>
<stop offset="0.759615" stop-color="#EF8218"/>
<stop offset="0.985577" stop-color="#DCDE38"/>
</linearGradient>
<linearGradient id="paint12_linear_31674_24592" x1="929" y1="57.5" x2="937" y2="66" gradientUnits="userSpaceOnUse">
<stop stop-color="#7F178D"/>
<stop offset="0.759615" stop-color="#EF8218"/>
<stop offset="0.985577" stop-color="#DCDE38"/>
</linearGradient>
<linearGradient id="paint13_linear_31674_24592" x1="1523" y1="338.5" x2="1531" y2="347" gradientUnits="userSpaceOnUse">
<stop stop-color="#7F178D"/>
<stop offset="0.759615" stop-color="#EF8218"/>
<stop offset="0.985577" stop-color="#DCDE38"/>
</linearGradient>
<linearGradient id="paint14_linear_31674_24592" x1="330" y1="428.5" x2="338" y2="437" gradientUnits="userSpaceOnUse">
<stop stop-color="#7F178D"/>
<stop offset="0.759615" stop-color="#EF8218"/>
<stop offset="0.985577" stop-color="#DCDE38"/>
</linearGradient>
</defs>
</svg>
