<svg width="50" height="50" viewBox="0 0 50 50" fill="none" xmlns="http://www.w3.org/2000/svg">
<g clip-path="url(#clip0_31674_24573)">
<path d="M44.4997 39.4519C46.0713 38.1076 47.0703 36.1122 47.0703 33.8867C47.0703 29.8481 43.7847 26.5625 39.7461 26.5625C35.697 26.5625 32.3242 29.8373 32.3242 33.8867C32.3242 36.0046 33.2431 38.017 34.9489 39.4548C33.9809 39.9535 33.0922 40.5988 32.3267 41.3693C31.5743 40.5998 30.7061 39.9529 29.7536 39.4519C31.3252 38.1076 32.3242 36.1122 32.3242 33.8867C32.3242 29.8481 29.0386 26.5625 25 26.5625C20.9614 26.5625 17.6758 29.8481 17.6758 33.8867C17.6758 36.1122 18.6748 38.1076 20.2464 39.4519C19.2968 39.9513 18.431 40.5958 17.6802 41.3622C16.9285 40.5934 16.0605 39.948 15.1079 39.4495C16.6779 38.1051 17.6758 36.1108 17.6758 33.8867C17.6758 29.8481 14.3901 26.5625 10.3516 26.5625C6.31299 26.5625 3.02734 29.8481 3.02734 33.8867C3.02734 36.1041 4.01914 38.0929 5.58096 39.4372C2.26758 41.1489 0 44.5843 0 48.5351C0 49.3441 0.655859 50 1.46484 50H48.5352C49.3441 50 50 49.3441 50 48.5351C50 44.5957 47.7665 41.1685 44.4997 39.4519ZM10.3516 29.4921C12.7747 29.4921 14.7461 31.4635 14.7461 33.8867C14.7461 36.3098 12.7747 38.2812 10.3516 38.2812C7.92842 38.2812 5.95703 36.3098 5.95703 33.8867C5.95703 31.4635 7.92842 29.4921 10.3516 29.4921ZM14.8512 47.0703H3.07881C3.76846 43.7313 6.76738 41.2109 10.3516 41.2109C12.5117 41.2109 14.5352 42.1562 15.9195 43.7763C15.3778 44.8052 15.0164 45.9193 14.8512 47.0703ZM25 29.4921C27.4231 29.4921 29.3945 31.4635 29.3945 33.8867C29.3945 36.3098 27.4231 38.2812 25 38.2812C22.5769 38.2812 20.6055 36.3098 20.6055 33.8867C20.6055 31.4635 22.5769 29.4921 25 29.4921ZM17.823 47.0703C18.5035 43.7313 21.463 41.2109 25 41.2109C28.537 41.2109 31.4965 43.7313 32.1771 47.0703H17.823ZM39.7461 29.4921C42.1692 29.4921 44.1406 31.4635 44.1406 33.8867C44.1406 36.3098 42.1692 38.2812 39.7461 38.2812C37.311 38.2812 35.2539 36.2688 35.2539 33.8867C35.2539 31.5045 37.311 29.4921 39.7461 29.4921ZM35.1488 47.0703C34.9838 45.9206 34.623 44.8076 34.0822 43.7797C35.4708 42.1776 37.5676 41.2109 39.7461 41.2109C43.2831 41.2109 46.2426 43.7313 46.9231 47.0703H35.1488ZM31.8951 7.85093C31.3231 7.27886 30.3956 7.27886 29.8235 7.85093L25 12.6745L23.1061 10.7805C22.5341 10.2084 21.6065 10.2084 21.0345 10.7805C20.4624 11.3526 20.4624 12.28 21.0345 12.8521L23.9642 15.7818C24.2502 16.0679 24.6251 16.2109 25 16.2109C25.3749 16.2109 25.7498 16.0679 26.0357 15.7819L31.8951 9.92251C32.4672 9.35044 32.4672 8.423 31.8951 7.85093Z" fill="url(#paint0_linear_31674_24573)"/>
<path d="M26.4648 0C20.0031 0 14.7461 5.30078 14.7461 11.8164C14.7461 18.332 20.0031 23.6328 26.4648 23.6328C32.9329 23.6328 38.2812 18.3072 38.2812 11.8164C38.2812 5.34834 32.9557 0 26.4648 0ZM26.4648 20.7031C21.6186 20.7031 17.6758 16.7165 17.6758 11.8164C17.6758 6.91631 21.6186 2.92969 26.4648 2.92969C31.2819 2.92969 35.3516 6.99932 35.3516 11.8164C35.3516 16.6335 31.2819 20.7031 26.4648 20.7031Z" fill="url(#paint1_linear_31674_24573)"/>
</g>
<defs>
<linearGradient id="paint0_linear_31674_24573" x1="6.5" y1="21.5" x2="46.2176" y2="57.3977" gradientUnits="userSpaceOnUse">
<stop stop-color="#7F178D"/>
<stop offset="0.759615" stop-color="#EF8218"/>
<stop offset="0.985577" stop-color="#DCDE38"/>
</linearGradient>
<linearGradient id="paint1_linear_31674_24573" x1="17.0996" y1="1.18164" x2="36.0104" y2="21.1914" gradientUnits="userSpaceOnUse">
<stop stop-color="#7F178D"/>
<stop offset="0.759615" stop-color="#EF8218"/>
<stop offset="0.985577" stop-color="#DCDE38"/>
</linearGradient>
<clipPath id="clip0_31674_24573">
<rect width="50" height="50" fill="white"/>
</clipPath>
</defs>
</svg>
