<svg width="52" height="46" viewBox="0 0 52 46" fill="none" xmlns="http://www.w3.org/2000/svg">
<g clip-path="url(#clip0_31674_24566)">
<path d="M14.1821 16.7613C16.9856 16.7613 19.2665 14.4684 19.2665 11.6502C19.2665 8.83192 16.9856 6.53906 14.1821 6.53906C11.3785 6.53906 9.09766 8.83192 9.09766 11.6502C9.09766 14.4684 11.3785 16.7613 14.1821 16.7613ZM14.1821 9.60971C15.3013 9.60971 16.2119 10.5251 16.2119 11.6502C16.2119 12.7752 15.3013 13.6906 14.1821 13.6906C13.0629 13.6906 12.1523 12.7752 12.1523 11.6502C12.1523 10.5251 13.0629 9.60971 14.1821 9.60971Z" fill="url(#paint0_linear_31674_24566)"/>
<path d="M46.8443 31.6597H44.7719C44.8267 31.364 44.9503 31.0076 45.2025 30.6145C45.979 29.4049 46.1451 28.3366 46.2915 27.394C46.3839 26.8001 46.4711 26.2391 46.7084 25.5918C46.9185 25.0184 47.3228 24.5527 47.7369 24.1978L49.1695 27.7477L52 26.5933L46.878 13.8615L45.6336 14.1146C45.4916 14.1435 42.1305 14.8673 40.0288 18.7795C38.4949 21.635 35.0412 23.8521 30.8396 24.7406L30.0021 21.652L28.5087 22.0914C25.6206 22.9411 24.1492 23.6913 21.1939 25.5144C20.1841 26.1373 18.8369 26.5198 17.1675 26.6614C17.9103 25.6586 19.9375 22.9656 19.9375 22.9656C22.015 20.2333 24.8604 16.4912 24.8604 11.6499C24.8604 5.73121 20.0704 0.916016 14.1825 0.916016C8.29475 0.916016 3.50458 5.73121 3.50458 11.6499C3.50458 16.4912 6.34986 20.2333 8.42752 22.9656C8.42752 22.9656 10.3165 25.4734 11.0245 26.428C8.63463 26.3874 6.77293 27.034 5.36139 28.3887C3.71484 29.969 3.04455 32.5839 3.57402 34.976L0 37.3653L4.22557 45.0473H6.27533L7.85906 43.2557C8.6502 42.3614 9.62068 41.6455 10.7067 41.1551C11.7927 40.6648 12.9697 40.4111 14.1603 40.4106C16.19 40.4106 18.1553 41.1503 19.6944 42.4933C21.4462 44.0217 23.1475 44.8785 24.7512 45.0397C25.0548 45.0702 25.3432 45.0842 25.6182 45.0842C27.1059 45.0842 28.2004 44.6787 29.1841 44.3143C30.293 43.9035 31.169 43.579 32.6439 43.7714C33.2671 43.8525 33.8343 43.8913 34.354 43.8913C37.2687 43.8912 38.6658 42.6693 39.7666 40.8536C40.1468 40.2265 40.6776 39.8643 41.1838 39.7056C42.3047 39.3542 43.7255 40.8475 43.7255 40.8475L46.6114 39.4216C47.1247 40.8391 47.3868 42.3361 47.3858 43.8446H50.4404C50.4404 41.7955 50.0565 39.7917 49.2997 37.889L46.8443 31.6597ZM14.1824 3.98667C18.3859 3.98667 21.8057 7.42436 21.8057 11.6499C21.8057 15.4521 19.4241 18.5842 17.5105 21.1009C17.5105 21.1009 15.0031 24.439 14.1823 25.5512C13.3616 24.439 10.8542 21.1009 10.8542 21.1009C8.9406 18.5842 6.55901 15.4521 6.55901 11.6499C6.55921 7.42436 9.97897 3.98667 14.1824 3.98667ZM43.9835 37.2983C42.6029 36.5363 41.4075 36.5325 40.597 36.692C39.217 36.9635 37.9958 37.874 37.1584 39.2555C36.5531 40.2539 36.03 41.1163 33.0368 40.7261C30.8161 40.4368 29.3882 40.966 28.1279 41.433C27.1076 41.811 26.3017 42.1096 25.0551 41.9842C24.1057 41.8888 22.9445 41.2628 21.6967 40.1742C19.6021 38.3464 16.9256 37.3398 14.1603 37.3398C12.5434 37.3404 10.9449 37.6839 9.46916 38.3478C7.9934 39.0118 6.6736 39.9813 5.59598 41.1929L4.03507 38.3552L7.27552 36.1889L6.78006 35.016C6.04919 33.2859 6.59037 31.4544 7.47071 30.6094C8.48027 29.6405 9.90576 29.3216 12.0927 29.5752C16.8267 30.1243 20.3264 29.652 22.7916 28.1313C24.9865 26.7773 26.1967 26.1095 27.8831 25.5132L28.6113 28.1991L29.9421 28.0128C35.7636 27.1981 40.539 24.2918 42.7165 20.2383C43.4549 18.8639 44.3796 18.0764 45.0994 17.6365L46.549 21.2544C45.6038 21.8888 44.421 22.9501 43.8419 24.5298C43.4998 25.4634 43.3795 26.2371 43.2734 26.9197C43.1454 27.7431 43.0608 28.2871 42.6357 28.9493C40.9937 31.5074 41.936 33.6312 42.0488 33.865L42.4665 34.73H44.7641L45.4804 36.5582L43.9835 37.2983Z" fill="url(#paint1_linear_31674_24566)"/>
</g>
<defs>
<linearGradient id="paint0_linear_31674_24566" x1="10.1145" y1="7.05017" x2="29.1007" y2="26.4011" gradientUnits="userSpaceOnUse">
<stop stop-color="#7F178D"/>
<stop offset="0.759615" stop-color="#EF8218"/>
<stop offset="0.985577" stop-color="#DCDE38"/>
</linearGradient>
<linearGradient id="paint1_linear_31674_24566" x1="5.2" y1="3.12442" x2="39.7306" y2="46.3188" gradientUnits="userSpaceOnUse">
<stop stop-color="#7F178D"/>
<stop offset="0.759615" stop-color="#EF8218"/>
<stop offset="0.985577" stop-color="#DCDE38"/>
</linearGradient>
<clipPath id="clip0_31674_24566">
<rect width="52" height="46" fill="white"/>
</clipPath>
</defs>
</svg>
