<svg width="54" height="54" viewBox="0 0 54 54" fill="none" xmlns="http://www.w3.org/2000/svg">
<path d="M42.04 27.4707C42.0708 27.4707 42.0965 27.4458 42.0967 27.415C42.0967 27.3841 42.0709 27.3584 42.04 27.3584C42.0093 27.3586 41.9844 27.3842 41.9844 27.415C41.9846 27.4457 42.0094 27.4705 42.04 27.4707Z" fill="white" stroke="url(#paint0_linear_31857_14628)" stroke-width="3"/>
<path d="M40.4844 27.4147C40.4844 26.5554 41.1811 25.8587 42.0404 25.8587C42.8997 25.8587 43.5964 26.5554 43.5964 27.4147C43.5964 28.274 42.8997 28.9707 42.0404 28.9707C41.1811 28.9707 40.4844 28.274 40.4844 27.4147Z" fill="url(#paint1_linear_31857_14628)"/>
<path d="M16.625 22.7471H37.3719" stroke="url(#paint2_linear_31857_14628)" stroke-width="3" stroke-miterlimit="10" stroke-linecap="round" stroke-linejoin="round"/>
<path d="M17.2539 15.9006C10.359 17.4982 5.21484 23.6648 5.21484 31.0456C5.21484 37.0944 8.67356 42.3249 13.7145 44.8994L14.5509 52H19.7377L21.3678 46.6058H32.6304L34.2605 52H39.4472L40.2834 44.9023C43.477 43.2691 46.0362 40.5718 47.48 37.2697H49.9244C51.0702 37.2697 51.9991 36.3408 51.9991 35.195V28.971C51.9991 27.8251 51.0702 26.8963 49.9244 26.8963H47.48C47.48 24.5371 45.8814 21.8732 44.7703 20.6395" stroke="url(#paint3_linear_31857_14628)" stroke-width="3" stroke-miterlimit="10" stroke-linecap="round" stroke-linejoin="round"/>
<path d="M44.7707 20.6396L48.7837 13.6888L47.4959 13.4253C44.4265 12.7972 41.2995 14.2037 39.733 16.9169C38.7856 16.479 37.7846 16.139 36.7461 15.8968" stroke="url(#paint4_linear_31857_14628)" stroke-width="3" stroke-miterlimit="10" stroke-linecap="round" stroke-linejoin="round"/>
<path d="M6.15373 25.7246C3.77832 25.1918 2 23.0784 2 20.5422" stroke="url(#paint5_linear_31857_14628)" stroke-width="3" stroke-miterlimit="10" stroke-linecap="round" stroke-linejoin="round"/>
<path d="M16.625 12.3736C16.625 6.64459 21.2694 2.00019 26.9984 2.00019C32.7275 2.00019 37.3719 6.64459 37.3719 12.3736C37.3719 18.1027 32.7275 22.7471 26.9984 22.7471C21.2694 22.7471 16.625 18.1027 16.625 12.3736Z" stroke="url(#paint6_linear_31857_14628)" stroke-width="3" stroke-miterlimit="10" stroke-linecap="round" stroke-linejoin="round"/>
<path d="M27.0009 8.22367V12.373H22.8516" stroke="url(#paint7_linear_31857_14628)" stroke-width="3" stroke-miterlimit="10" stroke-linecap="round" stroke-linejoin="round"/>
<defs>
<linearGradient id="paint0_linear_31857_14628" x1="40.7956" y1="28.8151" x2="43.2852" y2="26.1699" gradientUnits="userSpaceOnUse">
<stop stop-color="#7F178D"/>
<stop offset="0.759615" stop-color="#EF8218"/>
<stop offset="0.985577" stop-color="#DCDE38"/>
</linearGradient>
<linearGradient id="paint1_linear_31857_14628" x1="40.7956" y1="28.8151" x2="43.2852" y2="26.1699" gradientUnits="userSpaceOnUse">
<stop stop-color="#7F178D"/>
<stop offset="0.759615" stop-color="#EF8218"/>
<stop offset="0.985577" stop-color="#DCDE38"/>
</linearGradient>
<linearGradient id="paint2_linear_31857_14628" x1="18.6997" y1="22.6971" x2="34.8577" y2="42.2191" gradientUnits="userSpaceOnUse">
<stop stop-color="#7F178D"/>
<stop offset="0.759615" stop-color="#EF8218"/>
<stop offset="0.985577" stop-color="#DCDE38"/>
</linearGradient>
<linearGradient id="paint3_linear_31857_14628" x1="12.6186" y1="18.0401" x2="44.0353" y2="52.4243" gradientUnits="userSpaceOnUse">
<stop offset="0.146007" stop-color="#7F178D"/>
<stop offset="0.759615" stop-color="#EF8218"/>
<stop offset="0.985577" stop-color="#DCDE38"/>
</linearGradient>
<linearGradient id="paint4_linear_31857_14628" x1="37.9499" y1="20.2715" x2="43.0526" y2="11.4072" gradientUnits="userSpaceOnUse">
<stop stop-color="#7F178D"/>
<stop offset="0.759615" stop-color="#EF8218"/>
<stop offset="0.985577" stop-color="#DCDE38"/>
</linearGradient>
<linearGradient id="paint5_linear_31857_14628" x1="2.25912" y1="22.1169" x2="19.5644" y2="36.5596" gradientUnits="userSpaceOnUse">
<stop stop-color="#7F178D"/>
<stop offset="0.759615" stop-color="#EF8218"/>
<stop offset="0.985577" stop-color="#DCDE38"/>
</linearGradient>
<linearGradient id="paint6_linear_31857_14628" x1="18.6997" y1="21.7097" x2="35.2972" y2="4.07488" gradientUnits="userSpaceOnUse">
<stop stop-color="#7F178D"/>
<stop offset="0.759615" stop-color="#EF8218"/>
<stop offset="0.985577" stop-color="#DCDE38"/>
</linearGradient>
<linearGradient id="paint7_linear_31857_14628" x1="23.8142" y1="7.87913" x2="33.9055" y2="15.846" gradientUnits="userSpaceOnUse">
<stop stop-color="#7F178D"/>
<stop offset="0.759615" stop-color="#EF8218"/>
<stop offset="0.985577" stop-color="#DCDE38"/>
</linearGradient>
</defs>
</svg>
