<svg width="44" height="50" viewBox="0 0 44 50" fill="none" xmlns="http://www.w3.org/2000/svg">
<g clip-path="url(#clip0_31857_14621)">
<path d="M42.5078 23.4375H41.043V21.9727C41.043 13.0285 34.8497 5.44248 26.3945 3.44004V1.46484C26.3945 0.655859 25.7387 0 24.9297 0H19.0703C18.2613 0 17.6055 0.655859 17.6055 1.46484V3.44004C9.14023 5.44482 2.95703 13.0382 2.95703 21.9727V23.4375H1.49219C0.683203 23.4375 0.0273438 24.0934 0.0273438 24.9023V30.7617C0.0273438 31.5707 0.683203 32.2266 1.49219 32.2266H6.49648C6.83701 33.425 7.31875 34.5802 7.93701 35.6801L4.39131 39.2258C3.81953 39.7976 3.81934 40.7254 4.39131 41.2974L8.53467 45.4407C9.10645 46.0125 10.0343 46.0127 10.6063 45.4407L14.152 41.895C15.2519 42.5133 16.407 42.995 17.6055 43.3355V48.5352C17.6055 49.3441 18.2613 50 19.0703 50H24.9297C25.7387 50 26.3945 49.3441 26.3945 48.5352V43.3355C27.593 42.995 28.7481 42.5133 29.848 41.895L33.3937 45.4407C33.9655 46.0125 34.8934 46.0127 35.4653 45.4407L39.6087 41.2974C40.1807 40.7253 40.1807 39.7979 39.6087 39.2258L36.063 35.6801C36.6813 34.5801 37.1631 33.425 37.5035 32.2266H42.5078C43.3168 32.2266 43.9727 31.5707 43.9727 30.7617V24.9023C43.9727 24.0934 43.3168 23.4375 42.5078 23.4375ZM5.88672 21.9727C5.88672 16.9877 8.13418 12.4887 11.7461 9.51807V13.1836C11.7461 13.9926 12.402 14.6484 13.2109 14.6484C14.0199 14.6484 14.6758 13.9926 14.6758 13.1836V7.604C15.6127 7.12918 16.594 6.74734 17.6055 6.46396V16.1133C17.6055 16.9223 18.2613 17.5781 19.0703 17.5781C19.8793 17.5781 20.5352 16.9223 20.5352 16.1133V2.92969H23.4648V16.1133C23.4648 16.9223 24.1207 17.5781 24.9297 17.5781C25.7387 17.5781 26.3945 16.9223 26.3945 16.1133V6.46396C27.406 6.74734 28.3873 7.12918 29.3242 7.604V13.1836C29.3242 13.9926 29.9801 14.6484 30.7891 14.6484C31.598 14.6484 32.2539 13.9926 32.2539 13.1836V9.51807C35.8658 12.4887 38.1133 16.9877 38.1133 21.9727V23.4375H5.88672V21.9727ZM29.1769 26.3672C28.4964 29.7062 25.537 32.2266 22 32.2266C18.463 32.2266 15.5037 29.7062 14.8231 26.3672H29.1769ZM36.3532 29.2969C36.0153 29.2969 35.6878 29.4137 35.4262 29.6276C35.1645 29.8414 34.9849 30.1392 34.9177 30.4703C34.5851 32.1085 33.9368 33.6636 32.9909 35.0924C32.8044 35.3741 32.721 35.7116 32.7549 36.0477C32.7887 36.3838 32.9377 36.6979 33.1766 36.9368L36.5013 40.2615L34.4296 42.3332L31.1049 39.0085C30.866 38.7696 30.5519 38.6206 30.2158 38.5868C29.8796 38.553 29.5421 38.6364 29.2604 38.8229C27.8317 39.7688 26.2767 40.4171 24.6384 40.7497C24.3072 40.8169 24.0095 40.9966 23.7956 41.2582C23.5818 41.5198 23.4649 41.8473 23.4649 42.1853V47.0703H20.5353V42.1853C20.5352 41.8473 20.4184 41.5198 20.2046 41.2582C19.9907 40.9966 19.693 40.8169 19.3618 40.7497C17.7235 40.4171 16.1685 39.7688 14.7397 38.8229C14.4581 38.6364 14.1206 38.553 13.7844 38.5869C13.4483 38.6207 13.1342 38.7696 12.8953 39.0085L9.57061 42.3332L7.49893 40.2615L10.8236 36.9368C11.0625 36.6979 11.2115 36.3838 11.2453 36.0477C11.2791 35.7115 11.1957 35.3741 11.0092 35.0924C10.0633 33.6637 9.41504 32.1086 9.08242 30.4703C9.0152 30.1392 8.83556 29.8414 8.57393 29.6276C8.3123 29.4137 7.98479 29.2969 7.64688 29.2969H2.95703V26.3672H11.8512C12.5642 31.3297 16.8434 35.1562 22 35.1562C27.1566 35.1562 31.4358 31.3297 32.1488 26.3672H41.043V29.2969H36.3532Z" fill="url(#paint0_linear_31857_14621)"/>
</g>
<defs>
<linearGradient id="paint0_linear_31857_14621" x1="4.42187" y1="2.5" x2="44.4017" y2="39.8347" gradientUnits="userSpaceOnUse">
<stop stop-color="#7F178D"/>
<stop offset="0.759615" stop-color="#EF8218"/>
<stop offset="0.985577" stop-color="#DCDE38"/>
</linearGradient>
<clipPath id="clip0_31857_14621">
<rect width="44" height="50" fill="white"/>
</clipPath>
</defs>
</svg>
