<svg width="50" height="50" viewBox="0 0 50 50" fill="none" xmlns="http://www.w3.org/2000/svg">
<path d="M23.9644 28.6423C23.5503 28.6426 23.1529 28.4785 22.8597 28.1861L20.7706 26.0939C20.486 25.7992 20.3285 25.4045 20.3321 24.9948C20.3357 24.5851 20.5 24.1932 20.7897 23.9035C21.0794 23.6138 21.4713 23.4495 21.881 23.446C22.2906 23.4424 22.6853 23.5999 22.98 23.8845L23.9644 24.8689L27.0206 21.8126C27.3153 21.528 27.71 21.3705 28.1197 21.3741C28.5294 21.3776 28.9213 21.542 29.211 21.8317C29.5007 22.1214 29.665 22.5133 29.6686 22.9229C29.6721 23.3326 29.5146 23.7273 29.23 24.022L25.0691 28.1829C24.9242 28.3283 24.752 28.4437 24.5624 28.5226C24.3729 28.6014 24.1697 28.6421 23.9644 28.6423Z" fill="url(#paint0_linear_31857_14612)"/>
<path d="M25 35.9375C22.8368 35.9375 20.7221 35.296 18.9235 34.0942C17.1248 32.8924 15.7229 31.1842 14.8951 29.1856C14.0672 27.187 13.8506 24.9879 14.2727 22.8662C14.6947 20.7445 15.7364 18.7957 17.266 17.266C18.7957 15.7364 20.7445 14.6947 22.8662 14.2727C24.9879 13.8506 27.187 14.0672 29.1856 14.8951C31.1842 15.7229 32.8924 17.1248 34.0942 18.9235C35.296 20.7221 35.9375 22.8368 35.9375 25C35.9342 27.8998 34.7808 30.6799 32.7303 32.7303C30.6799 34.7808 27.8998 35.9342 25 35.9375ZM25 17.1875C23.4548 17.1875 21.9444 17.6457 20.6596 18.5041C19.3749 19.3626 18.3735 20.5827 17.7822 22.0103C17.1909 23.4378 17.0362 25.0087 17.3376 26.5241C17.6391 28.0396 18.3831 29.4317 19.4757 30.5243C20.5683 31.6169 21.9604 32.3609 23.4759 32.6624C24.9913 32.9638 26.5622 32.8091 27.9897 32.2178C29.4173 31.6265 30.6374 30.6252 31.4959 29.3404C32.3543 28.0556 32.8125 26.5452 32.8125 25C32.81 22.9288 31.9861 20.9431 30.5215 19.4785C29.0569 18.0139 27.0712 17.19 25 17.1875Z" fill="url(#paint1_linear_31857_14612)"/>
<path d="M25 45.3125C20.9826 45.3125 17.0554 44.1212 13.715 41.8892C10.3746 39.6573 7.77111 36.4849 6.23371 32.7733C4.6963 29.0616 4.29405 24.9775 5.07781 21.0372C5.86157 17.097 7.79615 13.4777 10.6369 10.6369C13.4777 7.79615 17.097 5.86157 21.0372 5.07781C24.9775 4.29405 29.0616 4.6963 32.7733 6.23371C36.4849 7.77111 39.6573 10.3746 41.8892 13.715C44.1212 17.0554 45.3125 20.9826 45.3125 25C45.3067 30.3854 43.1648 35.5486 39.3567 39.3567C35.5486 43.1648 30.3854 45.3067 25 45.3125ZM25 7.81251C21.6006 7.81251 18.2776 8.82054 15.4511 10.7091C12.6247 12.5977 10.4217 15.282 9.12083 18.4226C7.81995 21.5632 7.47958 25.0191 8.14276 28.3531C8.80595 31.6872 10.4429 34.7497 12.8466 37.1534C15.2503 39.5571 18.3128 41.1941 21.6469 41.8573C24.9809 42.5204 28.4368 42.1801 31.5774 40.8792C34.718 39.5783 37.4023 37.3753 39.2909 34.5489C41.1795 31.7224 42.1875 28.3994 42.1875 25C42.1825 20.4431 40.3701 16.0743 37.1479 12.8521C33.9257 9.62989 29.5569 7.81747 25 7.81251Z" fill="url(#paint2_linear_31857_14612)"/>
<path d="M25 10.9375C24.5856 10.9375 24.1882 10.7729 23.8951 10.4799C23.6021 10.1868 23.4375 9.7894 23.4375 9.375V3.125C23.4375 2.7106 23.6021 2.31317 23.8951 2.02015C24.1882 1.72712 24.5856 1.5625 25 1.5625C25.4144 1.5625 25.8118 1.72712 26.1049 2.02015C26.3979 2.31317 26.5625 2.7106 26.5625 3.125V9.375C26.5625 9.7894 26.3979 10.1868 26.1049 10.4799C25.8118 10.7729 25.4144 10.9375 25 10.9375ZM9.375 26.5625H3.125C2.7106 26.5625 2.31317 26.3979 2.02015 26.1049C1.72712 25.8118 1.5625 25.4144 1.5625 25C1.5625 24.5856 1.72712 24.1882 2.02015 23.8951C2.31317 23.6021 2.7106 23.4375 3.125 23.4375H9.375C9.7894 23.4375 10.1868 23.6021 10.4799 23.8951C10.7729 24.1882 10.9375 24.5856 10.9375 25C10.9375 25.4144 10.7729 25.8118 10.4799 26.1049C10.1868 26.3979 9.7894 26.5625 9.375 26.5625ZM25 48.4375C24.5856 48.4375 24.1882 48.2729 23.8951 47.9799C23.6021 47.6868 23.4375 47.2894 23.4375 46.875V40.625C23.4375 40.2106 23.6021 39.8132 23.8951 39.5201C24.1882 39.2271 24.5856 39.0625 25 39.0625C25.4144 39.0625 25.8118 39.2271 26.1049 39.5201C26.3979 39.8132 26.5625 40.2106 26.5625 40.625V46.875C26.5625 47.2894 26.3979 47.6868 26.1049 47.9799C25.8118 48.2729 25.4144 48.4375 25 48.4375ZM46.875 26.5625H40.625C40.2106 26.5625 39.8132 26.3979 39.5201 26.1049C39.2271 25.8118 39.0625 25.4144 39.0625 25C39.0625 24.5856 39.2271 24.1882 39.5201 23.8951C39.8132 23.6021 40.2106 23.4375 40.625 23.4375H46.875C47.2894 23.4375 47.6868 23.6021 47.9799 23.8951C48.2729 24.1882 48.4375 24.5856 48.4375 25C48.4375 25.4144 48.2729 25.8118 47.9799 26.1049C47.6868 26.3979 47.2894 26.5625 46.875 26.5625ZM1.5625 10.9375C1.1481 10.9375 0.750671 10.7729 0.457646 10.4799C0.16462 10.1868 0 9.7894 0 9.375V3.125C0 2.7106 0.16462 2.31317 0.457646 2.02015C0.750671 1.72712 1.1481 1.5625 1.5625 1.5625H7.8125C8.2269 1.5625 8.62433 1.72712 8.91735 2.02015C9.21038 2.31317 9.375 2.7106 9.375 3.125C9.375 3.5394 9.21038 3.93683 8.91735 4.22985C8.62433 4.52288 8.2269 4.6875 7.8125 4.6875H3.125V9.375C3.125 9.7894 2.96038 10.1868 2.66735 10.4799C2.37433 10.7729 1.9769 10.9375 1.5625 10.9375ZM7.8125 48.4375H1.5625C1.1481 48.4375 0.750671 48.2729 0.457646 47.9799C0.16462 47.6868 0 47.2894 0 46.875V40.625C0 40.2106 0.16462 39.8132 0.457646 39.5201C0.750671 39.2271 1.1481 39.0625 1.5625 39.0625C1.9769 39.0625 2.37433 39.2271 2.66735 39.5201C2.96038 39.8132 3.125 40.2106 3.125 40.625V45.3125H7.8125C8.2269 45.3125 8.62433 45.4771 8.91735 45.7701C9.21038 46.0632 9.375 46.4606 9.375 46.875C9.375 47.2894 9.21038 47.6868 8.91735 47.9799C8.62433 48.2729 8.2269 48.4375 7.8125 48.4375ZM48.4375 10.9375C48.0231 10.9375 47.6257 10.7729 47.3326 10.4799C47.0396 10.1868 46.875 9.7894 46.875 9.375V4.6875H42.1875C41.7731 4.6875 41.3757 4.52288 41.0826 4.22985C40.7896 3.93683 40.625 3.5394 40.625 3.125C40.625 2.7106 40.7896 2.31317 41.0826 2.02015C41.3757 1.72712 41.7731 1.5625 42.1875 1.5625H48.4375C48.8519 1.5625 49.2493 1.72712 49.5424 2.02015C49.8354 2.31317 50 2.7106 50 3.125V9.375C50 9.7894 49.8354 10.1868 49.5424 10.4799C49.2493 10.7729 48.8519 10.9375 48.4375 10.9375ZM48.4375 48.4375H42.1875C41.7731 48.4375 41.3757 48.2729 41.0826 47.9799C40.7896 47.6868 40.625 47.2894 40.625 46.875C40.625 46.4606 40.7896 46.0632 41.0826 45.7701C41.3757 45.4771 41.7731 45.3125 42.1875 45.3125H46.875V40.625C46.875 40.2106 47.0396 39.8132 47.3326 39.5201C47.6257 39.2271 48.0231 39.0625 48.4375 39.0625C48.8519 39.0625 49.2493 39.2271 49.5424 39.5201C49.8354 39.8132 50 40.2106 50 40.625V46.875C50 47.2894 49.8354 47.6868 49.5424 47.9799C49.2493 48.2729 48.8519 48.4375 48.4375 48.4375Z" fill="url(#paint3_linear_31857_14612)"/>
<defs>
<linearGradient id="paint0_linear_31857_14612" x1="21.2657" y1="21.7374" x2="26.8202" y2="29.3184" gradientUnits="userSpaceOnUse">
<stop stop-color="#7F178D"/>
<stop offset="0.759615" stop-color="#EF8218"/>
<stop offset="0.985577" stop-color="#DCDE38"/>
</linearGradient>
<linearGradient id="paint1_linear_31857_14612" x1="16.25" y1="15.1563" x2="33.75" y2="33.75" gradientUnits="userSpaceOnUse">
<stop stop-color="#7F178D"/>
<stop offset="0.759615" stop-color="#EF8218"/>
<stop offset="0.985577" stop-color="#DCDE38"/>
</linearGradient>
<linearGradient id="paint2_linear_31857_14612" x1="8.75" y1="6.71875" x2="41.25" y2="41.25" gradientUnits="userSpaceOnUse">
<stop stop-color="#7F178D"/>
<stop offset="0.759615" stop-color="#EF8218"/>
<stop offset="0.985577" stop-color="#DCDE38"/>
</linearGradient>
<linearGradient id="paint3_linear_31857_14612" x1="5" y1="3.90625" x2="42.2766" y2="46.153" gradientUnits="userSpaceOnUse">
<stop stop-color="#7F178D"/>
<stop offset="0.759615" stop-color="#EF8218"/>
<stop offset="0.985577" stop-color="#DCDE38"/>
</linearGradient>
</defs>
</svg>
