<svg width="50" height="50" viewBox="0 0 50 50" fill="none" xmlns="http://www.w3.org/2000/svg">
<path d="M9.37208 28.125C7.64917 28.125 6.24708 26.7235 6.24708 25C6.24708 23.2766 7.64917 21.875 9.37208 21.875C11.095 21.875 12.4971 23.2766 12.4971 25C12.4971 26.7235 11.0945 28.125 9.37208 28.125ZM14.0596 12.5C12.3367 12.5 10.9346 13.9016 10.9346 15.625C10.9346 17.3485 12.3367 18.75 14.0596 18.75C15.7825 18.75 17.1846 17.3485 17.1846 15.625C17.1846 13.9016 15.782 12.5 14.0596 12.5ZM14.0596 31.25C12.3367 31.25 10.9346 32.6516 10.9346 34.375C10.9346 36.0985 12.3367 37.5 14.0596 37.5C15.7825 37.5 17.1846 36.0985 17.1846 34.375C17.1846 32.6516 15.782 31.25 14.0596 31.25ZM49.9971 35.9375C49.9971 37.661 48.595 39.0625 46.8721 39.0625C45.1664 39.0625 42.2971 37.637 39.2789 35.4188C38.1978 35.7643 37.0695 35.9393 35.9346 35.9375H31.0122C30.479 35.9356 29.9544 36.0712 29.489 36.3314C29.0235 36.5915 28.6331 36.9673 28.3554 37.4224C28.0743 37.8736 27.9142 38.3896 27.8906 38.9207C27.8671 39.4518 27.9809 39.9799 28.221 40.4542C28.6637 41.3417 28.8559 42.1594 28.8559 43.0151C28.8559 46.0052 26.4236 48.4375 23.4346 48.4375C20.1401 48.4353 16.883 47.7395 13.8752 46.3955C10.8674 45.0514 8.17622 43.0892 5.97677 40.6365C1.53667 35.6813 -0.587813 29.0141 0.146562 22.3448C1.33667 11.5797 10.0143 2.90316 20.7778 1.71202C34.9762 0.137538 46.8721 11.2084 46.8721 25C46.8721 26.1594 46.694 27.2782 46.3533 28.3433C48.571 31.362 49.9971 34.2318 49.9971 35.9375ZM36.07 32.7995C33.0221 30.0438 30.2054 26.6844 28.6393 23.3412C24.7653 22.8672 21.5669 19.8485 21.0039 15.9084L20.3247 11.1589C20.2907 10.9187 20.313 10.6738 20.3898 10.4437C20.4666 10.2136 20.5959 10.0045 20.7674 9.83285C20.9382 9.66032 21.1473 9.53044 21.3777 9.45371C21.6081 9.37698 21.8533 9.35556 22.0934 9.39118L26.8434 10.0693C30.7835 10.6318 33.8018 13.8313 34.2752 17.7052C37.619 19.2719 40.9783 22.0881 43.7335 25.1355C43.7341 25.0896 43.7466 25.0459 43.7466 25C43.7466 13.7995 34.6341 4.68754 23.4341 4.68754C22.6804 4.68754 21.9039 4.73181 21.1226 4.81775C11.7997 5.849 4.28302 13.3641 3.25281 22.6875C2.60594 28.5589 4.40021 34.1933 8.30333 38.5511C10.2096 40.6771 12.5421 42.3779 15.1491 43.5428C17.7561 44.7078 20.5791 45.3107 23.4346 45.3125C24.8539 45.3125 25.7309 44.1198 25.7309 43.0151C25.7309 42.6479 25.6502 42.2995 25.4898 41.9792C24.4507 39.9099 24.5497 37.6391 25.6945 35.7818C26.2509 34.8717 27.0325 34.1204 27.9639 33.6003C28.8953 33.0802 29.9449 32.8089 31.0117 32.8125H35.9341C35.9799 32.8125 36.0242 32.8 36.07 32.7995ZM31.1919 18.1578C30.9195 15.6287 28.9643 13.5287 26.4007 13.162L23.7137 12.7782L24.0981 15.4662C24.4632 18.0302 26.5627 19.9855 29.0924 20.2573L31.1919 18.1578ZM46.8721 35.9375C46.8721 33.8157 40.3507 24.0709 33.1591 20.611L31.5445 22.2245C35.0049 29.4167 44.7507 35.9375 46.8721 35.9375Z" fill="url(#paint0_linear_31857_14655)"/>
<defs>
<linearGradient id="paint0_linear_31857_14655" x1="5.00322" y1="3.90625" x2="42.2805" y2="46.148" gradientUnits="userSpaceOnUse">
<stop stop-color="#7F178D"/>
<stop offset="0.759615" stop-color="#EF8218"/>
<stop offset="0.985577" stop-color="#DCDE38"/>
</linearGradient>
</defs>
</svg>
