<svg width="50" height="50" viewBox="0 0 50 50" fill="none" xmlns="http://www.w3.org/2000/svg">
<g clip-path="url(#clip0_31674_24559)">
<path d="M46.0415 13.1599C41.1521 10.2291 38.4682 7.12507 37.0781 5.03689C35.6209 2.84882 35.2413 1.29013 35.2185 1.19169C35.0822 0.488279 34.47 2.13417e-08 33.7529 2.13417e-08H13.0158C12.6708 -5.82106e-05 12.3364 0.119052 12.0691 0.337181C11.8019 0.55531 11.6181 0.859066 11.549 1.19707C11.5365 1.25957 10.1648 7.5031 0.727205 13.1599C0.451155 13.3253 0.235787 13.5753 0.113065 13.8728C-0.00965645 14.1702 -0.0331898 14.4994 0.0459579 14.8113C0.176817 15.3278 3.30288 27.5489 7.89505 35.1671C10.7285 39.8668 14.3315 43.5679 16.227 45.3558C17.6171 46.6673 18.969 47.785 20.1367 48.5884C21.9746 49.8537 22.8707 50.0002 23.3845 50.0002C23.8984 50.0002 24.7941 49.8537 26.6324 48.5884C27.7997 47.785 29.1516 46.6673 30.542 45.3558C32.4375 43.5679 36.0405 39.8668 38.8736 35.1671C43.4662 27.5489 46.5924 15.3278 46.7232 14.8113C46.8022 14.4993 46.7785 14.1702 46.6557 13.8727C46.5329 13.5753 46.3175 13.3253 46.0415 13.1599ZM43.5379 15.1313C43.1663 16.479 42.4432 18.9858 41.4519 21.8811H33.6979C33.0391 17.3381 29.4296 13.739 24.8822 13.0958V2.99374H32.6531C33.5007 5.27146 36.1187 10.3995 43.5379 15.1313ZM23.4208 30.7692C19.4069 30.7692 16.1324 27.5531 16.0337 23.5625C16.0413 23.502 16.0462 23.4404 16.0462 23.3779C16.0462 23.3149 16.0413 23.2539 16.0337 23.1929C16.1324 19.2027 19.4069 15.9862 23.4208 15.9862C27.4963 15.9862 30.8124 19.3019 30.8124 23.3779C30.8124 27.4535 27.4963 30.7692 23.4208 30.7692ZM14.1152 2.99374H21.8884V13.1057C17.3741 13.7759 13.799 17.3617 13.1437 21.8811H5.31664C4.32563 18.9857 3.60239 16.479 3.23071 15.1313C10.6501 10.3996 13.2681 5.27146 14.1153 2.99374H14.1152ZM18.0367 42.9457C16.3087 41.2916 13.0266 37.8802 10.4592 33.6216C8.92268 31.0725 7.54026 27.909 6.3932 24.8748H13.1437C13.8005 29.4055 17.3932 32.9981 21.9239 33.655V46.1852C20.9866 45.5485 19.6702 44.5094 18.0367 42.9457ZM36.3095 33.6216C33.7421 37.8802 30.46 41.2912 28.732 42.9457C27.1401 44.4697 25.8496 45.4946 24.9176 46.1352V33.655C29.4484 32.9981 33.041 29.4055 33.6979 24.8748H40.3756C39.2281 27.909 37.846 31.0725 36.3094 33.6215L36.3095 33.6216Z" fill="url(#paint0_linear_31674_24559)"/>
<path d="M25.398 20.6219L22.0972 23.9227L21.2347 22.8744C20.7093 22.2362 19.7664 22.1443 19.1278 22.6696C18.4896 23.1949 18.3977 24.1383 18.923 24.7769L20.8334 27.0984C20.9738 27.2692 21.1503 27.4068 21.3502 27.5012C21.5501 27.5956 21.7685 27.6445 21.9896 27.6443C22.3856 27.6443 22.7667 27.4871 23.0478 27.2057L27.5148 22.7391C28.0996 22.1542 28.0996 21.2066 27.5148 20.6219C26.9304 20.0375 25.9825 20.0375 25.398 20.6219Z" fill="url(#paint1_linear_31674_24559)"/>
</g>
<defs>
<linearGradient id="paint0_linear_31674_24559" x1="4.6769" y1="2.50001" x2="44.7498" y2="42.326" gradientUnits="userSpaceOnUse">
<stop stop-color="#7F178D"/>
<stop offset="0.759615" stop-color="#EF8218"/>
<stop offset="0.985577" stop-color="#DCDE38"/>
</linearGradient>
<linearGradient id="paint1_linear_31674_24559" x1="19.5192" y1="20.5566" x2="25.258" y2="28.2157" gradientUnits="userSpaceOnUse">
<stop stop-color="#7F178D"/>
<stop offset="0.759615" stop-color="#EF8218"/>
<stop offset="0.985577" stop-color="#DCDE38"/>
</linearGradient>
<clipPath id="clip0_31674_24559">
<rect width="50" height="50" fill="white"/>
</clipPath>
</defs>
</svg>
