<svg width="65" height="65" viewBox="0 0 65 65" fill="none" xmlns="http://www.w3.org/2000/svg">
<g clip-path="url(#clip0_31857_14640)">
<mask id="mask0_31857_14640" style="mask-type:luminance" maskUnits="userSpaceOnUse" x="0" y="0" width="65" height="65">
<path d="M0 0H65V65H0V0Z" fill="white"/>
</mask>
<g mask="url(#mask0_31857_14640)">
<path fill-rule="evenodd" clip-rule="evenodd" d="M54.7985 13.3272C54.7984 13.3272 54.7988 13.327 54.7985 13.3272L49.4067 15.569C49.3817 15.5781 49.3614 15.5966 49.35 15.6206C49.3458 15.6296 49.3433 15.6393 49.3427 15.6493C49.3424 15.6623 49.3447 15.6752 49.3495 15.6874L49.3542 15.7002L56.4956 36.3033L56.5012 36.3196C56.5047 36.3298 56.5089 36.3364 56.5146 36.3426C56.5244 36.3526 56.536 36.3606 56.5488 36.3661C56.583 36.3815 56.6122 36.3791 56.6326 36.3707C56.6325 36.3708 56.6328 36.3706 56.6326 36.3707L62.0251 34.1286C62.0501 34.1195 62.0705 34.101 62.0818 34.077C62.086 34.068 62.0885 34.0583 62.089 34.0483C62.0893 34.0353 62.087 34.0223 62.0822 34.0102L62.0776 33.9974L54.936 13.3943L54.9304 13.3779C54.9279 13.3694 54.9234 13.3616 54.9172 13.3551C54.9075 13.345 54.8958 13.337 54.883 13.3315C54.8488 13.3162 54.8191 13.3188 54.7985 13.3272ZM57.6884 12.448C57.1281 10.7856 55.267 9.9836 53.6858 10.6379L48.303 12.876C46.8379 13.4763 46.061 15.1204 46.606 16.6588L53.7434 37.2496C54.3037 38.912 56.1647 39.714 57.7459 39.0597L57.7482 39.0588L63.1288 36.8215C64.5939 36.2213 65.3708 34.5772 64.8257 33.0388L57.6884 12.448ZM9.13046 14.0149L9.13008 14.016L2.92537 35.0101C2.92213 35.0211 2.91874 35.0321 2.91522 35.043C2.90493 35.0751 2.91572 35.1303 2.98288 35.1543L8.45291 37.1099L8.47906 37.1197C8.48033 37.1201 8.4816 37.1206 8.48592 37.1203C8.49815 37.1189 8.51 37.1152 8.52083 37.1093C8.53476 37.1028 8.54726 37.0936 8.55759 37.0822C8.56792 37.0708 8.57588 37.0575 8.58101 37.043L8.58126 37.0419L14.7861 16.0478C14.7893 16.0367 14.7927 16.0258 14.7961 16.0149C14.8065 15.9828 14.7957 15.9274 14.7286 15.9036L9.25855 13.9478L9.23228 13.9382C9.23101 13.9378 9.22974 13.9373 9.22555 13.9376C9.21326 13.9389 9.20135 13.9427 9.19051 13.9486C9.1766 13.9551 9.16413 13.9643 9.15382 13.9757C9.14351 13.9871 9.13557 14.0004 9.13046 14.0149ZM10.2493 11.2114C8.60805 10.5988 6.82791 11.5611 6.34244 13.1798L0.138497 34.1713C-0.348495 35.7206 0.490284 37.3546 2.00395 37.8953L7.46217 39.8465C9.10342 40.4591 10.8834 39.4966 11.3689 37.8781L11.3707 37.8724L17.573 16.8866C18.0598 15.3375 17.2213 13.7036 15.7079 13.1629L10.2493 11.2114Z" fill="url(#paint0_linear_31857_14640)"/>
<path fill-rule="evenodd" clip-rule="evenodd" d="M39.276 17.1896C37.802 16.8106 36.5338 16.7564 35.5968 17.1313L35.5808 17.1376C33.3458 18.0011 29.0935 20.8322 26.251 24.6086C25.6734 25.4089 25.7371 26.6104 26.3804 27.3552C26.4199 27.4009 26.4564 27.449 26.4898 27.4992L26.4958 27.5081C26.9628 28.0239 27.6409 28.1522 28.2199 27.904L28.2253 27.9019C28.685 27.7069 29.2058 27.3527 29.8159 26.8564C30.1886 26.5532 30.518 26.2637 30.8653 25.9585C31.1221 25.7327 31.3887 25.4984 31.6898 25.2436C32.3233 24.7076 33.0492 24.1373 33.8169 23.7618C34.5993 23.379 35.5897 23.1194 36.6448 23.4666C37.4465 23.7308 38.574 24.3496 39.7729 25.0764C41.0134 25.8283 42.4608 26.7774 43.9509 27.79C46.9313 29.8149 50.1332 32.1274 52.2904 33.7027C54.1382 35.0319 54.827 37.4141 54.2264 39.5538L54.2234 39.5648C53.5373 41.9374 51.38 43.4662 49.1374 43.2951C49.1429 44.5024 48.7486 45.7194 47.9352 46.6954L47.9331 46.6979C46.7312 48.1335 44.8745 48.6951 43.1729 48.1944C43.1203 49.392 42.6771 50.5789 41.8254 51.5082L41.8209 51.513C40.3233 53.132 37.9497 53.5324 36.0284 52.3629L30.5564 49.0173C29.8707 48.5982 29.6548 47.7025 30.074 47.0168C30.4932 46.3311 31.3888 46.1151 32.0745 46.5343L37.5417 49.8769C37.5415 49.8768 37.5418 49.8771 37.5417 49.8769C38.2266 50.2935 39.0828 50.1849 39.6821 49.5391C40.6498 48.4803 40.3619 46.6808 39.2655 46.0187C39.2651 46.0185 39.2648 46.0182 39.2643 46.0181L33.6552 42.6468C32.9665 42.2328 32.7433 41.3387 33.1571 40.65C33.571 39.9611 34.4649 39.7382 35.1539 40.152L43.6064 45.2292C44.2701 45.6332 45.1235 45.5193 45.7007 44.8306C46.5075 43.8608 46.3441 42.3917 45.5271 41.6358L37.3363 36.3926L37.3325 36.3902C36.6563 35.9574 36.4584 35.0589 36.8902 34.3821C37.322 33.7052 38.2203 33.5058 38.8977 33.9366L38.9015 33.939L46.8371 38.9837C46.9874 39.08 47.1323 39.1844 47.2711 39.2965L48.5148 40.0927C49.51 40.7366 50.9768 40.304 51.4259 38.7618C51.7287 37.6746 51.3425 36.6046 50.5884 36.0637L50.5785 36.0564C48.4281 34.4862 45.2559 32.1952 42.3154 30.1973C40.8442 29.1977 39.4433 28.2799 38.2643 27.5653C37.0437 26.8254 36.1798 26.3778 35.7344 26.231C35.6698 26.2098 35.5016 26.1776 35.0958 26.3761C34.674 26.5826 34.1796 26.9493 33.5697 27.4654C33.3347 27.6658 33.1013 27.8681 32.8696 28.0724C32.4708 28.4216 32.0398 28.799 31.6522 29.1143C30.9815 29.6599 30.2066 30.2224 29.3638 30.5802C27.5816 31.3427 25.509 30.8639 24.2203 29.3259C24.1862 29.2853 24.1544 29.2427 24.1249 29.1987L24.1141 29.1823C22.665 27.4339 22.5246 24.7793 23.9049 22.8863L23.9175 22.8692C27.08 18.6625 31.7721 15.4916 34.5242 14.4258C36.3192 13.7109 38.3202 13.9388 40.0005 14.3708C41.7972 14.8327 43.5152 15.6093 44.6583 16.1261C44.7905 16.1857 44.915 16.242 45.0311 16.2939C45.7855 16.6315 46.4972 16.6347 47.0382 16.5472C47.2536 16.5127 47.4656 16.459 47.6714 16.3867C47.7299 16.366 47.7875 16.3431 47.8442 16.3179C48.5585 15.9645 49.4257 16.2515 49.7871 16.9637C50.1507 17.6805 49.8646 18.5562 49.1479 18.9199L48.4894 17.6222C49.1479 18.9199 49.1474 18.9202 49.1468 18.9204L49.1456 18.9211L49.1432 18.9223L49.1377 18.9251L49.1245 18.9316L49.0894 18.9485C49.0622 18.9613 49.0273 18.9773 48.985 18.9957C48.9008 19.0325 48.7868 19.079 48.6467 19.1288C48.2751 19.2601 47.8924 19.3576 47.5033 19.4201C46.5564 19.5734 45.2418 19.5765 43.8425 18.9507C43.7191 18.8953 43.591 18.8377 43.4589 18.778C42.2964 18.2538 40.8114 17.5843 39.276 17.1896ZM14.7549 33.4972L14.7544 33.4986L11.7273 41.0519C11.4099 41.887 11.8164 43.0691 12.891 43.5966L13.1853 43.7304C13.1986 43.7365 13.2118 43.7427 13.225 43.7492C14.2288 44.2426 15.1566 43.8055 15.4557 43.0667L15.4562 43.0653L18.4833 35.5118C18.8005 34.6768 18.3941 33.4948 17.3197 32.9672L17.0253 32.8335C17.012 32.8274 16.9988 32.8211 16.9856 32.8147C15.9818 32.3212 15.054 32.7582 14.7549 33.4972ZM18.248 30.1922C15.9123 29.058 13.0575 29.9261 12.0554 32.4095L9.02183 39.9794L9.01497 39.9968C8.09177 42.3886 9.32499 45.1057 11.6381 46.2236L11.6692 46.2382L11.9626 46.3715C14.2983 47.5058 17.153 46.6377 18.1552 44.1543L21.1888 36.5844L21.1956 36.5671C22.1188 34.1753 20.8856 31.4582 18.5725 30.3403C18.5622 30.3352 18.5519 30.3303 18.5414 30.3257L18.248 30.1922Z" fill="url(#paint1_linear_31857_14640)"/>
<path fill-rule="evenodd" clip-rule="evenodd" d="M22.6051 38.4302C21.51 37.9003 20.4969 38.3714 20.169 39.1911L17.2499 46.4744C17.2499 46.4745 17.25 46.4742 17.2499 46.4744C16.8868 47.383 17.3366 48.6752 18.4979 49.2346L18.7966 49.3703L18.8282 49.3851C19.9233 49.915 20.9364 49.4439 21.2643 48.6243L24.1833 41.3409M23.8557 35.8022C21.4401 34.6442 18.4975 35.5349 17.4671 38.1093C17.467 38.1094 17.4671 38.1092 17.4671 38.1093L17.4668 38.1102L14.5477 45.3935C13.552 47.8829 14.8553 50.7235 17.257 51.8672L17.2805 51.8781L17.5776 52.0132C19.9934 53.1713 22.9365 52.2802 23.9665 49.7052L26.8855 42.4218C27.8814 39.9323 26.5779 37.0918 24.1762 35.9482L24.1529 35.9372L23.8557 35.8022ZM22.9354 38.5808L22.6367 38.445C22.6261 38.4401 22.6156 38.4352 22.6051 38.4302" fill="url(#paint2_linear_31857_14640)"/>
<path fill-rule="evenodd" clip-rule="evenodd" d="M26.3185 44.1502C26.3185 44.1504 26.3186 44.15 26.3185 44.1502L24.5331 48.6279C24.1697 49.5365 24.6196 50.8285 25.7811 51.388L26.0797 51.5239C26.0903 51.5286 26.1009 51.5335 26.1114 51.5386C27.2063 52.0685 28.2192 51.5976 28.5473 50.7783C28.5471 50.7784 28.5473 50.7781 28.5473 50.7783L30.3329 46.3C30.6963 45.3914 30.2464 44.0994 29.0849 43.5399L28.7862 43.4042C28.7756 43.3993 28.7651 43.3944 28.7546 43.3893C27.6597 42.8596 26.6467 43.3309 26.3185 44.1502ZM30.0052 40.7613C27.5894 39.6032 24.6464 40.4942 23.6163 43.0693L21.8309 47.5471C21.8308 47.5473 21.8311 47.5468 21.8309 47.5471C20.8358 50.0362 22.1388 52.8772 24.5401 54.0206L24.5636 54.0316L24.8608 54.1666C27.2766 55.3247 30.2196 54.4338 31.2497 51.8586L33.0351 47.3809L33.0354 47.38C34.0305 44.8907 32.7272 42.0507 30.3258 40.9073L30.3024 40.8964L30.0052 40.7613ZM28.4952 17.7927C26.991 17.2591 25.4095 16.9515 24.2874 17.2446C22.5369 17.7019 20.4794 17.8159 18.9241 17.8267C18.2672 17.8312 17.6103 17.8184 16.954 17.7885C16.7064 17.7772 16.459 17.7628 16.2117 17.7453L16.1677 17.7419L16.1551 17.7409L16.15 17.7405C16.1498 17.7405 16.1492 17.7405 16.2677 16.29L16.15 17.7405C15.349 17.675 14.7519 16.9726 14.8174 16.1715C14.8828 15.3707 15.585 14.7745 16.3858 14.8397L16.3938 14.8404L16.4264 14.8428C16.4563 14.8451 16.5021 14.8482 16.5625 14.8523C16.6834 14.8602 16.8622 14.8708 17.0878 14.8811C17.5395 14.9019 18.1748 14.9215 18.9038 14.9164C20.388 14.906 22.1563 14.7933 23.5517 14.4288C25.5752 13.9 27.8763 14.4852 29.4681 15.0497C30.1747 15.3017 30.8675 15.5908 31.5436 15.9158C31.8025 16.0401 32.0112 16.1468 32.1574 16.2238C32.2307 16.2624 32.2886 16.2935 32.3293 16.3158L32.3778 16.3425L32.3922 16.3505L32.3969 16.3531L32.3985 16.354C32.3989 16.3543 32.3998 16.3548 31.6845 17.622L32.3998 16.3548C33.0997 16.7499 33.3469 17.6374 32.9519 18.3373C32.5571 19.0368 31.6702 19.2841 30.9704 18.8899L30.9693 18.8893L30.9646 18.8867L30.9345 18.8701C30.8906 18.8462 30.8466 18.8227 30.8023 18.7995C30.6311 18.7096 30.4581 18.6228 30.2836 18.5393C29.701 18.2592 29.104 18.01 28.4952 17.7927Z" fill="url(#paint3_linear_31857_14640)"/>
</g>
</g>
<defs>
<linearGradient id="paint0_linear_31857_14640" x1="6.50003" y1="11.8913" x2="23.7018" y2="51.9961" gradientUnits="userSpaceOnUse">
<stop stop-color="#7F178D"/>
<stop offset="0.759615" stop-color="#EF8218"/>
<stop offset="0.985577" stop-color="#DCDE38"/>
</linearGradient>
<linearGradient id="paint1_linear_31857_14640" x1="13.2801" y1="15.9193" x2="43.8636" y2="53.9543" gradientUnits="userSpaceOnUse">
<stop stop-color="#7F178D"/>
<stop offset="0.759615" stop-color="#EF8218"/>
<stop offset="0.985577" stop-color="#DCDE38"/>
</linearGradient>
<linearGradient id="paint2_linear_31857_14640" x1="15.5121" y1="36.1632" x2="28.9809" y2="46.9827" gradientUnits="userSpaceOnUse">
<stop stop-color="#7F178D"/>
<stop offset="0.759615" stop-color="#EF8218"/>
<stop offset="0.985577" stop-color="#DCDE38"/>
</linearGradient>
<linearGradient id="paint3_linear_31857_14640" x1="16.6684" y1="16.2439" x2="42.2065" y2="28.6954" gradientUnits="userSpaceOnUse">
<stop stop-color="#7F178D"/>
<stop offset="0.759615" stop-color="#EF8218"/>
<stop offset="0.985577" stop-color="#DCDE38"/>
</linearGradient>
<clipPath id="clip0_31857_14640">
<rect width="65" height="65" fill="white"/>
</clipPath>
</defs>
</svg>
