<svg width="51" height="50" viewBox="0 0 51 50" fill="none" xmlns="http://www.w3.org/2000/svg">
<g clip-path="url(#clip0_31674_24580)">
<path d="M22.5975 12.1836C17.9073 13.2771 14.1318 16.9966 12.9789 21.6593C11.8224 26.3369 13.146 31.1048 16.5198 34.4133C17.7132 35.5837 18.4258 37.4596 18.4258 39.4313V39.7461C18.4258 41.0445 18.9923 42.2129 19.8906 43.0181V45.6055C19.8906 48.0286 21.862 50 24.2852 50H27.2148C29.638 50 31.6094 48.0286 31.6094 45.6055V43.0181C32.5077 42.2129 33.0742 41.0446 33.0742 39.7461V39.4256C33.0742 37.4838 33.8249 35.5723 35.0823 34.3122C37.5658 31.8232 38.9336 28.5161 38.9336 25C38.9336 16.5938 31.1437 10.1916 22.5975 12.1836ZM28.6797 45.6055C28.6797 46.4132 28.0226 47.0703 27.2148 47.0703H24.2852C23.4774 47.0703 22.8203 46.4132 22.8203 45.6055V44.1406H28.6797V45.6055ZM33.0084 32.2428C31.1884 34.0667 30.1445 36.6847 30.1445 39.4256V39.7461C30.1445 40.5538 29.4874 41.2109 28.6797 41.2109H22.8203C22.0126 41.2109 21.3555 40.5538 21.3555 39.7461V39.4313C21.3555 36.6482 20.3405 34.0568 18.571 32.3216C15.945 29.7464 14.9178 26.0234 15.8229 22.3625C16.714 18.7583 19.6343 15.8827 23.2627 15.0368C29.9689 13.473 36.0039 18.4793 36.0039 25C36.0039 27.7348 34.94 30.3069 33.0084 32.2428ZM14.3562 11.5346L10.2129 7.39141C9.64092 6.81934 8.71338 6.81934 8.14131 7.39141C7.56924 7.96348 7.56924 8.89092 8.14131 9.46299L12.2846 13.6062C12.8565 14.1782 13.7842 14.1782 14.3562 13.6062C14.9282 13.0341 14.9282 12.1066 14.3562 11.5346ZM8.17188 23.5352H2.21484C1.40586 23.5352 0.75 24.191 0.75 25C0.75 25.809 1.40586 26.4648 2.21484 26.4648H8.17188C8.98086 26.4648 9.63672 25.809 9.63672 25C9.63672 24.191 8.98086 23.5352 8.17188 23.5352ZM49.2852 23.5352H43.3281C42.5191 23.5352 41.8633 24.191 41.8633 25C41.8633 25.809 42.5191 26.4648 43.3281 26.4648H49.2852C50.0941 26.4648 50.75 25.809 50.75 25C50.75 24.191 50.0941 23.5352 49.2852 23.5352ZM43.3587 7.39141C42.7868 6.81934 41.8593 6.81934 41.2871 7.39141L37.1438 11.5346C36.5718 12.1065 36.5718 13.0341 37.1438 13.6062C37.7158 14.1782 38.6434 14.1782 39.2154 13.6062L43.3587 9.46299C43.9308 8.89102 43.9308 7.96348 43.3587 7.39141ZM25.75 0C24.941 0 24.2852 0.655859 24.2852 1.46484V7.42188C24.2852 8.23086 24.941 8.88672 25.75 8.88672C26.559 8.88672 27.2148 8.23086 27.2148 7.42188V1.46484C27.2148 0.655859 26.559 0 25.75 0Z" fill="url(#paint0_linear_31674_24580)"/>
<path d="M25.7482 17.6758C25.1461 17.6758 24.5327 17.7479 23.9261 17.89C21.4003 18.4796 19.2857 20.5588 18.6645 23.0638C18.4698 23.849 18.9484 24.6434 19.7336 24.8382C20.5189 25.0329 21.3132 24.5541 21.508 23.769C21.8655 22.3278 23.1337 21.0835 24.5932 20.7428C24.9821 20.6517 25.3708 20.6055 25.7482 20.6055C26.5572 20.6055 27.213 19.9496 27.213 19.1406C27.213 18.3316 26.5572 17.6758 25.7482 17.6758Z" fill="url(#paint1_linear_31674_24580)"/>
</g>
<defs>
<linearGradient id="paint0_linear_31674_24580" x1="5.75" y1="2.5" x2="45.75" y2="45" gradientUnits="userSpaceOnUse">
<stop stop-color="#7F178D"/>
<stop offset="0.759615" stop-color="#EF8218"/>
<stop offset="0.985577" stop-color="#DCDE38"/>
</linearGradient>
<linearGradient id="paint1_linear_31674_24580" x1="19.4803" y1="18.0361" x2="25.0976" y2="25.1526" gradientUnits="userSpaceOnUse">
<stop stop-color="#7F178D"/>
<stop offset="0.759615" stop-color="#EF8218"/>
<stop offset="0.985577" stop-color="#DCDE38"/>
</linearGradient>
<clipPath id="clip0_31674_24580">
<rect width="50" height="50" fill="white" transform="translate(0.75)"/>
</clipPath>
</defs>
</svg>
