<svg width="31" height="30" viewBox="0 0 31 30" fill="none" xmlns="http://www.w3.org/2000/svg">
<g clip-path="url(#clip0_31674_24660)">
<path d="M11.2324 27.9109C12.1321 27.7538 12.9963 27.4216 13.778 26.9323L20.2476 22.8949C20.6136 22.6666 20.9132 22.3413 21.1145 21.9542C21.3157 21.567 21.4109 21.1325 21.3899 20.6972C21.3689 20.2619 21.2325 19.8423 20.9953 19.4834C20.758 19.1245 20.429 18.8399 20.0434 18.66C20.2754 18.3766 20.4411 18.0431 20.5276 17.6854C20.6142 17.3278 20.6193 16.9556 20.5425 16.5979C20.4657 16.2402 20.309 15.9066 20.0848 15.623C19.8605 15.3395 19.5746 15.1136 19.2495 14.9631C19.4743 14.6914 19.6376 14.3724 19.7274 14.0296C19.8172 13.6868 19.8312 13.3287 19.7684 12.9818C19.7055 12.6348 19.5674 12.3077 19.3643 12.0245C19.1611 11.7412 18.898 11.5089 18.5941 11.3447L24.9199 7.39716C25.443 7.05352 25.8195 6.51853 25.9711 5.90331C26.1228 5.28808 26.0379 4.63992 25.7341 4.09346C25.4156 3.55083 24.8979 3.16291 24.2949 3.01499C23.6918 2.86707 23.0528 2.97127 22.5184 3.30468L8.43933 12.0897C8.41321 12.1075 8.3824 12.1164 8.35129 12.1152C8.32018 12.114 8.29036 12.1028 8.2661 12.0832C8.24004 12.0658 8.22031 12.0402 8.20988 12.0102C8.19945 11.9801 8.19889 11.9473 8.20827 11.9166L8.85697 9.28462C9.0484 8.51775 9.02701 7.71424 8.79522 6.96508C8.56344 6.21591 8.13051 5.55104 7.54548 5.04573C7.34306 4.86959 7.10303 4.7442 6.84407 4.67932C6.58512 4.61445 6.31422 4.61184 6.05246 4.6717C5.7907 4.73156 5.54514 4.85227 5.33488 5.02444C5.12463 5.19661 4.95535 5.4156 4.84022 5.66436L1.84604 12.1276C1.37625 13.1356 0.989837 14.1813 0.690933 15.2535L0.642562 15.4498C0.149898 17.5397 0.481389 19.733 1.56479 21.5518L3.05934 24.1037C3.87882 25.5112 5.09701 26.6274 6.55496 27.3065C8.01292 27.9857 9.64295 28.1963 11.2324 27.9109ZM4.06911 23.4755L2.57002 20.9225C2.09451 20.1339 1.7827 19.2519 1.65372 18.3306C1.52475 17.4094 1.58132 16.4683 1.81998 15.5651C2.09996 14.5581 2.46298 13.5763 2.90511 12.6302L5.89928 6.16695C5.93698 6.08622 5.99219 6.0152 6.06065 5.9594C6.12911 5.90359 6.20898 5.86449 6.29408 5.84512C6.37918 5.82575 6.46722 5.82663 6.5514 5.8477C6.63557 5.86876 6.71362 5.90945 6.7795 5.9666C7.19884 6.32888 7.50909 6.80557 7.6751 7.34265C7.8411 7.87974 7.85621 8.45576 7.71872 9.00543L7.07002 11.6374C7.00583 11.8991 7.01858 12.1734 7.10665 12.4255C7.19472 12.6777 7.35416 12.8965 7.56484 13.0542C7.77551 13.2119 8.02798 13.3015 8.29033 13.3117C8.55268 13.3219 8.81316 13.2522 9.03885 13.1114L23.1182 4.32518C23.3854 4.15848 23.7049 4.10638 24.0064 4.18034C24.308 4.2543 24.5668 4.44826 24.7261 4.71957C24.8782 4.99273 24.9208 5.31691 24.845 5.6246C24.7692 5.9323 24.5807 6.1998 24.3189 6.37142L16.2615 11.4007L15.2554 12.0285C15.1247 12.1133 15.031 12.2467 14.9946 12.4002C14.9581 12.5537 14.9818 12.7149 15.0605 12.849C15.1393 12.9832 15.2667 13.0796 15.4155 13.1175C15.5642 13.1554 15.7223 13.1317 15.8558 13.0516L16.8659 12.4223C17.1325 12.2678 17.4461 12.2247 17.7401 12.3023C18.0341 12.3799 18.2856 12.572 18.4412 12.8379C18.5969 13.1038 18.6446 13.4228 18.5742 13.7272C18.5038 14.0317 18.3208 14.2977 18.064 14.4691L16.5532 15.4129C16.4225 15.4977 16.3288 15.6312 16.2924 15.7847C16.2559 15.9381 16.2796 16.0993 16.3583 16.2335C16.4371 16.3676 16.5645 16.464 16.7133 16.5019C16.862 16.5398 17.0201 16.5162 17.1536 16.4361L17.6569 16.121C17.9242 15.9541 18.2438 15.9018 18.5454 15.9757C18.8471 16.0496 19.1061 16.2435 19.2655 16.5149C19.4249 16.7863 19.4716 17.1129 19.3953 17.4228C19.319 17.7327 19.126 18.0006 18.8588 18.1675L17.3468 19.111C17.2793 19.1516 17.2201 19.2054 17.1727 19.2694C17.1253 19.3333 17.0908 19.4061 17.071 19.4835C17.0512 19.5609 17.0466 19.6414 17.0575 19.7202C17.0684 19.799 17.0946 19.8745 17.1344 19.9425C17.1743 20.0104 17.2271 20.0694 17.2897 20.1159C17.3524 20.1624 17.4236 20.1955 17.4993 20.2134C17.5749 20.2312 17.6535 20.2334 17.7304 20.2198C17.8073 20.2062 17.881 20.1771 17.9472 20.1342L18.4517 19.8193C18.7185 19.665 19.032 19.6222 19.326 19.7C19.62 19.7778 19.8713 19.97 20.0268 20.2361C20.1823 20.5021 20.2297 20.8211 20.1591 21.1255C20.0885 21.4299 19.9054 21.6959 19.6484 21.8671L13.1776 25.9042C12.5234 26.3133 11.8 26.5905 11.047 26.7208C9.69054 26.9647 8.29933 26.7855 7.05468 26.2067C5.81003 25.6278 4.76965 24.6761 4.06911 23.4755Z" fill="#767676"/>
<path d="M24.6541 11.3501L22.7828 15.7821C22.7706 15.8123 22.7605 15.8434 22.7526 15.875C22.7155 16.0222 22.7339 16.1775 22.8041 16.3099C22.8743 16.4423 22.9912 16.5419 23.1313 16.5888C23.2713 16.6357 23.4243 16.6264 23.5594 16.5628C23.6945 16.4991 23.8019 16.3859 23.8599 16.2457L25.2026 13.063C26.0346 15.6779 25.927 18.5233 24.899 21.0905C23.9052 23.6077 22.1021 25.7111 19.7912 27.0489C19.6548 27.1275 19.5537 27.2579 19.5102 27.4115C19.4667 27.5651 19.4844 27.7292 19.5592 27.8678C19.6341 28.0065 19.7601 28.1082 19.9096 28.1506C20.059 28.1931 20.2196 28.1728 20.356 28.0942C22.9022 26.62 24.8891 24.3025 25.9848 21.529C27.1117 18.7155 27.2342 15.5977 26.3305 12.7289L29.2615 13.9929C29.4043 14.0544 29.5659 14.0549 29.7107 13.9944C29.8556 13.9338 29.9718 13.8172 30.0338 13.6701C30.0958 13.523 30.0985 13.3575 30.0413 13.21C29.9842 13.0625 29.8718 12.9451 29.729 12.8836L25.4268 11.0281C25.3561 10.9974 25.2801 10.9815 25.2029 10.9811C25.1258 10.9807 25.0492 10.9959 24.9774 11.0258C24.9056 11.0558 24.8401 11.0998 24.7846 11.1555C24.7291 11.2111 24.6848 11.2773 24.6541 11.3501Z" fill="#767676"/>
</g>
<defs>
<clipPath id="clip0_31674_24660">
<rect width="29.9956" height="29.9956" fill="white" transform="translate(0.0507812 0.00195312)"/>
</clipPath>
</defs>
</svg>
