<svg width="35" height="35" viewBox="0 0 35 35" fill="none" xmlns="http://www.w3.org/2000/svg">
<path d="M17.5 35C27.165 35 35 27.165 35 17.5C35 7.83502 27.165 0 17.5 0C7.83502 0 0 7.83502 0 17.5C0 27.165 7.83502 35 17.5 35Z" fill="#1187DB"/>
<path fill-rule="evenodd" clip-rule="evenodd" d="M8.20303 17.0292C12.9006 14.8888 16.0331 13.4777 17.6005 12.796C22.0755 10.8494 23.0054 10.5113 23.6115 10.5001C23.7448 10.4977 24.0429 10.5322 24.2359 10.696C24.399 10.8344 24.4438 11.0213 24.4653 11.1524C24.4867 11.2836 24.5135 11.5824 24.4922 11.8158C24.2497 14.4805 23.2004 20.947 22.6666 23.9314C22.4407 25.1943 21.9959 25.6177 21.5653 25.6592C20.6295 25.7492 19.9189 25.0124 19.0126 24.3911C17.5943 23.4188 16.7931 22.8136 15.4164 21.8649C13.8255 20.7685 14.8568 20.1659 15.7635 19.181C16.0008 18.9233 20.1239 15.0013 20.2037 14.6456C20.2137 14.6011 20.2229 14.4352 20.1287 14.3476C20.0345 14.26 19.8954 14.29 19.7951 14.3138C19.6528 14.3476 17.3871 15.9137 12.998 19.0121C12.3549 19.4739 11.7724 19.6989 11.2505 19.6871C10.6751 19.6741 9.56837 19.3469 8.7456 19.0672C7.73645 18.7242 6.9344 18.5428 7.00424 17.9602C7.04062 17.6567 7.44022 17.3464 8.20303 17.0292Z" fill="white"/>
</svg>
