<svg width="35" height="35" viewBox="0 0 35 35" fill="none" xmlns="http://www.w3.org/2000/svg">
<path d="M9.035 32.8087C11.6273 34.2479 14.5438 35.0021 17.5087 35C27.1712 35 35 27.1537 35 17.4912C35 7.82875 27.1712 0 17.5087 0C7.84625 0 0 7.82875 0 17.4912C0 20.5987 0.815 23.4862 2.225 26.0162L0 35L9.035 32.8087ZM10.0025 9.765C10.2063 9.57427 10.4534 9.43594 10.7226 9.3619C10.9917 9.28787 11.2748 9.28035 11.5475 9.34L12.1087 9.45875C12.6687 9.5775 13.1275 9.95125 13.3475 10.4612L14.4512 12.9062C14.5852 13.2003 14.6308 13.527 14.5827 13.8465C14.5345 14.166 14.3946 14.4647 14.18 14.7062L13.5012 15.505C13.3908 15.6348 13.3219 15.7948 13.3036 15.9642C13.2853 16.1336 13.3185 16.3047 13.3987 16.455C15.4025 20.055 18.035 21.2275 19.2062 21.5837C19.375 21.6383 19.5572 21.6345 19.7236 21.5731C19.89 21.5117 20.0309 21.3961 20.1237 21.245L20.6162 20.48C21.0912 19.75 22.0262 19.495 23.0612 20.005L25.0987 21.0237C25.8812 21.3975 26.2362 22.3137 25.9487 23.13C24.9125 26.135 22.2637 25.7612 22.2637 25.7612C16.3887 25.6087 11.785 20.1912 9.79875 17.4062C8.88125 16.0987 8.32125 14.5187 8.49125 12.9062C8.66125 11.31 9.4075 10.3075 10.0025 9.765Z" fill="#39B500"/>
</svg>
