<svg width="148" height="65" viewBox="0 0 148 65" fill="none" xmlns="http://www.w3.org/2000/svg">
<g clip-path="url(#clip0_33307_745)">
<path d="M38.0051 36.0457H34.4531V25.173C35.9923 24.5821 38.2419 24.1094 40.3731 24.1094C43.5699 24.1094 45.2275 25.4094 45.2275 29.6639V36.0457H41.6755V29.9003C41.6755 27.773 41.3203 27.1821 39.6627 27.1821C39.0707 27.1821 38.5971 27.3003 38.0051 27.4185V36.0457Z" fill="white"/>
<path d="M57.5433 35.8084C56.3593 36.1629 54.7017 36.3993 53.2809 36.3993C49.9657 36.3993 47.5977 34.9811 47.5977 30.2538C47.5977 25.5266 49.7289 24.2266 53.0441 24.2266C56.9513 24.2266 58.6089 25.4084 58.2537 31.3175H51.1497C51.1497 33.2084 51.9785 33.5629 53.7545 33.5629C54.5833 33.5629 56.1225 33.4447 56.9513 33.2084L57.5433 35.8084ZM51.2681 28.7175H55.2937C55.2937 27.0629 54.7017 26.7084 53.3993 26.7084C51.8601 26.8266 51.3865 27.2993 51.2681 28.7175Z" fill="white"/>
<path d="M67.3691 36.0467H63.2251C62.1595 31.9103 60.8571 28.1285 59.5547 24.4648H63.1067C64.0539 26.9467 64.8827 29.6648 65.5931 32.5012C66.3035 30.3739 67.3691 26.4739 67.8427 24.4648H71.0395C71.7499 26.4739 72.6971 30.2558 73.1707 32.5012C74.1179 29.9012 74.9467 27.183 75.5387 24.4648H79.0907C78.0251 28.1285 76.6043 32.383 75.0651 36.0467H70.9211C70.5659 34.1558 69.8555 30.9648 69.3819 29.3103C68.7899 31.4376 67.8427 34.3921 67.3691 36.0467Z" fill="white"/>
<path d="M92.2336 23.7545C91.2864 23.5181 89.6288 23.2817 87.8528 23.2817C85.4848 23.2817 84.7744 23.7545 84.7744 24.8181C84.7744 25.7636 85.248 26.2363 87.9712 26.4727C91.6416 26.8272 93.1808 28.2454 93.1808 31.3181C93.1808 35.2181 91.0496 36.5181 86.1952 36.5181C84.3008 36.5181 82.288 36.2817 81.104 35.809L81.8144 32.6181C82.88 32.8545 84.4192 33.0908 86.1952 33.0908C88.5632 33.0908 89.2736 32.7363 89.2736 31.5545C89.2736 30.609 88.8 30.1363 85.84 29.7817C82.4064 29.4272 80.8672 28.3636 80.8672 25.409C80.8672 21.509 83.1168 19.9727 87.8528 19.9727C89.7472 19.9727 91.6416 20.209 92.944 20.6817L92.2336 23.7545Z" fill="white"/>
<path d="M96.0234 36.0463V20.3281H104.903C108.1 20.3281 109.284 22.6918 109.284 25.8827C109.284 28.719 107.863 31.2009 105.022 31.2009H99.8122V36.1645H96.0234V36.0463ZM103.601 28.1281C104.548 28.1281 105.14 27.419 105.14 25.7645C105.14 23.9918 104.548 23.2827 103.601 23.2827H99.6938V28.0099H103.601V28.1281Z" fill="white"/>
<path d="M115.557 20.3281V36.1645H111.887V20.3281H115.557Z" fill="white"/>
<path d="M133.673 36.0463H129.055C126.569 31.7918 125.503 30.3736 124.437 30.3736H122.78V36.0463H119.109V20.3281H127.989C131.186 20.3281 132.37 22.3372 132.37 24.9372C132.37 27.1827 131.423 29.1918 128.463 29.3099C129.529 29.6645 130.713 31.0827 133.673 36.0463ZM122.898 27.419H126.924C127.753 27.419 128.345 26.8281 128.345 25.4099C128.345 23.9918 127.871 23.2827 127.042 23.2827H122.898V27.419Z" fill="white"/>
<path d="M147.528 20.3281V23.519H139.358V26.3554H145.16V29.5463H139.358V32.9736H147.528V36.1645H135.688V20.3281H147.528Z" fill="white"/>
<path d="M106.205 41.1279C86.551 59.2097 54.1094 65.8279 27.943 56.0188C13.8534 51.0551 2.48702 36.7551 6.86782 22.3369C13.9718 -1.4176 52.6886 -2.00851 63.6998 19.3824H67.3702C62.3974 7.44604 49.3734 -1.53578 28.4166 0.473312C5.92062 2.71877 -6.62978 25.7642 4.85502 43.4915C26.167 76.4642 88.0902 67.4824 111.77 41.1279H106.205Z" fill="#7F178D"/>
<path d="M32.4411 8.51019C30.0731 8.86474 27.7051 9.45565 25.6923 10.4011C24.9819 10.6375 24.3899 10.992 23.7979 11.3466C11.2475 17.7284 9.11627 29.0738 14.0891 38.0556C19.8907 48.692 34.2171 54.9557 52.0955 54.8375C66.7771 54.8375 80.5115 48.8102 90.5755 41.1284H85.0107C76.2491 47.0375 63.6987 51.0556 52.9243 51.292C36.1115 51.6466 23.4427 45.8556 18.4699 36.4011C13.8523 27.6556 18.7067 19.3829 25.8107 15.0102C26.8763 14.3011 27.9419 13.7102 29.1259 13.2375C30.6651 12.5284 32.4411 12.0556 34.0987 11.7011C42.5051 10.1647 51.9771 12.7647 56.7131 19.2647H60.3835C54.7003 10.1647 42.5051 6.97383 32.4411 8.51019Z" fill="#EF8218"/>
<path d="M34.6918 15.7192C23.6806 18.201 17.6422 29.1919 25.4566 37.8192C34.3366 48.5737 58.6086 47.9828 69.1462 41.1283H62.5158C53.991 45.2646 34.8102 45.0283 28.535 36.0465C19.2998 24.3465 35.9942 14.301 48.071 19.3828H52.6886C47.8342 15.4828 40.2566 14.4192 34.6918 15.7192Z" fill="#DCDE38"/>
</g>
<defs>
<clipPath id="clip0_33307_745">
<rect width="148" height="65" fill="white"/>
</clipPath>
</defs>
</svg>
