<svg width="160" height="70" viewBox="0 0 160 70" fill="none" xmlns="http://www.w3.org/2000/svg">
<g clip-path="url(#clip0_33303_272)">
<path d="M41.09 38.8174H37.25V27.1083C38.914 26.472 41.346 25.9629 43.65 25.9629C47.106 25.9629 48.898 27.3629 48.898 31.9447V38.8174H45.058V32.1993C45.058 29.9083 44.674 29.272 42.882 29.272C42.242 29.272 41.73 29.3993 41.09 29.5265V38.8174Z" fill="#4D0054"/>
<path d="M62.209 38.5635C60.929 38.9454 59.137 39.1999 57.601 39.1999C54.017 39.1999 51.457 37.6726 51.457 32.5817C51.457 27.4908 53.761 26.0908 57.345 26.0908C61.569 26.0908 63.361 27.3635 62.977 33.7272H55.297C55.297 35.7635 56.193 36.1454 58.113 36.1454C59.009 36.1454 60.673 36.0181 61.569 35.7635L62.209 38.5635ZM55.425 30.9272H59.777C59.777 29.1454 59.137 28.7635 57.729 28.7635C56.065 28.8908 55.553 29.3999 55.425 30.9272Z" fill="#4D0054"/>
<path d="M72.8347 38.8175H68.3547C67.2027 34.3629 65.7947 30.2902 64.3867 26.3447H68.2267C69.2507 29.0175 70.1467 31.9447 70.9147 34.9993C71.6827 32.7084 72.8347 28.5084 73.3467 26.3447H76.8027C77.5707 28.5084 78.5947 32.5811 79.1067 34.9993C80.1307 32.1993 81.0267 29.272 81.6667 26.3447H85.5067C84.3547 30.2902 82.8187 34.872 81.1547 38.8175H76.6747C76.2907 36.7811 75.5227 33.3447 75.0107 31.5629C74.3707 33.8538 73.3467 37.0356 72.8347 38.8175Z" fill="#4D0054"/>
<path d="M99.7138 25.5815C98.6898 25.327 96.8978 25.0724 94.9778 25.0724C92.4178 25.0724 91.6498 25.5815 91.6498 26.727C91.6498 27.7452 92.1618 28.2542 95.1058 28.5088C99.0738 28.8906 100.738 30.4179 100.738 33.727C100.738 37.927 98.4338 39.327 93.1858 39.327C91.1378 39.327 88.9618 39.0724 87.6818 38.5633L88.4498 35.127C89.6018 35.3815 91.2658 35.6361 93.1858 35.6361C95.7458 35.6361 96.5138 35.2542 96.5138 33.9815C96.5138 32.9633 96.0018 32.4542 92.8018 32.0724C89.0898 31.6906 87.4258 30.5452 87.4258 27.3633C87.4258 23.1633 89.8578 21.5088 94.9778 21.5088C97.0258 21.5088 99.0738 21.7633 100.482 22.2724L99.7138 25.5815Z" fill="#4D0054"/>
<path d="M103.809 38.8179V21.8906H113.409C116.865 21.8906 118.145 24.4361 118.145 27.8724C118.145 30.927 116.609 33.5997 113.537 33.5997H107.905V38.9452H103.809V38.8179ZM112.001 30.2906C113.025 30.2906 113.665 29.527 113.665 27.7452C113.665 25.8361 113.025 25.0724 112.001 25.0724H107.777V30.1634H112.001V30.2906Z" fill="#4D0054"/>
<path d="M124.929 21.8906V38.9452H120.961V21.8906H124.929Z" fill="#4D0054"/>
<path d="M144.514 38.8179H139.522C136.834 34.2361 135.682 32.7088 134.53 32.7088H132.738V38.8179H128.77V21.8906H138.37C141.826 21.8906 143.106 24.0543 143.106 26.8543C143.106 29.2724 142.082 31.4361 138.882 31.5634C140.034 31.9452 141.314 33.4724 144.514 38.8179ZM132.866 29.527H137.218C138.114 29.527 138.754 28.8906 138.754 27.3634C138.754 25.8361 138.242 25.0724 137.346 25.0724H132.866V29.527Z" fill="#4D0054"/>
<path d="M159.487 21.8906V25.327H150.655V28.3815H156.927V31.8179H150.655V35.5088H159.487V38.9452H146.688V21.8906H159.487Z" fill="#4D0054"/>
<path d="M114.817 44.2905C93.5692 63.7632 58.4972 70.8905 30.2092 60.3269C14.9772 54.9814 2.6892 39.5814 7.4252 24.0541C15.1052 -1.5277 56.9612 -2.16406 68.8652 20.8723H72.8332C67.4572 8.01776 53.3772 -1.65497 30.7212 0.508669C6.4012 2.92685 -7.1668 27.745 5.2492 46.8359C28.2892 82.345 95.2332 72.6723 120.833 44.2905H114.817Z" fill="#7F178D"/>
<path d="M35.0718 9.16362C32.5118 9.54544 29.9518 10.1818 27.7758 11.2C27.0078 11.4545 26.3678 11.8363 25.7278 12.2182C12.1598 19.0909 9.85585 31.3091 15.2318 40.9818C21.5038 52.4364 36.9918 59.1818 56.3198 59.0545C72.1918 59.0545 87.0398 52.5636 97.9198 44.2909H91.9038C82.4318 50.6545 68.8638 54.9818 57.2158 55.2364C39.0398 55.6182 25.3438 49.3818 19.9678 39.2C14.9758 29.7818 20.2238 20.8727 27.9038 16.1636C29.0558 15.4 30.2078 14.7636 31.4878 14.2545C33.1518 13.4909 35.0718 12.9818 36.8638 12.6C45.9518 10.9454 56.1918 13.7454 61.3118 20.7454H65.2798C59.1358 10.9454 45.9518 7.50907 35.0718 9.16362Z" fill="#EF8218"/>
<path d="M37.5048 16.9267C25.6008 19.5994 19.0728 31.4358 27.5208 40.7267C37.1208 52.3085 63.3608 51.6722 74.7528 44.2903H67.5848C58.3688 48.7449 37.6328 48.4903 30.8488 38.8176C20.8648 26.2176 38.9128 15.3994 51.9688 20.8722H56.9608C51.7128 16.6722 43.5208 15.5267 37.5048 16.9267Z" fill="#DCDE38"/>
</g>
<defs>
<clipPath id="clip0_33303_272">
<rect width="160" height="70" fill="white"/>
</clipPath>
</defs>
</svg>
