<svg width="732" height="193" viewBox="0 0 732 193" fill="none" xmlns="http://www.w3.org/2000/svg">
<path d="M732 193H0V76.7539H17.9893L18.4307 75.3555L23.4971 59.29H45.9521L51.0186 75.3555L51.46 76.7539H71.8164L70.8887 74.0947L45.751 2.09473L45.2832 0.753906H24.666L24.1982 2.0957L0 71.5449V0H732V193ZM281.188 101.878L278.634 143.583C278.044 153.242 276.65 158.08 272.732 161.048H266.221V192.426H284.213V177.842H328.676V192.426H346.617V177.842H365.951L366.391 176.439L371.568 159.931H394.521L399.699 176.439L400.139 177.842H420.812L419.89 175.186L394.254 101.344L393.787 100H372.812L372.347 101.346L346.762 175.187L346.617 175.604V161.048H337.425V100H281.302L281.188 101.878ZM0.211914 177.842H32.4434C40.4089 177.842 47.2999 175.383 52.2227 170.92C57.1627 166.441 59.9775 160.068 59.9775 152.558C59.9774 145.17 57.0749 138.906 52.0332 134.515C47.0149 130.143 40.008 127.735 31.9326 127.735H19.6338V116.742H53.1855V100H0.211914V177.842ZM67.0078 177.842H86.4297V154.558H98.2178C106.419 154.558 113.514 151.876 118.571 147.045C123.637 142.206 126.518 135.346 126.518 127.279C126.518 119.209 123.742 112.354 118.822 107.515C113.906 102.679 106.995 100 98.9844 100H67.0078V177.842ZM133.19 177.842H186.011V161.048H152.612V146.422H184.121V130.55H152.612V116.742H186.011V100H133.19V177.842ZM194.267 177.842H213.688V146.729H242.883V177.842H262.305V100H242.883V129.987H213.688V100H194.267V177.842ZM364.482 175.842H364.481L370.099 157.931H370.1L364.482 175.842ZM33.8252 175.815L33.1484 175.835C33.381 175.83 33.6125 175.823 33.8428 175.814C33.8369 175.815 33.8311 175.815 33.8252 175.815ZM28.5625 143.505C32.613 143.505 35.5146 144.422 37.3652 145.905C39.1484 147.335 40.1972 149.482 40.1973 152.558C40.1973 155.602 39.153 157.723 37.3779 159.136C35.5332 160.603 32.6412 161.509 28.6133 161.509H19.6338V143.505H28.5625ZM318.003 161.048H293.398C295.6 156.92 296.375 151.571 296.822 145.019V145.011L298.643 116.69H318.003V161.048ZM57.9697 151.931L57.9775 152.558C57.9775 152.271 57.9703 151.987 57.9609 151.704C57.9634 151.78 57.9679 151.855 57.9697 151.931ZM41.2812 147.809L41.3906 148.068C41.3393 147.942 41.2847 147.817 41.2285 147.694C41.246 147.732 41.2643 147.77 41.2812 147.809ZM41.04 147.304C41.1019 147.424 41.1606 147.547 41.2178 147.671C41.1607 147.547 41.1019 147.424 41.04 147.304ZM280.504 145.536C280.492 145.697 280.478 145.857 280.465 146.016C280.479 145.839 280.494 145.66 280.508 145.48L280.504 145.536ZM389.95 144.366H376.14L383.045 122.259L389.95 144.366ZM94.8984 116.23C98.9762 116.23 101.913 117.314 103.816 119.094C105.7 120.855 106.84 123.547 106.84 127.33C106.84 131.136 105.689 133.841 103.793 135.609C101.876 137.397 98.9258 138.481 94.8477 138.481H86.4297V116.23H94.8984ZM107.619 133.607C107.596 133.66 107.572 133.712 107.548 133.764C107.572 133.712 107.596 133.66 107.619 133.607ZM107.813 133.153C107.772 133.255 107.729 133.356 107.686 133.456C107.729 133.356 107.772 133.255 107.813 133.153ZM107.981 132.709C107.951 132.794 107.919 132.879 107.887 132.963C107.919 132.879 107.951 132.794 107.981 132.709ZM103.728 116.492C103.902 116.607 104.072 116.725 104.238 116.848C104.155 116.786 104.071 116.726 103.985 116.667L103.728 116.492ZM101.438 115.324L101.745 115.448C101.623 115.397 101.499 115.349 101.374 115.301C101.395 115.309 101.416 115.316 101.438 115.324ZM100.994 115.161C101.093 115.196 101.192 115.232 101.289 115.269C101.192 115.232 101.093 115.196 100.994 115.161ZM100.591 115.028C100.672 115.054 100.753 115.081 100.833 115.107C100.753 115.081 100.672 115.054 100.591 115.028ZM100.171 114.902C100.265 114.929 100.358 114.957 100.451 114.985C100.358 114.957 100.265 114.929 100.171 114.902ZM99.751 114.79C99.8471 114.814 99.9424 114.84 100.037 114.866C99.9424 114.84 99.8471 114.814 99.751 114.79ZM99.332 114.689C99.4216 114.71 99.5103 114.731 99.5986 114.753C99.5103 114.731 99.4216 114.71 99.332 114.689ZM98.8955 114.598C98.9665 114.612 99.0371 114.627 99.1074 114.642C99.0371 114.627 98.9665 114.612 98.8955 114.598ZM98.4482 114.516C98.5225 114.528 98.5963 114.542 98.6699 114.556C98.5963 114.542 98.5225 114.528 98.4482 114.516ZM96.5117 114.285L97.2842 114.354C97.0301 114.326 96.7723 114.303 96.5107 114.285L95.7158 114.244C95.9848 114.253 96.2501 114.267 96.5117 114.285ZM409 76.7539H428.21V48.0186L452.5 76.0635L453.099 76.7539H477.347L474.519 73.4531L443.164 36.8525L472 4.22656V17.1777H492.905V76.7539H512.045V17.1777H533V3.1748L533.169 3.55957L556.946 57.623C555.999 58.8469 554.993 59.6464 553.906 60.1709C552.562 60.8195 550.951 61.1191 548.913 61.1191C546.482 61.1191 545.314 60.835 545.031 60.751L542.461 59.9873V76.1152L543.408 76.7021C543.688 76.8754 543.983 76.9713 544.125 77.0156C544.315 77.0748 544.525 77.1284 544.741 77.1768C545.176 77.2743 545.717 77.3693 546.326 77.4531C547.546 77.621 549.117 77.7539 550.785 77.7539C557.673 77.7539 563.036 75.9703 567.507 72.0947C571.893 68.2921 575.251 62.6159 578.473 55.1914L578.474 55.1904L600.835 3.54883L602.046 0.753906H581.528L581.04 2.04785L567.392 38.2061L553.049 2.0166L552.549 0.753906H452.555L451.957 1.43262L428.21 28.4004V0.753906H409V76.7539ZM75 76.7539H94.2803V54.0508H105.942C114.063 54.0507 121.093 51.4378 126.109 46.7227C131.137 41.9969 134 35.2907 134 27.4023C134 19.5119 131.241 12.8107 126.357 8.08398C121.48 3.3636 114.632 0.753941 106.701 0.753906H75V76.7539ZM134.477 3.84473L157.027 38.4824L134.319 73.6689L132.329 76.7539H153.665L154.256 75.834L168.936 52.9502L183.521 75.8291L184.111 76.7539H206.415L204.363 73.6504L181.292 38.7588L204.662 3.86719L206.747 0.753906H184.741L184.158 1.71777L169.965 25.1611L155.914 1.72559L155.332 0.753906H132.464L134.477 3.84473ZM210 76.7539H227.626L228.221 75.8711L257.938 31.7158V76.7539H277V0.753906H259.373L258.778 1.6377L229.062 45.8369V0.753906H210V76.7539ZM283 17.1777H303.905V76.7539H323.045V17.1777H344V0.753906H283V17.1777ZM349 76.7539H401V60.2803H368.163V46.1182H399.143V30.542H368.163V17.1777H401V0.753906H349V76.7539ZM605 76.7539H624.28V54.0508H635.942C644.063 54.0507 651.093 51.4378 656.109 46.7227C661.137 41.9969 664 35.2907 664 27.4023C664 19.5119 661.241 12.8107 656.357 8.08398C651.48 3.3636 644.632 0.753941 636.701 0.753906H605V76.7539ZM684.198 2.0957L659.111 74.0957L658.186 76.7539H677.989L678.431 75.3555L683.497 59.29H705.952L711.019 75.3555L711.46 76.7539H731.816L730.889 74.0947L705.751 2.09473L705.283 0.753906H684.666L684.198 2.0957ZM556.481 60.915C556.434 60.9515 556.388 60.989 556.34 61.0244C556.388 60.9889 556.434 60.9516 556.481 60.915ZM556.807 60.6543C556.758 60.695 556.709 60.7349 556.66 60.7744C556.709 60.7349 556.758 60.695 556.807 60.6543ZM557.127 60.375C557.085 60.4133 557.042 60.4509 557 60.4883C557.042 60.4509 557.085 60.4133 557.127 60.375ZM558.99 58.2188C558.826 58.4561 558.659 58.6832 558.489 58.9004C558.659 58.6829 558.826 58.4553 558.99 58.2178V58.2188ZM41.4395 44.0137H28.0098L34.7246 22.6396L41.4395 44.0137ZM701.439 44.0137H688.01L694.725 22.6396L701.439 44.0137ZM102.653 16.6787C106.698 16.6787 109.607 17.7379 111.488 19.4688C113.345 21.1769 114.467 23.7835 114.467 27.4521C114.467 31.1433 113.334 33.7622 111.465 35.4775C109.57 37.2162 106.648 38.2754 102.603 38.2754H94.2803V16.6787H102.653ZM632.653 16.6787C636.698 16.6787 639.607 17.7379 641.488 19.4688C643.345 21.1769 644.467 23.7835 644.467 27.4521C644.467 31.1433 643.334 33.7622 641.465 35.4775C639.57 37.2162 636.648 38.2754 632.603 38.2754H624.28V16.6787H632.653Z" fill="#F5F5F7"/>
</svg>
