<svg width="1726" height="111" viewBox="0 0 1726 111" fill="none" xmlns="http://www.w3.org/2000/svg">
<path d="M1726 111H1620.34V87.8887H1607.23V1H1528.84L1528.73 2.87793L1525.09 62.2354C1524.23 76.1601 1522.2 83.426 1516.1 87.8887H1507.38V111H802.322C811.06 110.654 817.932 108.103 823.722 103.038C829.883 97.6485 834.651 89.5546 839.273 78.8066V78.8057L871.466 3.78906L872.662 1H845.08L844.594 2.29883L824.145 56.9639L802.663 2.26855L802.164 1H774.441L775.662 3.79883L810.105 82.8281C808.576 84.9488 806.918 86.3343 805.088 87.2256C802.998 88.2433 800.538 88.6895 797.523 88.6895C793.959 88.6894 792.192 88.269 791.689 88.1182L789.114 87.3457V109.06L790.055 109.646C790.357 109.836 790.692 109.948 790.888 110.01C791.131 110.086 791.41 110.158 791.707 110.226C792.304 110.361 793.058 110.495 793.917 110.614C795.154 110.786 796.651 110.931 798.271 111H0V0H1726V111ZM1596.46 111H1531.34V110.097H1596.46V111ZM38.0664 1L37.5996 2.34375L1.11035 107.44L0.188477 110.097H27.0459L27.4863 108.696L35.0566 84.6055H69.0479L76.6191 108.696L77.0586 110.097H104.719L103.795 107.439L67.2334 2.34277L66.7656 1H38.0664ZM112.142 110.097H138.137V76.958H155.802C167.31 76.9579 177.205 73.2044 184.238 66.501C191.28 59.7889 195.31 50.2524 195.31 38.9785C195.309 27.6909 191.423 18.16 184.587 11.4502C177.755 4.74448 168.124 1.00001 156.894 1H112.142V110.097ZM197.815 4.07715L230.454 55.1514L197.593 107.026L195.647 110.097H224.13L224.718 109.162L246.473 74.6133L268.088 109.157L268.676 110.097H298.521L296.516 107.008L263.12 55.5527L296.946 4.09863L298.983 1H269.593L269.011 1.97852L247.94 37.4355L227.08 1.98535L226.5 1H195.85L197.815 4.07715ZM306.603 110.097H330.863L331.457 109.211L376.376 42.2783V110.097H402.298V1H378.037L377.442 1.88672L332.525 68.8838V1H306.603V110.097ZM412.063 23.1348H442.435V110.097H468.43V23.1348H498.873V1H412.063V23.1348ZM508.493 110.097H582.12V87.8887H534.488V65.3779H579.426V44.4805H534.488V23.1348H582.12V1H508.493V110.097ZM595.601 110.097H621.596V66.6436L658.281 109.398L658.88 110.097H691.577L688.781 106.803L642.92 52.7646L685.339 4.31738L687.223 2.16504V23.1348H717.594V110.097H743.589V23.1348H774.032V1H658.089L657.491 1.68555L621.596 42.832V1H595.601V110.097ZM879.499 110.097H905.494V76.958H923.159C934.667 76.958 944.563 73.2044 951.596 66.501C958.638 59.7889 962.667 50.2524 962.667 38.9785C962.667 27.6909 958.78 18.16 951.944 11.4502C945.112 4.74447 935.481 1 924.251 1H879.499V110.097ZM994.32 2.34375L957.831 107.44L956.909 110.097H983.767L984.207 108.696L991.777 84.6055H1025.77L1033.34 108.696L1033.78 110.097H1061.44L1060.52 107.439L1023.95 2.34277L1023.49 1H994.787L994.32 2.34375ZM1128 110.097H1173.12C1184.3 110.097 1193.91 106.654 1200.75 100.467C1207.61 94.2633 1211.53 85.4262 1211.53 74.958C1211.53 64.6768 1207.49 55.9984 1200.5 49.915C1193.52 43.8525 1183.74 40.4747 1172.39 40.4746H1154V23.1348H1201.85V1H1128V110.097ZM1223.27 110.097H1249.26V76.958H1266.93C1278.43 76.9579 1288.33 73.2043 1295.36 66.501C1302.41 59.7889 1306.43 50.2524 1306.43 38.9785C1306.43 27.691 1302.55 18.16 1295.71 11.4502C1288.88 4.74452 1279.25 1.00005 1268.02 1H1223.27V110.097ZM1317.66 110.097H1391.28V87.8887H1343.65V65.3779H1388.59V44.4805H1343.65V23.1348H1391.28V1H1317.66V110.097ZM1404.76 110.097H1430.76V65.8145H1474.1V110.097H1500.09V1H1474.1V43.6797H1430.76V1H1404.76V110.097ZM1658.69 2.34375L1622.2 107.44L1621.28 110.097H1648.14L1648.58 108.696L1656.15 84.6055H1690.14L1697.71 108.696L1698.15 110.097H1725.81L1724.89 107.439L1688.33 2.34277L1687.86 1H1659.16L1658.69 2.34375ZM791.115 107.951C791.15 107.973 791.198 107.996 791.258 108.021C791.198 107.996 791.15 107.973 791.114 107.951V90.0342H791.115V107.951ZM798.387 90.6758C798.103 90.6838 797.815 90.6895 797.524 90.6895L797.523 90.6885C797.815 90.6885 798.102 90.6836 798.387 90.6758ZM799.156 90.6426C798.943 90.6546 798.728 90.6638 798.511 90.6709C798.728 90.664 798.943 90.6545 799.156 90.6426ZM799.781 90.6016C799.701 90.608 799.621 90.6124 799.541 90.6182C799.621 90.6124 799.701 90.608 799.781 90.6016ZM800.408 90.543C800.421 90.5416 800.433 90.5395 800.445 90.5381C800.433 90.5395 800.421 90.5416 800.408 90.543ZM1168.23 90.54L1167.66 90.5439C1167.89 90.5439 1168.12 90.5402 1168.35 90.5361C1168.31 90.5368 1168.27 90.5395 1168.23 90.54ZM801.211 90.4385C801.15 90.4475 801.088 90.4573 801.026 90.4658C801.088 90.4574 801.15 90.4474 801.211 90.4385ZM801.786 90.3467C801.767 90.35 801.748 90.3532 801.729 90.3564C801.748 90.3531 801.767 90.35 801.786 90.3467ZM1167.58 61.2266C1173.47 61.2266 1177.83 62.5551 1180.67 64.8301C1183.45 67.0508 1185.03 70.3678 1185.03 74.958C1185.03 79.5065 1183.45 82.7862 1180.69 84.9814C1177.85 87.2323 1173.51 88.5439 1167.66 88.5439H1154V61.2266H1167.58ZM1581.24 87.8887H1543.83C1547.41 82.0586 1548.64 74.2094 1549.32 64.1699L1549.33 64.1621L1551.97 23.0625H1581.24V87.8887ZM63.0586 64.1455H41.0459L52.0518 28.9824L63.0586 64.1455ZM1019.78 64.1455H997.767L1008.77 28.9824L1019.78 64.1455ZM1684.15 64.1455H1662.14L1673.15 28.9824L1684.15 64.1455ZM1176.02 60.3096C1176.04 60.3173 1176.07 60.3252 1176.1 60.333C1176.07 60.3252 1176.04 60.3173 1176.02 60.3096ZM1174.98 60.0352C1175.15 60.0763 1175.32 60.1188 1175.49 60.1631C1175.32 60.1188 1175.15 60.0764 1174.98 60.0352ZM1173.95 59.8047C1174.21 59.8568 1174.47 59.9126 1174.73 59.9717C1174.47 59.9126 1174.21 59.8568 1173.95 59.8047ZM1264.39 57.6924C1264.21 57.7045 1264.04 57.7164 1263.86 57.7256C1264.04 57.7164 1264.21 57.7045 1264.39 57.6924ZM1264.9 57.6523C1264.79 57.6617 1264.68 57.6704 1264.57 57.6787C1264.68 57.6704 1264.79 57.6618 1264.9 57.6523ZM1265.45 57.5996C1265.34 57.6119 1265.22 57.6238 1265.1 57.6348C1265.22 57.6237 1265.34 57.612 1265.45 57.5996ZM1266.01 57.5352C1265.88 57.552 1265.74 57.568 1265.61 57.583C1265.74 57.568 1265.88 57.552 1266.01 57.5352ZM1266.51 57.4688C1266.37 57.4885 1266.23 57.5076 1266.1 57.5254C1266.23 57.5076 1266.37 57.4884 1266.51 57.4688ZM1267.04 57.3867C1266.91 57.4088 1266.78 57.43 1266.64 57.4502C1266.78 57.4301 1266.91 57.4087 1267.04 57.3867ZM1267.63 57.2842C1267.47 57.3155 1267.3 57.3447 1267.13 57.373C1267.3 57.3447 1267.47 57.3155 1267.63 57.2842ZM151.067 22.4072C157.029 22.4072 161.451 23.99 164.369 26.7129C167.267 29.4167 168.95 33.4937 168.95 39.0518C168.95 44.6439 167.251 48.7394 164.335 51.4531C161.398 54.1867 156.956 55.7695 150.994 55.7695H138.137V22.4072H151.067ZM918.425 22.4072C924.386 22.4072 928.808 23.99 931.727 26.7129C934.625 29.4167 936.308 33.4937 936.308 39.0518C936.308 44.6439 934.608 48.7394 931.692 51.4531C928.755 54.1867 924.313 55.7695 918.352 55.7695H905.494V22.4072H918.425ZM1262.19 22.4072C1268.15 22.4073 1272.58 23.99 1275.49 26.7129C1278.39 29.4167 1280.08 33.4938 1280.08 39.0518C1280.08 44.6438 1278.38 48.7394 1275.46 51.4531C1272.52 54.1867 1268.08 55.7695 1262.12 55.7695H1249.26V22.4072H1262.19ZM1277.85 51.8525C1277.72 52.0052 1277.58 52.1568 1277.44 52.3037H1277.44C1277.58 52.1566 1277.72 52.0053 1277.85 51.8525ZM166.836 51.7295C166.791 51.7815 166.747 51.8334 166.701 51.8848C166.747 51.8335 166.791 51.7814 166.836 51.7295ZM934.193 51.7295C934.149 51.7815 934.104 51.8334 934.059 51.8848C934.104 51.8335 934.149 51.7814 934.193 51.7295ZM1278.25 51.3857C1278.16 51.4938 1278.07 51.6006 1277.98 51.7061C1278.07 51.6006 1278.16 51.4938 1278.25 51.3857ZM167.246 51.2334C167.195 51.2982 167.143 51.3619 167.091 51.4258C167.143 51.3619 167.195 51.2982 167.246 51.2334ZM934.604 51.2334C934.552 51.2982 934.5 51.3619 934.448 51.4258C934.5 51.3619 934.552 51.2982 934.604 51.2334ZM1278.53 51.0312C1278.5 51.064 1278.48 51.0964 1278.45 51.1289C1278.48 51.0964 1278.5 51.064 1278.53 51.0312ZM167.607 50.7559C167.579 50.7945 167.551 50.8327 167.522 50.8711C167.551 50.8328 167.579 50.7945 167.607 50.7559ZM934.965 50.7559C934.937 50.7945 934.908 50.8327 934.88 50.8711C934.908 50.8328 934.937 50.7945 934.965 50.7559ZM170.613 34.8213L170.691 35.3223C170.642 34.9856 170.586 34.6542 170.523 34.3281C170.555 34.4912 170.585 34.6555 170.613 34.8213ZM937.971 34.8213L938.049 35.3223C938 34.9856 937.944 34.6542 937.881 34.3281C937.912 34.4912 937.943 34.6555 937.971 34.8213ZM928.547 22.293C928.635 22.3317 928.722 22.3722 928.809 22.4121C928.722 22.3722 928.635 22.3317 928.547 22.293ZM928.122 22.1133C928.212 22.1503 928.302 22.1884 928.391 22.2266C928.302 22.1884 928.212 22.1503 928.122 22.1133ZM927.65 21.9268C927.723 21.9544 927.795 21.9833 927.867 22.0117C927.795 21.9834 927.723 21.9544 927.65 21.9268ZM927.152 21.7451C927.241 21.776 927.329 21.8079 927.416 21.8398C927.329 21.8079 927.241 21.776 927.152 21.7451ZM926.553 21.5459C926.681 21.5864 926.809 21.6282 926.936 21.6709C926.809 21.6282 926.681 21.5864 926.553 21.5459ZM924.866 21.0879C925.421 21.2156 925.961 21.3614 926.484 21.5244C926.139 21.417 925.787 21.3168 925.429 21.2246C925.243 21.1769 925.056 21.1315 924.866 21.0879ZM158.322 21.292C158.388 21.3097 158.454 21.3265 158.52 21.3447C158.454 21.3265 158.388 21.3097 158.322 21.292ZM1267.72 20.8965C1268.23 20.9917 1268.72 21.1008 1269.2 21.2236V21.2246C1268.72 21.1017 1268.23 20.992 1267.72 20.8965ZM157.755 21.1465C157.843 21.1679 157.932 21.1896 158.02 21.2119C157.932 21.1896 157.843 21.1679 157.755 21.1465ZM157.184 21.0156C157.292 21.039 157.4 21.0632 157.508 21.0879C157.4 21.0631 157.292 21.039 157.184 21.0156ZM924.281 20.9619C924.417 20.9896 924.552 21.0182 924.686 21.0479C924.552 21.0182 924.417 20.9896 924.281 20.9619ZM156.666 20.9102C156.782 20.9325 156.897 20.9557 157.012 20.9795C156.897 20.9557 156.782 20.9325 156.666 20.9102ZM923.616 20.835C923.781 20.8639 923.945 20.8949 924.107 20.9268C923.945 20.8949 923.781 20.8639 923.616 20.835ZM1267.24 20.8096C1267.38 20.8343 1267.53 20.8598 1267.67 20.8867C1267.53 20.8597 1267.38 20.8343 1267.24 20.8096ZM156.156 20.8174C156.248 20.8331 156.339 20.8496 156.43 20.8662C156.339 20.8496 156.248 20.8331 156.156 20.8174ZM922.366 20.6465C922.757 20.6961 923.142 20.7535 923.52 20.8184C923.314 20.783 923.106 20.7496 922.896 20.7188C922.721 20.693 922.544 20.6691 922.366 20.6465ZM1266.45 20.6875C1266.69 20.7202 1266.92 20.7566 1267.15 20.7949C1266.92 20.7565 1266.69 20.7202 1266.45 20.6875ZM155.598 20.7275C155.681 20.74 155.765 20.7534 155.848 20.7666C155.765 20.7534 155.681 20.74 155.598 20.7275ZM155.075 20.6543C155.163 20.6657 155.251 20.6783 155.338 20.6904C155.229 20.6752 155.119 20.6605 155.009 20.6465L155.075 20.6543ZM1265.59 20.583C1265.83 20.6085 1266.07 20.637 1266.3 20.668C1266.07 20.637 1265.83 20.6085 1265.59 20.583Z" fill="#F5F5F7"/>
</svg>
