<svg width="41" height="41" viewBox="0 0 41 41" fill="none" xmlns="http://www.w3.org/2000/svg">
<path d="M37.8136 16.087C38.556 15.3524 38.8181 14.2743 38.4977 13.2734C38.1773 12.2725 37.341 11.5568 36.315 11.4055L27.3439 10.0822C27.2571 10.0694 27.1747 10.0354 27.1038 9.98311C27.0329 9.9308 26.9756 9.86176 26.9368 9.78195L22.9248 1.53C22.466 0.586249 21.5369 0 20.5002 0C19.4634 0 18.5343 0.586249 18.0756 1.53L14.0636 9.78203C14.0247 9.86182 13.9674 9.93085 13.8965 9.98316C13.8255 10.0355 13.7431 10.0695 13.6564 10.0823L4.68536 11.4055C3.6594 11.5568 2.82314 12.2725 2.50267 13.2734C2.18219 14.2743 2.44437 15.3524 3.18686 16.087L9.6784 22.5103C9.74118 22.5725 9.78813 22.6492 9.81522 22.7338C9.84231 22.8185 9.84873 22.9085 9.83391 22.9963L8.30145 32.0661C8.12624 33.1034 8.53832 34.1319 9.37706 34.7505C10.2158 35.3693 11.3071 35.4492 12.2246 34.9596L20.2486 30.6774C20.3262 30.636 20.4125 30.6143 20.5002 30.6143C20.5879 30.6143 20.6743 30.636 20.7519 30.6774L28.7759 34.9596C29.175 35.1726 29.6069 35.2778 30.0367 35.2777C30.5948 35.2777 31.1494 35.1002 31.6233 34.7504C32.462 34.1317 32.8742 33.1031 32.6989 32.066L31.1664 22.9962C31.1516 22.9085 31.158 22.8184 31.1851 22.7338C31.2122 22.6491 31.2592 22.5724 31.3219 22.5103L37.8136 16.087ZM29.0347 23.3675L30.5671 32.4375C30.6184 32.741 30.4338 32.914 30.352 32.9743C30.2702 33.0344 30.0509 33.1594 29.7825 33.016L21.7585 28.7338C21.3705 28.5267 20.9387 28.4185 20.5003 28.4185C20.062 28.4184 19.6302 28.5266 19.2421 28.7337L11.2182 33.0158C10.9496 33.1591 10.7305 33.0344 10.6487 32.9741C10.5669 32.9139 10.3823 32.7408 10.4336 32.4373L11.9661 23.3675C12.0402 22.9289 12.0082 22.4786 11.8727 22.0554C11.7373 21.6321 11.5024 21.2487 11.1884 20.9381L4.69689 14.5149C4.47964 14.2998 4.52881 14.0496 4.56012 13.9521C4.59127 13.8545 4.69641 13.6227 4.99662 13.5785L13.9675 12.2552C14.4014 12.1913 14.8134 12.0212 15.1681 11.7596C15.5228 11.498 15.8095 11.1528 16.0035 10.7537L20.0155 2.50172C20.1497 2.22558 20.3993 2.19575 20.5004 2.19575C20.6014 2.19575 20.8509 2.2255 20.9853 2.50172V2.5018L24.9973 10.7538C25.1912 11.1529 25.4779 11.4981 25.8325 11.7597C26.1872 12.0213 26.5992 12.1914 27.033 12.2553L36.0041 13.5786C36.3043 13.6228 36.4094 13.8546 36.4406 13.9522C36.4718 14.0498 36.5211 14.3 36.3038 14.5149L29.8122 20.9382C29.4983 21.2488 29.2634 21.6322 29.128 22.0554C28.9925 22.4786 28.9605 22.9289 29.0347 23.3675ZM33.135 1.52943C32.6516 1.17307 31.9754 1.28183 31.6243 1.77232L30.4762 3.37629C30.1252 3.86679 30.2322 4.55342 30.7155 4.90979C30.8999 5.04616 31.1222 5.1196 31.3504 5.11951C31.6848 5.11951 32.0146 4.96255 32.2262 4.66698L33.3743 3.06301C33.7253 2.57244 33.6183 1.8858 33.135 1.52943ZM10.5191 3.36979L9.37098 1.76582C9.01999 1.27549 8.34365 1.16673 7.8603 1.52293C7.37711 1.8793 7.26996 2.56593 7.62103 3.05643L8.76911 4.6604C8.86942 4.80083 9.00113 4.91509 9.15341 4.99379C9.30569 5.07249 9.4742 5.11337 9.64508 5.11309C9.86554 5.11309 10.088 5.04489 10.2799 4.90329C10.7631 4.547 10.8702 3.86036 10.5191 3.36979ZM3.96802 24.6318C3.78344 24.0552 3.17332 23.7396 2.60517 23.9269L0.747594 24.5397C0.179439 24.7271 -0.131344 25.3465 0.0532358 25.9231C0.201701 26.3872 0.625715 26.6821 1.0816 26.6821C1.19235 26.6821 1.30502 26.6646 1.41609 26.628L3.27366 26.0152C3.84174 25.8279 4.1526 25.2085 3.96802 24.6318ZM20.5004 36.8215C19.9031 36.8215 19.4189 37.313 19.4189 37.9193V39.9021C19.4189 40.5085 19.9031 41 20.5004 41C21.0977 41 21.5819 40.5085 21.5819 39.9021V37.9193C21.5819 37.3129 21.0978 36.8215 20.5004 36.8215ZM40.2524 24.5412L38.3948 23.9285C37.8269 23.7413 37.2166 24.0567 37.032 24.6334C36.8474 25.2101 37.1582 25.8295 37.7263 26.0168L39.5839 26.6296C39.6919 26.6653 39.8048 26.6835 39.9183 26.6836C40.3743 26.6836 40.7983 26.3886 40.9468 25.9246C41.1314 25.3479 40.8205 24.7286 40.2524 24.5412Z" fill="white"/>
</svg>
