<svg width="122" height="122" viewBox="0 0 122 122" fill="none" xmlns="http://www.w3.org/2000/svg">
<path d="M61 121C94.1371 121 121 94.1371 121 61C121 27.8629 94.1371 1 61 1C27.8629 1 1 27.8629 1 61C1 94.1371 27.8629 121 61 121Z" fill="url(#paint0_linear_31527_4906)" stroke="url(#paint1_linear_31527_4906)" stroke-width="2" stroke-linecap="round" stroke-linejoin="round"/>
<path d="M69.6853 59.3661L58.1534 51.2259C56.8285 50.2907 55 51.2382 55 52.8598V69.1402C55 70.7618 56.8285 71.7093 58.1534 70.7741L69.6853 62.6339C70.8141 61.8371 70.8141 60.1629 69.6853 59.3661Z" fill="#F5F5F7"/>
<defs>
<linearGradient id="paint0_linear_31527_4906" x1="13" y1="7" x2="109" y2="109" gradientUnits="userSpaceOnUse">
<stop stop-color="#7F178D"/>
<stop offset="0.759615" stop-color="#EF8218"/>
<stop offset="0.985577" stop-color="#DCDE38"/>
</linearGradient>
<linearGradient id="paint1_linear_31527_4906" x1="13" y1="7" x2="109" y2="109" gradientUnits="userSpaceOnUse">
<stop stop-color="#7F178D"/>
<stop offset="0.759615" stop-color="#EF8218"/>
<stop offset="0.985577" stop-color="#DCDE38"/>
</linearGradient>
</defs>
</svg>
