<svg width="103" height="51" viewBox="0 0 103 51" fill="none" xmlns="http://www.w3.org/2000/svg">
<path opacity="0.3" d="M0.636441 25.5L19.7343 6.74121L26.0626 12.9565L6.96472 31.7153L0.636441 25.5ZM0.523438 38.0436L6.96472 31.8283L19.8473 44.3719L13.406 50.5871L0.523438 38.0436ZM19.8473 44.1458L38.9451 25.387L45.2734 31.6023L26.1756 50.4741L19.8473 44.1458Z" fill="#2D252F"/>
<path d="M0.636719 19.1719L19.7346 0.413086L26.0628 6.62836L7.078 25.5002L0.636719 19.1719ZM0.636719 31.8285L7.078 25.5002L19.8476 37.9307L13.4063 44.259L0.636719 31.8285ZM19.8476 37.9307L38.9454 19.1719L45.3867 25.5002L26.2888 44.259L19.8476 37.9307Z" fill="#007EB6"/>
<path d="M52.0556 8.09722V6.17613C51.8296 6.28914 51.7166 6.28914 51.4906 6.28914C51.2646 6.40214 51.0385 6.40214 50.9255 6.40214C50.6995 6.40214 50.4735 6.40214 50.3605 6.28914C50.1345 6.17613 50.0215 6.17613 49.9085 6.06313C49.7955 5.95012 49.6825 5.83712 49.5695 5.72411C49.4565 5.61111 49.4565 5.4981 49.3435 5.3851C49.2305 5.27209 49.2305 5.15909 49.2305 4.93308C49.2305 4.82007 49.2305 4.59406 49.2305 4.48106V3.125H50.1345V4.59406C50.1345 4.70707 50.1345 4.82007 50.1345 4.93308C50.1345 5.04608 50.1345 5.15909 50.2475 5.15909C50.3605 5.27209 50.3605 5.3851 50.4735 5.4981C50.5865 5.61111 50.8125 5.61111 50.9255 5.61111C51.0385 5.61111 51.2646 5.61111 51.4906 5.4981C51.7166 5.3851 51.8296 5.3851 52.0556 5.3851V3.125H52.9596V8.09722H52.0556Z" fill="#767676"/>
<path d="M56.1228 3.91603C56.0098 4.48106 55.8968 5.04608 55.8968 5.3851C55.8968 5.72411 55.6708 6.17613 55.5578 6.51515C55.4448 6.85416 55.3318 7.08017 55.2188 7.30618C55.1058 7.53219 54.9928 7.6452 54.8798 7.7582C54.7668 7.87121 54.6538 7.98421 54.4277 7.98421C54.3147 8.09722 54.0887 8.09722 53.9757 8.09722C53.8627 8.09722 53.7497 8.09722 53.6367 7.98421V7.30618C53.7497 7.30618 53.8627 7.41919 53.8627 7.41919C53.9757 7.41919 54.0887 7.41919 54.0887 7.30618C54.2017 7.19318 54.3147 7.19318 54.3147 7.08017C54.4277 6.96717 54.4278 6.85416 54.5408 6.62815C54.6538 6.40214 54.7668 6.17613 54.7668 5.95012C54.8798 5.61111 54.9928 5.27209 54.9928 4.82007C55.1058 4.36805 55.2188 3.80303 55.2188 3.125H57.8179V8.09722H56.9139V3.91603H56.1228Z" fill="#767676"/>
<path d="M60.0759 7.30618H62.562V8.09722H59.1719V3.125H62.449V3.91603H60.1889V5.15909H62.223V5.95012H60.0759V7.30618Z" fill="#767676"/>
<path d="M64.3728 5.15909H66.6329V3.125H67.5369V8.09722H66.6329V5.95012H64.3728V8.09722H63.4688V3.125H64.3728V5.15909Z" fill="#767676"/>
<path d="M50.6998 15.2171C50.5868 15.2171 50.4738 15.2171 50.4738 15.2171C50.3608 15.2171 50.2478 15.2171 50.2478 15.2171V17.1382H49.3438V12.166H50.6998C50.9258 12.166 51.1518 12.166 51.3778 12.279C51.6039 12.279 51.7169 12.392 51.8299 12.392C52.1689 12.505 52.3949 12.731 52.6209 12.844C52.8469 13.0701 52.9599 13.4091 52.9599 13.7481C52.9599 13.9741 52.8469 14.2001 52.7339 14.4261C52.6209 14.6521 52.5079 14.7651 52.2819 14.8781C52.0559 14.9911 51.8299 15.1041 51.6038 15.2171C51.3778 15.2171 51.0388 15.2171 50.6998 15.2171ZM50.2478 14.5391C50.3608 14.5391 50.3608 14.5391 50.4738 14.5391C50.5868 14.5391 50.6998 14.5391 50.6998 14.5391C50.9258 14.5391 51.1518 14.5391 51.2648 14.4261C51.4908 14.3131 51.6039 14.3131 51.7169 14.2001C51.8299 14.0871 51.9429 13.9741 51.9429 13.9741C52.0559 13.8611 52.0559 13.7481 52.0559 13.6351C52.0559 13.5221 51.9429 13.2961 51.9429 13.2961C51.8299 13.1831 51.7169 13.0701 51.6038 13.0701C51.4908 12.9571 51.3778 12.9571 51.2648 12.9571C51.1518 12.9571 50.9258 12.9571 50.8128 12.9571H50.2478V14.5391Z" fill="#767676"/>
<path d="M58.4957 14.7651C58.4957 15.1041 58.3826 15.4432 58.2696 15.7822C58.1566 16.1212 57.9306 16.3472 57.8176 16.5732C57.5916 16.7992 57.3656 17.0252 57.0266 17.1382C56.6876 17.2512 56.3486 17.3642 56.0095 17.3642C55.5575 17.3642 55.3315 17.2512 54.9925 17.1382C54.6535 17.0252 54.4275 16.7992 54.2015 16.5732C53.9755 16.3472 53.8624 16.1212 53.7494 15.7822C53.6364 15.4432 53.5234 15.1041 53.5234 14.7651C53.5234 14.3131 53.6364 14.0871 53.7494 13.7481C53.8624 13.4091 54.0885 13.1831 54.2015 12.9571C54.4275 12.731 54.6535 12.505 54.9925 12.392C55.3315 12.279 55.6705 12.166 56.0095 12.166C56.4616 12.166 56.6876 12.279 57.0266 12.392C57.3656 12.505 57.5916 12.731 57.8176 12.9571C58.0436 13.1831 58.1566 13.4091 58.2696 13.7481C58.4957 13.9741 58.4957 14.3131 58.4957 14.7651ZM57.5916 14.7651C57.5916 14.4261 57.4786 14.2001 57.4786 13.9741C57.3656 13.7481 57.2526 13.5221 57.1396 13.4091C57.0266 13.1831 56.8006 13.1831 56.6876 13.0701C56.4616 12.9571 56.3486 12.9571 56.1226 12.9571C55.8965 12.9571 55.6705 13.0701 55.5575 13.0701C55.3315 13.1831 55.2185 13.2961 55.1055 13.4091C54.9925 13.6351 54.8795 13.7481 54.7665 13.9741C54.6535 14.2001 54.6535 14.4261 54.6535 14.7651C54.6535 15.1041 54.7665 15.3302 54.7665 15.5562C54.8795 15.7822 54.9925 16.0082 55.1055 16.1212C55.2185 16.3472 55.4445 16.3472 55.5575 16.4602C55.7835 16.5732 55.8965 16.5732 56.1226 16.5732C56.3486 16.5732 56.5746 16.4602 56.6876 16.4602C56.9136 16.3472 57.0266 16.2342 57.1396 16.1212C57.2526 15.8952 57.3656 15.7822 57.4786 15.5562C57.4786 15.2171 57.5916 14.9911 57.5916 14.7651Z" fill="#767676"/>
<path d="M61.884 12.8438C61.658 12.8438 61.432 12.9568 61.206 12.9568C60.98 13.0698 60.7539 13.1828 60.6409 13.2958C60.4149 13.5218 60.3019 13.6348 60.3019 13.8608C60.1889 14.0868 60.1889 14.3128 60.1889 14.6518C60.1889 14.9909 60.3019 15.2169 60.3019 15.4429C60.4149 15.6689 60.5279 15.8949 60.6409 16.0079C60.7539 16.2339 60.98 16.2339 61.206 16.3469C61.432 16.4599 61.658 16.4599 61.884 16.4599C62.11 16.4599 62.223 16.4599 62.449 16.3469C62.675 16.2339 62.788 16.2339 63.0141 16.2339V17.025C62.788 17.138 62.675 17.138 62.449 17.138C62.223 17.138 61.997 17.251 61.771 17.251C61.319 17.251 60.98 17.138 60.6409 17.025C60.3019 16.9119 60.0759 16.6859 59.8499 16.4599C59.6239 16.2339 59.5109 16.0079 59.3979 15.6689C59.2849 15.3299 59.1719 14.9909 59.1719 14.6518C59.1719 14.3128 59.2849 13.9738 59.3979 13.6348C59.5109 13.2958 59.7369 13.0698 59.8499 12.8438C60.0759 12.6178 60.3019 12.3917 60.6409 12.2787C60.98 12.1657 61.319 12.0527 61.771 12.0527C61.997 12.0527 62.223 12.0527 62.336 12.1657C62.562 12.1657 62.675 12.2787 62.901 12.2787V13.0698C62.675 12.9568 62.449 12.9568 62.336 12.9568C62.223 12.9568 61.997 12.8438 61.884 12.8438Z" fill="#767676"/>
<path d="M66.1809 12.8438C65.9549 12.8438 65.7289 12.9568 65.5028 12.9568C65.2768 13.0698 65.0508 13.1828 64.9378 13.2958C64.7118 13.5218 64.5988 13.6348 64.5988 13.8608C64.4858 14.0868 64.4858 14.3128 64.4858 14.6518C64.4858 14.9909 64.5988 15.2169 64.5988 15.4429C64.7118 15.6689 64.8248 15.8949 64.9378 16.0079C65.0508 16.2339 65.2768 16.2339 65.5028 16.3469C65.7289 16.4599 65.9549 16.4599 66.1809 16.4599C66.4069 16.4599 66.5199 16.4599 66.7459 16.3469C66.9719 16.2339 67.0849 16.2339 67.3109 16.2339V17.025C67.0849 17.138 66.9719 17.138 66.7459 17.138C66.5199 17.138 66.2939 17.251 66.0679 17.251C65.6158 17.251 65.2768 17.138 64.9378 17.025C64.5988 16.9119 64.3728 16.6859 64.1468 16.4599C63.9208 16.2339 63.8078 16.0079 63.6948 15.6689C63.5818 15.3299 63.4688 14.9909 63.4688 14.6518C63.4688 14.3128 63.5818 13.9738 63.6948 13.6348C63.8078 13.2958 64.0338 13.0698 64.1468 12.8438C64.3728 12.6178 64.5988 12.3917 64.9378 12.2787C65.2768 12.1657 65.6158 12.0527 66.0679 12.0527C66.2939 12.0527 66.5199 12.0527 66.6329 12.1657C66.8589 12.1657 66.9719 12.2787 67.1979 12.2787V13.0698C66.9719 12.9568 66.7459 12.9568 66.6329 12.9568C66.5199 12.8438 66.4069 12.8438 66.1809 12.8438Z" fill="#767676"/>
<path d="M71.605 12.166H72.509V17.1382H71.605V14.8781C71.605 14.5391 71.605 14.0871 71.718 13.5221C71.492 13.8611 71.266 14.3131 70.814 14.8781L69.1189 17.1382H68.2148V12.166H69.1189V14.4261C69.1189 14.7651 69.1189 15.2171 69.0059 15.7822C69.2319 15.5562 69.4579 15.1041 69.9099 14.5391L71.605 12.166Z" fill="#767676"/>
<path d="M77.1401 12.1652H78.0442V17.1374H77.1401V14.8773C77.1401 14.5383 77.1401 14.0863 77.2531 13.5213C77.0271 13.8603 76.8011 14.3123 76.3491 14.8773L74.654 17.1374H73.75V12.1652H74.654V14.4253C74.654 14.7643 74.654 15.2164 74.541 15.7814C74.767 15.5554 74.9931 15.1034 75.4451 14.5383L77.1401 12.1652ZM76.0101 11.0352C76.4621 11.0352 76.6881 10.6962 76.6881 10.2441H77.5922C77.5922 10.4702 77.4791 10.6962 77.4791 10.8092C77.3661 11.0352 77.2532 11.1482 77.1401 11.2612C77.0271 11.3742 76.8011 11.4872 76.6881 11.6002C76.4621 11.7132 76.2361 11.7132 76.0101 11.7132C75.7841 11.7132 75.5581 11.6002 75.3321 11.6002C75.1061 11.4872 74.9931 11.3742 74.88 11.2612C74.767 11.1482 74.654 10.9222 74.541 10.8092C74.428 10.5832 74.428 10.3571 74.428 10.2441H75.3321C75.4451 10.5832 75.4451 10.6962 75.5581 10.9222C75.6711 10.9222 75.7841 11.0352 76.0101 11.0352Z" fill="#767676"/>
<path d="M81.6613 12.8438C81.4353 12.8438 81.2093 12.9568 80.9833 12.9568C80.7573 13.0698 80.5313 13.1828 80.4183 13.2958C80.1923 13.5218 80.0793 13.6348 80.0793 13.8608C79.9663 14.0868 79.9663 14.3128 79.9663 14.6518C79.9663 14.9909 80.0793 15.2169 80.0793 15.4429C80.1923 15.6689 80.3053 15.8949 80.4183 16.0079C80.5313 16.2339 80.7573 16.2339 80.9833 16.3469C81.2093 16.4599 81.4353 16.4599 81.6613 16.4599C81.8874 16.4599 82.0004 16.4599 82.2264 16.3469C82.4524 16.2339 82.5654 16.2339 82.7914 16.2339V17.025C82.5654 17.138 82.4524 17.138 82.2264 17.138C82.0004 17.138 81.7743 17.251 81.5483 17.251C81.0963 17.251 80.7573 17.138 80.4183 17.025C80.0793 16.9119 79.8533 16.6859 79.6273 16.4599C79.4012 16.2339 79.2882 16.0079 79.1752 15.6689C79.0622 15.3299 78.9492 14.9909 78.9492 14.6518C78.9492 14.3128 79.0622 13.9738 79.1752 13.6348C79.2882 13.2958 79.5143 13.0698 79.6273 12.8438C79.8533 12.6178 80.0793 12.3917 80.4183 12.2787C80.7573 12.1657 81.0963 12.0527 81.5483 12.0527C81.7743 12.0527 82.0004 12.0527 82.1134 12.1657C82.3394 12.1657 82.4524 12.2787 82.6784 12.2787V13.0698C82.4524 12.9568 82.2264 12.9568 82.1134 12.9568C82.0004 12.9568 81.8874 12.8438 81.6613 12.8438Z" fill="#767676"/>
<path d="M83.6953 17.1382V12.166H84.5994V14.4261L86.5204 12.166H87.6505L85.6164 14.5391L87.8765 17.0252H86.7465L84.7124 14.7651V17.0252H83.6953V17.1382Z" fill="#767676"/>
<path d="M92.7339 14.7651C92.7339 15.1041 92.6209 15.4432 92.5079 15.7822C92.3949 16.1212 92.1689 16.3472 92.0559 16.5732C91.8299 16.7992 91.6039 17.0252 91.2649 17.1382C90.9259 17.2512 90.5868 17.3642 90.2478 17.3642C89.7958 17.3642 89.5698 17.2512 89.2308 17.1382C88.8918 17.0252 88.6658 16.7992 88.4398 16.5732C88.2137 16.3472 88.1007 16.1212 87.9877 15.7822C87.8747 15.4432 87.7617 15.1041 87.7617 14.7651C87.7617 14.3131 87.8747 14.0871 87.9877 13.7481C88.1007 13.4091 88.3268 13.1831 88.4398 12.9571C88.6658 12.731 88.8918 12.505 89.2308 12.392C89.5698 12.279 89.9088 12.166 90.2478 12.166C90.6998 12.166 90.9259 12.279 91.2649 12.392C91.6039 12.505 91.8299 12.731 92.0559 12.9571C92.2819 13.1831 92.3949 13.4091 92.5079 13.7481C92.6209 13.9741 92.7339 14.3131 92.7339 14.7651ZM91.8299 14.7651C91.8299 14.4261 91.7169 14.2001 91.7169 13.9741C91.6039 13.7481 91.4909 13.5221 91.3779 13.4091C91.2649 13.1831 91.0389 13.1831 90.9259 13.0701C90.6999 12.9571 90.5868 12.9571 90.3608 12.9571C90.1348 12.9571 89.9088 13.0701 89.7958 13.0701C89.5698 13.1831 89.4568 13.2961 89.3438 13.4091C89.2308 13.6351 89.1178 13.7481 89.0048 13.9741C88.8918 14.2001 88.8918 14.4261 88.8918 14.7651C88.8918 15.1041 89.0048 15.3302 89.0048 15.5562C89.1178 15.7822 89.2308 16.0082 89.3438 16.1212C89.4568 16.2342 89.6828 16.3472 89.7958 16.4602C90.0218 16.5732 90.1348 16.5732 90.3608 16.5732C90.5868 16.5732 90.8129 16.4602 90.9259 16.4602C91.1519 16.3472 91.2649 16.2342 91.3779 16.1212C91.4909 15.8952 91.6039 15.7822 91.7169 15.5562C91.8299 15.2171 91.8299 14.9911 91.8299 14.7651Z" fill="#767676"/>
<path d="M93.7539 17.1382V12.166H97.1441V12.9571H94.6579V17.1382H93.7539Z" fill="#767676"/>
<path d="M102.226 14.7651C102.226 15.1041 102.113 15.4432 102 15.7822C101.887 16.1212 101.661 16.3472 101.548 16.5732C101.322 16.7992 101.096 17.0252 100.757 17.1382C100.418 17.2512 100.079 17.3642 99.74 17.3642C99.288 17.3642 99.062 17.2512 98.723 17.1382C98.384 17.0252 98.158 16.7992 97.9319 16.5732C97.7059 16.3472 97.5929 16.1212 97.4799 15.7822C97.3669 15.4432 97.2539 15.1041 97.2539 14.7651C97.2539 14.3131 97.3669 14.0871 97.4799 13.7481C97.5929 13.4091 97.8189 13.1831 97.9319 12.9571C98.158 12.731 98.384 12.505 98.723 12.392C99.062 12.279 99.401 12.166 99.74 12.166C100.192 12.166 100.418 12.279 100.757 12.392C101.096 12.505 101.322 12.731 101.548 12.9571C101.774 13.1831 101.887 13.4091 102 13.7481C102.113 13.9741 102.226 14.3131 102.226 14.7651ZM101.322 14.7651C101.322 14.4261 101.209 14.2001 101.209 13.9741C101.096 13.7481 100.983 13.5221 100.87 13.4091C100.757 13.1831 100.531 13.1831 100.418 13.0701C100.192 12.9571 100.079 12.9571 99.853 12.9571C99.627 12.9571 99.401 13.0701 99.288 13.0701C99.062 13.1831 98.949 13.2961 98.836 13.4091C98.723 13.6351 98.61 13.7481 98.497 13.9741C98.384 14.2001 98.384 14.4261 98.384 14.7651C98.384 15.1041 98.497 15.3302 98.497 15.5562C98.61 15.7822 98.723 16.0082 98.836 16.1212C98.949 16.2342 99.175 16.3472 99.288 16.4602C99.514 16.5732 99.627 16.5732 99.853 16.5732C100.079 16.5732 100.305 16.4602 100.418 16.4602C100.644 16.3472 100.757 16.2342 100.87 16.1212C100.983 15.8952 101.096 15.7822 101.209 15.5562C101.209 15.2171 101.322 14.9911 101.322 14.7651Z" fill="#767676"/>
<path d="M51.8293 21.9971C51.6033 21.9971 51.3773 22.1101 51.1513 22.1101C50.9253 22.2231 50.6993 22.3361 50.5863 22.4491C50.3602 22.6751 50.2472 22.7881 50.2472 23.0141C50.1342 23.2401 50.1342 23.4662 50.1342 23.8052C50.1342 24.1442 50.2472 24.3702 50.2472 24.5962C50.3602 24.8222 50.4733 25.0482 50.5863 25.1612C50.6993 25.3872 50.9253 25.3872 51.1513 25.5002C51.3773 25.6132 51.6033 25.6132 51.8293 25.6132C52.0553 25.6132 52.1683 25.6132 52.3943 25.5002C52.6203 25.3872 52.7333 25.3872 52.9593 25.3872V26.1783C52.7333 26.2913 52.6203 26.2913 52.3943 26.2913C52.1683 26.2913 51.9423 26.4043 51.7163 26.4043C51.2643 26.4043 50.9253 26.2913 50.5863 26.1783C50.2472 26.0653 50.0212 25.8393 49.7952 25.6132C49.5692 25.3872 49.4562 25.1612 49.3432 24.8222C49.2302 24.4832 49.1172 24.1442 49.1172 23.8052C49.1172 23.4662 49.2302 23.1271 49.3432 22.7881C49.4562 22.4491 49.6822 22.2231 49.7952 21.9971C50.0212 21.7711 50.2472 21.5451 50.5863 21.4321C50.9253 21.3191 51.2643 21.2061 51.7163 21.2061C51.9423 21.2061 52.1683 21.2061 52.2813 21.3191C52.5073 21.4321 52.6203 21.4321 52.8464 21.4321V22.2231C52.6203 22.1101 52.3943 22.1101 52.2813 22.1101C52.0553 21.9971 51.9423 21.9971 51.8293 21.9971Z" fill="#767676"/>
<path d="M58.3824 23.9185C58.3824 24.2575 58.2694 24.5965 58.1564 24.9355C58.0434 25.2745 57.8173 25.5005 57.7043 25.7265C57.4783 25.9525 57.2523 26.1785 56.9133 26.2916C56.5743 26.4046 56.2353 26.5176 55.8963 26.5176C55.4442 26.5176 55.2182 26.4046 54.8792 26.2916C54.5402 26.1785 54.3142 25.9525 54.0882 25.7265C53.8622 25.5005 53.7492 25.2745 53.6362 24.9355C53.5232 24.5965 53.4102 24.2575 53.4102 23.9185C53.4102 23.5794 53.5232 23.2404 53.6362 22.9014C53.7492 22.5624 53.9752 22.3364 54.0882 22.1104C54.3142 21.8844 54.5402 21.6584 54.8792 21.5453C55.2182 21.4323 55.5572 21.3193 55.8963 21.3193C56.3483 21.3193 56.5743 21.4323 56.9133 21.5453C57.2523 21.6584 57.4783 21.8844 57.7043 22.1104C57.9303 22.3364 58.0434 22.5624 58.1564 22.9014C58.3824 23.1274 58.3824 23.4664 58.3824 23.9185ZM57.4783 23.9185C57.4783 23.5794 57.3653 23.3534 57.3653 23.1274C57.2523 22.9014 57.1393 22.6754 57.0263 22.5624C56.9133 22.3364 56.6873 22.3364 56.5743 22.2234C56.3483 22.1104 56.2353 22.1104 56.0093 22.1104C55.7832 22.1104 55.5572 22.2234 55.4442 22.2234C55.2182 22.3364 55.1052 22.4494 54.9922 22.5624C54.8792 22.7884 54.7662 22.9014 54.6532 23.1274C54.5402 23.3534 54.4272 23.5794 54.4272 23.9185C54.4272 24.2575 54.5402 24.4835 54.5402 24.7095C54.6532 24.9355 54.7662 25.1615 54.8792 25.2745C54.9922 25.3875 55.2182 25.5005 55.3312 25.6135C55.5572 25.7265 55.6703 25.7265 55.8963 25.7265C56.1223 25.7265 56.3483 25.6135 56.4613 25.6135C56.6873 25.5005 56.8003 25.3875 56.9133 25.2745C57.0263 25.1615 57.1393 24.9355 57.2523 24.7095C57.3653 24.3705 57.4783 24.1445 57.4783 23.9185Z" fill="#767676"/>
<path d="M65.8394 23.9182C65.8394 24.2572 65.7264 24.5962 65.6134 24.9352C65.5004 25.2742 65.3874 25.5002 65.1614 25.7263C64.9354 25.9523 64.7094 26.1783 64.3704 26.2913C64.0314 26.4043 63.6923 26.5173 63.3533 26.5173C63.0143 26.5173 62.6753 26.4043 62.4493 26.2913C62.1103 26.1783 61.8843 26.0653 61.7713 25.8393C61.5453 25.6132 61.4323 25.3872 61.3192 25.1612C61.2062 24.8222 61.0932 24.5962 61.0932 24.2572H60.1892V26.4043H59.2852V21.4321H60.1892V23.4662H61.0932C61.2062 23.1271 61.2062 22.9011 61.3192 22.5621C61.4323 22.2231 61.6583 22.1101 61.7713 21.8841C61.9973 21.6581 62.2233 21.5451 62.4493 21.4321C62.7883 21.3191 63.0143 21.2061 63.3533 21.2061C63.6923 21.2061 64.0314 21.3191 64.3704 21.4321C64.7094 21.5451 64.9354 21.7711 65.1614 21.9971C65.3874 22.2231 65.5004 22.4491 65.6134 22.7881C65.8394 23.1271 65.8394 23.4662 65.8394 23.9182ZM64.9354 23.9182C64.9354 23.5792 64.8224 23.3531 64.8224 23.1271C64.7094 22.9011 64.5964 22.6751 64.4834 22.5621C64.3704 22.3361 64.1444 22.3361 64.0314 22.2231C63.8054 22.1101 63.6923 22.1101 63.4663 22.1101C63.2403 22.1101 63.0143 22.2231 62.9013 22.2231C62.6753 22.3361 62.5623 22.4491 62.4493 22.5621C62.3363 22.7881 62.2233 22.9011 62.1103 23.1271C61.9973 23.3531 61.9973 23.5792 61.9973 23.9182C61.9973 24.2572 62.1103 24.4832 62.1103 24.7092C62.2233 24.9352 62.3363 25.1612 62.4493 25.2742C62.5623 25.5002 62.7883 25.5002 62.9013 25.6132C63.1273 25.7263 63.2403 25.7263 63.4663 25.7263C63.6923 25.7263 63.9184 25.6132 64.0314 25.6132C64.2574 25.5002 64.3704 25.3872 64.4834 25.2742C64.5964 25.1612 64.7094 24.9352 64.8224 24.7092C64.9354 24.3702 64.9354 24.1442 64.9354 23.9182Z" fill="#767676"/>
<path d="M66.7458 21.5451C67.1978 21.3191 67.7629 21.2061 68.3279 21.2061C68.6669 21.2061 68.8929 21.3191 69.1189 21.3191C69.3449 21.3191 69.5709 21.5451 69.6839 21.6581C69.91 21.7711 70.023 21.9971 70.023 22.1101C70.136 22.3361 70.136 22.4491 70.136 22.6751C70.136 22.7881 70.136 22.9011 70.023 23.0141C69.91 23.1271 69.9099 23.2401 69.9099 23.3532C69.7969 23.4662 69.7969 23.5792 69.6839 23.5792C69.5709 23.6922 69.4579 23.6922 69.3449 23.8052C69.5709 23.9182 69.7969 24.0312 69.9099 24.1442C70.136 24.3702 70.136 24.5962 70.136 24.8222C70.136 25.0482 70.023 25.2742 70.023 25.3872C70.023 25.5002 69.7969 25.7263 69.6839 25.8393C69.5709 25.9523 69.2319 26.0653 69.0059 26.1783C68.7799 26.2913 68.4409 26.2913 68.1019 26.2913C67.7629 26.2913 67.5368 26.1783 67.3108 26.1783C67.0848 26.0653 66.8588 26.0653 66.6328 25.9523V25.1612C66.8588 25.2742 67.0848 25.3872 67.3108 25.3872C67.5368 25.5002 67.7629 25.5002 68.1019 25.5002C68.3279 25.5002 68.4409 25.5002 68.6669 25.3872C68.8929 25.2742 69.0059 25.2742 69.0059 25.1612C69.1189 25.0482 69.2319 24.9352 69.2319 24.9352C69.3449 24.8222 69.3449 24.7092 69.3449 24.5962C69.3449 24.4832 69.3449 24.3702 69.2319 24.3702C69.1189 24.2572 69.1189 24.1442 69.0059 24.1442C68.8929 24.0312 68.7799 24.0312 68.6669 23.9182C68.5539 23.8052 68.4409 23.8052 68.2149 23.8052H67.4238V23.0141H68.2149C68.4409 23.0141 68.5539 23.0141 68.6669 22.9011C68.7799 22.7881 68.8929 22.7881 69.0059 22.7881C69.1189 22.6751 69.1189 22.6751 69.2319 22.5621C69.1189 22.6751 69.1189 22.4491 69.1189 22.3361C69.1189 22.1101 69.0059 21.9971 68.8929 21.8841C68.6669 21.7711 68.4409 21.6581 68.1019 21.6581C67.8759 21.6581 67.6499 21.6581 67.4238 21.7711C67.1978 21.8841 66.9718 21.8841 66.7458 21.9971V21.5451Z" fill="#767676"/>
<path d="M73.9764 25.0485H72.0553L71.6033 26.2916H70.6992L72.7333 21.3193H73.5243L75.5584 26.2916H74.6544L73.9764 25.0485ZM73.0723 22.5624C72.8463 23.1274 72.7333 23.4664 72.6203 23.8054L72.3943 24.2575H73.6374L73.4113 23.8054C73.4113 23.4664 73.2983 23.1274 73.0723 22.5624Z" fill="#767676"/>
<path d="M52.9599 31.8283C52.9599 32.0543 52.8469 32.2803 52.8469 32.3933C52.7339 32.6193 52.6209 32.7323 52.3949 32.8453C52.5079 32.9583 52.6209 32.9583 52.7339 33.0713C52.8469 33.1843 52.9599 33.1844 52.9599 33.2974C53.0729 33.4104 53.0729 33.5234 53.1859 33.6364C53.2989 33.7494 53.2989 33.8624 53.2989 33.9754C53.2989 34.0884 53.2989 34.2014 53.1859 34.4274C53.0729 34.5404 53.0729 34.7664 52.9599 34.8794C52.8469 34.9924 52.7339 35.1054 52.5079 35.2184C52.2819 35.3314 52.1689 35.4445 51.9429 35.4445C51.8299 35.4445 51.8299 35.4444 51.7169 35.5575C51.6039 35.5575 51.4908 35.5575 51.4908 35.6705C51.3778 35.6705 51.2648 35.6705 51.1518 35.6705C51.0388 35.6705 50.9258 35.6705 50.8128 35.6705H49.3438V30.6982H51.0388C51.3778 30.6982 51.7169 30.8112 51.9429 30.8112C52.1689 30.9243 52.2819 30.9243 52.3949 31.0373C52.5079 31.1503 52.6209 31.2633 52.7339 31.3763C52.8469 31.4893 52.8469 31.6023 52.9599 31.7153C52.9599 31.6023 52.9599 31.7153 52.9599 31.8283ZM51.0388 32.5063C51.2648 32.5063 51.4908 32.5063 51.6038 32.3933C51.7169 32.2803 51.8299 32.2803 51.9429 32.1673C52.0559 32.0543 52.0559 31.9413 52.0559 31.8283C52.0559 31.7153 51.9429 31.6023 51.9429 31.4893C51.8299 31.3763 51.7169 31.2633 51.6038 31.2633C51.4908 31.2633 51.4908 31.1503 51.3778 31.1503C51.2648 31.1503 51.1518 31.1503 51.0388 31.1503H50.2478V32.3933C50.1348 32.5063 51.0388 32.5063 51.0388 32.5063ZM50.2478 33.2974V34.6534H50.8128C51.0388 34.6534 51.1518 34.6534 51.2648 34.6534C51.3778 34.6534 51.4908 34.6534 51.6038 34.5404C51.7169 34.5404 51.8299 34.4274 51.9429 34.4274C52.0559 34.3144 52.1689 34.3144 52.1689 34.2014C52.2819 34.0884 52.2819 34.0884 52.2819 33.9754C52.2819 33.8624 52.3949 33.8624 52.3949 33.7494C52.3949 33.6364 52.2819 33.5234 52.2819 33.4104C52.2819 33.2974 52.0559 33.1844 51.9429 33.1844C51.8299 33.1844 51.7169 33.0713 51.7169 33.0713C51.6039 33.0713 51.4908 33.0713 51.3778 33.0713C51.1518 33.2974 50.2478 33.2974 50.2478 33.2974Z" fill="#767676"/>
<path d="M54.9936 30.4727V32.3937C55.2196 32.3937 55.3326 32.3937 55.5586 32.3937C55.7846 32.3937 55.8976 32.3937 56.0106 32.3937C56.2366 32.3937 56.3497 32.5067 56.4627 32.5067C56.6887 32.6197 56.9147 32.6198 57.0277 32.7328C57.2537 32.8458 57.3667 32.9588 57.4797 33.0718C57.5927 33.1848 57.7057 33.2978 57.7057 33.5238C57.7057 33.7498 57.8187 33.8628 57.8187 33.9758C57.8187 34.2018 57.8187 34.3148 57.7057 34.4278C57.5927 34.5408 57.5927 34.7668 57.4797 34.8799C57.3667 34.9929 57.2537 35.1059 57.0277 35.2189C56.8017 35.3319 56.6887 35.4449 56.4627 35.4449C56.2367 35.5579 56.1237 35.5579 55.8976 35.5579C55.6716 35.5579 55.4456 35.6709 55.2196 35.6709H53.9766V30.6987L54.9936 30.4727ZM54.9936 34.7668H55.4456C55.6716 34.7668 55.7846 34.7668 56.0106 34.7668C56.2366 34.7668 56.3497 34.6538 56.4627 34.6538C56.6887 34.5408 56.8017 34.5408 56.9147 34.4278C57.0277 34.3148 57.1407 34.2018 57.1407 33.9758C57.1407 33.7498 57.0277 33.6368 56.9147 33.5238C56.8017 33.4108 56.5757 33.2978 56.3497 33.2978C56.2367 33.2978 56.1236 33.1848 56.0106 33.1848C55.8976 33.1848 55.7846 33.1848 55.6716 33.1848C55.4456 33.1848 55.2196 33.1848 55.1066 33.2978V34.6538H54.9936V34.7668ZM58.3837 35.4449V30.4727H59.2878V35.4449H58.3837Z" fill="#767676"/>
<path d="M62.7902 31.2637C62.5642 31.2637 62.3382 31.3767 62.1122 31.3767C61.8862 31.4897 61.6602 31.6027 61.5472 31.7157C61.3212 31.9417 61.2082 32.0547 61.2082 32.2807C61.0952 32.5067 61.0952 32.7328 61.0952 33.0718C61.0952 33.4108 61.2082 33.6368 61.2082 33.8628C61.3212 34.0888 61.4342 34.3148 61.5472 34.4278C61.6602 34.6538 61.8862 34.6538 62.1122 34.7668C62.3382 34.8798 62.5642 34.8799 62.7902 34.8799C63.0162 34.8799 63.1293 34.8798 63.3553 34.7668C63.5813 34.6538 63.6943 34.6538 63.9203 34.6538V35.4449C63.6943 35.5579 63.5813 35.5579 63.3553 35.5579C63.1293 35.5579 62.9033 35.6709 62.6772 35.6709C62.2252 35.6709 61.8862 35.5579 61.5472 35.4449C61.2082 35.3319 60.9822 35.1059 60.7562 34.8799C60.5302 34.6538 60.4171 34.4278 60.3041 34.0888C60.1911 33.7498 60.0781 33.4108 60.0781 33.0718C60.0781 32.7328 60.1911 32.3937 60.3041 32.0547C60.4171 31.7157 60.6432 31.4897 60.7562 31.2637C60.9822 31.0377 61.2082 30.8117 61.5472 30.6987C61.8862 30.5857 62.2252 30.4727 62.6772 30.4727C62.9033 30.4727 63.1293 30.4727 63.2423 30.5857C63.4683 30.6987 63.5813 30.6987 63.8073 30.6987V31.4897C63.5813 31.3767 63.3553 31.3767 63.2423 31.3767C63.1293 31.2637 63.0162 31.2637 62.7902 31.2637Z" fill="#767676"/>
<path d="M66.8572 35.4449H65.9532V31.2637H64.3711V30.4727H68.4393V31.2637H66.8572V35.4449Z" fill="#767676"/>
<path d="M71.6053 34.2018H69.6842L69.2322 35.4449H68.3281L70.3622 30.4727H71.1532L73.1873 35.4449H72.2833L71.6053 34.2018ZM70.7012 31.7157C70.4752 32.2807 70.3622 32.6198 70.2492 32.9588L70.0232 33.4108H71.2662L71.0402 32.9588C71.0402 32.7328 70.8142 32.2807 70.7012 31.7157Z" fill="#767676"/>
<path d="M77.3662 31.8283C77.3662 32.0543 77.2531 32.2803 77.2531 32.3933C77.1401 32.6193 77.0271 32.7323 76.8011 32.8453C76.9141 32.9583 77.0271 32.9583 77.1401 33.0713C77.2532 33.1843 77.3662 33.1844 77.3662 33.2974C77.4792 33.4104 77.4792 33.5234 77.5922 33.6364C77.7052 33.7494 77.7052 33.8624 77.7052 33.9754C77.7052 34.0884 77.7052 34.2014 77.5922 34.4274C77.4792 34.5404 77.4792 34.7664 77.3662 34.8794C77.2531 34.9924 77.1401 35.1054 76.9141 35.2184C76.6881 35.3314 76.5751 35.4445 76.3491 35.4445C76.2361 35.4445 76.2361 35.4444 76.1231 35.5575C76.0101 35.5575 75.8971 35.5575 75.8971 35.6705C75.7841 35.6705 75.6711 35.6705 75.5581 35.6705C75.4451 35.6705 75.3321 35.6705 75.2191 35.6705H73.75V30.6982H75.4451C75.7841 30.6982 76.1231 30.8112 76.3491 30.8112C76.5751 30.9243 76.6881 30.9243 76.8011 31.0373C76.9141 31.1503 77.0271 31.2633 77.1401 31.3763C77.2532 31.4893 77.2531 31.6023 77.3662 31.7153C77.2531 31.6023 77.3662 31.7153 77.3662 31.8283ZM75.4451 32.5063C75.6711 32.5063 75.8971 32.5063 76.0101 32.3933C76.1231 32.2803 76.2361 32.2803 76.3491 32.1673C76.4621 32.0543 76.4621 31.9413 76.4621 31.8283C76.4621 31.7153 76.3491 31.6023 76.3491 31.4893C76.2361 31.3763 76.1231 31.2633 76.0101 31.2633C75.8971 31.2633 75.8971 31.1503 75.7841 31.1503C75.6711 31.1503 75.5581 31.1503 75.4451 31.1503H74.654V32.3933C74.541 32.5063 75.4451 32.5063 75.4451 32.5063ZM74.654 33.2974V34.6534H75.2191C75.4451 34.6534 75.5581 34.6534 75.6711 34.6534C75.7841 34.6534 75.8971 34.6534 76.0101 34.5404C76.1231 34.5404 76.2361 34.4274 76.3491 34.4274C76.4621 34.3144 76.5751 34.3144 76.5751 34.2014C76.6881 34.0884 76.6881 34.0884 76.6881 33.9754C76.6881 33.8624 76.8011 33.8624 76.8011 33.7494C76.8011 33.6364 76.6881 33.5234 76.6881 33.4104C76.5751 33.2974 76.4621 33.1844 76.3491 33.1844C76.2361 33.1844 76.1231 33.0713 76.1231 33.0713C76.0101 33.0713 75.8971 33.0713 75.7841 33.0713C75.5581 33.2974 74.654 33.2974 74.654 33.2974Z" fill="#767676"/>
<path d="M83.1285 33.0718C83.1285 33.4108 83.0155 33.7498 82.9025 34.0888C82.7894 34.4278 82.5634 34.6538 82.4504 34.8799C82.2244 35.1059 81.9984 35.3319 81.6594 35.4449C81.3204 35.5579 80.9814 35.6709 80.6424 35.6709C80.1903 35.6709 79.9643 35.5579 79.6253 35.4449C79.2863 35.3319 79.0603 35.1059 78.8343 34.8799C78.6083 34.6538 78.4953 34.4278 78.3823 34.0888C78.2693 33.7498 78.1562 33.4108 78.1562 33.0718C78.1562 32.7328 78.2693 32.3937 78.3823 32.0547C78.4953 31.7157 78.7213 31.4897 78.8343 31.2637C79.0603 31.0377 79.2863 30.8117 79.6253 30.6987C79.9643 30.5857 80.3033 30.4727 80.6424 30.4727C81.0944 30.4727 81.3204 30.5857 81.6594 30.6987C81.9984 30.8117 82.2244 31.0377 82.4504 31.2637C82.6765 31.4897 82.7894 31.7157 82.9025 32.0547C83.0155 32.2807 83.1285 32.6197 83.1285 33.0718ZM82.1114 33.0718C82.1114 32.7328 81.9984 32.5067 81.9984 32.2807C81.8854 32.0547 81.7724 31.8287 81.6594 31.7157C81.5464 31.4897 81.3204 31.4897 81.2074 31.3767C80.9814 31.2637 80.8684 31.2637 80.6424 31.2637C80.4163 31.2637 80.1903 31.3767 80.0773 31.3767C79.8513 31.4897 79.7383 31.6027 79.6253 31.7157C79.5123 31.9417 79.3993 32.0547 79.2863 32.2807C79.1733 32.5067 79.1733 32.7328 79.1733 33.0718C79.1733 33.4108 79.2863 33.6368 79.2863 33.8628C79.3993 34.0888 79.5123 34.3148 79.6253 34.4278C79.7383 34.5408 79.9643 34.6538 80.0773 34.7668C80.3033 34.8798 80.4163 34.8799 80.6424 34.8799C80.8684 34.8799 81.0944 34.7668 81.2074 34.7668C81.4334 34.6538 81.5464 34.5408 81.6594 34.4278C81.7724 34.2018 81.8854 34.0888 81.9984 33.8628C82.1114 33.5238 82.1114 33.2978 82.1114 33.0718Z" fill="#767676"/>
<path d="M84.0352 35.4449V30.4727H84.9392V32.7328L86.8603 30.4727H87.9903L85.9562 32.9588L88.2163 35.4449H87.0863L85.0522 33.1848V35.4449H84.0352Z" fill="#767676"/>
<path d="M52.7339 39.626H53.6379V44.5982H52.7339V42.3381C52.7339 41.9991 52.7339 41.5471 52.8469 40.982C52.6209 41.3211 52.3949 41.7731 51.9429 42.3381L50.2478 44.5982H49.3438V39.626H50.2478V41.8861C50.2478 42.2251 50.2478 42.6771 50.1348 43.2421C50.3608 43.0161 50.5868 42.5641 51.0388 41.9991L52.7339 39.626Z" fill="#767676"/>
<path d="M58.1549 42.6768L57.0249 44.5979H56.0078L57.2509 42.5638C56.9119 42.4508 56.6858 42.2248 56.5728 41.9988C56.3468 41.7728 56.3468 41.4338 56.3468 41.2078C56.3468 40.8688 56.4598 40.6427 56.5728 40.3037C56.7988 40.0777 57.0249 39.8517 57.3639 39.7387C57.4769 39.6257 57.5899 39.6257 57.8159 39.6257C58.0419 39.6257 58.1549 39.5127 58.3809 39.5127H60.189V44.4849H59.285V42.5638L58.1549 42.6768ZM59.059 40.4167H58.2679C58.1549 40.4167 58.0419 40.4167 57.9289 40.4167C57.8159 40.4167 57.7029 40.5297 57.7029 40.5297C57.4769 40.6427 57.3639 40.7558 57.3639 40.8688C57.2509 40.9818 57.2509 41.2078 57.2509 41.3208C57.2509 41.4338 57.2509 41.5468 57.2509 41.5468C57.2509 41.6598 57.3639 41.6598 57.3639 41.7728C57.3639 41.8858 57.4769 41.8858 57.5899 41.9988C57.7029 42.1118 57.8159 42.1118 57.8159 42.1118C57.9289 42.1118 57.9289 42.2248 58.0419 42.2248C58.1549 42.2248 58.2679 42.2248 58.3809 42.2248H59.172C59.0589 41.9988 59.059 40.4167 59.059 40.4167Z" fill="#767676"/>
<path d="M62.5631 42.6771C62.4501 42.6771 62.3371 42.6771 62.3371 42.6771C62.2241 42.6771 62.1111 42.6771 62.1111 42.6771V44.5982H61.207V39.626H62.5631C62.7891 39.626 63.0151 39.626 63.2411 39.739C63.4671 39.739 63.5801 39.852 63.6931 39.852C64.0322 39.965 64.2582 40.191 64.4842 40.304C64.7102 40.53 64.8232 40.869 64.8232 41.208C64.8232 41.4341 64.7102 41.6601 64.5972 41.8861C64.4842 42.1121 64.3712 42.2251 64.1452 42.3381C63.9192 42.4511 63.6931 42.5641 63.4671 42.6771C63.2411 42.6771 62.9021 42.6771 62.5631 42.6771ZM61.9981 41.8861C62.1111 41.8861 62.1111 41.8861 62.2241 41.8861C62.3371 41.8861 62.4501 41.8861 62.4501 41.8861C62.6761 41.8861 62.9021 41.8861 63.0151 41.7731C63.2411 41.6601 63.3541 41.6601 63.4671 41.5471C63.5801 41.4341 63.6931 41.3211 63.6931 41.3211C63.8061 41.208 63.8061 41.095 63.8061 40.982C63.8061 40.869 63.6931 40.643 63.6931 40.643C63.5801 40.53 63.4671 40.417 63.3541 40.417C63.2411 40.304 63.1281 40.304 63.0151 40.304C62.9021 40.304 62.6761 40.304 62.5631 40.304H61.9981V41.8861Z" fill="#767676"/>
<path d="M68.2127 43.2421C68.3257 42.7901 68.4387 42.4511 68.6647 41.9991L69.5687 39.626H70.8118V44.5982H69.9077V42.1121C69.9077 41.7731 69.9077 41.3211 70.0208 40.869H69.9077C69.7947 40.982 69.7947 41.208 69.6817 41.3211C69.5687 41.5471 69.5687 41.6601 69.4557 41.8861L68.4387 44.7112H67.9867L66.9696 41.8861C66.8566 41.6601 66.8566 41.5471 66.7436 41.3211C66.6306 41.095 66.6306 40.982 66.5176 40.869H66.4046C66.5176 41.3211 66.5176 41.7731 66.5176 42.1121V44.5982H65.7266V39.626H66.9696L67.8736 41.9991C67.9867 42.3381 68.0997 42.7901 68.2127 43.2421Z" fill="#767676"/>
<path d="M74.8823 43.2421H72.9612L72.5092 44.5982H71.4922L73.5263 39.626H74.3173L76.3514 44.5982H75.4474L74.8823 43.2421ZM73.8653 40.869C73.6393 41.4341 73.5263 41.7731 73.4133 42.1121L73.1873 42.5641H74.4303L74.2043 42.1121C74.2043 41.7731 74.0913 41.3211 73.8653 40.869Z" fill="#767676"/>
<path d="M78.3834 42.6771C78.2704 42.6771 78.1574 42.6771 78.1574 42.6771C78.0444 42.6771 77.9314 42.6771 77.9314 42.6771V44.5982H77.0273V39.626H78.3834C78.6094 39.626 78.8354 39.626 79.0614 39.739C79.2874 39.739 79.4004 39.852 79.5134 39.852C79.8525 39.965 80.0785 40.191 80.3045 40.304C80.5305 40.53 80.6435 40.869 80.6435 41.208C80.6435 41.4341 80.5305 41.6601 80.4175 41.8861C80.3045 42.1121 80.1915 42.2251 79.9655 42.3381C79.7395 42.4511 79.5135 42.5641 79.2874 42.6771C78.9484 42.6771 78.7224 42.6771 78.3834 42.6771ZM77.9314 41.8861C78.0444 41.8861 78.0444 41.8861 78.1574 41.8861C78.2704 41.8861 78.3834 41.8861 78.3834 41.8861C78.6094 41.8861 78.8354 41.8861 78.9484 41.7731C79.1744 41.6601 79.2874 41.6601 79.4005 41.5471C79.5135 41.4341 79.6265 41.3211 79.6265 41.3211C79.7395 41.208 79.7395 41.095 79.7395 40.982C79.7395 40.869 79.6265 40.643 79.6265 40.643C79.5135 40.53 79.4004 40.417 79.2874 40.417C79.1744 40.304 79.0614 40.304 78.9484 40.304C78.8354 40.304 78.6094 40.304 78.4964 40.304H77.9314V41.8861Z" fill="#767676"/>
<path d="M86.0699 42.1118C86.0699 42.4508 85.9569 42.7898 85.8439 43.1289C85.7309 43.4679 85.5048 43.6939 85.3918 43.9199C85.1658 44.1459 84.9398 44.3719 84.6008 44.4849C84.2618 44.5979 83.9228 44.7109 83.5838 44.7109C83.1317 44.7109 82.9057 44.5979 82.5667 44.4849C82.2277 44.3719 82.0017 44.1459 81.7757 43.9199C81.5497 43.6939 81.4367 43.4679 81.3237 43.1289C81.2107 42.7898 81.0977 42.4508 81.0977 42.1118C81.0977 41.7728 81.2107 41.4338 81.3237 41.0948C81.4367 40.7558 81.6627 40.5297 81.7757 40.3037C82.0017 40.0777 82.2277 39.8517 82.5667 39.7387C82.9057 39.6257 83.2447 39.5127 83.5838 39.5127C84.0358 39.5127 84.2618 39.6257 84.6008 39.7387C84.9398 39.8517 85.1658 40.0777 85.3918 40.3037C85.6178 40.5297 85.7309 40.7558 85.8439 41.0948C86.0699 41.3208 86.0699 41.6598 86.0699 42.1118ZM85.1658 42.1118C85.1658 41.7728 85.0528 41.5468 85.0528 41.3208C84.9398 41.0948 84.8268 40.8688 84.7138 40.7557C84.6008 40.5297 84.3748 40.5297 84.2618 40.4167C84.0358 40.3037 83.9228 40.3037 83.6968 40.3037C83.4707 40.3037 83.2447 40.4167 83.1317 40.4167C82.9057 40.5297 82.7927 40.6427 82.6797 40.7557C82.5667 40.9818 82.4537 41.0948 82.3407 41.3208C82.2277 41.5468 82.2277 41.7728 82.2277 42.1118C82.2277 42.4508 82.3407 42.6768 82.3407 42.9028C82.4537 43.1289 82.5667 43.3549 82.6797 43.4679C82.7927 43.6939 83.0187 43.6939 83.1317 43.8069C83.3577 43.9199 83.4707 43.9199 83.6968 43.9199C83.9228 43.9199 84.1488 43.8069 84.2618 43.8069C84.4878 43.6939 84.6008 43.5809 84.7138 43.4679C84.8268 43.2419 84.9398 43.1289 85.0528 42.9028C85.1658 42.6768 85.1658 42.4508 85.1658 42.1118Z" fill="#767676"/>
<path d="M87.0859 44.5982V39.626H87.99V41.8861L89.9111 39.626H91.0411L89.007 42.1121L91.2671 44.5982H90.1371L88.103 42.3381V44.5982H87.0859Z" fill="#767676"/>
</svg>
