<svg width="78" height="65" viewBox="0 0 78 65" fill="none" xmlns="http://www.w3.org/2000/svg">
<path d="M63.7359 31.991C64.8659 33.121 65.2049 34.7031 65.2049 36.7372V38.3193C65.2049 40.9184 65.2049 42.7264 63.7359 44.3085C62.6058 45.4386 61.2498 46.0036 59.5547 46.0036C57.8596 46.0036 56.5035 45.4386 55.3735 44.3085C54.1304 42.9525 53.9044 41.4834 53.7914 39.4493H51.4183V45.8906H48.3672V30.4089H51.4183V36.7372H53.7914C53.9044 34.4771 54.1304 33.234 55.2605 31.991C56.2775 30.8609 57.7466 30.2959 59.4417 30.2959C61.1367 30.2959 62.6058 30.8609 63.7359 31.991ZM62.1538 37.6412C62.1538 35.6071 62.0408 34.5901 61.3628 33.9121C60.9107 33.347 60.2327 33.121 59.4417 33.121C58.6506 33.121 57.9726 33.347 57.5206 33.9121C56.9556 34.5901 56.7296 35.8331 56.7296 37.7542V38.6583C56.7296 40.9184 56.9556 41.8224 57.5206 42.5004C57.9726 43.0655 58.6506 43.2915 59.4417 43.2915C60.2327 43.2915 60.9107 42.9525 61.3628 42.5004C62.0408 41.8224 62.1538 40.6924 62.1538 38.5453V37.6412Z" fill="#2D252F"/>
<path d="M66.5622 41.1444H69.5004C69.8394 42.3874 70.6304 43.2915 72.0995 43.2915C73.5685 43.2915 74.5856 42.5004 74.5856 41.2574C74.5856 39.9013 73.7945 39.2233 72.2125 39.2233H70.1784V36.7372H72.2125C73.5685 36.7372 74.3596 36.0592 74.3596 34.8161C74.3596 33.573 73.4555 32.895 72.0995 32.895C70.6304 32.895 69.7264 33.9121 69.5004 35.1551H66.4492C67.0142 31.991 69.2743 30.2959 72.0995 30.2959C75.1506 30.2959 77.2977 31.991 77.2977 34.5901C77.2977 36.0592 76.5067 37.3022 75.2636 37.8672C76.6197 38.4323 77.5237 39.6753 77.5237 41.3704C77.5237 44.1955 75.1506 46.0036 71.9865 46.0036C69.3873 46.0036 67.1273 44.3085 66.5622 41.1444Z" fill="#2D252F"/>
<path d="M39.2118 33.3473C39.6639 33.1213 40.1159 33.0083 40.5679 33.0083C41.3589 33.0083 42.037 33.2343 42.489 33.7993C42.828 34.2513 43.054 34.7034 43.167 35.7204L46.2182 37.5285V37.1895C46.2182 34.7034 45.7661 33.2343 44.6361 32.1043C43.506 30.9742 42.15 30.4092 40.4549 30.4092C38.8728 30.4092 37.5168 30.9742 36.3867 31.9912L39.2118 33.3473Z" fill="#2D252F"/>
<path d="M42.9402 37.7546C42.9402 40.8057 42.8272 41.5967 42.1492 42.2748C41.6972 42.8398 41.0191 43.0658 40.2281 43.0658C39.4371 43.0658 38.759 42.7268 38.307 42.2748C37.629 41.5967 37.516 40.1277 37.516 38.5456V37.7546C37.516 36.6245 37.516 35.6075 37.742 34.8164L35.0299 33.2344C34.6909 34.1384 34.4648 35.3815 34.4648 37.3026V38.5456C34.4648 40.2407 34.4648 42.5008 35.9339 44.0828C37.064 45.2129 38.42 45.7779 40.1151 45.7779C41.8102 45.7779 43.1662 45.2129 44.2963 44.0828C45.5393 42.7268 45.7653 41.1447 45.8783 39.4496L42.9402 37.7546Z" fill="#2D252F"/>
<path d="M15.0285 43.0663L12.3164 41.3712V20.2393L15.1415 21.8213L15.0285 43.0663Z" fill="#2D252F"/>
<path d="M10.8488 40.6929L8.13672 38.9979V17.7529L10.8488 19.335V40.6929Z" fill="#2D252F"/>
<path d="M6.77853 38.3192L4.06641 36.6241V15.4922L6.77853 17.0743V38.3192Z" fill="#2D252F"/>
<path d="M2.71212 36.0591L0 34.3641V13.1191L2.71212 14.7012V36.0591Z" fill="#2D252F"/>
<path d="M22.5977 0.915039L25.1968 2.2711L22.5977 0.915039Z" fill="#00B2AB"/>
<path d="M22.5996 0.915039L1.01562 11.5375L3.84075 13.1196L25.1987 2.2711L22.5996 0.915039Z" fill="#00B2AB"/>
<path d="M26.327 3.40137L5.08203 13.9108L7.90716 15.4929L28.9261 4.87043L26.327 3.40137Z" fill="#00B2AB"/>
<path d="M30.1713 5.8877L9.15234 16.1711L11.9775 17.7532L32.7704 7.35676L30.1713 5.8877Z" fill="#00B2AB"/>
<path d="M33.8989 8.37305L13.332 18.5435L16.1572 20.2386L36.6111 9.84211L33.8989 8.37305Z" fill="#00B2AB"/>
<path d="M25.0885 55.2702H22.9414V49.959H24.9755C25.9925 49.959 26.5576 50.524 26.5576 51.428C26.5576 51.9931 26.3316 52.3321 25.8795 52.5581C26.4446 52.7841 26.6706 53.2361 26.6706 53.8012C26.6706 54.7052 26.1055 55.2702 25.0885 55.2702ZM24.9755 50.637H23.7324V52.1061H24.9755C25.5405 52.1061 25.8795 51.8801 25.8795 51.315C25.8795 50.75 25.4275 50.637 24.9755 50.637ZM24.9755 52.8971H23.7324V54.4792H24.9755C25.5405 54.4792 25.8795 54.1402 25.8795 53.6881C25.8795 53.2361 25.5405 52.8971 24.9755 52.8971Z" fill="#2D252F"/>
<path d="M29.8349 55.2702H27.8008V49.959H28.5918V51.9931H29.8349C30.8519 51.9931 31.5299 52.6711 31.5299 53.5751C31.5299 54.5922 30.8519 55.2702 29.8349 55.2702ZM29.8349 52.7841H28.7048V54.5922H29.8349C30.3999 54.5922 30.7389 54.2532 30.7389 53.6881C30.7389 53.1231 30.3999 52.7841 29.8349 52.7841ZM32.208 55.2702V49.959H32.999V55.2702H32.208Z" fill="#2D252F"/>
<path d="M36.05 55.2699C35.485 55.2699 35.0329 55.0439 34.6939 54.7049C34.1289 54.1399 34.1289 53.5749 34.1289 52.5578C34.1289 51.5408 34.1289 50.9758 34.6939 50.4107C35.0329 50.0717 35.485 49.8457 36.05 49.8457C37.067 49.8457 37.7451 50.4107 37.9711 51.4278H37.18C37.067 50.8627 36.728 50.5237 36.163 50.5237C35.824 50.5237 35.598 50.6367 35.372 50.8627C35.1459 51.0888 35.0329 51.4278 35.0329 52.5578C35.0329 53.5749 35.1459 53.9139 35.372 54.2529C35.598 54.4789 35.824 54.5919 36.163 54.5919C36.728 54.5919 37.067 54.2529 37.293 53.6879H38.0841C37.7451 54.7049 37.067 55.2699 36.05 55.2699Z" fill="#2D252F"/>
<path d="M40.9085 50.637V55.1572H40.1175V50.637H38.6484V49.959H42.3776V50.637H40.9085Z" fill="#2D252F"/>
<path d="M45.9951 55.2702L45.6561 54.2532H43.509L43.1699 55.2702H42.3789L44.3 49.959H44.978L46.8991 55.2702H45.9951ZM44.526 51.202L43.735 53.5751H45.43L44.526 51.202Z" fill="#2D252F"/>
<path d="M49.8346 55.2702H47.6875V49.959H49.7216C50.7386 49.959 51.3037 50.524 51.3037 51.428C51.3037 51.9931 51.0776 52.3321 50.6256 52.5581C51.1907 52.7841 51.4167 53.2361 51.4167 53.8012C51.4167 54.7052 50.7386 55.2702 49.8346 55.2702ZM49.6086 50.637H48.3655V52.1061H49.6086C50.1736 52.1061 50.5126 51.8801 50.5126 51.315C50.5126 50.75 50.1736 50.637 49.6086 50.637ZM49.7216 52.8971H48.4785V54.4792H49.7216C50.2866 54.4792 50.6256 54.1402 50.6256 53.6881C50.6256 53.2361 50.2866 52.8971 49.7216 52.8971Z" fill="#2D252F"/>
<path d="M56.1625 52.6708C56.1625 53.5749 56.1625 54.2529 55.5975 54.7049C55.2584 55.0439 54.8064 55.2699 54.2414 55.2699C53.6764 55.2699 53.2244 55.0439 52.8853 54.7049C52.4333 54.1399 52.3203 53.4619 52.3203 52.6708V52.3318C52.3203 51.4278 52.4333 50.8627 52.8853 50.4107C53.2244 50.0717 53.6764 49.8457 54.2414 49.8457C54.8064 49.8457 55.2584 50.0717 55.5975 50.4107C56.0495 50.8627 56.1625 51.4278 56.1625 52.1058V52.6708ZM55.1454 50.9758C54.9194 50.7497 54.6934 50.6367 54.3544 50.6367C54.0154 50.6367 53.7894 50.7497 53.5634 50.9758C53.2244 51.3148 53.2244 51.7668 53.2244 52.4448V52.8968C53.2244 53.4619 53.2244 53.9139 53.5634 54.2529C53.7894 54.4789 54.0154 54.5919 54.3544 54.5919C54.6934 54.5919 54.9194 54.4789 55.1454 54.2529C55.4845 53.9139 55.4845 53.4619 55.4845 52.5578C55.3714 51.7668 55.3714 51.3148 55.1454 50.9758Z" fill="#2D252F"/>
<path d="M60.0048 55.2698V53.2357C59.6658 53.3487 59.1008 53.4617 58.5357 53.4617C57.8577 53.4617 57.1797 53.1227 57.1797 52.2187V50.1846H57.9707V52.1057C57.9707 52.6707 58.3097 52.8967 58.7618 52.8967C59.1008 52.8967 59.6658 52.7837 59.8918 52.7837V50.2976H60.6828V55.6088H60.0048V55.2698Z" fill="#2D252F"/>
<path d="M65.0905 55.2702V53.0101H62.9434V55.2702H62.1523V49.959H62.9434V52.2191H65.0905V49.959H65.8815V55.2702H65.0905Z" fill="#2D252F"/>
<path d="M69.2724 55.2702H67.2383V49.959H68.0293V51.9931H69.2724C70.2894 51.9931 70.9674 52.6711 70.9674 53.5751C70.9674 54.5922 70.2894 55.2702 69.2724 55.2702ZM69.1594 52.7841H68.0293V54.5922H69.1594C69.7244 54.5922 70.0634 54.2532 70.0634 53.6881C70.1764 53.1231 69.8374 52.7841 69.1594 52.7841ZM71.6455 55.2702V49.959H72.4365V55.2702H71.6455Z" fill="#2D252F"/>
<path d="M76.504 55.2702L75.3739 53.2361L74.2439 55.2702H73.3398L74.9219 52.5581L73.4528 49.959H74.3569L75.3739 51.8801L76.391 49.959H77.295L75.7129 52.5581L77.408 55.2702H76.504Z" fill="#2D252F"/>
<path d="M22.6016 61.3717H23.3926C23.5056 61.9368 23.8446 62.2758 24.4096 62.2758C24.9747 62.2758 25.4267 61.9368 25.4267 61.3717C25.4267 60.8067 25.0877 60.5807 24.5226 60.5807H23.8446V59.9027H24.5226C25.0877 59.9027 25.3137 59.5637 25.3137 59.1116C25.3137 58.6596 24.9747 58.3206 24.4096 58.3206C23.8446 58.3206 23.5056 58.6596 23.3926 59.2246H22.6016C22.8276 58.2076 23.5056 57.6426 24.5226 57.6426C25.5397 57.6426 26.2177 58.2076 26.2177 59.1116C26.2177 59.6767 25.9917 60.0157 25.5397 60.2417C26.1047 60.4677 26.3307 60.9197 26.3307 61.4847C26.3307 62.3888 25.5397 63.0668 24.5226 63.0668C23.5056 62.9538 22.8276 62.3888 22.6016 61.3717Z" fill="#2D252F"/>
<path d="M30.1748 62.9538L29.8357 61.9368H27.6886L27.3496 62.9538H26.5586L28.4797 57.6426H29.1577L31.0788 62.9538H30.1748ZM28.8187 58.8856L28.0277 61.2587H29.6097L28.8187 58.8856Z" fill="#2D252F"/>
<path d="M33.1125 62.9545C32.5475 62.9545 32.0954 62.7285 31.7564 62.3895C31.1914 61.8245 31.1914 61.2594 31.1914 60.2424C31.1914 59.2253 31.1914 58.6603 31.7564 58.0953C32.0954 57.7563 32.5475 57.5303 33.1125 57.5303C34.1295 57.5303 34.8076 58.0953 35.0336 59.1123H34.2425C34.1295 58.5473 33.7905 58.2083 33.2255 58.2083C32.8865 58.2083 32.6605 58.3213 32.4345 58.5473C32.2085 58.7733 32.0954 59.1123 32.0954 60.2424C32.0954 61.2594 32.2085 61.5985 32.4345 61.9375C32.6605 62.1635 32.8865 62.2765 33.2255 62.2765C33.7905 62.2765 34.1295 61.9375 34.2425 61.3724H35.0336C34.8076 62.3895 34.0165 62.9545 33.1125 62.9545Z" fill="#2D252F"/>
<path d="M37.5179 58.3206V62.8408H36.7269V58.3206H35.2578V57.6426H38.987V58.3206H37.5179Z" fill="#2D252F"/>
<path d="M41.5849 60.8074H40.3418V62.8415H39.5508V57.5303H41.5849C42.6019 57.5303 43.2799 58.2083 43.2799 59.1123C43.2799 60.2424 42.6019 60.8074 41.5849 60.8074ZM41.4719 58.3213H40.3418V60.1294H41.4719C42.0369 60.1294 42.3759 59.7904 42.3759 59.2253C42.4889 58.6603 42.0369 58.3213 41.4719 58.3213Z" fill="#2D252F"/>
<path d="M47.5765 60.3554C47.5765 61.2594 47.5765 61.9375 47.0115 62.3895C46.6725 62.7285 46.2205 62.9545 45.6555 62.9545C45.0904 62.9545 44.6384 62.7285 44.2994 62.3895C43.8474 61.8245 43.7344 61.1464 43.7344 60.3554V60.0164C43.7344 59.1123 43.8474 58.5473 44.2994 58.0953C44.6384 57.7563 45.0904 57.5303 45.6555 57.5303C46.2205 57.5303 46.6725 57.7563 47.0115 58.0953C47.4635 58.5473 47.5765 59.1123 47.5765 59.7904V60.3554ZM46.4465 58.6603C46.2205 58.4343 45.9945 58.3213 45.6555 58.3213C45.3164 58.3213 45.0904 58.4343 44.8644 58.6603C44.5254 58.9993 44.5254 59.4514 44.5254 60.1294V60.5814C44.5254 61.1464 44.5254 61.5985 44.8644 61.9375C45.0904 62.1635 45.3164 62.2765 45.6555 62.2765C45.9945 62.2765 46.2205 62.1635 46.4465 61.9375C46.7855 61.5985 46.7855 61.1464 46.7855 60.2424C46.7855 59.4514 46.7855 58.9993 46.4465 58.6603Z" fill="#2D252F"/>
<path d="M51.4183 62.9544V59.1122L49.0452 62.9544H48.3672V57.6432H49.1582V61.4853L51.5313 57.6432H52.2094V62.9544H51.4183ZM50.2883 57.3042C49.7232 57.3042 49.1582 57.0781 49.1582 56.2871H49.7232C49.7232 56.6261 49.9493 56.7391 50.2883 56.7391C50.6273 56.7391 50.8533 56.6261 50.8533 56.2871H51.4183C51.4183 57.0781 50.8533 57.3042 50.2883 57.3042Z" fill="#2D252F"/>
<path d="M58.9898 64.0846V62.8415H53.2266V57.5303H54.0176V62.0505H55.8257V57.5303H56.6167V62.0505H58.4248V57.5303H59.2158V62.0505H59.7809V63.9716H58.9898V64.0846Z" fill="#2D252F"/>
<path d="M63.5082 62.9538V59.1116L61.1351 62.9538H60.457V57.6426H61.2481V61.4847L63.6212 57.6426H64.2992V62.9538H63.5082Z" fill="#2D252F"/>
<path d="M65.2031 62.9538V57.6426H66.1072V60.1287L68.0282 57.6426H69.0453L67.0112 60.1287L69.2713 62.9538H68.2543L66.1072 60.1287V62.8408H65.2031V62.9538Z" fill="#2D252F"/>
<path d="M73.0023 60.3554C73.0023 61.2594 73.0023 61.9375 72.4373 62.3895C72.0983 62.7285 71.6463 62.9545 71.0812 62.9545C70.5162 62.9545 70.0642 62.7285 69.7252 62.3895C69.2732 61.8245 69.1602 61.1464 69.1602 60.3554V60.0164C69.1602 59.1123 69.2732 58.5473 69.7252 58.0953C70.0642 57.7563 70.5162 57.5303 71.0812 57.5303C71.6463 57.5303 72.0983 57.7563 72.4373 58.0953C72.8893 58.5473 73.0023 59.1123 73.0023 59.7904V60.3554ZM71.8723 58.6603C71.6463 58.4343 71.4203 58.3213 71.0812 58.3213C70.7422 58.3213 70.5162 58.4343 70.2902 58.6603C69.9512 58.9993 69.9512 59.4514 69.9512 60.1294V60.5814C69.9512 61.1464 69.9512 61.5985 70.2902 61.9375C70.5162 62.1635 70.7422 62.2765 71.0812 62.2765C71.4203 62.2765 71.6463 62.1635 71.8723 61.9375C72.2113 61.5985 72.2113 61.1464 72.2113 60.2424C72.0983 59.4514 72.0983 58.9993 71.8723 58.6603Z" fill="#2D252F"/>
<path d="M75.9401 62.9538H73.793V57.6426H75.8271C76.8441 57.6426 77.4091 58.2076 77.4091 59.1116C77.4091 59.6767 77.1831 60.0157 76.7311 60.2417C77.2961 60.4677 77.5221 60.9197 77.5221 61.4847C77.5221 62.3888 76.8441 62.9538 75.9401 62.9538ZM75.714 58.3206H74.584V59.7897H75.714C76.2791 59.7897 76.6181 59.5637 76.6181 58.9986C76.6181 58.4336 76.2791 58.3206 75.714 58.3206ZM75.8271 60.5807H74.584V62.1628H75.8271C76.3921 62.1628 76.7311 61.8238 76.7311 61.3717C76.6181 60.9197 76.3921 60.5807 75.8271 60.5807Z" fill="#2D252F"/>
<path d="M28.2497 46.0039C26.5546 46.0039 25.1985 45.4388 24.0685 44.3088C22.4864 42.7267 22.5994 40.8056 22.5994 38.2065C22.5994 35.6074 22.5994 33.5733 24.0685 32.1043C25.1985 30.9742 26.5546 30.4092 28.2497 30.4092C31.0748 30.4092 33.3349 32.1043 33.8999 35.2684H30.8488C30.5098 34.0253 29.7187 33.1213 28.2497 33.1213C27.4586 33.1213 26.7806 33.4603 26.3286 33.9123C25.7636 34.5904 25.5376 35.2684 25.5376 38.3195C25.5376 41.2577 25.7636 42.0487 26.3286 42.7267C26.7806 43.1787 27.4586 43.5178 28.2497 43.5178C29.7187 43.5178 30.5098 42.6137 30.8488 41.3707H33.8999C33.3349 44.3088 31.0748 46.0039 28.2497 46.0039Z" fill="#2D252F"/>
<path d="M62.6065 25.7764C62.4934 26.3414 62.1544 26.7934 61.5894 27.1325C61.0244 27.4715 60.4594 27.5845 59.6683 27.5845C59.1033 27.5845 58.7643 27.4715 58.3123 27.3585C57.9732 27.2455 57.6342 27.0194 57.4082 26.7934C57.1822 26.5674 56.9562 26.2284 56.8432 25.8894C56.7302 25.5504 56.6172 25.2114 56.6172 24.8724V21.5952C56.6172 21.2562 56.7302 20.9172 56.8432 20.5782C56.9562 20.2391 57.1822 20.0131 57.4082 19.7871C57.6342 19.5611 57.9732 19.3351 58.3123 19.2221C58.6513 19.1091 59.1033 18.9961 59.6683 18.9961C60.4594 18.9961 61.1374 19.2221 61.5894 19.5611C62.0414 19.9001 62.3804 20.3522 62.6065 20.9172L61.0244 21.3692C61.0244 21.2562 60.9114 21.1432 60.9114 21.0302C60.7984 20.9172 60.7984 20.8042 60.6854 20.6912C60.5724 20.5782 60.4594 20.5782 60.2333 20.4652C60.1203 20.3522 59.8943 20.3522 59.6683 20.3522C59.4423 20.3522 59.2163 20.3522 58.9903 20.4652C58.7643 20.5782 58.6513 20.5782 58.5383 20.8042C58.4253 20.9172 58.3123 21.0302 58.3123 21.2562C58.1993 21.3692 58.1993 21.5952 58.1993 21.7082V25.0984C58.1993 25.3244 58.1993 25.4374 58.3123 25.6634C58.3123 25.7764 58.4253 26.0024 58.5383 26.1154C58.6513 26.2284 58.7643 26.3414 58.9903 26.4544C59.2163 26.5674 59.3293 26.5674 59.5553 26.5674C59.8943 26.5674 60.2333 26.4544 60.4594 26.3414C60.6854 26.1154 60.9114 25.8894 60.9114 25.6634L62.6065 25.7764Z" fill="#767676"/>
<path d="M69.8369 21.7085C69.8369 22.0475 69.7239 22.3865 69.6109 22.7255C69.4979 23.0645 69.2719 23.2906 69.0459 23.5166C68.8199 23.7426 68.4809 23.9686 68.1418 24.0816C67.8028 24.1946 67.3508 24.3076 66.8988 24.3076H65.4297V27.5847H63.8477V19.1094H66.7858C67.2378 19.1094 67.6898 19.1094 68.0288 19.2224C68.3679 19.3354 68.7069 19.4484 68.9329 19.6744C69.1589 19.9004 69.3849 20.1264 69.4979 20.4654C69.8369 20.8045 69.8369 21.2565 69.8369 21.7085ZM68.2549 21.5955C68.2549 21.1435 68.1418 20.8044 67.9158 20.5784C67.6898 20.3524 67.3508 20.2394 66.7858 20.2394H65.4297V22.8385H66.7858C67.2378 22.8385 67.5768 22.7255 67.9158 22.4995C68.1418 22.3865 68.2549 22.0475 68.2549 21.5955Z" fill="#767676"/>
<path d="M77.1843 24.9849C77.1843 25.437 77.0713 25.776 76.9583 26.115C76.8453 26.454 76.6193 26.68 76.2803 26.906C76.0542 27.132 75.7152 27.358 75.3762 27.471C74.9242 27.584 74.5852 27.584 74.1332 27.584C73.5681 27.584 73.1161 27.471 72.7771 27.358C72.4381 27.245 72.0991 27.019 71.8731 26.793C71.6471 26.567 71.421 26.228 71.308 25.889C71.195 25.55 71.082 25.2109 71.082 24.8719V21.7078C71.082 21.3688 71.082 21.1428 71.195 20.8037C71.308 20.4647 71.534 20.2387 71.7601 20.0127C71.9861 19.7867 72.3251 19.5607 72.6641 19.4477C73.0031 19.3347 73.5681 19.2217 74.1332 19.2217C74.6982 19.2217 75.1502 19.3347 75.4892 19.4477C75.8282 19.5607 76.1673 19.7867 76.3933 20.0127C76.6193 20.2387 76.8453 20.5777 76.9583 20.8037C77.0713 21.0298 77.1843 21.4818 77.1843 21.7078V24.9849ZM75.4892 21.5948C75.4892 21.4818 75.4892 21.3688 75.3762 21.2558C75.3762 21.1428 75.2632 21.0298 75.1502 20.8037C75.0372 20.6907 74.9242 20.5777 74.6982 20.4647C74.4722 20.3517 74.2462 20.3517 74.0202 20.3517C73.7941 20.3517 73.5681 20.3517 73.3421 20.4647C73.1161 20.5777 73.0031 20.6907 72.8901 20.8037C72.7771 20.9168 72.6641 21.0298 72.6641 21.2558C72.6641 21.3688 72.5511 21.5948 72.5511 21.7078V24.9849C72.5511 25.437 72.6641 25.776 72.8901 26.002C73.1161 26.228 73.4551 26.454 74.0202 26.454C74.3592 26.454 74.6982 26.341 74.9242 26.115C75.1502 25.889 75.3762 25.55 75.3762 25.2109V21.5948H75.4892Z" fill="#767676"/>
<path d="M33.9023 12.8932V30.2959L36.6145 31.878V11.5371L33.9023 12.8932Z" fill="#767676"/>
<path d="M30.1719 28.1487L32.771 29.6177V13.458L30.1719 14.7011V28.1487Z" fill="#767676"/>
<path d="M26.332 26.0014L28.9311 27.4704V15.3789L26.332 16.622V26.0014Z" fill="#767676"/>
<path d="M22.6016 23.8548L25.2007 25.3239V17.1875L22.6016 18.5436V23.8548Z" fill="#767676"/>
</svg>
