<svg width="60" height="60" viewBox="0 0 60 60" fill="none" xmlns="http://www.w3.org/2000/svg">
<circle cx="30" cy="30" r="29.5" stroke="url(#paint0_linear_30487_3603)"/>
<path fill-rule="evenodd" clip-rule="evenodd" d="M20.3749 29.3184C25.7436 26.9193 29.3236 25.3377 31.1148 24.5735C36.2292 22.3917 37.2919 22.0126 37.9846 22.0001C38.1369 21.9974 38.4776 22.0361 38.6982 22.2197C38.8845 22.3748 38.9358 22.5843 38.9603 22.7313C38.9848 22.8783 39.0154 23.2132 38.9911 23.4749C38.714 26.4616 37.5147 33.7098 36.9046 37.055C36.6465 38.4705 36.1382 38.9451 35.6461 38.9916C34.5766 39.0925 33.7645 38.2667 32.7287 37.5702C31.1078 36.4805 30.1921 35.8021 28.6188 34.7387C26.8005 33.5097 27.9792 32.8343 29.0155 31.7304C29.2866 31.4415 33.9987 27.0455 34.0899 26.6467C34.1013 26.5968 34.1119 26.4109 34.0042 26.3127C33.8965 26.2146 33.7376 26.2481 33.6229 26.2748C33.4604 26.3127 30.871 28.0681 25.8549 31.541C25.1199 32.0587 24.4542 32.3109 23.8577 32.2977C23.2001 32.2831 21.9353 31.9163 20.995 31.6028C19.8417 31.2183 18.925 31.015 19.0048 30.362C19.0464 30.0218 19.5031 29.674 20.3749 29.3184Z" fill="url(#paint1_linear_30487_3603)"/>
<defs>
<linearGradient id="paint0_linear_30487_3603" x1="14.5" y1="4" x2="40" y2="60" gradientUnits="userSpaceOnUse">
<stop stop-color="#7F178D"/>
<stop offset="0.759615" stop-color="#EF8218"/>
<stop offset="0.985577" stop-color="#DCDE38"/>
</linearGradient>
<linearGradient id="paint1_linear_30487_3603" x1="21.8044" y1="24.4508" x2="35.2566" y2="40.2358" gradientUnits="userSpaceOnUse">
<stop stop-color="#7F178D"/>
<stop offset="0.759615" stop-color="#EF8218"/>
<stop offset="0.985577" stop-color="#DCDE38"/>
</linearGradient>
</defs>
</svg>
