<svg width="20" height="13" viewBox="0 0 20 13" fill="none" xmlns="http://www.w3.org/2000/svg">
<path d="M16.5964 7.05758C16.2731 6.62681 16.3656 6.43516 16.5964 6.05011C16.6006 6.04571 19.2698 2.15473 19.5448 0.835165L19.5465 0.834286C19.6832 0.353406 19.5465 0 18.8857 0H16.6989C16.1422 0 15.8856 0.303297 15.748 0.642637C15.748 0.642637 14.6347 3.45407 13.0596 5.27648C12.5513 5.80308 12.3163 5.97187 12.0388 5.97187C11.9021 5.97187 11.6896 5.80308 11.6896 5.3222V0.834286C11.6896 0.257582 11.5337 0 11.0729 0H7.63443C7.28525 0 7.07775 0.269011 7.07775 0.519561C7.07775 1.06637 7.86527 1.19209 7.94694 2.73055V6.06857C7.94694 6.8 7.8211 6.9345 7.54193 6.9345C6.79857 6.9345 4.99434 4.11165 3.92514 0.880879C3.7093 0.254066 3.49845 0.000879057 2.9376 0.000879057H0.750026C0.125838 0.000879057 0 0.304176 0 0.643516C0 1.24308 0.743359 4.22418 3.45679 8.16264C5.26518 10.851 7.81194 12.3077 10.1287 12.3077C11.5212 12.3077 11.6912 11.9842 11.6912 11.4277C11.6912 8.8589 11.5654 8.61626 12.2629 8.61626C12.5863 8.61626 13.143 8.78506 14.443 10.0818C15.9289 11.6193 16.1731 12.3077 17.0048 12.3077H19.1915C19.8149 12.3077 20.1307 11.9842 19.949 11.3459C19.5332 10.0035 16.7231 7.2422 16.5964 7.05758Z" fill="white"/>
</svg>
