<svg width="60" height="60" viewBox="0 0 60 60" fill="none" xmlns="http://www.w3.org/2000/svg">
<circle cx="30" cy="30" r="29.5" stroke="url(#paint0_linear_30515_2173)"/>
<path d="M36.5964 30.8811C36.2731 30.4611 36.3656 30.2743 36.5964 29.8989C36.6006 29.8946 39.2698 26.1009 39.5448 24.8143L39.5465 24.8134C39.6832 24.3446 39.5465 24 38.8857 24H36.6989C36.1422 24 35.8855 24.2957 35.748 24.6266C35.748 24.6266 34.6347 27.3677 33.0596 29.1446C32.5513 29.658 32.3163 29.8226 32.0388 29.8226C31.9021 29.8226 31.6896 29.658 31.6896 29.1891V24.8134C31.6896 24.2511 31.5337 24 31.0729 24H27.6344C27.2853 24 27.0777 24.2623 27.0777 24.5066C27.0777 25.0397 27.8653 25.1623 27.9469 26.6623V29.9169C27.9469 30.63 27.8211 30.7611 27.5419 30.7611C26.7986 30.7611 24.9943 28.0089 23.9251 24.8589C23.7093 24.2477 23.4985 24.0009 22.9376 24.0009H20.75C20.1258 24.0009 20 24.2966 20 24.6274C20 25.212 20.7434 28.1186 23.4568 31.9586C25.2652 34.5797 27.8119 36 30.1287 36C31.5212 36 31.6912 35.6846 31.6912 35.142C31.6912 32.6374 31.5654 32.4009 32.2629 32.4009C32.5863 32.4009 33.143 32.5654 34.443 33.8297C35.9289 35.3289 36.1731 36 37.0048 36H39.1915C39.8149 36 40.1307 35.6846 39.949 35.0623C39.5332 33.7534 36.7231 31.0611 36.5964 30.8811Z" fill="url(#paint1_linear_30515_2173)"/>
<defs>
<linearGradient id="paint0_linear_30515_2173" x1="20.5" y1="3.5" x2="41" y2="60" gradientUnits="userSpaceOnUse">
<stop stop-color="#7F178D"/>
<stop offset="0.759615" stop-color="#EF8218"/>
<stop offset="0.985577" stop-color="#DCDE38"/>
</linearGradient>
<linearGradient id="paint1_linear_30515_2173" x1="23.9286" y1="25.102" x2="37.1661" y2="38.2937" gradientUnits="userSpaceOnUse">
<stop stop-color="#7F178D"/>
<stop offset="0.759615" stop-color="#EF8218"/>
<stop offset="0.985577" stop-color="#DCDE38"/>
</linearGradient>
</defs>
</svg>
