<svg width="60" height="60" viewBox="0 0 60 60" fill="none" xmlns="http://www.w3.org/2000/svg">
<circle cx="30" cy="30" r="30" fill="#F5F5F7" fill-opacity="0.1"/>
<path d="M36.5964 31.0576C36.2731 30.6268 36.3656 30.4352 36.5964 30.0501C36.6006 30.0457 39.2698 26.1547 39.5448 24.8352L39.5465 24.8343C39.6832 24.3534 39.5465 24 38.8857 24H36.6989C36.1422 24 35.8856 24.3033 35.748 24.6426C35.748 24.6426 34.6347 27.4541 33.0596 29.2765C32.5513 29.8031 32.3163 29.9719 32.0388 29.9719C31.9021 29.9719 31.6896 29.8031 31.6896 29.3222V24.8343C31.6896 24.2576 31.5337 24 31.0729 24H27.6344C27.2853 24 27.0777 24.269 27.0777 24.5196C27.0777 25.0664 27.8653 25.1921 27.9469 26.7305V30.0686C27.9469 30.8 27.8211 30.9345 27.5419 30.9345C26.7986 30.9345 24.9943 28.1116 23.9251 24.8809C23.7093 24.2541 23.4985 24.0009 22.9376 24.0009H20.75C20.1258 24.0009 20 24.3042 20 24.6435C20 25.2431 20.7434 28.2242 23.4568 32.1626C25.2652 34.851 27.8119 36.3077 30.1287 36.3077C31.5212 36.3077 31.6912 35.9842 31.6912 35.4277C31.6912 32.8589 31.5654 32.6163 32.2629 32.6163C32.5863 32.6163 33.143 32.7851 34.443 34.0818C35.9289 35.6193 36.1731 36.3077 37.0048 36.3077H39.1915C39.8149 36.3077 40.1307 35.9842 39.949 35.3459C39.5332 34.0035 36.7231 31.2422 36.5964 31.0576Z" fill="white"/>
</svg>
