<svg width="58" height="58" viewBox="0 0 58 58" fill="none" xmlns="http://www.w3.org/2000/svg">
<rect width="58" height="58" rx="3" fill="url(#paint0_linear_30949_5356)"/>
<path d="M27.0494 35.0928C28.837 35.0928 30.5735 34.4963 31.9838 33.3977L37.3045 38.7191C37.7019 39.103 38.3353 39.092 38.7192 38.6945C39.0936 38.3067 39.0936 37.6919 38.7192 37.3042L33.3985 31.9828C36.1243 28.4734 35.4895 23.4186 31.9807 20.6924C28.472 17.9662 23.4179 18.6011 20.6922 22.1104C17.9664 25.6197 18.6011 30.6746 22.1099 33.4007C23.5225 34.4983 25.2606 35.0937 27.0494 35.0928ZM22.7743 22.7718C25.1354 20.4103 28.9635 20.4103 31.3246 22.7717C33.6857 25.1332 33.6858 28.9618 31.3247 31.3233C28.9636 33.6848 25.1355 33.6848 22.7744 31.3234L22.7743 31.3233C20.4132 28.9791 20.3993 25.1644 22.7432 22.8029L22.7743 22.7718Z" fill="white"/>
<defs>
<linearGradient id="paint0_linear_30949_5356" x1="-24.36" y1="-15.08" x2="20.8574" y2="-46.4048" gradientUnits="userSpaceOnUse">
<stop stop-color="#7F178D"/>
<stop offset="0.691958" stop-color="#EF8218"/>
<stop offset="1" stop-color="#DCDE38"/>
</linearGradient>
</defs>
</svg>
